<?xml version="1.0" standalone="no"?>
<!DOCTYPE svg PUBLIC "-//W3C//DTD SVG 1.1//EN" "http://www.w3.org/Graphics/SVG/1.1/DTD/svg11.dtd" >
<svg>
<metadata>
Created by FontForge 20090914 at Mon Feb  5 02:30:12 2018
 By www-data
</metadata>
<defs>
<font id="AvantGarde" horiz-adv-x="0" >
  <font-face 
    font-family="AvantGarde"
    font-weight="400"
    font-stretch="normal"
    units-per-em="1000"
    panose-1="0 0 4 0 0 0 0 0 0 0"
    ascent="800"
    descent="-200"
    x-height="547"
    cap-height="739"
    bbox="-600 -223.001 1151 1111.67"
    underline-thickness="58"
    underline-position="-67"
    unicode-range="U+0020-U+F02A"
  />
<missing-glyph horiz-adv-x="500" 
d="M63 0v825h375v-825h-375zM125 63h250v700h-250v-700z" />
    <glyph glyph-name=".notdef" horiz-adv-x="500" 
d="M63 0v825h375v-825h-375zM125 63h250v700h-250v-700z" />
    <glyph glyph-name="space" unicode=" " horiz-adv-x="277" 
 />
    <glyph glyph-name="space" unicode="&#x2031;" horiz-adv-x="277" 
 />
    <glyph glyph-name="space" unicode="&#x2025;" horiz-adv-x="277" 
 />
    <glyph glyph-name="space" unicode="&#x2024;" horiz-adv-x="277" 
 />
    <glyph glyph-name="space" unicode="&#x2023;" horiz-adv-x="277" 
 />
    <glyph glyph-name="space" unicode="&#x201f;" horiz-adv-x="277" 
 />
    <glyph glyph-name="space" unicode="&#x201b;" horiz-adv-x="277" 
 />
    <glyph glyph-name="space" unicode="&#x2017;" horiz-adv-x="277" 
 />
    <glyph glyph-name="space" unicode="&#x2016;" horiz-adv-x="277" 
 />
    <glyph glyph-name="space" unicode="&#x2015;" horiz-adv-x="277" 
 />
    <glyph glyph-name="exclam" unicode="!" horiz-adv-x="295" 
d="M111 0v126h74v-126h-74zM111 193v546h74v-546h-74z" />
    <glyph glyph-name="quotedbl" unicode="&#x22;" horiz-adv-x="309" 
d="M74 513v226h52v-226h-52zM185 513v226h52v-226h-52z" />
    <glyph glyph-name="numbersign" unicode="#" horiz-adv-x="554" 
d="M80 0l74 250h-149l16 58h150l36 123h-149l16 58h151l73 250h42l-72 -250h89l74 250h41l-73 -250h150l-16 -58h-151l-36 -123h150l-17 -58h-151l-73 -250h-43l74 250h-90l-74 -250h-42zM213 308h91l35 123h-90z" />
    <glyph glyph-name="dollar" unicode="$" horiz-adv-x="554" 
d="M245 -54l0.00292969 83.001c-46.667 8 -86.667 29.5 -120 64.5s-50 75.5 -50 121.5v12h70c-1.33301 -37.333 11 -69 37 -95s58 -39 96 -39c35.333 0 65.833 12.5 91.5 37.5s38.5 54.833 38.5 89.5c0 41.333 -13 73.666 -39 96.999c-20 18 -52 33 -96 45
c-59.333 16.667 -101.333 37.334 -126 62.001c-32.667 33.333 -49 75.333 -49 126c0 44.667 13.5 83 40.5 115s62.5 52 106.5 60v83h65v-83c47.333 -6.66699 85.833 -26.667 115.5 -60s45.167 -74 46.5 -122h-70c-0.666992 34 -12.334 62.167 -35.001 84.5
s-51.334 33.5 -86.001 33.5c-28.667 0 -53 -8.33301 -73 -25c-26 -21.333 -39 -51.666 -39 -90.999c0 -36 12 -63.333 36 -82c15.333 -12 43.333 -24 84 -36c63.333 -18.667 107.666 -40.334 132.999 -65.001c38 -36.667 57 -83.667 57 -141c0 -48 -16.333 -91.333 -49 -130
s-72.667 -59.334 -120 -62.001v-83h-65z" />
    <glyph glyph-name="percent" unicode="%" horiz-adv-x="775" 
d="M181 0l332 739h72l-332 -739h-72zM189 751c48.667 0 89.5 -17 122.5 -51s49.5 -75.333 49.5 -124c0 -47.333 -17.167 -88.333 -51.5 -123s-74.833 -52 -121.5 -52c-47.333 0 -88.333 17.5 -123 52.5s-52 76.5 -52 124.5c0 49.333 16.833 90.5 50.5 123.5
s75.5 49.5 125.5 49.5zM189 680c-30.667 0 -55.833 -9.66504 -75.5 -28.998s-29.5 -44 -29.5 -74c0 -28.667 10.167 -53.334 30.5 -74.001s44.5 -31 72.5 -31c29.333 0 53.833 10.667 73.5 32s29.5 47 29.5 77c0 27.333 -9.83301 50.666 -29.5 69.999s-43.5 29 -71.5 29z
M579.001 338.002c48.667 0 89.666 -17.667 122.999 -53s50 -77.333 50 -126c0 -47.333 -17.167 -87.833 -51.5 -121.5s-75.166 -50.5 -122.499 -50.5s-88.333 17 -123 51s-52 74.667 -52 122c0 49.333 17 91.333 51 126s75.667 52 125 52zM579 267.002
c-30.667 0 -55.833 -10.3311 -75.5 -30.998s-29.5 -46.334 -29.5 -77.001c0 -28 10.333 -51.833 31 -71.5s45 -29.5 73 -29.5c29.333 0 53.833 10.167 73.5 30.5s29.5 45.166 29.5 74.499c0 28 -10 52.333 -30 73s-44 31 -72 31z" />
    <glyph glyph-name="percent" unicode="&#x202f;" horiz-adv-x="775" 
d="M181 0l332 739h72l-332 -739h-72zM189 751c48.667 0 89.5 -17 122.5 -51s49.5 -75.333 49.5 -124c0 -47.333 -17.167 -88.333 -51.5 -123s-74.833 -52 -121.5 -52c-47.333 0 -88.333 17.5 -123 52.5s-52 76.5 -52 124.5c0 49.333 16.833 90.5 50.5 123.5
s75.5 49.5 125.5 49.5zM189 680c-30.667 0 -55.833 -9.66504 -75.5 -28.998s-29.5 -44 -29.5 -74c0 -28.667 10.167 -53.334 30.5 -74.001s44.5 -31 72.5 -31c29.333 0 53.833 10.667 73.5 32s29.5 47 29.5 77c0 27.333 -9.83301 50.666 -29.5 69.999s-43.5 29 -71.5 29z
M579.001 338.002c48.667 0 89.666 -17.667 122.999 -53s50 -77.333 50 -126c0 -47.333 -17.167 -87.833 -51.5 -121.5s-75.166 -50.5 -122.499 -50.5s-88.333 17 -123 51s-52 74.667 -52 122c0 49.333 17 91.333 51 126s75.667 52 125 52zM579 267.002
c-30.667 0 -55.833 -10.3311 -75.5 -30.998s-29.5 -46.334 -29.5 -77.001c0 -28 10.333 -51.833 31 -71.5s45 -29.5 73 -29.5c29.333 0 53.833 10.167 73.5 30.5s29.5 45.166 29.5 74.499c0 28 -10 52.333 -30 73s-44 31 -72 31z" />
    <glyph glyph-name="percent" unicode="&#x202e;" horiz-adv-x="775" 
d="M181 0l332 739h72l-332 -739h-72zM189 751c48.667 0 89.5 -17 122.5 -51s49.5 -75.333 49.5 -124c0 -47.333 -17.167 -88.333 -51.5 -123s-74.833 -52 -121.5 -52c-47.333 0 -88.333 17.5 -123 52.5s-52 76.5 -52 124.5c0 49.333 16.833 90.5 50.5 123.5
s75.5 49.5 125.5 49.5zM189 680c-30.667 0 -55.833 -9.66504 -75.5 -28.998s-29.5 -44 -29.5 -74c0 -28.667 10.167 -53.334 30.5 -74.001s44.5 -31 72.5 -31c29.333 0 53.833 10.667 73.5 32s29.5 47 29.5 77c0 27.333 -9.83301 50.666 -29.5 69.999s-43.5 29 -71.5 29z
M579.001 338.002c48.667 0 89.666 -17.667 122.999 -53s50 -77.333 50 -126c0 -47.333 -17.167 -87.833 -51.5 -121.5s-75.166 -50.5 -122.499 -50.5s-88.333 17 -123 51s-52 74.667 -52 122c0 49.333 17 91.333 51 126s75.667 52 125 52zM579 267.002
c-30.667 0 -55.833 -10.3311 -75.5 -30.998s-29.5 -46.334 -29.5 -77.001c0 -28 10.333 -51.833 31 -71.5s45 -29.5 73 -29.5c29.333 0 53.833 10.167 73.5 30.5s29.5 45.166 29.5 74.499c0 28 -10 52.333 -30 73s-44 31 -72 31z" />
    <glyph glyph-name="percent" unicode="&#x202d;" horiz-adv-x="775" 
d="M181 0l332 739h72l-332 -739h-72zM189 751c48.667 0 89.5 -17 122.5 -51s49.5 -75.333 49.5 -124c0 -47.333 -17.167 -88.333 -51.5 -123s-74.833 -52 -121.5 -52c-47.333 0 -88.333 17.5 -123 52.5s-52 76.5 -52 124.5c0 49.333 16.833 90.5 50.5 123.5
s75.5 49.5 125.5 49.5zM189 680c-30.667 0 -55.833 -9.66504 -75.5 -28.998s-29.5 -44 -29.5 -74c0 -28.667 10.167 -53.334 30.5 -74.001s44.5 -31 72.5 -31c29.333 0 53.833 10.667 73.5 32s29.5 47 29.5 77c0 27.333 -9.83301 50.666 -29.5 69.999s-43.5 29 -71.5 29z
M579.001 338.002c48.667 0 89.666 -17.667 122.999 -53s50 -77.333 50 -126c0 -47.333 -17.167 -87.833 -51.5 -121.5s-75.166 -50.5 -122.499 -50.5s-88.333 17 -123 51s-52 74.667 -52 122c0 49.333 17 91.333 51 126s75.667 52 125 52zM579 267.002
c-30.667 0 -55.833 -10.3311 -75.5 -30.998s-29.5 -46.334 -29.5 -77.001c0 -28 10.333 -51.833 31 -71.5s45 -29.5 73 -29.5c29.333 0 53.833 10.167 73.5 30.5s29.5 45.166 29.5 74.499c0 28 -10 52.333 -30 73s-44 31 -72 31z" />
    <glyph glyph-name="percent" unicode="&#x202c;" horiz-adv-x="775" 
d="M181 0l332 739h72l-332 -739h-72zM189 751c48.667 0 89.5 -17 122.5 -51s49.5 -75.333 49.5 -124c0 -47.333 -17.167 -88.333 -51.5 -123s-74.833 -52 -121.5 -52c-47.333 0 -88.333 17.5 -123 52.5s-52 76.5 -52 124.5c0 49.333 16.833 90.5 50.5 123.5
s75.5 49.5 125.5 49.5zM189 680c-30.667 0 -55.833 -9.66504 -75.5 -28.998s-29.5 -44 -29.5 -74c0 -28.667 10.167 -53.334 30.5 -74.001s44.5 -31 72.5 -31c29.333 0 53.833 10.667 73.5 32s29.5 47 29.5 77c0 27.333 -9.83301 50.666 -29.5 69.999s-43.5 29 -71.5 29z
M579.001 338.002c48.667 0 89.666 -17.667 122.999 -53s50 -77.333 50 -126c0 -47.333 -17.167 -87.833 -51.5 -121.5s-75.166 -50.5 -122.499 -50.5s-88.333 17 -123 51s-52 74.667 -52 122c0 49.333 17 91.333 51 126s75.667 52 125 52zM579 267.002
c-30.667 0 -55.833 -10.3311 -75.5 -30.998s-29.5 -46.334 -29.5 -77.001c0 -28 10.333 -51.833 31 -71.5s45 -29.5 73 -29.5c29.333 0 53.833 10.167 73.5 30.5s29.5 45.166 29.5 74.499c0 28 -10 52.333 -30 73s-44 31 -72 31z" />
    <glyph glyph-name="percent" unicode="&#x202b;" horiz-adv-x="775" 
d="M181 0l332 739h72l-332 -739h-72zM189 751c48.667 0 89.5 -17 122.5 -51s49.5 -75.333 49.5 -124c0 -47.333 -17.167 -88.333 -51.5 -123s-74.833 -52 -121.5 -52c-47.333 0 -88.333 17.5 -123 52.5s-52 76.5 -52 124.5c0 49.333 16.833 90.5 50.5 123.5
s75.5 49.5 125.5 49.5zM189 680c-30.667 0 -55.833 -9.66504 -75.5 -28.998s-29.5 -44 -29.5 -74c0 -28.667 10.167 -53.334 30.5 -74.001s44.5 -31 72.5 -31c29.333 0 53.833 10.667 73.5 32s29.5 47 29.5 77c0 27.333 -9.83301 50.666 -29.5 69.999s-43.5 29 -71.5 29z
M579.001 338.002c48.667 0 89.666 -17.667 122.999 -53s50 -77.333 50 -126c0 -47.333 -17.167 -87.833 -51.5 -121.5s-75.166 -50.5 -122.499 -50.5s-88.333 17 -123 51s-52 74.667 -52 122c0 49.333 17 91.333 51 126s75.667 52 125 52zM579 267.002
c-30.667 0 -55.833 -10.3311 -75.5 -30.998s-29.5 -46.334 -29.5 -77.001c0 -28 10.333 -51.833 31 -71.5s45 -29.5 73 -29.5c29.333 0 53.833 10.167 73.5 30.5s29.5 45.166 29.5 74.499c0 28 -10 52.333 -30 73s-44 31 -72 31z" />
    <glyph glyph-name="percent" unicode="&#x202a;" horiz-adv-x="775" 
d="M181 0l332 739h72l-332 -739h-72zM189 751c48.667 0 89.5 -17 122.5 -51s49.5 -75.333 49.5 -124c0 -47.333 -17.167 -88.333 -51.5 -123s-74.833 -52 -121.5 -52c-47.333 0 -88.333 17.5 -123 52.5s-52 76.5 -52 124.5c0 49.333 16.833 90.5 50.5 123.5
s75.5 49.5 125.5 49.5zM189 680c-30.667 0 -55.833 -9.66504 -75.5 -28.998s-29.5 -44 -29.5 -74c0 -28.667 10.167 -53.334 30.5 -74.001s44.5 -31 72.5 -31c29.333 0 53.833 10.667 73.5 32s29.5 47 29.5 77c0 27.333 -9.83301 50.666 -29.5 69.999s-43.5 29 -71.5 29z
M579.001 338.002c48.667 0 89.666 -17.667 122.999 -53s50 -77.333 50 -126c0 -47.333 -17.167 -87.833 -51.5 -121.5s-75.166 -50.5 -122.499 -50.5s-88.333 17 -123 51s-52 74.667 -52 122c0 49.333 17 91.333 51 126s75.667 52 125 52zM579 267.002
c-30.667 0 -55.833 -10.3311 -75.5 -30.998s-29.5 -46.334 -29.5 -77.001c0 -28 10.333 -51.833 31 -71.5s45 -29.5 73 -29.5c29.333 0 53.833 10.167 73.5 30.5s29.5 45.166 29.5 74.499c0 28 -10 52.333 -30 73s-44 31 -72 31z" />
    <glyph glyph-name="percent" unicode="&#x2029;" horiz-adv-x="775" 
d="M181 0l332 739h72l-332 -739h-72zM189 751c48.667 0 89.5 -17 122.5 -51s49.5 -75.333 49.5 -124c0 -47.333 -17.167 -88.333 -51.5 -123s-74.833 -52 -121.5 -52c-47.333 0 -88.333 17.5 -123 52.5s-52 76.5 -52 124.5c0 49.333 16.833 90.5 50.5 123.5
s75.5 49.5 125.5 49.5zM189 680c-30.667 0 -55.833 -9.66504 -75.5 -28.998s-29.5 -44 -29.5 -74c0 -28.667 10.167 -53.334 30.5 -74.001s44.5 -31 72.5 -31c29.333 0 53.833 10.667 73.5 32s29.5 47 29.5 77c0 27.333 -9.83301 50.666 -29.5 69.999s-43.5 29 -71.5 29z
M579.001 338.002c48.667 0 89.666 -17.667 122.999 -53s50 -77.333 50 -126c0 -47.333 -17.167 -87.833 -51.5 -121.5s-75.166 -50.5 -122.499 -50.5s-88.333 17 -123 51s-52 74.667 -52 122c0 49.333 17 91.333 51 126s75.667 52 125 52zM579 267.002
c-30.667 0 -55.833 -10.3311 -75.5 -30.998s-29.5 -46.334 -29.5 -77.001c0 -28 10.333 -51.833 31 -71.5s45 -29.5 73 -29.5c29.333 0 53.833 10.167 73.5 30.5s29.5 45.166 29.5 74.499c0 28 -10 52.333 -30 73s-44 31 -72 31z" />
    <glyph glyph-name="percent" unicode="&#x2028;" horiz-adv-x="775" 
d="M181 0l332 739h72l-332 -739h-72zM189 751c48.667 0 89.5 -17 122.5 -51s49.5 -75.333 49.5 -124c0 -47.333 -17.167 -88.333 -51.5 -123s-74.833 -52 -121.5 -52c-47.333 0 -88.333 17.5 -123 52.5s-52 76.5 -52 124.5c0 49.333 16.833 90.5 50.5 123.5
s75.5 49.5 125.5 49.5zM189 680c-30.667 0 -55.833 -9.66504 -75.5 -28.998s-29.5 -44 -29.5 -74c0 -28.667 10.167 -53.334 30.5 -74.001s44.5 -31 72.5 -31c29.333 0 53.833 10.667 73.5 32s29.5 47 29.5 77c0 27.333 -9.83301 50.666 -29.5 69.999s-43.5 29 -71.5 29z
M579.001 338.002c48.667 0 89.666 -17.667 122.999 -53s50 -77.333 50 -126c0 -47.333 -17.167 -87.833 -51.5 -121.5s-75.166 -50.5 -122.499 -50.5s-88.333 17 -123 51s-52 74.667 -52 122c0 49.333 17 91.333 51 126s75.667 52 125 52zM579 267.002
c-30.667 0 -55.833 -10.3311 -75.5 -30.998s-29.5 -46.334 -29.5 -77.001c0 -28 10.333 -51.833 31 -71.5s45 -29.5 73 -29.5c29.333 0 53.833 10.167 73.5 30.5s29.5 45.166 29.5 74.499c0 28 -10 52.333 -30 73s-44 31 -72 31z" />
    <glyph glyph-name="percent" unicode="&#x2027;" horiz-adv-x="775" 
d="M181 0l332 739h72l-332 -739h-72zM189 751c48.667 0 89.5 -17 122.5 -51s49.5 -75.333 49.5 -124c0 -47.333 -17.167 -88.333 -51.5 -123s-74.833 -52 -121.5 -52c-47.333 0 -88.333 17.5 -123 52.5s-52 76.5 -52 124.5c0 49.333 16.833 90.5 50.5 123.5
s75.5 49.5 125.5 49.5zM189 680c-30.667 0 -55.833 -9.66504 -75.5 -28.998s-29.5 -44 -29.5 -74c0 -28.667 10.167 -53.334 30.5 -74.001s44.5 -31 72.5 -31c29.333 0 53.833 10.667 73.5 32s29.5 47 29.5 77c0 27.333 -9.83301 50.666 -29.5 69.999s-43.5 29 -71.5 29z
M579.001 338.002c48.667 0 89.666 -17.667 122.999 -53s50 -77.333 50 -126c0 -47.333 -17.167 -87.833 -51.5 -121.5s-75.166 -50.5 -122.499 -50.5s-88.333 17 -123 51s-52 74.667 -52 122c0 49.333 17 91.333 51 126s75.667 52 125 52zM579 267.002
c-30.667 0 -55.833 -10.3311 -75.5 -30.998s-29.5 -46.334 -29.5 -77.001c0 -28 10.333 -51.833 31 -71.5s45 -29.5 73 -29.5c29.333 0 53.833 10.167 73.5 30.5s29.5 45.166 29.5 74.499c0 28 -10 52.333 -30 73s-44 31 -72 31z" />
    <glyph glyph-name="ampersand" unicode="&#x26;" horiz-adv-x="757" 
d="M602 480l83.001 0.000976562l-137 -261l187 -182l-53 -50l-169 165c-54.667 -110 -130.334 -165 -227.001 -165c-63.333 0 -117.333 22.333 -162 67s-67 98.667 -67 162c0 91.333 55.333 164.666 166 219.999c-52 52 -78 103.333 -78 154c0 44 17.667 81.833 53 113.5
s75.333 47.5 120 47.5c50 0 92.833 -16.833 128.5 -50.5s53.5 -75.167 53.5 -124.5c0 -74.667 -48.333 -130 -145 -166l140 -138zM280.001 379.001l-32.001 -17c-78 -41.333 -117 -92 -117 -152c0 -40 14.833 -75.333 44.5 -106s64.5 -46 104.5 -46
c42.667 0 79.334 15 110.001 45c21.333 21.333 44 55.333 68 102zM426 586.001c0 25.333 -10.834 47.332 -32.501 65.999s-45.5 28 -71.5 28c-28 0 -52.167 -8.83301 -72.5 -26.5s-30.5 -40.5 -30.5 -68.5c0 -21.333 9.33301 -43.666 28 -66.999
c8.66699 -10.667 26.334 -28.667 53.001 -54c84 29.333 126 70 126 122z" />
    <glyph glyph-name="quotesingle" unicode="'" horiz-adv-x="198" 
d="M74 513v226h50v-226h-50z" />
    <glyph glyph-name="parenleft" unicode="(" horiz-adv-x="369" 
d="M335 739v-65c-62 -35.333 -112 -88 -150 -158c-36 -67.333 -54 -138 -54 -212c0 -71.333 18.667 -141 56 -209c38 -70 87.333 -122.333 148 -157v-65c-68 18 -132.333 71.333 -193 160c-56.667 82.667 -85 173 -85 271s26.333 187.333 79 268
c60.667 93.333 127 149 199 167z" />
    <glyph glyph-name="parenright" unicode=")" horiz-adv-x="369" 
d="M34 -127l-0.000976562 64.999c61.333 34 111 86.333 149 157c36.667 67.333 55 137 55 209c0 74.667 -18 145.334 -54 212.001c-37.333 70 -87.333 122.667 -150 158v65c72.667 -20 139 -75.667 199 -167c52.667 -80 79 -169.333 79 -268s-28.333 -189 -85 -271
c-61.333 -88.667 -125.666 -142 -192.999 -160z" />
    <glyph glyph-name="asterisk" unicode="*" horiz-adv-x="425" 
d="M360 633v-51h-100l53 -88l-46 -28l-54 90l-52 -90l-48 28l54 88h-103v51h103l-54 90l48 28l52 -90l54 90l46 -28l-53 -90h100z" />
    <glyph glyph-name="plus" unicode="+" horiz-adv-x="606" 
d="M265 341v213h76v-213h214v-76h-214v-216h-76v216h-214v76h214z" />
    <glyph glyph-name="comma" unicode="," horiz-adv-x="277" 
d="M91 -67l88 193h74l-88 -193h-74z" />
    <glyph glyph-name="hyphen" unicode="-" horiz-adv-x="332" 
d="M31 334h271v-67h-271v67z" />
    <glyph glyph-name="period" unicode="." horiz-adv-x="277" 
d="M101 0v126h74v-126h-74z" />
    <glyph glyph-name="slash" unicode="/" horiz-adv-x="437" 
d="M40 -128l289 867h68l-291 -867h-66z" />
    <glyph glyph-name="zero" unicode="0" horiz-adv-x="554" 
d="M30 281v192c0 79.333 19.333 142.666 58 189.999c48 58.667 111.333 88 190 88c73.333 0 134 -26.333 182 -79c43.333 -48 65 -114.333 65 -199v-192c0 -44.667 -3 -80 -9 -106c-7.33301 -36.667 -22.333 -69 -45 -97c-48.667 -60.667 -113 -91 -193 -91
c-78.667 0 -142 28.667 -190 86c-24 28.667 -40.333 61.334 -49 98.001c-6 27.333 -9 64 -9 110zM451 293l-0.000976562 163.002c0 69.333 -10.667 119.666 -32 150.999c-14.667 22 -35 39.667 -61 53s-52.667 20 -80 20c-29.333 0 -58.166 -7.66699 -86.499 -23
s-49.166 -35.666 -62.499 -60.999c-16.667 -30.667 -25 -77.334 -25 -140.001v-163c0 -78.667 10.667 -133.334 32 -164.001c33.333 -47.333 80.666 -71 141.999 -71c66.667 0 116 27.333 148 82c16.667 28.667 25 79.667 25 153z" />
    <glyph glyph-name="one" unicode="1" horiz-adv-x="554" 
d="M280 0v672h-125v67h199v-739h-74z" />
    <glyph glyph-name="two" unicode="2" horiz-adv-x="554" 
d="M33 0l0.00195312 66l282 272c37.333 36 63.333 64 78 84c26 35.333 39 70 39 104c0 44 -16 80.667 -48 110s-70 44 -114 44c-32 0 -61.833 -9.33301 -89.5 -28s-46.834 -42.667 -57.501 -72c-7.33301 -22 -10.666 -48.667 -9.99902 -80h-74
c-3.33301 71.333 17.5 131 62.5 179s103.167 72 174.5 72c63.333 0 116.666 -21.667 159.999 -65c46.667 -46.667 70 -99.667 70 -159c0 -48.667 -14.667 -94 -44 -136c-16.667 -24.667 -49.334 -60 -98.001 -106l-229 -218h367v-67h-469z" />
    <glyph glyph-name="three" unicode="3" horiz-adv-x="554" 
d="M157 555l-74 0.000976562c0 55.333 17.5 101.833 52.5 139.5s80.5 56.5 136.5 56.5c52 0 95.667 -18.5 131 -55.5s53 -81.5 53 -133.5c0 -53.333 -25.333 -99.666 -76 -138.999c37.333 -16.667 67.333 -43.5 90 -80.5s34 -76.167 34 -117.5
c0 -66 -23.167 -122.167 -69.5 -168.5s-102.5 -69.5 -168.5 -69.5s-121.667 24.167 -167 72.5s-67.333 105.5 -66 171.5h74c2.66699 -41.333 11 -73 25 -95c33.333 -52 77.333 -78 132 -78c46.667 0 86 16.167 118 48.5s48 71.5 48 117.5c0 34.667 -10.333 66.167 -31 94.5
s-47 48.166 -79 59.499c-14.667 5.33301 -48 8.66602 -100 9.99902v66l25 -2c38 -3.33301 69.667 5 95 25c28 22 42 52.333 42 91c0 32.667 -11.167 59.5 -33.5 80.5s-49.833 31.5 -82.5 31.5s-59 -12.333 -79 -37s-30 -54 -30 -88z" />
    <glyph glyph-name="four" unicode="4" horiz-adv-x="554" 
d="M386 0v135h-374v67l358 537h90v-537h67v-67h-67v-135h-74zM386 202v435l-287 -435h287z" />
    <glyph glyph-name="five" unicode="5" horiz-adv-x="554" 
d="M66 375l67.0029 363.999h334v-67h-274l-37 -204c40 23.333 81.667 35 125 35c69.333 0 127.833 -25.5 175.5 -76.5s71.5 -111.167 71.5 -180.5c0 -70.667 -23.833 -131.5 -71.5 -182.5s-106.5 -76.5 -176.5 -76.5c-68.667 0 -127.334 24 -176.001 72
c-46.667 46 -72.667 103.667 -78 173h74c3.33301 -48 21.5 -89 54.5 -123s73.5 -51 121.5 -51c50.667 0 93 18.333 127 55s51 80.334 51 131.001s-16.833 94.667 -50.5 132s-75.834 56 -126.501 56c-58.667 0 -109.334 -26 -152.001 -78z" />
    <glyph glyph-name="six" unicode="6" horiz-adv-x="554" 
d="M295 739l86.001 0.00195312l-175 -260c25.333 15.333 54.666 23 87.999 23c65.333 0 121.333 -26.667 168 -80c44.667 -52 67 -111 67 -177c0 -68.667 -24.167 -128.834 -72.5 -180.501s-108.833 -77.5 -181.5 -77.5c-68.667 0 -127.5 25.5 -176.5 76.5
s-73.5 111.167 -73.5 180.5c0 43.333 9.33301 84.666 28 123.999c10 20.667 32.333 57 67 109zM276.001 431.002c-49.333 0 -91.167 -17.833 -125.5 -53.5s-51.5 -78.5 -51.5 -128.5c0 -52 16.667 -96.333 50 -133c34 -38.667 76.333 -58 127 -58
c49.333 0 91.5 18.333 126.5 55s52.5 80 52.5 130c0 50.667 -17.167 94.667 -51.5 132s-76.833 56 -127.5 56z" />
    <glyph glyph-name="seven" unicode="7" horiz-adv-x="554" 
d="M108 0l304 672h-348v67h426v-67l-302 -672h-80z" />
    <glyph glyph-name="eight" unicode="8" horiz-adv-x="554" 
d="M167 413c-57.333 28 -86 77.335 -86 148.002c0 55.333 19.333 100.833 58 136.5s85.667 53.5 141 53.5c54 0 99.667 -19 137 -57s56 -84 56 -138c0 -30.667 -7.83301 -59.167 -23.5 -85.5s-37.167 -45.5 -64.5 -57.5c38 -16.667 68.667 -43 92 -79s35 -74.667 35 -116
c0 -64.667 -23.5 -119.334 -70.5 -164.001s-102.833 -67 -167.5 -67c-63.333 0 -117.833 22.5 -163.5 67.5s-68.5 99.167 -68.5 162.5c0 40.667 11.667 80.167 35 118.5s53.333 64.166 90 77.499zM275 373.002c-44.667 0 -82.333 -15.5 -113 -46.5s-46 -68.833 -46 -113.5
c0 -43.333 15.5 -80 46.5 -110s68.167 -45 111.5 -45c46 0 84.833 15.333 116.5 46s47.5 68.667 47.5 114c0 44 -16 80.833 -48 110.5s-70.333 44.5 -115 44.5zM280.001 680.002c-33.333 0 -62.5 -10.833 -87.5 -32.5s-37.5 -49.167 -37.5 -82.5
c0 -34.667 12 -63.5 36 -86.5s53.333 -34.5 88 -34.5c32 0 60 11.667 84 35s36 51 36 83c0 32.667 -11.667 60.5 -35 83.5s-51.333 34.5 -84 34.5z" />
    <glyph glyph-name="nine" unicode="9" horiz-adv-x="554" 
d="M259 0l-86 -0.00195312l175 259c-25.333 -15.333 -55 -23 -89 -23c-65.333 0 -121 27 -167 81c-44.667 51.333 -67 110 -67 176c0 68.667 24.167 128.834 72.5 180.501s108.833 77.5 181.5 77.5c68.667 0 127.5 -25.333 176.5 -76s73.5 -110.667 73.5 -180
c0 -43.333 -9.33301 -84.666 -28 -123.999c-10 -20.667 -32.333 -57 -67 -109zM99 495.998c0 -50 18.335 -94.168 55.002 -132.501s78 -56.166 124 -53.499c49.333 -2.66699 91.166 14 125.499 50s51.5 79 51.5 129c0 52 -16.333 96.333 -49 133
c-34.667 38.667 -77.334 58 -128.001 58c-49.333 0 -91.5 -18.333 -126.5 -55s-52.5 -79.667 -52.5 -129z" />
    <glyph glyph-name="colon" unicode=":" horiz-adv-x="277" 
d="M101 0v126h74v-126h-74zM101 384v126h74v-126h-74z" />
    <glyph glyph-name="semicolon" unicode=";" horiz-adv-x="277" 
d="M41 -67l88 193h74l-88 -193h-74zM129 384v126h74v-126h-74z" />
    <glyph glyph-name="less" unicode="&#x3c;" horiz-adv-x="606" 
d="M144 301l414 -191v-73l-509 232v64l509 232v-73z" />
    <glyph glyph-name="equal" unicode="=" horiz-adv-x="606" 
d="M555 436v-75h-504v75h504zM555 241v-75h-504v75h504z" />
    <glyph glyph-name="greater" unicode="&#x3e;" horiz-adv-x="606" 
d="M48 110l414 191l-414 191v73l509 -232v-64l-509 -232v73z" />
    <glyph glyph-name="question" unicode="?" horiz-adv-x="591" 
d="M264 0v126h74v-126h-74zM136 508l-71 0.00195312v21c0 59.333 22.833 111.166 68.5 155.499s101.834 66.5 168.501 66.5c64 0 117.167 -21.5 159.5 -64.5s63.5 -96.5 63.5 -160.5c0 -42 -16 -82 -48 -120l-89 -93c-32.667 -38 -49.334 -78 -50.001 -120h-74
c-2.66699 69.333 32 136.666 104 201.999c29.333 26.667 48.666 46.667 57.999 60c16.667 24 25 50.333 25 79c0 41.333 -15.667 76 -47 104s-67.666 42 -108.999 42c-45.333 0 -84 -17.333 -116 -52s-46.333 -74.667 -43 -120z" />
    <glyph glyph-name="at" unicode="@" horiz-adv-x="867" 
d="M720 175l59.998 0.99707c-31.333 -58 -77 -103.833 -137 -137.5s-123.333 -50.5 -190 -50.5c-107.333 0 -197.833 37.333 -271.5 112s-110.5 165.667 -110.5 273c0 104.667 37.5 194 112.5 268s165.167 111 270.5 111c91.333 0 170.333 -29 237 -87
c70.667 -61.333 106 -138.666 106 -231.999c0 -67.333 -19.667 -128.666 -59 -183.999c-52 -73.333 -110.667 -110 -176 -110c-46.667 0 -75.667 17.667 -87 53c-32 -34 -72 -51 -120 -51c-42 0 -75.833 14.667 -101.5 44s-38.5 65 -38.5 107c0 73.333 23 141.333 69 204
c50 68 110.333 102 181 102c55.333 0 93 -22.333 113 -67l15 47h68l-102 -305c-8.66699 -26 -13 -43.333 -13 -52c0 -19.333 10 -29 30 -29c20.667 0 43.334 9 68.001 27c20.667 15.333 38.334 33.333 53.001 54c34 48 51 102.667 51 164c0 78.667 -30.333 143.667 -91 195
c-57.333 47.333 -126 71 -206 71c-92 0 -169.833 -33.167 -233.5 -99.5s-95.5 -145.5 -95.5 -237.5c0 -90.667 32.5 -168.167 97.5 -232.5s142.833 -96.5 233.5 -96.5c52 0 102 12.333 150 37s87 58.334 117 101.001zM369.998 204.997c46 0 84.332 29.668 114.999 89.001
c34.667 68 52 125 52 171c0 20 -6.66699 37.167 -20 51.5s-30 21.5 -50 21.5c-49.333 0 -92 -28.667 -128 -86c-31.333 -50.667 -47 -102.334 -47 -155.001c0 -25.333 6.83301 -47 20.5 -65s32.834 -27 57.501 -27z" />
    <glyph glyph-name="A" unicode="A" horiz-adv-x="740" 
d="M11 0l319 739h82l317 -739h-80l-107 248h-344l-107 -248h-80zM227 315h286l-142 339z" />
    <glyph glyph-name="B" unicode="B" horiz-adv-x="574" 
d="M76 0l-0.000976562 739h173c74 0 130 -12.333 168 -37c58 -38 87 -91 87 -159c0 -60 -27.333 -109.333 -82 -148c81.333 -33.333 122 -95.333 122 -186c0 -34 -8.16699 -66.167 -24.5 -96.5s-38.666 -54.5 -66.999 -72.5s-60.833 -29.667 -97.5 -35
c-21.333 -3.33301 -56.333 -5 -105 -5h-174zM149.999 67h91c75.333 0 127.333 7.33301 156 22c20.667 10.667 37.834 27.334 51.501 50.001s20.5 45.667 20.5 69c0 67.333 -30.667 111.666 -92 132.999c-28.667 10 -78.334 15 -149.001 15h-78v-289zM149.999 423
l80 0.000976562c66 0 112.667 7.33301 140 22c18 9.33301 32.5 23.666 43.5 42.999s16.5 39.333 16.5 60c0 44 -19.667 78 -59 102c-24 14.667 -69 22 -135 22h-86v-249z" />
    <glyph glyph-name="C" unicode="C" horiz-adv-x="813" 
d="M767 549l-82.001 -0.000976562c-26.667 40.667 -63.667 72.667 -111 96s-96.333 35 -147 35c-83.333 0 -155.666 -31 -216.999 -93s-92 -133.667 -92 -215c0 -86 31.167 -159.833 93.5 -221.5s135.833 -92.5 220.5 -92.5c49.333 0 97 12.333 143 37
s83.667 57.334 113 98.001h82c-32 -61.333 -79 -111 -141 -149s-127.667 -57 -197 -57c-108.667 0 -200.5 37 -275.5 111s-112.5 165.333 -112.5 274c0 104.667 37.333 194 112 268s164.667 111 270 111c78.667 0 149.667 -20.667 213 -62c67.333 -44 110 -90.667 128 -140z
" />
    <glyph glyph-name="D" unicode="D" horiz-adv-x="744" 
d="M76 0v738.999h199c122.667 0 219.334 -28.667 290.001 -86c42 -34 75 -76.167 99 -126.5s36 -102.166 36 -155.499c0 -109.333 -40.333 -201 -121 -275c-40.667 -37.333 -87.334 -63.333 -140.001 -78c-42 -12 -95 -18 -159 -18h-204zM150 66.999l95 0.000976562
c60.667 0 107 3.33301 139 10c48 9.33301 90.667 28.666 128 57.999c76 60 114 138.667 114 236c0 96 -38.333 174 -115 234c-36.667 28.667 -79 47.667 -127 57c-32 6.66699 -78.333 10 -139 10h-95v-605z" />
    <glyph glyph-name="E" unicode="E" horiz-adv-x="536" 
d="M76 0v739h404v-67h-330v-266h319v-67h-319v-272h330v-67h-404z" />
    <glyph glyph-name="F" unicode="F" horiz-adv-x="485" 
d="M76 0v739h375v-67h-301v-267h290v-67h-290v-338h-74z" />
    <glyph glyph-name="G" unicode="G" horiz-adv-x="872" 
d="M329 341l502.002 0.000976562c-6.66699 -100 -48.334 -184 -125.001 -252s-165.334 -102 -266.001 -102c-107.333 0 -200.166 37.5 -278.499 112.5s-117.5 166.167 -117.5 273.5c0 102 38.167 190.5 114.5 265.5s170.166 112.5 281.499 112.5
c81.333 0 153.666 -21 216.999 -63c68.667 -45.333 111.667 -94 129 -146h-84c-25.333 42.667 -62.166 76.334 -110.499 101.001s-98.833 37 -151.5 37c-86.667 0 -160 -27.667 -220 -83c-68 -62.667 -102 -137.667 -102 -225c0 -88.667 32.333 -163.334 97 -224.001
c62.667 -60 138.667 -90 228 -90c67.333 0 129.5 20.167 186.5 60.5s94.5 92.166 112.5 155.499h-413v67z" />
    <glyph glyph-name="H" unicode="H" horiz-adv-x="683" 
d="M76 0v739h74v-325h383v325h74v-739h-74v347h-383v-347h-74z" />
    <glyph glyph-name="I" unicode="I" horiz-adv-x="226" 
d="M76 0v739h74v-739h-74z" />
    <glyph glyph-name="J" unicode="J" horiz-adv-x="482" 
d="M406 739l-0.000976562 -531c0 -35.333 -1.66699 -61.333 -5 -78c-6 -24.667 -17.667 -48 -35 -70c-39.333 -48.667 -92 -73 -158 -73c-54 0 -100 18 -138 54s-57.667 80.667 -59 134h73c2.66699 -34.667 16.334 -62.834 41.001 -84.501s54.667 -32.5 90 -32.5
c54 0 90 24.667 108 74c6 16.667 9 49.334 9 98.001v509h74z" />
    <glyph glyph-name="K" unicode="K" horiz-adv-x="591" 
d="M76 0v739h74v-425l341 425h94l-292 -360l292 -379h-92l-247 320l-96 -118v-202h-74z" />
    <glyph glyph-name="L" unicode="L" horiz-adv-x="462" 
d="M76 0v739h74v-672h306v-67h-380z" />
    <glyph glyph-name="M" unicode="M" horiz-adv-x="919" 
d="M76 0v739h114l270 -629l269 629h114v-739h-74v657l-278 -657h-63l-278 657v-657h-74z" />
    <glyph glyph-name="N" unicode="N" horiz-adv-x="740" 
d="M76 0v739h100l414 -613v613h74v-739h-74l-440 650v-650h-74z" />
    <glyph glyph-name="O" unicode="O" horiz-adv-x="869" 
d="M434 751c105.333 0 196.835 -37 274.502 -111s116.5 -163.333 116.5 -268c0 -107.333 -38.333 -198.333 -115 -273s-168.667 -112 -276 -112c-104.667 0 -195.834 37 -273.501 111s-116.5 163.333 -116.5 268c0 107.333 38.167 198.333 114.5 273
s168.166 112 275.499 112zM435.002 58c87.333 0 161.833 30.5 223.5 91.5s92.5 135.167 92.5 222.5c0 84.667 -31.333 157.167 -94 217.5s-136.667 90.5 -222 90.5c-88 0 -162.833 -30.5 -224.5 -91.5s-92.5 -135.167 -92.5 -222.5c0 -84.667 31.667 -157.167 95 -217.5
s137.333 -90.5 222 -90.5z" />
    <glyph glyph-name="P" unicode="P" horiz-adv-x="592" 
d="M76 0v739.001h194c89.333 0 155.333 -13.333 198 -40c64.667 -40.667 97 -101.334 97 -182.001c0 -72.667 -28 -129.667 -84 -171c-43.333 -32 -107.333 -48 -192 -48h-139v-298h-74zM150 365.001h126.999c67.333 0 117 10 149 30c43.333 26.667 65 67.667 65 123
c0 66 -30.667 112 -92 138c-21.333 8.66699 -46.666 14 -75.999 16h-78h-95v-307z" />
    <glyph glyph-name="Q" unicode="Q" horiz-adv-x="871" 
d="M827 56l0.000976562 -68.999h-9c-60 0 -112 21 -156 63c-61.333 -42 -135.333 -63 -222 -63c-106.667 0 -199.334 36.333 -278.001 109s-118 162 -118 268c0 111.333 38.333 203.666 115 276.999s171 110 283 110c112.667 0 207 -36.833 283 -110.5
s114 -166.5 114 -278.5c0 -104.667 -41.333 -195 -124 -271c36 -26 68 -38 96 -36zM605.001 102.001l-38.999 30c-27.333 20.667 -47 35 -59 43c-22 14 -44 25 -66 33c-54.667 19.333 -110.334 29 -167.001 29c-42.667 0 -80.667 -7 -114 -21
c20 -39.333 54.333 -75 103 -107c51.333 -34 112.333 -51 183 -51c64.667 0 117.667 14.667 159 44zM130.002 279.001c51.333 18 104.002 26.999 158.002 26.999c74 0 142 -14.667 204 -44c53.333 -24.667 110.666 -64.667 171.999 -120
c67.333 62.667 101 136.334 101 221.001c0 90 -31.333 165.333 -94 226s-139.334 91 -230.001 91c-89.333 0 -165.5 -30.5 -228.5 -91.5s-94.5 -136.167 -94.5 -225.5c0 -31.333 4 -59.333 12 -84z" />
    <glyph glyph-name="R" unicode="R" horiz-adv-x="607" 
d="M76 0v738.998h176c98 0 168 -12 210 -36c76.667 -43.333 115 -111.666 115 -204.999c0 -60 -21.333 -111.667 -64 -155s-94 -65.666 -154 -66.999l208 -276h-92l-251 335h22c78 0 131.667 6.66699 161 20c64 29.333 96 79.333 96 150c0 55.333 -23 99.333 -69 132
c-33.333 23.333 -89 35 -167 35h-117v-672h-74z" />
    <glyph glyph-name="S" unicode="S" horiz-adv-x="498" 
d="M22 207h79.0039c1.33301 -41.333 16.166 -76.5 44.499 -105.5s62.833 -43.5 103.5 -43.5c42.667 0 78.834 13.833 108.501 41.5s44.5 62.5 44.5 104.5s-17 77 -51 105c-23.333 18.667 -61.333 35 -114 49c-31.333 8 -54 15 -68 21c-24.667 9.33301 -45.334 21 -62.001 35
c-41.333 35.333 -62 81.333 -62 138c0 58.667 20.667 106.667 62 144c39.333 36.667 88.666 55 147.999 55c56.667 0 104.834 -19.333 144.501 -58s59.167 -86 58.5 -142h-77c-2.66699 38 -16.334 69 -41.001 93s-56 36 -94 36c-35.333 0 -65.333 -12.667 -90 -38
s-37 -55.666 -37 -90.999c0 -39.333 15.333 -69.666 46 -90.999c18.667 -12.667 52 -25.667 100 -39c38.667 -10.667 63.667 -18.334 75 -23.001c25.333 -10 47.666 -23.333 66.999 -40c46 -40.667 69 -92.334 69 -155.001c0 -60 -22.333 -111 -67 -153
s-97.334 -63 -158.001 -63c-64 0 -118.333 20.833 -163 62.5s-66.667 94.167 -66 157.5z" />
    <glyph glyph-name="T" unicode="T" horiz-adv-x="426" 
d="M177 0v672h-170v67h412v-67h-168v-672h-74z" />
    <glyph glyph-name="U" unicode="U" horiz-adv-x="655" 
d="M76 739h74v-449c0 -67.333 11.333 -119 34 -155c32.667 -51.333 80.667 -77 144 -77c58 0 103.333 22.333 136 67c27.333 37.333 41 92.333 41 165v449h74v-449c0 -91.333 -18.333 -161 -55 -209c-48 -62.667 -113.333 -94 -196 -94c-80.667 0 -145 29.333 -193 88
c-39.333 48 -59 119.667 -59 215v449z" />
    <glyph glyph-name="V" unicode="V" horiz-adv-x="702" 
d="M315 0l-305 739h81l259 -647l261 647h81l-307 -739h-70z" />
    <glyph glyph-name="W" unicode="W" horiz-adv-x="960" 
d="M220 0l-210 739h77l181 -644l177 644h70l177 -643l181 643h77l-211 -739h-97l-162 606l-163 -606h-97z" />
    <glyph glyph-name="X" unicode="X" horiz-adv-x="609" 
d="M8 0l251 378l-236 361h86l196 -296l195 296h86l-239 -361l254 -378h-87l-209 316l-210 -316h-87z" />
    <glyph glyph-name="Y" unicode="Y" horiz-adv-x="592" 
d="M259 0v247l-257 492h81l213 -415l213 415h81l-257 -492v-247h-74z" />
    <glyph glyph-name="Z" unicode="Z" horiz-adv-x="480" 
d="M17 0v66l363 606h-352v67h435v-67l-362 -605h373v-67h-457z" />
    <glyph glyph-name="bracketleft" unicode="[" horiz-adv-x="351" 
d="M313 -51l-0.000976562 -76c-50 12 -94 39 -132 81c-27.333 30 -46 62 -56 96c-8.66699 28 -13 64.667 -13 110v289c0 42 3 75.667 9 101c8.66699 32 24.334 62.333 47.001 91c42.667 53.333 91 86 145 98v-76c-47.333 -20.667 -81 -48.667 -101 -84
c-18.667 -32 -28 -75.333 -28 -130v-277c0 -58.667 8 -103.667 24 -135c19.333 -36.667 54.333 -66 105 -88z" />
    <glyph glyph-name="backslash" unicode="\" horiz-adv-x="605" 
d="M394 0l-310 739h71l309 -739h-70z" />
    <glyph glyph-name="bracketright" unicode="]" horiz-adv-x="351" 
d="M38 663v75.999c50 -12.667 94 -40 132 -82c27.333 -30 46 -62 56 -96c8.66699 -28 13 -64.667 13 -110v-289c0 -41.333 -3.33301 -75 -10 -101c-8.66699 -31.333 -24.334 -61.666 -47.001 -90.999c-42.667 -54.667 -90.667 -87 -144 -97v76
c46.667 19.333 80.334 47 101.001 83c18.667 32.667 28 76 28 130v276c0 36 -1.66699 62.333 -5 79c-4.66699 24 -15 48 -31 72c-22 32 -53 56.667 -93 74z" />
    <glyph glyph-name="asciicircum" unicode="^" horiz-adv-x="606" 
d="M82 180h-64l255 559h58l257 -559h-64l-223 484z" />
    <glyph glyph-name="underscore" unicode="_" horiz-adv-x="500" 
d="M500 -125h-500v58h500v-58z" />
    <glyph glyph-name="grave" unicode="`" horiz-adv-x="378" 
d="M106 779l198 -108l-33 -58l-197 106z" />
    <glyph glyph-name="a" unicode="a" horiz-adv-x="683" 
d="M620 547l0.000976562 -547h-71v103h-2c-19.333 -37.333 -48.666 -66.333 -87.999 -87c-36.667 -19.333 -77.334 -29 -122.001 -29c-92.667 0 -173 38.667 -241 116c-12.667 14 -24 35.333 -34 64c-13.333 36 -20 72.667 -20 110c0 73.333 26.333 137.333 79 192
c58 60 129.333 90 214 90c45.333 0 86.666 -9.66699 123.999 -29c40 -20.667 69.333 -49.667 88 -87h2v104h71zM335.001 488c-60 0 -111.5 -21.168 -154.5 -63.501s-64.5 -93.5 -64.5 -153.5c0 -59.333 22 -109.666 66 -150.999s95.667 -62 155 -62
c57.333 0 107 21.167 149 63.5s63 91.833 63 148.5c0 60.667 -20.5 112.167 -61.5 154.5s-91.833 63.5 -152.5 63.5z" />
    <glyph glyph-name="b" unicode="b" horiz-adv-x="682" 
d="M63 0v739.001h74v-294h2c16 36 44.333 64.667 85 86c36.667 18.667 76.667 28 120 28c80.667 0 150.167 -27.167 208.5 -81.5s87.5 -121.5 87.5 -201.5c0 -72.667 -21.667 -133.334 -65 -182.001c-63.333 -71.333 -138 -107 -224 -107c-42.667 0 -83.334 9 -122.001 27
c-43.333 19.333 -74.666 46 -93.999 80h-2v-94h-70zM346 488.001c-60.667 0 -112.668 -21.999 -156.001 -65.999c-38.667 -39.333 -58 -90.333 -58 -153c0 -60 21.333 -110.167 64 -150.5s94.334 -60.5 155.001 -60.5c59.333 0 110 21.167 152 63.5s63 93.166 63 152.499
c0 61.333 -21.333 112.333 -64 153s-94.667 61 -156 61z" />
    <glyph glyph-name="c" unicode="c" horiz-adv-x="647" 
d="M525 160l82 0.000976562c-24.667 -54 -60.5 -96.333 -107.5 -127s-99.833 -46 -158.5 -46c-82.667 0 -153.167 27.333 -211.5 82s-87.5 123 -87.5 205c0 80 29.333 147.5 88 202.5s128 82.5 208 82.5c59.333 0 114 -16.167 164 -48.5s85.333 -75.5 106 -129.5h-83
c-19.333 32.667 -45.833 58.667 -79.5 78s-69.167 29 -106.5 29c-61.333 0 -113.833 -20.333 -157.5 -61s-65.5 -91.334 -65.5 -152.001s21 -112 63 -154s93.333 -63 154 -63c79.333 0 143.333 34 192 102z" />
    <glyph glyph-name="d" unicode="d" horiz-adv-x="685" 
d="M622 739l-0.00195312 -738.999h-70v100h-2c-52 -75.333 -125 -113 -219 -113c-81.333 0 -157.666 37.667 -228.999 113c-14.667 12.667 -28 34.667 -40 66c-13.333 35.333 -20 71.666 -20 108.999c0 80.667 28.833 148.167 86.5 202.5s126.834 81.5 207.501 81.5
c42.667 0 83.167 -9.33301 121.5 -28s67.833 -45 88.5 -79h2v287h74zM549.998 276.001c0 60 -21.5 110.333 -64.5 151s-94.5 61 -154.5 61c-58.667 0 -109.167 -20.667 -151.5 -62s-63.5 -91.333 -63.5 -150c0 -60 21.167 -111.333 63.5 -154s93.5 -64 153.5 -64
s111.167 21.333 153.5 64s63.5 94 63.5 154z" />
    <glyph glyph-name="e" unicode="e" horiz-adv-x="650" 
d="M611 247l-494.998 -0.00195312c2 -51.333 24 -95.666 66 -132.999s88.667 -56 140 -56c41.333 0 80.333 10.833 117 32.5s63 50.834 79 87.501h77c-19.333 -55.333 -54 -101 -104 -137s-104 -54 -162 -54c-80 0 -147.833 27.667 -203.5 83s-83.5 123 -83.5 203
c0 79.333 27.667 146.833 83 202.5s122.666 83.5 201.999 83.5c89.333 0 162.666 -35.333 219.999 -106c40.667 -49.333 62 -118 64 -206zM116.002 313.998l421 -0.000976562c-9.33301 48.667 -34 89.834 -74 123.501s-85 50.5 -135 50.5c-52 0 -98.167 -16.5 -138.5 -49.5
s-64.833 -74.5 -73.5 -124.5z" />
    <glyph glyph-name="f" unicode="f" horiz-adv-x="314" 
d="M101 0v480h-85v67h85c-2.66699 60.667 14.333 108 51 142c34.667 33.333 82.667 50 144 50h14v-67h-14c-80.667 0 -121 -38 -121 -114v-11h136v-67h-136v-480h-74z" />
    <glyph glyph-name="g" unicode="g" horiz-adv-x="673" 
d="M610 547l-0.000976562 -469.004c0 -49.333 -3 -85.666 -9 -108.999c-8.66699 -32 -27 -63.333 -55 -94c-54.667 -59.333 -126.667 -89 -216 -89c-61.333 0 -117.666 18.833 -168.999 56.5s-84.333 85.834 -99 144.501h72c46 -86.667 113.333 -130 202 -130
c36.667 0 70.667 8 102 24c34 16.667 59.667 40.334 77 71.001c16 28 24 70 24 126v30h-2c-15.333 -38.667 -44 -69 -86 -91c-38 -20 -80 -30 -126 -30c-74.667 0 -140.5 26.833 -197.5 80.5s-85.5 121.834 -85.5 204.501c0 34.667 6.33301 69.667 19 105
c10 28 21 49.333 33 64c64 78.667 139.667 118 227 118c46 0 88 -9.66699 126 -29c40.667 -21.333 70.667 -51 90 -89h2v106h71zM318.999 487.996c-56.667 0 -104.667 -20.667 -144 -62s-59 -90.333 -59 -147c0 -62 19.667 -114.333 59 -157s89.666 -64 150.999 -64
c60.667 0 111.167 21.167 151.5 63.5s60.5 92.833 60.5 151.5c0 61.333 -21.167 112.5 -63.5 153.5s-94.166 61.5 -155.499 61.5z" />
    <glyph glyph-name="h" unicode="h" horiz-adv-x="610" 
d="M63 0l0.000976562 738.998h74v-271c15.333 28.667 38.666 51.334 69.999 68.001c29.333 15.333 61.333 23 96 23c76 0 138.333 -28 187 -84c38 -43.333 57 -105.666 57 -186.999v-288h-74v288c0 57.333 -10.667 101 -32 131c-32.667 46 -79.667 69 -141 69
c-56.667 0 -101.667 -22.333 -135 -67c-18.667 -24.667 -28 -69 -28 -133v-288h-74z" />
    <glyph glyph-name="i" unicode="i" horiz-adv-x="200" 
d="M63 0v547h74v-547h-74zM68 613v80h66v-80h-66z" />
    <glyph glyph-name="j" unicode="j" horiz-adv-x="203" 
d="M140 547v-496.998c0 -47.333 -1.66699 -80.333 -5 -99c-6.66699 -32.667 -21.667 -61.334 -45 -86.001c-36 -38 -81 -57 -135 -57v72c47.333 2 79 20.333 95 55c10.667 23.333 16 61.666 16 114.999v497h74zM69 613.002v80h66v-80h-66z" />
    <glyph glyph-name="k" unicode="k" horiz-adv-x="502" 
d="M63 0v739h74v-519l251 327h95l-212 -274l226 -273h-95l-178 216l-87 -112v-104h-74z" />
    <glyph glyph-name="l" unicode="l" horiz-adv-x="200" 
d="M63 0v739h74v-739h-74z" />
    <glyph glyph-name="m" unicode="m" horiz-adv-x="938" 
d="M63 0l-0.00292969 547.001h70v-71h2c24 55.333 72 83 144 83c72.667 0 131.667 -27.667 177 -83c3.33301 -4.66699 8 -11.667 14 -21c2.66699 4.66699 6.33398 11.667 11.001 21c18.667 26 44.334 46.333 77.001 61c30.667 14.667 62.667 22 96 22
c58 0 114.667 -27.667 170 -83c34 -34 51 -88.667 51 -164v-312h-74v305c0 53.333 -9 92.666 -27 117.999c-30.667 43.333 -72 65 -124 65c-51.333 0 -91.666 -20.667 -120.999 -62c-15.333 -21.333 -23 -61.666 -23 -120.999v-305h-74v313
c0 47.333 -8.66699 83.666 -26 108.999c-30 44 -71 66 -123 66s-92 -19.333 -120 -58c-17.333 -24 -26 -63 -26 -117v-313h-74z" />
    <glyph glyph-name="n" unicode="n" horiz-adv-x="610" 
d="M63 0l0.000976562 547h70v-79h2c41.333 60.667 97.333 91 168 91c80 0 144.667 -30.333 194 -91c33.333 -41.333 50 -101.333 50 -180v-288h-74v288c0 56.667 -10.667 100 -32 130c-33.333 46.667 -80.333 70 -141 70c-56.667 0 -101.334 -22.333 -134.001 -67
c-19.333 -26.667 -29 -71 -29 -133v-288h-74z" />
    <glyph glyph-name="o" unicode="o" horiz-adv-x="655" 
d="M329 559c76 0 142.333 -28 199 -84s85 -122 85 -198c0 -78.667 -27.667 -146.667 -83 -204s-122.333 -86 -201 -86c-78 0 -145.333 27.667 -202 83s-85 122 -85 200c0 80 27.833 148.167 83.5 204.5s123.5 84.5 203.5 84.5zM329 488
c-60 0 -110.502 -21.334 -151.502 -64.001s-61.5 -94 -61.5 -154c0 -58.667 20.833 -108.667 62.5 -150s91.834 -62 150.501 -62c60 0 110 21.333 150 64s60 94.334 60 155.001c0 60 -21.167 110.167 -63.5 150.5s-91.166 60.5 -146.499 60.5z" />
    <glyph glyph-name="p" unicode="p" horiz-adv-x="682" 
d="M63 547l70 -0.000976562v-94h2c19.333 33.333 50.666 60 93.999 80c38.667 17.333 79.334 26 122.001 26c80 0 154.667 -35.333 224 -106c17.333 -18 32 -42.333 44 -73c14 -35.333 21 -71.666 21 -108.999c0 -80 -29.167 -147.333 -87.5 -202s-127.833 -82 -208.5 -82
c-43.333 0 -83.333 9.66699 -120 29c-40.667 21.333 -69 50 -85 86h-2v-294h-74v739zM346 57.999c61.333 0 113.334 20.334 156.001 61.001s64 91.667 64 153c0 59.333 -21 110.166 -63 152.499s-92.667 63.5 -152 63.5c-60.667 0 -112.334 -20 -155.001 -60
s-64 -90 -64 -150c0 -62.667 19.333 -113.667 58 -153c43.333 -44.667 95.333 -67 156 -67z" />
    <glyph glyph-name="q" unicode="q" horiz-adv-x="682" 
d="M619 547l-0.000976562 -739h-74v294h-2c-16 -36 -44.333 -64.667 -85 -86c-36.667 -19.333 -76.667 -29 -120 -29c-80.667 0 -150.167 27.333 -208.5 82s-87.5 122 -87.5 202c0 37.333 6.66699 74 20 110c12.667 31.333 27.334 55.333 44.001 72
c60.667 70.667 135.667 106 225 106c42.667 0 83.334 -8.66699 122.001 -26c43.333 -20 74.666 -46.667 93.999 -80h2v94h70zM335.999 58c61.333 0 113.668 22.332 157.001 66.999c38 39.333 57 90.333 57 153c0 60 -21.333 110 -64 150s-94.334 60 -155.001 60
c-59.333 0 -110 -21.167 -152 -63.5s-63 -93.166 -63 -152.499c0 -61.333 21.333 -112.333 64 -153s94.667 -61 156 -61z" />
    <glyph glyph-name="r" unicode="r" horiz-adv-x="301" 
d="M63 0v547.001h70v-79h2c24 58 76.333 88.333 157 91v-73c-39.333 -2.66699 -72.333 -15.334 -99 -38.001c-24 -20 -39.667 -41.333 -47 -64c-6 -17.333 -9 -43.333 -9 -78v-306h-74z" />
    <glyph glyph-name="s" unicode="s" horiz-adv-x="388" 
d="M18 161l73.9961 -0.000976562c-1.33301 -28 7.83398 -52.167 27.501 -72.5s43.5 -30.5 71.5 -30.5c26.667 0 49.334 8.5 68.001 25.5s28 38.833 28 65.5c0 49.333 -35.333 84.333 -106 105c-46 13.333 -79 29.333 -99 48c-29.333 27.333 -44 62 -44 104
c0 44 15.333 80.5 46 109.5s68 43.5 112 43.5c40.667 0 76 -14.667 106 -44s45 -64 45 -104h-74c0 23.333 -8 42 -24 56s-36.333 21 -61 21c-20.667 0 -38.5 -7.33301 -53.5 -22s-22.5 -32.667 -22.5 -54c0 -26.667 10 -47.334 30 -62.001c12 -9.33301 34 -19 66 -29
c49.333 -15.333 85 -33 107 -53c30.667 -26 46 -61.667 46 -107c0 -51.333 -16.667 -93.166 -50 -125.499s-75.666 -48.5 -126.999 -48.5c-46.667 0 -86.667 17.333 -120 52s-48.666 75.334 -45.999 122.001z" />
    <glyph glyph-name="t" unicode="t" horiz-adv-x="339" 
d="M126 0v480h-114v67h114v192h74v-192h127v-67h-127v-480h-74z" />
    <glyph glyph-name="u" unicode="u" horiz-adv-x="608" 
d="M545 547l-0.00195312 -547.001h-70v85h-2c-32 -65.333 -91.667 -98 -179 -98c-70.667 0 -134.667 32.667 -192 98c-26 29.333 -39 87 -39 173v289h74v-289c0 -53.333 8 -93.666 24 -120.999c30.667 -52.667 78.334 -79 143.001 -79c56.667 0 101.334 22.333 134.001 67
c22 30 33 74.333 33 133v289h74z" />
    <glyph glyph-name="v" unicode="v" horiz-adv-x="554" 
d="M238 0l-230 547h80l189 -453l189 453h80l-231 -547h-77z" />
    <glyph glyph-name="w" unicode="w" horiz-adv-x="831" 
d="M214 0l-207 547h78l172 -458l127 391h61l126 -391l175 458h78l-208 -547h-85l-117 363l-115 -363h-85z" />
    <glyph glyph-name="x" unicode="x" horiz-adv-x="480" 
d="M8 0l187 278l-187 269h87l145 -211l145 211h87l-188 -269l188 -278h-87l-145 219l-145 -219h-87z" />
    <glyph glyph-name="y" unicode="y" horiz-adv-x="536" 
d="M448 547h79l-316 -739h-78l86 209l-210 530h79l175 -436z" />
    <glyph glyph-name="z" unicode="z" horiz-adv-x="425" 
d="M10 0v65l296 415h-286v67h376v-67l-294 -413h313v-67h-405z" />
    <glyph glyph-name="braceleft" unicode="{" horiz-adv-x="351" 
d="M119 419l0.000976562 169c0 58 10.667 98.167 32 120.5s61.333 32.5 120 30.5c-53.333 -16 -80 -54.333 -80 -115v-178c0 -40.667 -5.33301 -70.667 -16 -90c-13.333 -24.667 -38 -41.334 -74 -50.001c35.333 -7.33301 59.666 -21.666 72.999 -42.999
c11.333 -18 17 -46 17 -84v-191c0 -32.667 5.66699 -57.667 17 -75s32.333 -30.666 63 -39.999c-52.667 0 -90.667 8.66699 -114 26c-25.333 18.667 -38 54.667 -38 108v190c0 34.667 -7.33301 60.667 -22 78s-34.667 27.666 -60 30.999c21.333 6 38.833 14.333 52.5 25
s22.5 24 26.5 40c2 8.66699 3 24.667 3 48z" />
    <glyph glyph-name="bar" unicode="|" horiz-adv-x="672" 
d="M304 0v739h64v-739h-64z" />
    <glyph glyph-name="braceright" unicode="}" horiz-adv-x="351" 
d="M115 446l0.000976562 177.999c0 60.667 -25.667 99 -77 115c57.333 2 97 -8.66699 119 -32c20 -22 30 -61.667 30 -119v-169c0 -42.667 10 -72 30 -88c14 -11.333 31.333 -19.666 52 -24.999c-24 -3.33301 -43.667 -13.666 -59 -30.999s-23 -43.333 -23 -78v-190
c0 -53.333 -12.167 -89 -36.5 -107s-61.833 -27 -112.5 -27c29.333 9.33301 49.5 22.666 60.5 39.999s16.5 42.333 16.5 75v191c0 38 5.66699 66 17 84c13.333 21.333 37.666 35.666 72.999 42.999c-36 8.66699 -60.667 25.334 -74 50.001c-10.667 19.333 -16 49.333 -16 90
z" />
    <glyph glyph-name="asciitilde" unicode="~" horiz-adv-x="606" 
d="M513 391l41.998 -47c-41.333 -74 -88.666 -111 -141.999 -111c-19.333 0 -64.333 14.667 -135 44c-40 16.667 -68 25 -84 25c-23.333 0 -44 -10 -62 -30c-9.33301 -10 -22.666 -30 -39.999 -60l-41 48c43.333 78.667 91 118 143 118c25.333 0 64.333 -11.667 117 -35
s87 -35 103 -35c36.667 0 69.667 27.667 99 83z" />
    <glyph glyph-name="exclamdown" horiz-adv-x="480" 
d="M17 0v66l363 606h-352v67h435v-67l-362 -605h373v-67h-457zM97 896h82l77 -66l78 66h80l-127 -113h-60z" />
    <glyph glyph-name="cent" horiz-adv-x="302" 
d="M149 0l50 0.000976562c-53.333 -30 -80 -59.667 -80 -89c0 -18.667 7 -33 21 -43c12 -9.33301 27.333 -14 46 -14c14 0 28 3 42 9v-44c-16.667 -6 -34 -9 -52 -9c-28 0 -51.333 7.33301 -70 22c-21.333 16 -32 37.667 -32 65c0 43.333 25 77.666 75 102.999z" />
    <glyph glyph-name="sterling" horiz-adv-x="502" 
d="M74 739h92l86 -74l87 74h89l-142 -126h-67z" />
    <glyph glyph-name="plusminus" horiz-adv-x="517" 
d="M122 0v320l-96 -80v87l96 80v332h74v-277l148 125v-85l-148 -125v-310h306v-67h-380z" />
    <glyph glyph-name="twosuperior" horiz-adv-x="400" 
d="M350 589c0 -41.333 -14.667 -76.666 -44 -105.999s-64.666 -44 -105.999 -44s-76.666 14.667 -105.999 44s-44 64.666 -44 105.999s14.667 76.666 44 105.999s64.666 44 105.999 44s76.666 -14.667 105.999 -44s44 -64.666 44 -105.999zM310 589
c0 30 -10.832 55.833 -32.499 77.5s-47.834 32.5 -78.501 32.5c-30 0 -55.667 -10.833 -77 -32.5s-32 -47.5 -32 -77.5c0 -30.667 10.667 -56.667 32 -78s47.333 -32 78 -32c30 0 55.833 10.667 77.5 32s32.5 47.333 32.5 78z" />
    <glyph glyph-name="threesuperior" horiz-adv-x="166" 
d="M-115 0l332 739h64l-332 -739h-64z" />
    <glyph glyph-name="acute" horiz-adv-x="453" 
d="M74 716h63c14.667 -30.667 44.334 -46 89.001 -46s74.334 15.333 89.001 46h63c-8.66699 -34 -27.667 -60 -57 -78c-26.667 -16.667 -58.334 -25 -95.001 -25s-68.334 8.33301 -95.001 25c-29.333 18 -48.333 44 -57 78z" />
    <glyph glyph-name="Atilde" horiz-adv-x="200" 
d="M63 0v547h74v-547h-74z" />
    <glyph glyph-name="Atilde" unicode="&#x131;" horiz-adv-x="200" 
d="M63 0v547h74v-547h-74z" />
    <glyph glyph-name="Adieresis" horiz-adv-x="425" 
d="M10 0v65l296 415h-286v67h376v-67l-294 -413h313v-67h-405zM50 720h82l77 -66l78 66h80l-127 -113h-60z" />
    <glyph glyph-name="Aring" horiz-adv-x="592" 
d="M259 0v247l-257 492h81l213 -415l213 415h81l-257 -492v-247h-74zM179 887h74v-85h-74v85zM343 887h74v-85h-74v85z" />
    <glyph glyph-name="Aring" unicode="&#x178;" horiz-adv-x="592" 
d="M259 0v247l-257 492h81l213 -415l213 415h81l-257 -492v-247h-74zM179 887h74v-85h-74v85zM343 887h74v-85h-74v85z" />
    <glyph glyph-name="AE" unicode="&#xa0;" horiz-adv-x="485" 
d="M98 0v480h-85v67h85c-2.66699 60.667 14.333 108 51 142c34.667 33.333 82.667 50 144 50h14v-67h-14c-80.667 0 -121 -38 -121 -114v-11h136v-67h-136v-480h-74zM348 0v739h74v-739h-74z" />
    <glyph glyph-name="Ccedilla" unicode="&#xa1;" horiz-adv-x="295" 
d="M111 -192v548h74v-548h-74zM111 421v80h66v-80h-66z" />
    <glyph glyph-name="Egrave" unicode="&#xa2;" horiz-adv-x="554" 
d="M260 62l0.00195312 89.001c-60 3.33301 -110.833 28.166 -152.5 74.499s-62.5 99.833 -62.5 160.5c0 58 21.333 109.333 64 154s93 68.667 151 72v93h66v-93c41.333 -5.33301 79 -21.666 113 -48.999s57.333 -61 70 -101h-83c-28.667 52.667 -76.334 79 -143.001 79
c-43.333 0 -81.5 -15.333 -114.5 -46s-49.5 -67.334 -49.5 -110.001c0 -44.667 16.5 -83 49.5 -115s71.833 -48 116.5 -48c55.333 0 101.333 22.667 138 68h80c-12 -36 -34.833 -66.833 -68.5 -92.5s-69.834 -41.167 -108.501 -46.5v-89h-66z" />
    <glyph glyph-name="Eacute" unicode="&#xa3;" horiz-adv-x="554" 
d="M58 0l-0.000976562 66.999h139c28.667 26 43 63.667 43 113c0 35.333 -9 67 -27 95c-14 20.667 -37.333 44.334 -70 71.001h-125v67h73c-14 34 -21 64.667 -21 92c0 58.667 20 112 60 160c47.333 57.333 109 86 185 86c59.333 0 112.5 -20.5 159.5 -61.5
s73.5 -90.833 79.5 -149.5h-70c-7.33301 38.667 -27.166 71.667 -59.499 99s-68.5 41 -108.5 41c-48.667 0 -89.5 -16.667 -122.5 -50s-49.5 -74.333 -49.5 -123c0 -38.667 9.33301 -70 28 -94h284v-67h-214c48 -50.667 72 -105 72 -163c0 -37.333 -10 -76 -30 -116h25
c40 0 65.667 0.666992 77 2c28.667 3.33301 52.667 11.666 72 24.999c42 28.667 62 70.334 60 125.001c0 11.333 -2 27.333 -6 48h72c5.33301 -20 8 -39 8 -57c0 -68 -26.667 -122.667 -80 -164c-39.333 -30.667 -99.333 -46 -180 -46h-274z" />
    <glyph glyph-name="Ecircumflex" unicode="&#xa4;" horiz-adv-x="554" 
d="M31 110l43 42.002c-32 47.333 -48 96.666 -48 147.999c0 55.333 16 105.666 48 150.999l-43 43l52 53l44 -43c43.333 32.667 94.666 49 153.999 49c50 0 98.667 -16.333 146 -49l44 43l52 -53l-43 -43c32 -46 48 -98 48 -156c0 -48 -16 -95.667 -48 -143l43 -42l-52 -53
l-44 43c-45.333 -33.333 -97 -50 -155 -50c-49.333 0 -97.666 16.667 -144.999 50l-44 -43zM456 303.002c0 48 -17.167 89.667 -51.5 125s-75.5 53 -123.5 53c-52 0 -95.5 -17.167 -130.5 -51.5s-52.5 -77.5 -52.5 -129.5c0 -48.667 17.5 -90.5 52.5 -125.5
s76.5 -52.5 124.5 -52.5c50 0 92.667 17.5 128 52.5s53 77.833 53 128.5z" />
    <glyph glyph-name="Edieresis" unicode="&#xa5;" horiz-adv-x="554" 
d="M259 0v237h-206v62h177l-51 97h-133v62h101l-147 281h81l216 -415l211 415h81l-145 -281h99v-62h-132l-49 -97h174v-62h-203v-237h-74z" />
    <glyph glyph-name="Igrave" unicode="&#xa6;" horiz-adv-x="672" 
d="M304 0v296h64v-296h-64zM304 444v295h64v-295h-64z" />
    <glyph glyph-name="Iacute" unicode="&#xa7;" horiz-adv-x="615" 
d="M482 606h-69.9971c-0.666992 22.667 -13.334 41.334 -38.001 56.001c-20.667 12 -43.334 18 -68.001 18c-29.333 0 -53.333 -8.16699 -72 -24.5s-28 -38.833 -28 -67.5c0 -35.333 23.333 -64.666 70 -87.999l126 -63c40 -20 68.667 -38.333 86 -55
c27.333 -25.333 41 -55.333 41 -90c0 -27.333 -7.66699 -54.833 -23 -82.5s-34.666 -48.5 -57.999 -62.5c34.667 -27.333 52 -63.333 52 -108c0 -53.333 -18.333 -96.333 -55 -129s-82 -49 -136 -49c-57.333 0 -105.333 19.667 -144 59s-58.667 87.666 -60 144.999h70
c1.33301 -38 14.666 -70.167 39.999 -96.5s56.666 -38.5 93.999 -36.5c33.333 -2 61.666 6.66699 84.999 26s35 45.666 35 78.999c0 24.667 -11.667 46.667 -35 66c-11.333 8.66699 -34 22 -68 40l-162 84c-51.333 26.667 -77 63.667 -77 111
c0 61.333 29.333 112.333 88 153c-26.667 24.667 -40 57.667 -40 99c0 46 16.5 84.333 49.5 115s72.833 46 119.5 46c44 0 83.667 -13 119 -39c38.667 -28 58.334 -63.333 59.001 -106zM223.003 270l176.999 -88.001c16 8.66699 29.667 22.334 41 41.001s17 37 17 55
c0 24 -7.33301 43.333 -22 58c-10 10 -28 21.667 -54 35l-164 83c-17.333 -10 -31.666 -24.667 -42.999 -44s-17 -39.333 -17 -60c0 -32 21.667 -58.667 65 -80z" />
    <glyph glyph-name="Icircumflex" unicode="&#xa8;" horiz-adv-x="369" 
d="M74 739h74v-126h-74v126zM221 739h74v-126h-74v126z" />
    <glyph glyph-name="Idieresis" unicode="&#xa9;" horiz-adv-x="747" 
d="M374 -13c-106 0 -196.333 37.333 -271 112s-112 165 -112 271c0 105.333 37.333 195.166 112 269.499s165 111.5 271 111.5c105.333 0 195.166 -37.167 269.499 -111.5s111.5 -164.166 111.5 -269.499c0 -106 -37.167 -196.333 -111.5 -271s-164.166 -112 -269.499 -112z
M374 33c92.667 0 171.669 32.833 237.002 98.5s98 145.167 98 238.5c0 92.667 -32.667 171.667 -98 237s-144.333 98 -237 98s-171.834 -32.667 -237.501 -98s-98.5 -144.333 -98.5 -237c0 -93.333 32.667 -172.833 98 -238.5s144.666 -98.5 237.999 -98.5zM513.002 300
l55 0.00195312c-4.66699 -44.667 -24 -80.5 -58 -107.5s-73.667 -40.5 -119 -40.5c-63.333 0 -114.5 21 -153.5 63s-58.5 94.667 -58.5 158c0 64 18.833 116.5 56.5 157.5s88.5 61.5 152.5 61.5c46.667 0 86.5 -12.833 119.5 -38.5s53.167 -60.834 60.5 -105.501h-55
c-5.33301 29.333 -19.666 53.166 -42.999 71.499s-50.333 27.5 -81 27.5c-48.667 0 -87 -17 -115 -51c-26 -31.333 -39 -72 -39 -122c0 -48.667 13.667 -89.334 41 -122.001c29.333 -36 67.666 -54 114.999 -54c30.667 0 57.667 9.33301 81 28s37 43.334 41 74.001z" />
    <glyph glyph-name="Eth" unicode="&#xaa;" horiz-adv-x="369" 
d="M339 745l0.000976562 -292h-44v44h-2c-22.667 -34 -57.667 -51 -105 -51c-42.667 0 -79.5 14.5 -110.5 43.5s-46.5 64.833 -46.5 107.5c0 44 15 80.667 45 110s67 44 111 44c49.333 0 84.666 -17 105.999 -51h2v45h44zM187.001 708c-30.667 0 -57 -10.834 -79 -32.501
s-33 -47.5 -33 -77.5s11.333 -55.5 34 -76.5s49 -31.5 79 -31.5c28.667 0 53.667 10.667 75 32s32 46.333 32 75c0 30.667 -10.5 56.834 -31.5 78.501s-46.5 32.5 -76.5 32.5zM31.001 368.999h308v-44h-308v44z" />
    <glyph glyph-name="Ntilde" unicode="&#xab;" horiz-adv-x="425" 
d="M153 101l-113 200l113 199l58 -31l-94 -168l94 -168zM326 101l-113 200l113 199l59 -31l-94 -168l94 -168z" />
    <glyph glyph-name="Ograve" unicode="&#xac;" horiz-adv-x="606" 
d="M479 166v194h-428v76h504v-270h-76z" />
    <glyph glyph-name="Oacute" unicode="&#xad;" horiz-adv-x="606" 
d="M51 263v76h504v-76h-504z" />
    <glyph glyph-name="Ocircumflex" unicode="&#xae;" horiz-adv-x="747" 
d="M374 -13c-106 0 -196.333 37.333 -271 112s-112 165 -112 271c0 105.333 37.333 195.166 112 269.499s165 111.5 271 111.5c105.333 0 195.166 -37.167 269.499 -111.5s111.5 -164.166 111.5 -269.499c0 -106 -37.167 -196.333 -111.5 -271s-164.166 -112 -269.499 -112z
M374 33c92.667 0 171.669 32.833 237.002 98.5s98 145.167 98 238.5c0 92.667 -32.667 171.667 -98 237s-144.333 98 -237 98s-171.834 -32.667 -237.501 -98s-98.5 -144.333 -98.5 -237c0 -93.333 32.667 -172.833 98 -238.5s144.666 -98.5 237.999 -98.5zM435.002 353
l129 -196.999h-62l-122 197h-96v-197h-52v427h186c45.333 0 80 -7 104 -21c32 -18.667 48 -49.334 48 -92.001c0 -75.333 -45 -114.333 -135 -117zM284.002 394.001h80c51.333 0 84.333 2 99 6c36 10 54 33.667 54 71c0 49.333 -37 74 -111 74h-122v-151z" />
    <glyph glyph-name="Otilde" unicode="&#xaf;" horiz-adv-x="485" 
d="M74 680h337v-67h-337v67z" />
    <glyph glyph-name="Odieresis" unicode="&#xb0;" horiz-adv-x="332" 
d="M166 797c25.333 0 47 -9 65 -27s27 -39.667 27 -65s-9 -47 -27 -65s-39.667 -27 -65 -27s-47 9 -65 27s-27 39.667 -27 65s9 47 27 65s39.667 27 65 27zM166 760c-15.333 0 -28.333 -5.33203 -39 -15.999s-16 -23.334 -16 -38.001c0 -15.333 5.33301 -28.5 16 -39.5
s23.667 -16.5 39 -16.5s28.333 5.33301 39 16s16 23.667 16 39s-5.33301 28.333 -16 39s-23.667 16 -39 16z" />
    <glyph glyph-name="multiply" unicode="&#xb1;" horiz-adv-x="606" 
d="M265 392v162h76v-162h214v-76h-214v-164h-76v164h-214v76h214zM51 0v76h504v-76h-504z" />
    <glyph glyph-name="Oslash" unicode="&#xb2;" horiz-adv-x="332" 
d="M12 296l0.000976562 40.002l183 163c47.333 42 71 79.667 71 113c0 26.667 -9.5 48.834 -28.5 66.501s-42.833 26.5 -71.5 26.5c-31.333 0 -55.5 -10.167 -72.5 -30.5s-24.833 -46.5 -23.5 -78.5h-54c-2.66699 43.333 10.666 79.166 39.999 107.499s67.333 42.5 114 42.5
c42 0 76.667 -12.667 104 -38c30.667 -28.667 46 -60.334 46 -95.001c0 -31.333 -9.66699 -60 -29 -86c-10.667 -14.667 -32 -36.334 -64 -65.001l-140 -125h230v-41h-305z" />
    <glyph glyph-name="Ugrave" unicode="&#xb3;" horiz-adv-x="332" 
d="M134 529l0.00292969 40.999h16c60 0 90 22.333 90 67c0 20 -7.33301 36.5 -22 49.5s-32.667 19.5 -54 19.5s-38.5 -7.66699 -51.5 -23s-19.5 -33.333 -19.5 -54h-48c0 33.333 11.333 61.333 34 84s52.334 34 89.001 34c34 0 63 -11 87 -33s36 -48.667 36 -80
c0 -30.667 -17.667 -58.667 -53 -84c24 -10 43.5 -26 58.5 -48s22.5 -45.667 22.5 -71c0 -39.333 -15 -72.833 -45 -100.5s-66.667 -41.5 -110 -41.5c-42.667 0 -78.834 14.5 -108.501 43.5s-43.834 63.167 -42.501 102.5h48c1.33301 -29.333 11.333 -54.166 30 -74.499
s42.667 -30.5 72 -30.5c30 0 55 9.83301 75 29.5s30 43.5 30 71.5c0 20.667 -6.33301 39.5 -19 56.5s-29.334 28.833 -50.001 35.5c-12.667 4 -34.334 6 -65.001 6z" />
    <glyph glyph-name="Uacute" unicode="&#xb4;" horiz-adv-x="375" 
d="M74 669l192 116l35 -58l-193 -114z" />
    <glyph glyph-name="Ucircumflex" unicode="&#xb5;" horiz-adv-x="608" 
d="M471 258l-0.00292969 288.999h74v-547h-70v85h-2c-32 -65.333 -91.667 -98 -179 -98c-59.333 0 -111.666 20.667 -156.999 62v-241h-74v739h74v-289c0 -53.333 8 -93.666 24 -120.999c30.667 -52.667 78.334 -79 143.001 -79c56.667 0 101.334 22.333 134.001 67
c22 30 33 74.333 33 133z" />
    <glyph glyph-name="Udieresis" unicode="&#xb6;" horiz-adv-x="564" 
d="M229 -127l-0.000976562 481.999c-51.333 -0.666992 -96.166 18 -134.499 56s-57.5 82.667 -57.5 134c0 58.667 21.333 107.334 64 146.001c22 20 46.667 33.333 74 40c20.667 5.33301 49 8 85 8h231v-866h-74v799h-114v-799h-74z" />
    <glyph glyph-name="Yacute" unicode="&#xb7;" horiz-adv-x="222" 
d="M74 739h74v-126h-74v126z" />
    <glyph glyph-name="Yacute" unicode="&#x2219;" horiz-adv-x="222" 
d="M74 739h74v-126h-74v126z" />
    <glyph glyph-name="Thorn" unicode="&#xb8;" horiz-adv-x="324" 
d="M165 0l-24 -58.001c10 4.66699 20.333 7 31 7c24 0 43 -7.33301 57 -22s21 -34 21 -58c0 -25.333 -8.33301 -47 -25 -65s-37.334 -27 -62.001 -27c-48.667 0 -78.334 24 -89.001 72l44 5c1.33301 -9.33301 6.83301 -17.166 16.5 -23.499s19.5 -9.5 29.5 -9.5
c28.667 0 43 15.667 43 47c0 13.333 -4.66699 24.5 -14 33.5s-20.666 13.5 -33.999 13.5c-17.333 0 -30.666 -7.33301 -39.999 -22l-31 17l40 90h37z" />
    <glyph glyph-name="germandbls" unicode="&#xb9;" horiz-adv-x="332" 
d="M179 296v402h-81v41h135v-443h-54z" />
    <glyph glyph-name="agrave" unicode="&#xba;" horiz-adv-x="369" 
d="M185 751c42 0 77.832 -15.167 107.499 -45.5s44.5 -66.5 44.5 -108.5c0 -40.667 -15.167 -76 -45.5 -106s-65.833 -45 -106.5 -45c-42 0 -78 14.667 -108 44s-45 65 -45 107c0 42.667 14.833 79 44.5 109s65.834 45 108.501 45zM184.999 490c30 0 55.167 10.667 75.5 32
s30.5 47 30.5 77s-10.167 55.5 -30.5 76.5s-45.5 31.5 -75.5 31.5s-55.333 -10.5 -76 -31.5s-31 -46.5 -31 -76.5s10.333 -55.667 31 -77s46 -32 76 -32zM31.999 369h305v-44h-305v44z" />
    <glyph glyph-name="aacute" unicode="&#xbb;" horiz-adv-x="425" 
d="M272 101l-59 32l94 168l-94 168l59 31l113 -199zM98 101l-58 32l94 168l-94 168l58 31l113 -199z" />
    <glyph glyph-name="acircumflex" unicode="&#xbc;" horiz-adv-x="831" 
d="M217 0l332 739h64l-332 -739h-64zM182 296v402h-81v41h135v-443h-54zM707 0v81h-239v41l232 322h59v-322h44v-41h-44v-81h-52zM707 122v261l-188 -261h188z" />
    <glyph glyph-name="atilde" unicode="&#xbd;" horiz-adv-x="831" 
d="M207 0l332 739h64l-332 -739h-64zM177 296v402h-81v41h135v-443h-54zM506 0l0.000976562 40.002l183 163c47.333 42 71 79.667 71 113c0 26.667 -9.5 48.834 -28.5 66.501s-42.833 26.5 -71.5 26.5c-31.333 0 -55.5 -10.167 -72.5 -30.5s-24.833 -46.5 -23.5 -78.5h-54
c-2.66699 43.333 10.666 79.166 39.999 107.499s67.333 42.5 114 42.5c42 0 76.667 -12.667 104 -38c30.667 -28.667 46 -60.334 46 -95.001c0 -31.333 -9.66699 -60 -29 -86c-10.667 -14.667 -32 -36.334 -64 -65.001l-140 -125h230v-41h-305z" />
    <glyph glyph-name="adieresis" unicode="&#xbe;" horiz-adv-x="831" 
d="M707 0v81h-239v41l232 322h59v-322h44v-41h-44v-81h-52zM707 122v261l-188 -261h188zM232 0l332 739h64l-332 -739h-64zM134 529l0.00292969 40.999h16c60 0 90 22.333 90 67c0 20 -7.33301 36.5 -22 49.5s-32.667 19.5 -54 19.5s-38.5 -7.66699 -51.5 -23
s-19.5 -33.333 -19.5 -54h-48c0 33.333 11.333 61.333 34 84s52.334 34 89.001 34c34 0 63 -11 87 -33s36 -48.667 36 -80c0 -30.667 -17.667 -58.667 -53 -84c24 -10 43.5 -26 58.5 -48s22.5 -45.667 22.5 -71c0 -39.333 -15 -72.833 -45 -100.5s-66.667 -41.5 -110 -41.5
c-42.667 0 -78.834 14.5 -108.501 43.5s-43.834 63.167 -42.501 102.5h48c1.33301 -29.333 11.333 -54.166 30 -74.499s42.667 -30.5 72 -30.5c30 0 55 9.83301 75 29.5s30 43.5 30 71.5c0 20.667 -6.33301 39.5 -19 56.5s-29.334 28.833 -50.001 35.5
c-12.667 4 -34.334 6 -65.001 6z" />
    <glyph glyph-name="aring" unicode="&#xbf;" horiz-adv-x="591" 
d="M328 547v-126h-74v126h74zM455 34l70.999 -0.00195312v-22c0 -59.333 -22.5 -111.833 -67.5 -157.5s-101.5 -68.5 -169.5 -68.5c-64 0 -117.167 21.833 -159.5 65.5s-63.5 98.167 -63.5 163.5c0 43.333 16 84.333 48 123l89 95c32.667 38.667 49.667 79.667 51 123h74
c1.33301 -72 -33.667 -141.333 -105 -208c-29.333 -27.333 -48.666 -47.666 -57.999 -60.999c-16.667 -24 -25 -51 -25 -81c0 -41.333 15.667 -76.5 47 -105.5s67.666 -43.5 108.999 -43.5c46 0 84.833 17.833 116.5 53.5s45.834 76.834 42.501 123.501z" />
    <glyph glyph-name="ae" unicode="&#xc0;" horiz-adv-x="740" 
d="M11 0l319 739h82l317 -739h-80l-107 248h-344l-107 -248h-80zM227 315h286l-142 339zM295 938l178 -97l-29 -52l-177 95z" />
    <glyph glyph-name="ccedilla" unicode="&#xc1;" horiz-adv-x="740" 
d="M11 0l319 739h82l317 -739h-80l-107 248h-344l-107 -248h-80zM227 315h286l-142 339zM289 839l172 104l31 -52l-173 -102z" />
    <glyph glyph-name="egrave" unicode="&#xc2;" horiz-adv-x="740" 
d="M11 0l319 739h82l317 -739h-80l-107 248h-344l-107 -248h-80zM227 315h286l-142 339zM213 775l131 113h57l130 -113h-81l-78 65l-78 -65h-81z" />
    <glyph glyph-name="eacute" unicode="&#xc3;" horiz-adv-x="740" 
d="M11 0l319 739h82l317 -739h-80l-107 248h-344l-107 -248h-80zM227 315h286l-142 339zM474 864l23 -40c-23.333 -23.333 -47.333 -35 -72 -35c-16.667 0 -37.667 6.33301 -63 19c-20 10 -35 15 -45 15c-18 0 -34 -8.33301 -48 -25l-26 44c22.667 24.667 48.667 37 78 37
c16 0 35 -6 57 -18s38.333 -18 49 -18c11.333 0 27 7 47 21z" />
    <glyph glyph-name="ecircumflex" unicode="&#xc4;" horiz-adv-x="740" 
d="M11 0l319 739h82l317 -739h-80l-107 248h-344l-107 -248h-80zM227 315h286l-142 339zM258 870h74v-85h-74v85zM422 870h74v-85h-74v85z" />
    <glyph glyph-name="edieresis" unicode="&#xc5;" horiz-adv-x="740" 
d="M11 0l319 739h82l317 -739h-80l-107 248h-344l-107 -248h-80zM227 315h286l-142 339zM378 955c22.667 0 41.834 -7.83301 57.501 -23.5s23.5 -34.834 23.5 -57.501s-7.83301 -41.834 -23.5 -57.501s-34.834 -23.5 -57.501 -23.5s-41.834 7.83301 -57.501 23.5
s-23.5 34.834 -23.5 57.501s7.83301 41.834 23.5 57.501s34.834 23.5 57.501 23.5zM378 922v1.00098c-13.333 0 -24.833 -4.66699 -34.5 -14s-14.5 -20.666 -14.5 -33.999s4.66699 -24.833 14 -34.5s20.666 -14.5 33.999 -14.5s24.833 4.66699 34.5 14
s14.5 20.666 14.5 33.999s-4.66699 24.666 -14 33.999s-20.666 14 -33.999 14z" />
    <glyph glyph-name="igrave" unicode="&#xc6;" horiz-adv-x="992" 
d="M11 0l514 739h411v-67h-317v-266h306v-67h-306v-272h317v-67h-391v249h-272l-174 -249h-88zM320 316h225v328h-2z" />
    <glyph glyph-name="iacute" unicode="&#xc7;" horiz-adv-x="813" 
d="M767 549l-82.001 -0.000976562c-26.667 40.667 -63.667 72.667 -111 96s-96.333 35 -147 35c-83.333 0 -155.666 -31 -216.999 -93s-92 -133.667 -92 -215c0 -86 31.167 -159.833 93.5 -221.5s135.833 -92.5 220.5 -92.5c49.333 0 97 12.333 143 37
s83.667 57.334 113 98.001h82c-32 -61.333 -79 -111 -141 -149s-127.667 -57 -197 -57c-108.667 0 -200.5 37 -275.5 111s-112.5 165.333 -112.5 274c0 104.667 37.333 194 112 268s164.667 111 270 111c78.667 0 149.667 -20.667 213 -62c67.333 -44 110 -90.667 128 -140z
M379.999 -6.00098l-21.999 -50c7.33301 3.33301 16 5 26 5c21.333 0 38.333 -6.5 51 -19.5s19 -30.167 19 -51.5c0 -22.667 -7.33301 -42 -22 -58s-33 -24 -55 -24c-43.333 0 -69.666 21.333 -78.999 64l39 4c0.666992 -8 5.16699 -14.833 13.5 -20.5
s17.166 -8.5 26.499 -8.5c25.333 0 38 13.667 38 41c0 11.333 -4 21 -12 29s-18 12 -30 12c-14.667 0 -26.334 -6.33301 -35.001 -19l-27 15l36 81h33z" />
    <glyph glyph-name="icircumflex" unicode="&#xc8;" horiz-adv-x="536" 
d="M76 0v739h404v-67h-330v-266h319v-67h-319v-272h330v-67h-404zM203 938l178 -97l-29 -52l-177 95z" />
    <glyph glyph-name="idieresis" unicode="&#xc9;" horiz-adv-x="536" 
d="M76 0v739h404v-67h-330v-266h319v-67h-319v-272h330v-67h-404zM212 839l172 104l31 -52l-173 -102z" />
    <glyph glyph-name="eth" unicode="&#xca;" horiz-adv-x="536" 
d="M76 0v739h404v-67h-330v-266h319v-67h-319v-272h330v-67h-404zM106 774l131 113h57l130 -113h-81l-78 65l-78 -65h-81z" />
    <glyph glyph-name="ntilde" unicode="&#xcb;" horiz-adv-x="536" 
d="M76 0v739h404v-67h-330v-266h319v-67h-319v-272h330v-67h-404zM156 874h74v-85h-74v85zM320 874h74v-85h-74v85z" />
    <glyph glyph-name="ograve" unicode="&#xcc;" horiz-adv-x="226" 
d="M76 0v739h74v-739h-74zM23 943l178 -97l-29 -52l-177 95z" />
    <glyph glyph-name="oacute" unicode="&#xcd;" horiz-adv-x="226" 
d="M76 0v739h74v-739h-74zM32 839l172 104l31 -52l-173 -102z" />
    <glyph glyph-name="ocircumflex" unicode="&#xce;" horiz-adv-x="226" 
d="M76 0v739h74v-739h-74zM-44 817l131 113h57l130 -113h-81l-78 65l-78 -65h-81z" />
    <glyph glyph-name="otilde" unicode="&#xcf;" horiz-adv-x="226" 
d="M76 0v739h74v-739h-74zM-9 894h74v-85h-74v85zM155 894h74v-85h-74v85z" />
    <glyph glyph-name="odieresis" unicode="&#xd0;" horiz-adv-x="790" 
d="M196 67l95 0.000976562c60.667 0 107 3.33301 139 10c48 9.33301 90.667 28.666 128 57.999c76 60 114 138.667 114 236c0 96 -38.333 174 -115 234c-36.667 28.667 -79 47.667 -127 57c-32 6.66699 -78.333 10 -139 10h-95v-245h130v-67h-130v-293zM326 0.000976562
l-204 -0.000976562v360h-96v67h96v312h199c122.667 0 219.334 -28.667 290.001 -86c42 -34 75 -76.167 99 -126.5s36 -102.166 36 -155.499c0 -109.333 -40.333 -201 -121 -275c-40.667 -37.333 -87.334 -63.333 -140.001 -78c-42 -12 -95 -18 -159 -18z" />
    <glyph glyph-name="divide" unicode="&#xd1;" horiz-adv-x="740" 
d="M76 0v739h100l414 -613v613h74v-739h-74l-440 650v-650h-74zM471 874l23 -40c-23.333 -23.333 -47.333 -35 -72 -35c-16.667 0 -37.667 6.33301 -63 19c-20 10 -35 15 -45 15c-18 0 -34 -8.33301 -48 -25l-26 44c22.667 24.667 48.667 37 78 37c16 0 35 -6 57 -18
s38.333 -18 49 -18c11.333 0 27 7 47 21z" />
    <glyph glyph-name="oslash" unicode="&#xd2;" horiz-adv-x="869" 
d="M434 751c105.333 0 196.835 -37 274.502 -111s116.5 -163.333 116.5 -268c0 -107.333 -38.333 -198.333 -115 -273s-168.667 -112 -276 -112c-104.667 0 -195.834 37 -273.501 111s-116.5 163.333 -116.5 268c0 107.333 38.167 198.333 114.5 273
s168.166 112 275.499 112zM435.002 58c87.333 0 161.833 30.5 223.5 91.5s92.5 135.167 92.5 222.5c0 84.667 -31.333 157.167 -94 217.5s-136.667 90.5 -222 90.5c-88 0 -162.833 -30.5 -224.5 -91.5s-92.5 -135.167 -92.5 -222.5c0 -84.667 31.667 -157.167 95 -217.5
s137.333 -90.5 222 -90.5zM359.002 950l178 -97l-29 -52l-177 95z" />
    <glyph glyph-name="ugrave" unicode="&#xd3;" horiz-adv-x="869" 
d="M434 751c105.333 0 196.835 -37 274.502 -111s116.5 -163.333 116.5 -268c0 -107.333 -38.333 -198.333 -115 -273s-168.667 -112 -276 -112c-104.667 0 -195.834 37 -273.501 111s-116.5 163.333 -116.5 268c0 107.333 38.167 198.333 114.5 273
s168.166 112 275.499 112zM435.002 58c87.333 0 161.833 30.5 223.5 91.5s92.5 135.167 92.5 222.5c0 84.667 -31.333 157.167 -94 217.5s-136.667 90.5 -222 90.5c-88 0 -162.833 -30.5 -224.5 -91.5s-92.5 -135.167 -92.5 -222.5c0 -84.667 31.667 -157.167 95 -217.5
s137.333 -90.5 222 -90.5zM358.002 851l172 104l31 -52l-173 -102z" />
    <glyph glyph-name="uacute" unicode="&#xd4;" horiz-adv-x="869" 
d="M434 751c105.333 0 196.835 -37 274.502 -111s116.5 -163.333 116.5 -268c0 -107.333 -38.333 -198.333 -115 -273s-168.667 -112 -276 -112c-104.667 0 -195.834 37 -273.501 111s-116.5 163.333 -116.5 268c0 107.333 38.167 198.333 114.5 273
s168.166 112 275.499 112zM435.002 58c87.333 0 161.833 30.5 223.5 91.5s92.5 135.167 92.5 222.5c0 84.667 -31.333 157.167 -94 217.5s-136.667 90.5 -222 90.5c-88 0 -162.833 -30.5 -224.5 -91.5s-92.5 -135.167 -92.5 -222.5c0 -84.667 31.667 -157.167 95 -217.5
s137.333 -90.5 222 -90.5zM270.002 783l131 113h57l130 -113h-81l-78 65l-78 -65h-81z" />
    <glyph glyph-name="ucircumflex" unicode="&#xd5;" horiz-adv-x="869" 
d="M434 751c105.333 0 196.835 -37 274.502 -111s116.5 -163.333 116.5 -268c0 -107.333 -38.333 -198.333 -115 -273s-168.667 -112 -276 -112c-104.667 0 -195.834 37 -273.501 111s-116.5 163.333 -116.5 268c0 107.333 38.167 198.333 114.5 273
s168.166 112 275.499 112zM435.002 58c87.333 0 161.833 30.5 223.5 91.5s92.5 135.167 92.5 222.5c0 84.667 -31.333 157.167 -94 217.5s-136.667 90.5 -222 90.5c-88 0 -162.833 -30.5 -224.5 -91.5s-92.5 -135.167 -92.5 -222.5c0 -84.667 31.667 -157.167 95 -217.5
s137.333 -90.5 222 -90.5zM538.002 876l23 -40c-23.333 -23.333 -47.333 -35 -72 -35c-16.667 0 -37.667 6.33301 -63 19c-20 10 -35 15 -45 15c-18 0 -34 -8.33301 -48 -25l-26 44c22.667 24.667 48.667 37 78 37c16 0 35 -6 57 -18s38.333 -18 49 -18c11.333 0 27 7 47 21
z" />
    <glyph glyph-name="udieresis" unicode="&#xd6;" horiz-adv-x="869" 
d="M434 751c105.333 0 196.835 -37 274.502 -111s116.5 -163.333 116.5 -268c0 -107.333 -38.333 -198.333 -115 -273s-168.667 -112 -276 -112c-104.667 0 -195.834 37 -273.501 111s-116.5 163.333 -116.5 268c0 107.333 38.167 198.333 114.5 273
s168.166 112 275.499 112zM435.002 58c87.333 0 161.833 30.5 223.5 91.5s92.5 135.167 92.5 222.5c0 84.667 -31.333 157.167 -94 217.5s-136.667 90.5 -222 90.5c-88 0 -162.833 -30.5 -224.5 -91.5s-92.5 -135.167 -92.5 -222.5c0 -84.667 31.667 -157.167 95 -217.5
s137.333 -90.5 222 -90.5zM310.002 873h74v-85h-74v85zM474.002 873h74v-85h-74v85z" />
    <glyph glyph-name="yacute" unicode="&#xd7;" horiz-adv-x="606" 
d="M249 303l-198 198l54 54l198 -198l198 198l54 -54l-198 -198l198 -198l-54 -54l-198 198l-198 -198l-54 54z" />
    <glyph glyph-name="thorn" unicode="&#xd8;" horiz-adv-x="868" 
d="M727 821l54 -43.0029l-91 -121c89.333 -78 134 -175.333 134 -292c0 -105.333 -39 -194.666 -117 -267.999s-169.667 -110 -275 -110c-70.667 0 -138 19.333 -202 58l-95 -128l-55 41l95 127c-87.333 76.667 -131 170.334 -131 281.001
c0 104.667 36.667 194.334 110 269.001c76 77.333 167.333 116 274 116c78.667 0 147 -18.333 205 -55zM645 598.997l-373.001 -497c48.667 -29.333 102.334 -44 161.001 -44c84.667 0 158.667 30.167 222 90.5s95 132.5 95 216.5c0 91.333 -35 169.333 -105 234z
M217.999 142.997l372 496c-42 27.333 -94 41 -156 41c-88.667 0 -163.5 -31.167 -224.5 -93.5s-91.5 -137.833 -91.5 -226.5c0 -80 33.333 -152.333 100 -217z" />
    <glyph glyph-name="ydieresis" unicode="&#xd9;" horiz-adv-x="655" 
d="M76 739h74v-449c0 -67.333 11.333 -119 34 -155c32.667 -51.333 80.667 -77 144 -77c58 0 103.333 22.333 136 67c27.333 37.333 41 92.333 41 165v449h74v-449c0 -91.333 -18.333 -161 -55 -209c-48 -62.667 -113.333 -94 -196 -94c-80.667 0 -145 29.333 -193 88
c-39.333 48 -59 119.667 -59 215v449zM252 938l178 -97l-29 -52l-177 95z" />
    <glyph glyph-name="dotlessi" unicode="&#xda;" horiz-adv-x="655" 
d="M76 739h74v-449c0 -67.333 11.333 -119 34 -155c32.667 -51.333 80.667 -77 144 -77c58 0 103.333 22.333 136 67c27.333 37.333 41 92.333 41 165v449h74v-449c0 -91.333 -18.333 -161 -55 -209c-48 -62.667 -113.333 -94 -196 -94c-80.667 0 -145 29.333 -193 88
c-39.333 48 -59 119.667 -59 215v449zM281 849l172 104l31 -52l-173 -102z" />
    <glyph glyph-name="Lslash" unicode="&#xdb;" horiz-adv-x="655" 
d="M76 739h74v-449c0 -67.333 11.333 -119 34 -155c32.667 -51.333 80.667 -77 144 -77c58 0 103.333 22.333 136 67c27.333 37.333 41 92.333 41 165v449h74v-449c0 -91.333 -18.333 -161 -55 -209c-48 -62.667 -113.333 -94 -196 -94c-80.667 0 -145 29.333 -193 88
c-39.333 48 -59 119.667 -59 215v449zM175 797l131 113h57l130 -113h-81l-78 65l-78 -65h-81z" />
    <glyph glyph-name="lslash" unicode="&#xdc;" horiz-adv-x="655" 
d="M76 739h74v-449c0 -67.333 11.333 -119 34 -155c32.667 -51.333 80.667 -77 144 -77c58 0 103.333 22.333 136 67c27.333 37.333 41 92.333 41 165v449h74v-449c0 -91.333 -18.333 -161 -55 -209c-48 -62.667 -113.333 -94 -196 -94c-80.667 0 -145 29.333 -193 88
c-39.333 48 -59 119.667 -59 215v449zM210 879h74v-85h-74v85zM374 879h74v-85h-74v85z" />
    <glyph glyph-name="OE" unicode="&#xdd;" horiz-adv-x="592" 
d="M259 0v247l-257 492h81l213 -415l213 415h81l-257 -492v-247h-74zM225 844l172 104l31 -52l-173 -102z" />
    <glyph glyph-name="oe" unicode="&#xde;" horiz-adv-x="592" 
d="M150 523l-0.000976562 -307h127c67.333 0 117 10 149 30c43.333 26.667 65 67.667 65 123c0 66 -30.667 112 -92 138c-21.333 8.66699 -46.666 14 -75.999 16h-78h-95zM288.999 149l-139 0.000976562v-149h-74v739h74v-149h120c89.333 0 155.333 -13.333 198 -40
c64.667 -40.667 97 -101.334 97 -182.001c0 -72.667 -28 -129.667 -84 -171c-43.333 -32 -107.333 -48 -192 -48z" />
    <glyph glyph-name="Scaron" unicode="&#xdf;" horiz-adv-x="554" 
d="M59 0l0.000976562 467.999c0 86.667 11.333 148.667 34 186c18 30 42.833 53.667 74.5 71s65.167 26 100.5 26c56 0 104 -20.5 144 -61.5s60 -89.5 60 -145.5c0 -73.333 -28 -125 -84 -155c90.667 -31.333 136 -94 136 -188c0 -60 -19 -109.333 -57 -148
c-42.667 -44 -92.667 -66 -150 -66c-40 0 -77.333 11 -112 33c-36.667 22.667 -61.334 52.334 -74.001 89.001h-2v-109h-70zM133.001 202.999l49.002 -0.00195312c-1.33301 -36.667 11 -70 37 -100s57 -45 93 -45c39.333 0 72.166 13.667 98.499 41s39.5 61 39.5 101
c0 28.667 -7.83301 54.334 -23.5 77.001s-36.5 39.334 -62.5 50.001c-22.667 9.33301 -67.334 14 -134.001 14h-7v67h12c44 0 79.667 9.33301 107 28c37.333 25.333 56 62 56 110c0 36.667 -12.667 68.167 -38 94.5s-56 39.5 -92 39.5c-57.333 0 -97 -26 -119 -78
c-10.667 -25.333 -16 -70 -16 -134v-265z" />
    <glyph glyph-name="scaron" unicode="&#xe0;" horiz-adv-x="683" 
d="M620 547l0.000976562 -547h-71v103h-2c-19.333 -37.333 -48.666 -66.333 -87.999 -87c-36.667 -19.333 -77.334 -29 -122.001 -29c-92.667 0 -173 38.667 -241 116c-12.667 14 -24 35.333 -34 64c-13.333 36 -20 72.667 -20 110c0 73.333 26.333 137.333 79 192
c58 60 129.333 90 214 90c45.333 0 86.666 -9.66699 123.999 -29c40 -20.667 69.333 -49.667 88 -87h2v104h71zM335.001 488c-60 0 -111.5 -21.168 -154.5 -63.501s-64.5 -93.5 -64.5 -153.5c0 -59.333 22 -109.666 66 -150.999s95.667 -62 155 -62
c57.333 0 107 21.167 149 63.5s63 91.833 63 148.5c0 60.667 -20.5 112.167 -61.5 154.5s-91.833 63.5 -152.5 63.5zM296.001 762.999l178 -97l-29 -52l-177 95z" />
    <glyph glyph-name="Ydieresis" unicode="&#xe1;" horiz-adv-x="683" 
d="M620 547l0.000976562 -547h-71v103h-2c-19.333 -37.333 -48.666 -66.333 -87.999 -87c-36.667 -19.333 -77.334 -29 -122.001 -29c-92.667 0 -173 38.667 -241 116c-12.667 14 -24 35.333 -34 64c-13.333 36 -20 72.667 -20 110c0 73.333 26.333 137.333 79 192
c58 60 129.333 90 214 90c45.333 0 86.666 -9.66699 123.999 -29c40 -20.667 69.333 -49.667 88 -87h2v104h71zM335.001 488c-60 0 -111.5 -21.168 -154.5 -63.501s-64.5 -93.5 -64.5 -153.5c0 -59.333 22 -109.666 66 -150.999s95.667 -62 155 -62
c57.333 0 107 21.167 149 63.5s63 91.833 63 148.5c0 60.667 -20.5 112.167 -61.5 154.5s-91.833 63.5 -152.5 63.5zM305.001 663.999l172 104l31 -52l-173 -102z" />
    <glyph glyph-name="Zcaron" unicode="&#xe2;" horiz-adv-x="683" 
d="M620 547l0.000976562 -547h-71v103h-2c-19.333 -37.333 -48.666 -66.333 -87.999 -87c-36.667 -19.333 -77.334 -29 -122.001 -29c-92.667 0 -173 38.667 -241 116c-12.667 14 -24 35.333 -34 64c-13.333 36 -20 72.667 -20 110c0 73.333 26.333 137.333 79 192
c58 60 129.333 90 214 90c45.333 0 86.666 -9.66699 123.999 -29c40 -20.667 69.333 -49.667 88 -87h2v104h71zM335.001 488c-60 0 -111.5 -21.168 -154.5 -63.501s-64.5 -93.5 -64.5 -153.5c0 -59.333 22 -109.666 66 -150.999s95.667 -62 155 -62
c57.333 0 107 21.167 149 63.5s63 91.833 63 148.5c0 60.667 -20.5 112.167 -61.5 154.5s-91.833 63.5 -152.5 63.5zM190.001 607.999l131 113h57l130 -113h-81l-78 65l-78 -65h-81z" />
    <glyph glyph-name="zcaron" unicode="&#xe3;" horiz-adv-x="683" 
d="M620 547l0.000976562 -547h-71v103h-2c-19.333 -37.333 -48.666 -66.333 -87.999 -87c-36.667 -19.333 -77.334 -29 -122.001 -29c-92.667 0 -173 38.667 -241 116c-12.667 14 -24 35.333 -34 64c-13.333 36 -20 72.667 -20 110c0 73.333 26.333 137.333 79 192
c58 60 129.333 90 214 90c45.333 0 86.666 -9.66699 123.999 -29c40 -20.667 69.333 -49.667 88 -87h2v104h71zM335.001 488c-60 0 -111.5 -21.168 -154.5 -63.501s-64.5 -93.5 -64.5 -153.5c0 -59.333 22 -109.666 66 -150.999s95.667 -62 155 -62
c57.333 0 107 21.167 149 63.5s63 91.833 63 148.5c0 60.667 -20.5 112.167 -61.5 154.5s-91.833 63.5 -152.5 63.5zM470.001 688.999l23 -40c-23.333 -23.333 -47.333 -35 -72 -35c-16.667 0 -37.667 6.33301 -63 19c-20 10 -35 15 -45 15c-18 0 -34 -8.33301 -48 -25
l-26 44c22.667 24.667 48.667 37 78 37c16 0 35 -6 57 -18s38.333 -18 49 -18c11.333 0 27 7 47 21z" />
    <glyph glyph-name="florin" unicode="&#xe4;" horiz-adv-x="683" 
d="M620 547l0.000976562 -547h-71v103h-2c-19.333 -37.333 -48.666 -66.333 -87.999 -87c-36.667 -19.333 -77.334 -29 -122.001 -29c-92.667 0 -173 38.667 -241 116c-12.667 14 -24 35.333 -34 64c-13.333 36 -20 72.667 -20 110c0 73.333 26.333 137.333 79 192
c58 60 129.333 90 214 90c45.333 0 86.666 -9.66699 123.999 -29c40 -20.667 69.333 -49.667 88 -87h2v104h71zM335.001 488c-60 0 -111.5 -21.168 -154.5 -63.501s-64.5 -93.5 -64.5 -153.5c0 -59.333 22 -109.666 66 -150.999s95.667 -62 155 -62
c57.333 0 107 21.167 149 63.5s63 91.833 63 148.5c0 60.667 -20.5 112.167 -61.5 154.5s-91.833 63.5 -152.5 63.5zM245.001 692.999h74v-85h-74v85zM409.001 692.999h74v-85h-74v85z" />
    <glyph glyph-name="circumflex" unicode="&#xe5;" horiz-adv-x="683" 
d="M620 547l0.000976562 -547h-71v103h-2c-19.333 -37.333 -48.666 -66.333 -87.999 -87c-36.667 -19.333 -77.334 -29 -122.001 -29c-92.667 0 -173 38.667 -241 116c-12.667 14 -24 35.333 -34 64c-13.333 36 -20 72.667 -20 110c0 73.333 26.333 137.333 79 192
c58 60 129.333 90 214 90c45.333 0 86.666 -9.66699 123.999 -29c40 -20.667 69.333 -49.667 88 -87h2v104h71zM335.001 488c-60 0 -111.5 -21.168 -154.5 -63.501s-64.5 -93.5 -64.5 -153.5c0 -59.333 22 -109.666 66 -150.999s95.667 -62 155 -62
c57.333 0 107 21.167 149 63.5s63 91.833 63 148.5c0 60.667 -20.5 112.167 -61.5 154.5s-91.833 63.5 -152.5 63.5zM360.001 772.999c22.667 0 41.834 -7.83301 57.501 -23.5s23.5 -34.834 23.5 -57.501s-7.83301 -41.834 -23.5 -57.501s-34.834 -23.5 -57.501 -23.5
s-41.834 7.83301 -57.501 23.5s-23.5 34.834 -23.5 57.501s7.83301 41.834 23.5 57.501s34.834 23.5 57.501 23.5zM360.001 739.999v1.00098c-13.333 0 -24.833 -4.66699 -34.5 -14s-14.5 -20.666 -14.5 -33.999s4.66699 -24.833 14 -34.5s20.666 -14.5 33.999 -14.5
s24.833 4.66699 34.5 14s14.5 20.666 14.5 33.999s-4.66699 24.666 -14 33.999s-20.666 14 -33.999 14z" />
    <glyph glyph-name="caron" unicode="&#xe6;" horiz-adv-x="1157" 
d="M1118 246l-493 0.000976562c2.66699 -50.667 25 -94.667 67 -132s88.667 -56 140 -56c40 0 78.167 11 114.5 33s61.833 51 76.5 87h77c-17.333 -55.333 -51.333 -101 -102 -137s-105.667 -54 -165 -54c-84.667 0 -155.334 33.333 -212.001 100v-100h-70v100
c-57.333 -66.667 -128.333 -100 -213 -100c-82.667 0 -151 25.667 -205 77c-60.667 57.333 -91 126.666 -91 207.999c0 80 29.667 149 89 207c54.667 53.333 124.334 80 209.001 80c42 0 81.833 -9.16699 119.5 -27.5s68.167 -43.833 91.5 -76.5v104h70v-104
c20.667 31.333 51.667 56.666 93 75.999c39.333 18.667 78.666 28 117.999 28c42.667 0 84 -9.66699 124 -29s73.333 -45.666 100 -78.999c42.667 -52.667 63.334 -121 62.001 -205zM627 313.001h413.001c-5.33301 48 -28.333 89.167 -69 123.5s-85.667 51.5 -135 51.5
c-62 0 -114 -22 -156 -66c-30.667 -32 -48.334 -68.333 -53.001 -109zM332.001 58.001c61.333 0 113.166 20.5 155.499 61.5s63.5 92.167 63.5 153.5c0 62 -21 113.333 -63 154s-94.333 61 -157 61c-61.333 0 -112.5 -21.333 -153.5 -64s-61.5 -94.667 -61.5 -156
c0 -58 21.333 -107.5 64 -148.5s93.334 -61.5 152.001 -61.5z" />
    <glyph glyph-name="macron" unicode="&#xe7;" horiz-adv-x="647" 
d="M525 160l82 0.000976562c-24.667 -54 -60.5 -96.333 -107.5 -127s-99.833 -46 -158.5 -46c-82.667 0 -153.167 27.333 -211.5 82s-87.5 123 -87.5 205c0 80 29.333 147.5 88 202.5s128 82.5 208 82.5c59.333 0 114 -16.167 164 -48.5s85.333 -75.5 106 -129.5h-83
c-19.333 32.667 -45.833 58.667 -79.5 78s-69.167 29 -106.5 29c-61.333 0 -113.833 -20.333 -157.5 -61s-65.5 -91.334 -65.5 -152.001s21 -112 63 -154s93.333 -63 154 -63c79.333 0 143.333 34 192 102zM317 -9.99902l-21.999 -50c7.33301 3.33301 16 5 26 5
c21.333 0 38.333 -6.5 51 -19.5s19 -30.167 19 -51.5c0 -22.667 -7.33301 -42 -22 -58s-33 -24 -55 -24c-43.333 0 -69.666 21.333 -78.999 64l39 4c0.666992 -8 5.16699 -14.833 13.5 -20.5s17.166 -8.5 26.499 -8.5c25.333 0 38 13.667 38 41c0 11.333 -4 21 -12 29
s-18 12 -30 12c-14.667 0 -26.334 -6.33301 -35.001 -19l-27 15l36 81h33z" />
    <glyph glyph-name="breve" unicode="&#xe8;" horiz-adv-x="650" 
d="M611 247l-494.998 -0.00195312c2 -51.333 24 -95.666 66 -132.999s88.667 -56 140 -56c41.333 0 80.333 10.833 117 32.5s63 50.834 79 87.501h77c-19.333 -55.333 -54 -101 -104 -137s-104 -54 -162 -54c-80 0 -147.833 27.667 -203.5 83s-83.5 123 -83.5 203
c0 79.333 27.667 146.833 83 202.5s122.666 83.5 201.999 83.5c89.333 0 162.666 -35.333 219.999 -106c40.667 -49.333 62 -118 64 -206zM116.002 313.998l421 -0.000976562c-9.33301 48.667 -34 89.834 -74 123.501s-85 50.5 -135 50.5c-52 0 -98.167 -16.5 -138.5 -49.5
s-64.833 -74.5 -73.5 -124.5zM251.002 757.997l178 -97l-29 -52l-177 95z" />
    <glyph glyph-name="dotaccent" unicode="&#xe9;" horiz-adv-x="650" 
d="M611 247l-494.998 -0.00195312c2 -51.333 24 -95.666 66 -132.999s88.667 -56 140 -56c41.333 0 80.333 10.833 117 32.5s63 50.834 79 87.501h77c-19.333 -55.333 -54 -101 -104 -137s-104 -54 -162 -54c-80 0 -147.833 27.667 -203.5 83s-83.5 123 -83.5 203
c0 79.333 27.667 146.833 83 202.5s122.666 83.5 201.999 83.5c89.333 0 162.666 -35.333 219.999 -106c40.667 -49.333 62 -118 64 -206zM116.002 313.998l421 -0.000976562c-9.33301 48.667 -34 89.834 -74 123.501s-85 50.5 -135 50.5c-52 0 -98.167 -16.5 -138.5 -49.5
s-64.833 -74.5 -73.5 -124.5zM245.002 658.997l172 104l31 -52l-173 -102z" />
    <glyph glyph-name="ring" unicode="&#xea;" horiz-adv-x="650" 
d="M611 247l-494.998 -0.00195312c2 -51.333 24 -95.666 66 -132.999s88.667 -56 140 -56c41.333 0 80.333 10.833 117 32.5s63 50.834 79 87.501h77c-19.333 -55.333 -54 -101 -104 -137s-104 -54 -162 -54c-80 0 -147.833 27.667 -203.5 83s-83.5 123 -83.5 203
c0 79.333 27.667 146.833 83 202.5s122.666 83.5 201.999 83.5c89.333 0 162.666 -35.333 219.999 -106c40.667 -49.333 62 -118 64 -206zM116.002 313.998l421 -0.000976562c-9.33301 48.667 -34 89.834 -74 123.501s-85 50.5 -135 50.5c-52 0 -98.167 -16.5 -138.5 -49.5
s-64.833 -74.5 -73.5 -124.5zM167.002 603.997l131 113h57l130 -113h-81l-78 65l-78 -65h-81z" />
    <glyph glyph-name="ogonek" unicode="&#xeb;" horiz-adv-x="650" 
d="M611 247l-494.998 -0.00195312c2 -51.333 24 -95.666 66 -132.999s88.667 -56 140 -56c41.333 0 80.333 10.833 117 32.5s63 50.834 79 87.501h77c-19.333 -55.333 -54 -101 -104 -137s-104 -54 -162 -54c-80 0 -147.833 27.667 -203.5 83s-83.5 123 -83.5 203
c0 79.333 27.667 146.833 83 202.5s122.666 83.5 201.999 83.5c89.333 0 162.666 -35.333 219.999 -106c40.667 -49.333 62 -118 64 -206zM116.002 313.998l421 -0.000976562c-9.33301 48.667 -34 89.834 -74 123.501s-85 50.5 -135 50.5c-52 0 -98.167 -16.5 -138.5 -49.5
s-64.833 -74.5 -73.5 -124.5zM202.002 693.997h74v-85h-74v85zM366.002 693.997h74v-85h-74v85z" />
    <glyph glyph-name="tilde" unicode="&#xec;" horiz-adv-x="200" 
d="M63 0v547h74v-547h-74zM15 751l178 -97l-29 -52l-177 95z" />
    <glyph glyph-name="hungarumlaut" unicode="&#xed;" horiz-adv-x="200" 
d="M63 0v547h74v-547h-74zM4 672l172 104l31 -52l-173 -102z" />
    <glyph glyph-name="mu" unicode="&#xee;" horiz-adv-x="200" 
d="M63 0v547h74v-547h-74zM-67 620l131 113h57l130 -113h-81l-78 65l-78 -65h-81z" />
    <glyph glyph-name="endash" unicode="&#xef;" horiz-adv-x="200" 
d="M63 0v547h74v-547h-74zM-22 707h74v-85h-74v85zM142 707h74v-85h-74v85z" />
    <glyph glyph-name="emdash" unicode="&#xf0;" horiz-adv-x="655" 
d="M329 488c-60 0 -110.501 -21.334 -151.501 -64.001s-61.5 -94 -61.5 -154c0 -58.667 20.833 -108.667 62.5 -150s91.834 -62 150.501 -62c60 0 110 21.333 150 64s60 94.334 60 155.001c0 58 -20.5 107.667 -61.5 149s-90.5 62 -148.5 62zM328.999 -13.001
c-78 0 -145.333 27.668 -202 83.001s-85 122 -85 200c0 81.333 28 149.833 84 205.5s123.667 83.5 203 83.5c66.667 0 119 -19 157 -57l2 2c-26.667 44 -79.334 94.667 -158.001 152l-109 -38l-62 26l115 40c-27.333 14.667 -73.666 32.667 -138.999 54l2 2l123 -1
c30 -6.66699 55 -16.667 75 -30l143 50l56 -28l-143 -50c63.333 -36 115.333 -88 156 -156c44 -74.667 66 -157.334 66 -248.001c0 -82.667 -27.5 -151.667 -82.5 -207s-122.167 -83 -201.5 -83z" />
    <glyph glyph-name="quoteleft" unicode="&#xf1;" horiz-adv-x="610" 
d="M63 0l0.000976562 547h70v-79h2c41.333 60.667 97.333 91 168 91c80 0 144.667 -30.333 194 -91c33.333 -41.333 50 -101.333 50 -180v-288h-74v288c0 56.667 -10.667 100 -32 130c-33.333 46.667 -80.333 70 -141 70c-56.667 0 -101.334 -22.333 -134.001 -67
c-19.333 -26.667 -29 -71 -29 -133v-288h-74zM408.001 687l23 -40c-23.333 -23.333 -47.333 -35 -72 -35c-16.667 0 -37.667 6.33301 -63 19c-20 10 -35 15 -45 15c-18 0 -34 -8.33301 -48 -25l-26 44c22.667 24.667 48.667 37 78 37c16 0 35 -6 57 -18s38.333 -18 49 -18
c11.333 0 27 7 47 21z" />
    <glyph glyph-name="quoteright" unicode="&#xf2;" horiz-adv-x="655" 
d="M329 559c76 0 142.333 -28 199 -84s85 -122 85 -198c0 -78.667 -27.667 -146.667 -83 -204s-122.333 -86 -201 -86c-78 0 -145.333 27.667 -202 83s-85 122 -85 200c0 80 27.833 148.167 83.5 204.5s123.5 84.5 203.5 84.5zM329 488
c-60 0 -110.502 -21.334 -151.502 -64.001s-61.5 -94 -61.5 -154c0 -58.667 20.833 -108.667 62.5 -150s91.834 -62 150.501 -62c60 0 110 21.333 150 64s60 94.334 60 155.001c0 60 -21.167 110.167 -63.5 150.5s-91.166 60.5 -146.499 60.5zM251.998 757.999l178 -97
l-29 -52l-177 95z" />
    <glyph glyph-name="quotesinglbase" unicode="&#xf3;" horiz-adv-x="655" 
d="M329 559c76 0 142.333 -28 199 -84s85 -122 85 -198c0 -78.667 -27.667 -146.667 -83 -204s-122.333 -86 -201 -86c-78 0 -145.333 27.667 -202 83s-85 122 -85 200c0 80 27.833 148.167 83.5 204.5s123.5 84.5 203.5 84.5zM329 488
c-60 0 -110.502 -21.334 -151.502 -64.001s-61.5 -94 -61.5 -154c0 -58.667 20.833 -108.667 62.5 -150s91.834 -62 150.501 -62c60 0 110 21.333 150 64s60 94.334 60 155.001c0 60 -21.167 110.167 -63.5 150.5s-91.166 60.5 -146.499 60.5zM245.998 658.999l172 104
l31 -52l-173 -102z" />
    <glyph glyph-name="quotedblleft" unicode="&#xf4;" horiz-adv-x="655" 
d="M329 559c76 0 142.333 -28 199 -84s85 -122 85 -198c0 -78.667 -27.667 -146.667 -83 -204s-122.333 -86 -201 -86c-78 0 -145.333 27.667 -202 83s-85 122 -85 200c0 80 27.833 148.167 83.5 204.5s123.5 84.5 203.5 84.5zM329 488
c-60 0 -110.502 -21.334 -151.502 -64.001s-61.5 -94 -61.5 -154c0 -58.667 20.833 -108.667 62.5 -150s91.834 -62 150.501 -62c60 0 110 21.333 150 64s60 94.334 60 155.001c0 60 -21.167 110.167 -63.5 150.5s-91.166 60.5 -146.499 60.5zM168.998 602.999l131 113h57
l130 -113h-81l-78 65l-78 -65h-81z" />
    <glyph glyph-name="quotedblright" unicode="&#xf5;" horiz-adv-x="655" 
d="M329 559c76 0 142.333 -28 199 -84s85 -122 85 -198c0 -78.667 -27.667 -146.667 -83 -204s-122.333 -86 -201 -86c-78 0 -145.333 27.667 -202 83s-85 122 -85 200c0 80 27.833 148.167 83.5 204.5s123.5 84.5 203.5 84.5zM329 488
c-60 0 -110.502 -21.334 -151.502 -64.001s-61.5 -94 -61.5 -154c0 -58.667 20.833 -108.667 62.5 -150s91.834 -62 150.501 -62c60 0 110 21.333 150 64s60 94.334 60 155.001c0 60 -21.167 110.167 -63.5 150.5s-91.166 60.5 -146.499 60.5zM430.998 683.999l23 -40
c-23.333 -23.333 -47.333 -35 -72 -35c-16.667 0 -37.667 6.33301 -63 19c-20 10 -35 15 -45 15c-18 0 -34 -8.33301 -48 -25l-26 44c22.667 24.667 48.667 37 78 37c16 0 35 -6 57 -18s38.333 -18 49 -18c11.333 0 27 7 47 21z" />
    <glyph glyph-name="quotedblbase" unicode="&#xf6;" horiz-adv-x="655" 
d="M329 559c76 0 142.333 -28 199 -84s85 -122 85 -198c0 -78.667 -27.667 -146.667 -83 -204s-122.333 -86 -201 -86c-78 0 -145.333 27.667 -202 83s-85 122 -85 200c0 80 27.833 148.167 83.5 204.5s123.5 84.5 203.5 84.5zM329 488
c-60 0 -110.502 -21.334 -151.502 -64.001s-61.5 -94 -61.5 -154c0 -58.667 20.833 -108.667 62.5 -150s91.834 -62 150.501 -62c60 0 110 21.333 150 64s60 94.334 60 155.001c0 60 -21.167 110.167 -63.5 150.5s-91.166 60.5 -146.499 60.5zM208.998 687.999h74v-85h-74
v85zM372.998 687.999h74v-85h-74v85z" />
    <glyph glyph-name="dagger" unicode="&#xf7;" horiz-adv-x="606" 
d="M51 263v76h504v-76h-504zM265 477v76h76v-76h-76zM265 49v76h76v-76h-76z" />
    <glyph glyph-name="daggerdbl" unicode="&#xf8;" horiz-adv-x="653" 
d="M184 27l-54.999 -72.001l-52 40l55 71c-26.667 22.667 -48.667 54.334 -66 95.001c-16 38 -24 75.333 -24 112c0 77.333 28 144.333 84 201s122.667 85 200 85c44 0 90.667 -12.667 140 -38l8 -3l57 76l54 -41l-59 -76c56.667 -58 85 -126 85 -204
s-28.333 -145.167 -85 -201.5s-124 -84.5 -202 -84.5c-48.667 0 -95.334 13.333 -140.001 40zM174.001 123.999l257 335.001c-32 19.333 -65.333 29 -100 29c-58.667 0 -109.167 -20.333 -151.5 -61s-63.5 -90.334 -63.5 -149.001c0 -64.667 19.333 -116 58 -154z
M484.001 418l-257 -335c30.667 -16.667 65 -25 103 -25c59.333 0 110.333 23.333 153 70c36 39.333 54 88.333 54 147c0 56 -17.667 103.667 -53 143z" />
    <glyph glyph-name="bullet" unicode="&#xf9;" horiz-adv-x="608" 
d="M545 547l-0.00195312 -547.001h-70v85h-2c-32 -65.333 -91.667 -98 -179 -98c-70.667 0 -134.667 32.667 -192 98c-26 29.333 -39 87 -39 173v289h74v-289c0 -53.333 8 -93.666 24 -120.999c30.667 -52.667 78.334 -79 143.001 -79c56.667 0 101.334 22.333 134.001 67
c22 30 33 74.333 33 133v289h74zM228.998 745.999l178 -97l-29 -52l-177 95z" />
    <glyph glyph-name="ellipsis" unicode="&#xfa;" horiz-adv-x="608" 
d="M545 547l-0.00195312 -547.001h-70v85h-2c-32 -65.333 -91.667 -98 -179 -98c-70.667 0 -134.667 32.667 -192 98c-26 29.333 -39 87 -39 173v289h74v-289c0 -53.333 8 -93.666 24 -120.999c30.667 -52.667 78.334 -79 143.001 -79c56.667 0 101.334 22.333 134.001 67
c22 30 33 74.333 33 133v289h74zM252.998 651.999l172 104l31 -52l-173 -102z" />
    <glyph glyph-name="perthousand" unicode="&#xfb;" horiz-adv-x="608" 
d="M545 547l-0.00195312 -547.001h-70v85h-2c-32 -65.333 -91.667 -98 -179 -98c-70.667 0 -134.667 32.667 -192 98c-26 29.333 -39 87 -39 173v289h74v-289c0 -53.333 8 -93.666 24 -120.999c30.667 -52.667 78.334 -79 143.001 -79c56.667 0 101.334 22.333 134.001 67
c22 30 33 74.333 33 133v289h74zM154.998 607.999l131 113h57l130 -113h-81l-78 65l-78 -65h-81z" />
    <glyph glyph-name="guilsinglleft" unicode="&#xfc;" horiz-adv-x="608" 
d="M545 547l-0.00195312 -547.001h-70v85h-2c-32 -65.333 -91.667 -98 -179 -98c-70.667 0 -134.667 32.667 -192 98c-26 29.333 -39 87 -39 173v289h74v-289c0 -53.333 8 -93.666 24 -120.999c30.667 -52.667 78.334 -79 143.001 -79c56.667 0 101.334 22.333 134.001 67
c22 30 33 74.333 33 133v289h74zM184.998 684.999h74v-85h-74v85zM348.998 684.999h74v-85h-74v85z" />
    <glyph glyph-name="guilsinglright" unicode="&#xfd;" horiz-adv-x="536" 
d="M448 547h79l-316 -739h-78l86 209l-210 530h79l175 -436zM222 652l172 104l31 -52l-173 -102z" />
    <glyph glyph-name="fraction" unicode="&#xfe;" horiz-adv-x="682" 
d="M63 739h74v-282h2c17.333 31.333 48.333 56.666 93 75.999c39.333 17.333 79 26 119 26c80 0 154.667 -35.333 224 -106c17.333 -18 32 -42.333 44 -73c14 -35.333 21 -71.666 21 -108.999c0 -80 -29.167 -147.333 -87.5 -202s-127.833 -82 -208.5 -82
c-43.333 0 -83.333 9.66699 -120 29c-40.667 21.333 -69 50 -85 86h-2v-294h-74v931zM346 58c61.333 0 113.334 20.334 156.001 61.001s64 91.667 64 153c0 59.333 -21 110.166 -63 152.499s-92.667 63.5 -152 63.5c-60.667 0 -112.334 -20 -155.001 -60s-64 -90 -64 -150
c0 -62.667 19.333 -113.667 58 -153c43.333 -44.667 95.333 -67 156 -67z" />
    <glyph glyph-name="trademark" unicode="&#xff;" horiz-adv-x="536" 
d="M448 547h79l-316 -739h-78l86 209l-210 530h79l175 -436zM137 697h74v-85h-74v85zM301 697h74v-85h-74v85z" />
    <glyph glyph-name="ehoahuyen" unicode="&#x102;" horiz-adv-x="740" 
d="M11 0l319 739h82l317 -739h-80l-107 248h-344l-107 -248h-80zM227 315h286l-142 339zM238 875h57.998c12.667 -26.667 39 -40 79 -40s66.333 13.333 79 40h56c-7.33301 -30 -24.333 -53 -51 -69c-23.333 -14.667 -51.666 -22 -84.999 -22s-61.666 7.33301 -84.999 22
c-26.667 16 -43.667 39 -51 69z" />
    <glyph glyph-name="ehoasac" unicode="&#x103;" horiz-adv-x="683" 
d="M620 547l0.000976562 -547h-71v103h-2c-19.333 -37.333 -48.666 -66.333 -87.999 -87c-36.667 -19.333 -77.334 -29 -122.001 -29c-92.667 0 -173 38.667 -241 116c-12.667 14 -24 35.333 -34 64c-13.333 36 -20 72.667 -20 110c0 73.333 26.333 137.333 79 192
c58 60 129.333 90 214 90c45.333 0 86.666 -9.66699 123.999 -29c40 -20.667 69.333 -49.667 88 -87h2v104h71zM335.001 488c-60 0 -111.5 -21.168 -154.5 -63.501s-64.5 -93.5 -64.5 -153.5c0 -59.333 22 -109.666 66 -150.999s95.667 -62 155 -62
c57.333 0 107 21.167 149 63.5s63 91.833 63 148.5c0 60.667 -20.5 112.167 -61.5 154.5s-91.833 63.5 -152.5 63.5zM240.001 692.999h57.998c12.667 -26.667 39 -40 79 -40s66.333 13.333 79 40h56c-7.33301 -30 -24.333 -53 -51 -69
c-23.333 -14.667 -51.666 -22 -84.999 -22s-61.666 7.33301 -84.999 22c-26.667 16 -43.667 39 -51 69z" />
    <glyph glyph-name="ahoasac" unicode="&#x110;" horiz-adv-x="790" 
d="M196 67l95 0.000976562c60.667 0 107 3.33301 139 10c48 9.33301 90.667 28.666 128 57.999c76 60 114 138.667 114 236c0 96 -38.333 174 -115 234c-36.667 28.667 -79 47.667 -127 57c-32 6.66699 -78.333 10 -139 10h-95v-245h130v-67h-130v-293zM326 0.000976562
l-204 -0.000976562v360h-96v67h96v312h199c122.667 0 219.334 -28.667 290.001 -86c42 -34 75 -76.167 99 -126.5s36 -102.166 36 -155.499c0 -109.333 -40.333 -201 -121 -275c-40.667 -37.333 -87.334 -63.333 -140.001 -78c-42 -12 -95 -18 -159 -18z" />
    <glyph glyph-name="yhoanang" unicode="&#x111;" horiz-adv-x="685" 
d="M622 769l-0.00195312 -82.999h64v-50h-64v-636h-70v100h-2c-52 -75.333 -125 -113 -219 -113c-81.333 0 -157.666 37.667 -228.999 113c-14.667 12.667 -28 34.667 -40 66c-13.333 35.333 -20 71.666 -20 108.999c0 80.667 28.833 148.167 86.5 202.5
s126.834 81.5 207.501 81.5c42.667 0 83.167 -9.33301 121.5 -28s67.833 -45 88.5 -79h2v182h-250v50h250v85h74zM546.998 275.001c0 60 -21.5 110.333 -64.5 151s-94.5 61 -154.5 61c-58.667 0 -109.167 -20.667 -151.5 -62s-63.5 -91.333 -63.5 -150
c0 -60 21.167 -111.333 63.5 -154s93.5 -64 153.5 -64s111.167 21.333 153.5 64s63.5 94 63.5 154z" />
    <glyph glyph-name="yhoanang" unicode="&#x20ab;" horiz-adv-x="685" 
d="M622 769l-0.00195312 -82.999h64v-50h-64v-636h-70v100h-2c-52 -75.333 -125 -113 -219 -113c-81.333 0 -157.666 37.667 -228.999 113c-14.667 12.667 -28 34.667 -40 66c-13.333 35.333 -20 71.666 -20 108.999c0 80.667 28.833 148.167 86.5 202.5
s126.834 81.5 207.501 81.5c42.667 0 83.167 -9.33301 121.5 -28s67.833 -45 88.5 -79h2v182h-250v50h250v85h74zM546.998 275.001c0 60 -21.5 110.333 -64.5 151s-94.5 61 -154.5 61c-58.667 0 -109.167 -20.667 -151.5 -62s-63.5 -91.333 -63.5 -150
c0 -60 21.167 -111.333 63.5 -154s93.5 -64 153.5 -64s111.167 21.333 153.5 64s63.5 94 63.5 154z" />
    <glyph glyph-name="ochoahoi" unicode="&#x128;" horiz-adv-x="226" 
d="M76 0v739h74v-739h-74zM217 869l23 -40c-23.333 -23.333 -47.333 -35 -72 -35c-16.667 0 -37.667 6.33301 -63 19c-20 10 -35 15 -45 15c-18 0 -34 -8.33301 -48 -25l-26 44c22.667 24.667 48.667 37 78 37c16 0 35 -6 57 -18s38.333 -18 49 -18c11.333 0 27 7 47 21z
" />
    <glyph glyph-name="obhoanga" unicode="&#x129;" horiz-adv-x="200" 
d="M63 0v547h74v-547h-74zM199 687l23 -40c-23.333 -23.333 -47.333 -35 -72 -35c-16.667 0 -37.667 6.33301 -63 19c-20 10 -35 15 -45 15c-18 0 -34 -8.33301 -48 -25l-26 44c22.667 24.667 48.667 37 78 37c16 0 35 -6 57 -18s38.333 -18 49 -18c11.333 0 27 7 47 21z
" />
    <glyph glyph-name="degree" unicode="&#x152;" horiz-adv-x="1194" 
d="M748 739h389.999v-67h-316v-267h305v-67h-305v-271h316v-67h-390v143h-2c-34 -48 -78.5 -86 -133.5 -114s-112.167 -42 -171.5 -42c-111.333 0 -205.333 36 -282 108s-115 163.333 -115 274c0 108.667 37.5 199.5 112.5 272.5s166.833 109.5 275.5 109.5
c61.333 0 120.333 -13.5 177 -40.5s102.334 -64.167 137.001 -111.5h2v140zM434.999 680c-89.333 0 -164.501 -29.833 -225.501 -89.5s-91.5 -134.167 -91.5 -223.5c0 -86 30.5 -159 91.5 -219s134.5 -90 220.5 -90c88.667 0 163.834 30.333 225.501 91s92.5 135 92.5 223
c0 85.333 -30.667 158 -92 218s-135 90.333 -221 91v-1z" />
    <glyph glyph-name="Acircumflex" unicode="&#x153;" horiz-adv-x="1137" 
d="M1098 245h-486.999c2 -52 24 -96.167 66 -132.5s89.333 -54.5 142 -54.5c40 0 77.667 10.833 113 32.5s60.666 50.5 75.999 86.5h75c-16 -55.333 -49.333 -100.833 -100 -136.5s-105.334 -53.5 -164.001 -53.5c-50.667 0 -98.667 13.333 -144 40
c-47.333 28 -81 64.333 -101 109c-24 -44.667 -58.667 -80.667 -104 -108s-93 -41 -143 -41c-79.333 0 -146.666 28.333 -201.999 85s-83 124.667 -83 204c0 78 27.833 144.667 83.5 200s122.5 83 200.5 83c49.333 0 97 -14 143 -42c44 -26.667 79.333 -62 106 -106
c20 44 53 80 99 108c44 26.667 91 40 141 40c81.333 0 148.833 -28.167 202.5 -84.5s80.5 -125.5 80.5 -207.5v-22zM611.001 312h412.999c-6 48 -29.333 89.333 -70 124s-85.334 52 -134.001 52c-51.333 0 -96.666 -16.667 -135.999 -50s-63.666 -75.333 -72.999 -126z
M329 58c58 0 107.168 20.833 147.501 62.5s60.5 91.5 60.5 149.5c0 58.667 -20.167 109.667 -60.5 153s-89.5 65 -147.5 65c-58.667 0 -108.834 -20.5 -150.501 -61.5s-62.5 -90.833 -62.5 -149.5c0 -60 20.5 -111.5 61.5 -154.5s91.5 -64.5 151.5 -64.5z" />
    <glyph glyph-name="logicalnot" unicode="&#x160;" horiz-adv-x="498" 
d="M22 207h79.0039c1.33301 -41.333 16.166 -76.5 44.499 -105.5s62.833 -43.5 103.5 -43.5c42.667 0 78.834 13.833 108.501 41.5s44.5 62.5 44.5 104.5s-17 77 -51 105c-23.333 18.667 -61.333 35 -114 49c-31.333 8 -54 15 -68 21c-24.667 9.33301 -45.334 21 -62.001 35
c-41.333 35.333 -62 81.333 -62 138c0 58.667 20.667 106.667 62 144c39.333 36.667 88.666 55 147.999 55c56.667 0 104.834 -19.333 144.501 -58s59.167 -86 58.5 -142h-77c-2.66699 38 -16.334 69 -41.001 93s-56 36 -94 36c-35.333 0 -65.333 -12.667 -90 -38
s-37 -55.666 -37 -90.999c0 -39.333 15.333 -69.666 46 -90.999c18.667 -12.667 52 -25.667 100 -39c38.667 -10.667 63.667 -18.334 75 -23.001c25.333 -10 47.666 -23.333 66.999 -40c46 -40.667 69 -92.334 69 -155.001c0 -60 -22.333 -111 -67 -153
s-97.334 -63 -158.001 -63c-64 0 -118.333 20.833 -163 62.5s-66.667 94.167 -66 157.5zM91.0039 917h82l77 -66l78 66h80l-127 -113h-60z" />
    <glyph glyph-name="Agrave" unicode="&#x161;" horiz-adv-x="388" 
d="M18 161l73.9961 -0.000976562c-1.33301 -28 7.83398 -52.167 27.501 -72.5s43.5 -30.5 71.5 -30.5c26.667 0 49.334 8.5 68.001 25.5s28 38.833 28 65.5c0 49.333 -35.333 84.333 -106 105c-46 13.333 -79 29.333 -99 48c-29.333 27.333 -44 62 -44 104
c0 44 15.333 80.5 46 109.5s68 43.5 112 43.5c40.667 0 76 -14.667 106 -44s45 -64 45 -104h-74c0 23.333 -8 42 -24 56s-36.333 21 -61 21c-20.667 0 -38.5 -7.33301 -53.5 -22s-22.5 -32.667 -22.5 -54c0 -26.667 10 -47.334 30 -62.001c12 -9.33301 34 -19 66 -29
c49.333 -15.333 85 -33 107 -53c30.667 -26 46 -61.667 46 -107c0 -51.333 -16.667 -93.166 -50 -125.499s-75.666 -48.5 -126.999 -48.5c-46.667 0 -86.667 17.333 -120 52s-48.666 75.334 -45.999 122.001zM21.9961 720.999h82l77 -66l78 66h80l-127 -113h-60z" />
    <glyph glyph-name="athsac" unicode="&#x168;" horiz-adv-x="655" 
d="M76 739h74v-449c0 -67.333 11.333 -119 34 -155c32.667 -51.333 80.667 -77 144 -77c58 0 103.333 22.333 136 67c27.333 37.333 41 92.333 41 165v449h74v-449c0 -91.333 -18.333 -161 -55 -209c-48 -62.667 -113.333 -94 -196 -94c-80.667 0 -145 29.333 -193 88
c-39.333 48 -59 119.667 -59 215v449zM431 864l23 -40c-23.333 -23.333 -47.333 -35 -72 -35c-16.667 0 -37.667 6.33301 -63 19c-20 10 -35 15 -45 15c-18 0 -34 -8.33301 -48 -25l-26 44c22.667 24.667 48.667 37 78 37c16 0 35 -6 57 -18s38.333 -18 49 -18
c11.333 0 27 7 47 21z" />
    <glyph glyph-name="uchoahuyen" unicode="&#x169;" horiz-adv-x="608" 
d="M545 547l-0.00195312 -547.001h-70v85h-2c-32 -65.333 -91.667 -98 -179 -98c-70.667 0 -134.667 32.667 -192 98c-26 29.333 -39 87 -39 173v289h74v-289c0 -53.333 8 -93.666 24 -120.999c30.667 -52.667 78.334 -79 143.001 -79c56.667 0 101.334 22.333 134.001 67
c22 30 33 74.333 33 133v289h74zM407.998 671.999l23 -40c-23.333 -23.333 -47.333 -35 -72 -35c-16.667 0 -37.667 6.33301 -63 19c-20 10 -35 15 -45 15c-18 0 -34 -8.33301 -48 -25l-26 44c22.667 24.667 48.667 37 78 37c16 0 35 -6 57 -18s38.333 -18 49 -18
c11.333 0 27 7 47 21z" />
    <glyph glyph-name="yen" unicode="&#x192;" horiz-adv-x="554" 
d="M393 521l112.002 -0.000976562l-12 -67h-112l-78 -419c-9.33301 -50 -15 -78.667 -17 -86c-8.66699 -33.333 -20.334 -60.333 -35.001 -81c-40 -55.333 -99.333 -82.666 -178 -81.999c-12.667 0 -31 2 -55 6l13 65l26 -4l28 -2c51.333 -3.33301 88.666 15.667 111.999 57
c12 22.667 24.333 67.334 37 134.001l78 412h-114l13 67h112l1 9c7.33301 63.333 26 113.666 56 150.999c38 46.667 86.333 70 145 70h21l-13 -71l-7 2l-10 1c-28.667 0 -54.667 -13 -78 -39c-16 -18 -30 -54.333 -42 -109z" />
    <glyph glyph-name="ahoahoi" unicode="&#x1a0;" horiz-adv-x="869" 
d="M434 751l0.00195312 -1c76 0 144 -17.333 204 -52c48 -28 84.667 -62.667 110 -104c44 8.66699 68.667 54.667 74 138h61c0 -120 -35.333 -180 -106 -180c31.333 -50.667 47.333 -110.667 48 -180c0.666992 -106.667 -37.333 -197.5 -114 -272.5s-169 -112.5 -277 -112.5
c-104.667 0 -195.834 37 -273.501 111s-116.5 163.333 -116.5 268c0 107.333 38.167 198.333 114.5 273s168.166 112 275.499 112zM435.002 57c87.333 0 161.833 30.5 223.5 91.5s92.5 135.167 92.5 222.5c0 84.667 -31.333 157.167 -94 217.5s-136.667 90.5 -222 90.5
c-88 0 -162.833 -30.5 -224.5 -91.5s-92.5 -135.167 -92.5 -222.5c0 -84.667 31.667 -157.167 95 -217.5s137.333 -90.5 222 -90.5z" />
    <glyph glyph-name="ahoahuyen" unicode="&#x1a1;" horiz-adv-x="655" 
d="M329 559l1.00098 0.000976562c53.333 0 101.333 -12.333 144 -37c36 -20.667 64 -47.334 84 -80.001c21.333 10 36.333 24.667 45 44c7.33301 16 11.666 40.667 12.999 74h61c0.666992 -102 -31 -154 -95 -156c20.667 -36.667 31 -79 31 -127
c0 -78.667 -27.667 -146.667 -83 -204s-122.333 -86 -201 -86c-78 0 -145.333 27.667 -202 83s-85 122 -85 200c0 80 27.833 148.167 83.5 204.5s123.5 84.5 203.5 84.5zM330.001 488.001c-60 0 -110.502 -21.334 -151.502 -64.001s-61.5 -94 -61.5 -154
c0 -58.667 20.833 -108.667 62.5 -150s91.834 -62 150.501 -62c60 0 110 21.333 150 64s60 94.334 60 155.001c0 60 -21.167 110.167 -63.5 150.5s-91.166 60.5 -146.499 60.5z" />
    <glyph glyph-name="ahoanang" unicode="&#x1af;" horiz-adv-x="655" 
d="M76 739h73.999v-449c0 -67.333 11.333 -119 34 -155c32.667 -51.333 80.667 -77 144 -77c58 0 103.333 22.333 136 67c27.333 37.333 41 92.333 41 165v449h74v-126c30.667 23.333 47.334 65.333 50.001 126h61c-5.33301 -114.667 -42.333 -172 -111 -172v-277
c0 -91.333 -18.333 -161 -55 -209c-48 -62.667 -113.333 -94 -196 -94c-80.667 0 -145 29.333 -193 88c-39.333 48 -59 119.667 -59 215v449z" />
    <glyph glyph-name="ahoanga" unicode="&#x1b0;" horiz-adv-x="608" 
d="M545 547v-112.001c29.333 11.333 45.666 48.333 48.999 111h61c-4.66699 -104 -41.334 -156 -110.001 -156v-390h-70v85h-2c-32 -65.333 -91.667 -98 -179 -98c-70.667 0 -134.667 32.667 -192 98c-26 29.333 -39 87 -39 173v289h74v-289
c0 -53.333 8 -93.666 24 -120.999c30.667 -52.667 78.334 -79 143.001 -79c56.667 0 101.334 22.333 134.001 67c22 30 33 74.333 33 133v289h74z" />
    <glyph glyph-name="ordfeminine" unicode="&#x2c6;" horiz-adv-x="502" 
d="M74 613l145 126h64l145 -126h-90l-87 73l-87 -73h-90z" />
    <glyph glyph-name="threequarters" unicode="&#x2dc;" horiz-adv-x="439" 
d="M335 700l29.999 -48c-27.333 -26 -54.666 -39 -81.999 -39c-18 0 -42 7.66699 -72 23c-22 11.333 -39 17 -51 17c-20.667 0 -39.334 -9.66699 -56.001 -29l-29 49c26 28 55.333 42 88 42c18.667 0 40.167 -6.66699 64.5 -20s42.5 -20 54.5 -20
c12.667 0 30.334 8.33301 53.001 25z" />
    <glyph glyph-name="bth" unicode="&#x300;" 
d="M-357 880l178 -97l-29 -52l-177 95z" />
    <glyph glyph-name="bsacth" unicode="&#x301;" 
d="M-228 731l172 104l31 -52l-173 -102z" />
    <glyph glyph-name="bsacth" unicode="&#x302;" 
d="M-228 731l172 104l31 -52l-173 -102z" />
    <glyph glyph-name="cngahoa" unicode="&#x303;" 
d="M-218 836l23 -40c-23.333 -23.333 -47.333 -35 -72 -35c-16.667 0 -37.667 6.33301 -63 19c-20 10 -35 15 -45 15c-18 0 -34 -8.33301 -48 -25l-26 44c22.667 24.667 48.667 37 78 37c16 0 35 -6 57 -18s38.333 -18 49 -18c11.333 0 27 7 47 21z" />
    <glyph glyph-name="cnanghoa" unicode="&#x309;" 
d="M-251 803l-45 27.002c7.33301 26.667 21 47 41 61c24 13.333 48 18.666 72 15.999c30.667 -3.33301 54.167 -13.5 70.5 -30.5s24.5 -37.833 24.5 -62.5c-2 -20.667 -16 -41.334 -42 -62.001c-28 -22.667 -43.333 -38 -46 -46h-47c0 19.333 14.667 39.333 44 60
c22.667 16 34 31 34 45c1.33301 12.667 -3.66699 24 -15 34s-24 14.667 -38 14c-12.667 -0.666992 -24.667 -6.5 -36 -17.5s-17 -23.833 -17 -38.5z" />
    <glyph glyph-name="cnangth" unicode="&#x323;" 
d="M-461 -151v80h66v-80h-66z" />
    <glyph glyph-name="cnangth" unicode="&#xf02b;" 
d="M-461 -151v80h66v-80h-66z" />
    <glyph glyph-name="cnangth" unicode="&#xf029;" 
d="M-461 -151v80h66v-80h-66z" />
    <glyph glyph-name="cnangth" unicode="&#xf022;" 
d="M-461 -151v80h66v-80h-66z" />
    <glyph glyph-name="cnangth" unicode="&#xf021;" 
d="M-461 -151v80h66v-80h-66z" />
    <glyph glyph-name="cnangth" unicode="&#xf020;" 
d="M-461 -151v80h66v-80h-66z" />
    <glyph glyph-name="cnangth" unicode="&#xf01f;" 
d="M-461 -151v80h66v-80h-66z" />
    <glyph glyph-name="cnangth" unicode="&#xf01e;" 
d="M-461 -151v80h66v-80h-66z" />
    <glyph glyph-name="chuyenhoa" unicode="&#x340;" 
d="M-508 948l178 -97l-29 -52l-177 95z" />
    <glyph glyph-name="chuyenhoa" unicode="&#xf00c;" 
d="M-508 948l178 -97l-29 -52l-177 95z" />
    <glyph glyph-name="choihoa" unicode="&#x341;" 
d="M-494 854l172 104l31 -52l-173 -102z" />
    <glyph glyph-name="choihoa" unicode="&#xf007;" 
d="M-494 854l172 104l31 -52l-173 -102z" />
    <glyph glyph-name="choa" unicode="&#x342;" 
d="M-334 874l23 -40c-23.333 -23.333 -47.333 -35 -72 -35c-16.667 0 -37.667 6.33301 -63 19c-20 10 -35 15 -45 15c-18 0 -34 -8.33301 -48 -25l-26 44c22.667 24.667 48.667 37 78 37c16 0 35 -6 57 -18s38.333 -18 49 -18c11.333 0 27 7 47 21z" />
    <glyph glyph-name="choa" unicode="&#xf030;" 
d="M-334 874l23 -40c-23.333 -23.333 -47.333 -35 -72 -35c-16.667 0 -37.667 6.33301 -63 19c-20 10 -35 15 -45 15c-18 0 -34 -8.33301 -48 -25l-26 44c22.667 24.667 48.667 37 78 37c16 0 35 -6 57 -18s38.333 -18 49 -18c11.333 0 27 7 47 21z" />
    <glyph glyph-name="choa" unicode="&#xf02e;" 
d="M-334 874l23 -40c-23.333 -23.333 -47.333 -35 -72 -35c-16.667 0 -37.667 6.33301 -63 19c-20 10 -35 15 -45 15c-18 0 -34 -8.33301 -48 -25l-26 44c22.667 24.667 48.667 37 78 37c16 0 35 -6 57 -18s38.333 -18 49 -18c11.333 0 27 7 47 21z" />
    <glyph glyph-name="choa" unicode="&#xf01c;" 
d="M-334 874l23 -40c-23.333 -23.333 -47.333 -35 -72 -35c-16.667 0 -37.667 6.33301 -63 19c-20 10 -35 15 -45 15c-18 0 -34 -8.33301 -48 -25l-26 44c22.667 24.667 48.667 37 78 37c16 0 35 -6 57 -18s38.333 -18 49 -18c11.333 0 27 7 47 21z" />
    <glyph glyph-name="choa" unicode="&#xf017;" 
d="M-334 874l23 -40c-23.333 -23.333 -47.333 -35 -72 -35c-16.667 0 -37.667 6.33301 -63 19c-20 10 -35 15 -45 15c-18 0 -34 -8.33301 -48 -25l-26 44c22.667 24.667 48.667 37 78 37c16 0 35 -6 57 -18s38.333 -18 49 -18c11.333 0 27 7 47 21z" />
    <glyph glyph-name="choa" unicode="&#xf016;" 
d="M-334 874l23 -40c-23.333 -23.333 -47.333 -35 -72 -35c-16.667 0 -37.667 6.33301 -63 19c-20 10 -35 15 -45 15c-18 0 -34 -8.33301 -48 -25l-26 44c22.667 24.667 48.667 37 78 37c16 0 35 -6 57 -18s38.333 -18 49 -18c11.333 0 27 7 47 21z" />
    <glyph glyph-name="uhoahoi" unicode="&#x1ea0;" horiz-adv-x="740" 
d="M11 0l319 739h82l317 -739h-80l-107 248h-344l-107 -248h-80zM227 315h286l-142 339zM337 -148v80h66v-80h-66z" />
    <glyph glyph-name="ohoahoi" unicode="&#x1ea1;" horiz-adv-x="683" 
d="M620 547l0.000976562 -547h-71v103h-2c-19.333 -37.333 -48.666 -66.333 -87.999 -87c-36.667 -19.333 -77.334 -29 -122.001 -29c-92.667 0 -173 38.667 -241 116c-12.667 14 -24 35.333 -34 64c-13.333 36 -20 72.667 -20 110c0 73.333 26.333 137.333 79 192
c58 60 129.333 90 214 90c45.333 0 86.666 -9.66699 123.999 -29c40 -20.667 69.333 -49.667 88 -87h2v104h71zM335.001 488c-60 0 -111.5 -21.168 -154.5 -63.501s-64.5 -93.5 -64.5 -153.5c0 -59.333 22 -109.666 66 -150.999s95.667 -62 155 -62
c57.333 0 107 21.167 149 63.5s63 91.833 63 148.5c0 60.667 -20.5 112.167 -61.5 154.5s-91.833 63.5 -152.5 63.5zM303.001 -156.001v80h66v-80h-66z" />
    <glyph glyph-name="uhoasac" unicode="&#x1ea2;" horiz-adv-x="740" 
d="M11 0l319 739h82l317 -739h-80l-107 248h-344l-107 -248h-80zM227 315h286l-142 339zM311 886l-45 27.002c7.33301 26.667 21 47 41 61c24 13.333 48 18.666 72 15.999c30.667 -3.33301 54.167 -13.5 70.5 -30.5s24.5 -37.833 24.5 -62.5
c-2 -20.667 -16 -41.334 -42 -62.001c-28 -22.667 -43.333 -38 -46 -46h-47c0 19.333 14.667 39.333 44 60c22.667 16 34 31 34 45c1.33301 12.667 -3.66699 24 -15 34s-24 14.667 -38 14c-12.667 -0.666992 -24.667 -6.5 -36 -17.5s-17 -23.833 -17 -38.5z" />
    <glyph glyph-name="ohoasac" unicode="&#x1ea3;" horiz-adv-x="683" 
d="M620 547l0.000976562 -547h-71v103h-2c-19.333 -37.333 -48.666 -66.333 -87.999 -87c-36.667 -19.333 -77.334 -29 -122.001 -29c-92.667 0 -173 38.667 -241 116c-12.667 14 -24 35.333 -34 64c-13.333 36 -20 72.667 -20 110c0 73.333 26.333 137.333 79 192
c58 60 129.333 90 214 90c45.333 0 86.666 -9.66699 123.999 -29c40 -20.667 69.333 -49.667 88 -87h2v104h71zM335.001 488c-60 0 -111.5 -21.168 -154.5 -63.501s-64.5 -93.5 -64.5 -153.5c0 -59.333 22 -109.666 66 -150.999s95.667 -62 155 -62
c57.333 0 107 21.167 149 63.5s63 91.833 63 148.5c0 60.667 -20.5 112.167 -61.5 154.5s-91.833 63.5 -152.5 63.5zM302.001 720.999l-45 27.002c7.33301 26.667 21 47 41 61c24 13.333 48 18.666 72 15.999c30.667 -3.33301 54.167 -13.5 70.5 -30.5
s24.5 -37.833 24.5 -62.5c-2 -20.667 -16 -41.334 -42 -62.001c-28 -22.667 -43.333 -38 -46 -46h-47c0 19.333 14.667 39.333 44 60c22.667 16 34 31 34 45c1.33301 12.667 -3.66699 24 -15 34s-24 14.667 -38 14c-12.667 -0.666992 -24.667 -6.5 -36 -17.5
s-17 -23.833 -17 -38.5z" />
    <glyph glyph-name="obthnga" unicode="&#x1ea4;" horiz-adv-x="740" 
d="M11 0l319 739h82l317 -739h-80l-107 248h-344l-107 -248h-80zM227 315h286l-142 339zM213 775l131 113h57l130 -113h-81l-78 65l-78 -65h-81zM468 903l172 104l31 -52l-173 -102z" />
    <glyph glyph-name="ebthnang" unicode="&#x1ea5;" horiz-adv-x="683" 
d="M620 547l0.000976562 -547h-71v103h-2c-19.333 -37.333 -48.666 -66.333 -87.999 -87c-36.667 -19.333 -77.334 -29 -122.001 -29c-92.667 0 -173 38.667 -241 116c-12.667 14 -24 35.333 -34 64c-13.333 36 -20 72.667 -20 110c0 73.333 26.333 137.333 79 192
c58 60 129.333 90 214 90c45.333 0 86.666 -9.66699 123.999 -29c40 -20.667 69.333 -49.667 88 -87h2v104h71zM335.001 488c-60 0 -111.5 -21.168 -154.5 -63.501s-64.5 -93.5 -64.5 -153.5c0 -59.333 22 -109.666 66 -150.999s95.667 -62 155 -62
c57.333 0 107 21.167 149 63.5s63 91.833 63 148.5c0 60.667 -20.5 112.167 -61.5 154.5s-91.833 63.5 -152.5 63.5zM190.001 607.999l131 113h57l130 -113h-81l-78 65l-78 -65h-81zM445.001 735.999l172 104l31 -52l-173 -102z" />
    <glyph glyph-name="obthnang" unicode="&#x1ea6;" horiz-adv-x="740" 
d="M11 0l319 739h82l317 -739h-80l-107 248h-344l-107 -248h-80zM227 315h286l-142 339zM213 775l131 113h57l130 -113h-81l-78 65l-78 -65h-81zM344 1052l178 -97l-29 -52l-177 95z" />
    <glyph glyph-name="obth" unicode="&#x1ea7;" horiz-adv-x="683" 
d="M620 547l0.000976562 -547h-71v103h-2c-19.333 -37.333 -48.666 -66.333 -87.999 -87c-36.667 -19.333 -77.334 -29 -122.001 -29c-92.667 0 -173 38.667 -241 116c-12.667 14 -24 35.333 -34 64c-13.333 36 -20 72.667 -20 110c0 73.333 26.333 137.333 79 192
c58 60 129.333 90 214 90c45.333 0 86.666 -9.66699 123.999 -29c40 -20.667 69.333 -49.667 88 -87h2v104h71zM335.001 488c-60 0 -111.5 -21.168 -154.5 -63.501s-64.5 -93.5 -64.5 -153.5c0 -59.333 22 -109.666 66 -150.999s95.667 -62 155 -62
c57.333 0 107 21.167 149 63.5s63 91.833 63 148.5c0 60.667 -20.5 112.167 -61.5 154.5s-91.833 63.5 -152.5 63.5zM190.001 607.999l131 113h57l130 -113h-81l-78 65l-78 -65h-81zM321.001 884.999l178 -97l-29 -52l-177 95z" />
    <glyph glyph-name="octh" unicode="&#x1ea8;" horiz-adv-x="740" 
d="M11 0l319 739h82l317 -739h-80l-107 248h-344l-107 -248h-80zM227 315h286l-142 339zM213 775l131 113h57l130 -113h-81l-78 65l-78 -65h-81zM460 955l-45 27.002c7.33301 26.667 21 47 41 61c24 13.333 48 18.666 72 15.999c30.667 -3.33301 54.167 -13.5 70.5 -30.5
s24.5 -37.833 24.5 -62.5c-2 -20.667 -16 -41.334 -42 -62.001c-28 -22.667 -43.333 -38 -46 -46h-47c0 19.333 14.667 39.333 44 60c22.667 16 34 31 34 45c1.33301 12.667 -3.66699 24 -15 34s-24 14.667 -38 14c-12.667 -0.666992 -24.667 -6.5 -36 -17.5
s-17 -23.833 -17 -38.5z" />
    <glyph glyph-name="obthsac" unicode="&#x1ea9;" horiz-adv-x="683" 
d="M620 547l0.000976562 -547h-71v103h-2c-19.333 -37.333 -48.666 -66.333 -87.999 -87c-36.667 -19.333 -77.334 -29 -122.001 -29c-92.667 0 -173 38.667 -241 116c-12.667 14 -24 35.333 -34 64c-13.333 36 -20 72.667 -20 110c0 73.333 26.333 137.333 79 192
c58 60 129.333 90 214 90c45.333 0 86.666 -9.66699 123.999 -29c40 -20.667 69.333 -49.667 88 -87h2v104h71zM335.001 488c-60 0 -111.5 -21.168 -154.5 -63.501s-64.5 -93.5 -64.5 -153.5c0 -59.333 22 -109.666 66 -150.999s95.667 -62 155 -62
c57.333 0 107 21.167 149 63.5s63 91.833 63 148.5c0 60.667 -20.5 112.167 -61.5 154.5s-91.833 63.5 -152.5 63.5zM190.001 607.999l131 113h57l130 -113h-81l-78 65l-78 -65h-81zM437.001 787.999l-45 27.002c7.33301 26.667 21 47 41 61c24 13.333 48 18.666 72 15.999
c30.667 -3.33301 54.167 -13.5 70.5 -30.5s24.5 -37.833 24.5 -62.5c-2 -20.667 -16 -41.334 -42 -62.001c-28 -22.667 -43.333 -38 -46 -46h-47c0 19.333 14.667 39.333 44 60c22.667 16 34 31 34 45c1.33301 12.667 -3.66699 24 -15 34s-24 14.667 -38 14
c-12.667 -0.666992 -24.667 -6.5 -36 -17.5s-17 -23.833 -17 -38.5z" />
    <glyph glyph-name="octhsac" unicode="&#x1eaa;" horiz-adv-x="740" 
d="M11 0l319 739h82l317 -739h-80l-107 248h-344l-107 -248h-80zM227 315h286l-142 339zM213 775l131 113h57l130 -113h-81l-78 65l-78 -65h-81zM473 1008l23 -40c-23.333 -23.333 -47.333 -35 -72 -35c-16.667 0 -37.667 6.33301 -63 19c-20 10 -35 15 -45 15
c-18 0 -34 -8.33301 -48 -25l-26 44c22.667 24.667 48.667 37 78 37c16 0 35 -6 57 -18s38.333 -18 49 -18c11.333 0 27 7 47 21z" />
    <glyph glyph-name="obthhuyen" unicode="&#x1eab;" horiz-adv-x="683" 
d="M620 547l0.000976562 -547h-71v103h-2c-19.333 -37.333 -48.666 -66.333 -87.999 -87c-36.667 -19.333 -77.334 -29 -122.001 -29c-92.667 0 -173 38.667 -241 116c-12.667 14 -24 35.333 -34 64c-13.333 36 -20 72.667 -20 110c0 73.333 26.333 137.333 79 192
c58 60 129.333 90 214 90c45.333 0 86.666 -9.66699 123.999 -29c40 -20.667 69.333 -49.667 88 -87h2v104h71zM335.001 488c-60 0 -111.5 -21.168 -154.5 -63.501s-64.5 -93.5 -64.5 -153.5c0 -59.333 22 -109.666 66 -150.999s95.667 -62 155 -62
c57.333 0 107 21.167 149 63.5s63 91.833 63 148.5c0 60.667 -20.5 112.167 -61.5 154.5s-91.833 63.5 -152.5 63.5zM190.001 607.999l131 113h57l130 -113h-81l-78 65l-78 -65h-81zM450.001 840.999l23 -40c-23.333 -23.333 -47.333 -35 -72 -35
c-16.667 0 -37.667 6.33301 -63 19c-20 10 -35 15 -45 15c-18 0 -34 -8.33301 -48 -25l-26 44c22.667 24.667 48.667 37 78 37c16 0 35 -6 57 -18s38.333 -18 49 -18c11.333 0 27 7 47 21z" />
    <glyph glyph-name="octhhuyen" unicode="&#x1eac;" horiz-adv-x="740" 
d="M11 0l319 739h82l317 -739h-80l-107 248h-344l-107 -248h-80zM227 315h286l-142 339zM213 775l131 113h57l130 -113h-81l-78 65l-78 -65h-81zM341 -144v80h66v-80h-66z" />
    <glyph glyph-name="obthhoi" unicode="&#x1ead;" horiz-adv-x="683" 
d="M620 547l0.000976562 -547h-71v103h-2c-19.333 -37.333 -48.666 -66.333 -87.999 -87c-36.667 -19.333 -77.334 -29 -122.001 -29c-92.667 0 -173 38.667 -241 116c-12.667 14 -24 35.333 -34 64c-13.333 36 -20 72.667 -20 110c0 73.333 26.333 137.333 79 192
c58 60 129.333 90 214 90c45.333 0 86.666 -9.66699 123.999 -29c40 -20.667 69.333 -49.667 88 -87h2v104h71zM335.001 488c-60 0 -111.5 -21.168 -154.5 -63.501s-64.5 -93.5 -64.5 -153.5c0 -59.333 22 -109.666 66 -150.999s95.667 -62 155 -62
c57.333 0 107 21.167 149 63.5s63 91.833 63 148.5c0 60.667 -20.5 112.167 -61.5 154.5s-91.833 63.5 -152.5 63.5zM190.001 607.999l131 113h57l130 -113h-81l-78 65l-78 -65h-81zM308.001 -151.001v80h66v-80h-66z" />
    <glyph glyph-name="ebth" unicode="&#x1eae;" horiz-adv-x="740" 
d="M11 0l319 739h82l317 -739h-80l-107 248h-344l-107 -248h-80zM227 315h286l-142 339zM238 875h57.998c12.667 -26.667 39 -40 79 -40s66.333 13.333 79 40h56c-7.33301 -30 -24.333 -53 -51 -69c-23.333 -14.667 -51.666 -22 -84.999 -22s-61.666 7.33301 -84.999 22
c-26.667 16 -43.667 39 -51 69zM332.998 955l172 104l31 -52l-173 -102z" />
    <glyph glyph-name="abthsac" unicode="&#x1eaf;" horiz-adv-x="683" 
d="M620 547l0.000976562 -547h-71v103h-2c-19.333 -37.333 -48.666 -66.333 -87.999 -87c-36.667 -19.333 -77.334 -29 -122.001 -29c-92.667 0 -173 38.667 -241 116c-12.667 14 -24 35.333 -34 64c-13.333 36 -20 72.667 -20 110c0 73.333 26.333 137.333 79 192
c58 60 129.333 90 214 90c45.333 0 86.666 -9.66699 123.999 -29c40 -20.667 69.333 -49.667 88 -87h2v104h71zM335.001 488c-60 0 -111.5 -21.168 -154.5 -63.501s-64.5 -93.5 -64.5 -153.5c0 -59.333 22 -109.666 66 -150.999s95.667 -62 155 -62
c57.333 0 107 21.167 149 63.5s63 91.833 63 148.5c0 60.667 -20.5 112.167 -61.5 154.5s-91.833 63.5 -152.5 63.5zM240.001 692.999h57.998c12.667 -26.667 39 -40 79 -40s66.333 13.333 79 40h56c-7.33301 -30 -24.333 -53 -51 -69
c-23.333 -14.667 -51.666 -22 -84.999 -22s-61.666 7.33301 -84.999 22c-26.667 16 -43.667 39 -51 69zM334.999 772.999l172 104l31 -52l-173 -102z" />
    <glyph glyph-name="ebthsac" unicode="&#x1eb0;" horiz-adv-x="740" 
d="M11 0l319 739h82l317 -739h-80l-107 248h-344l-107 -248h-80zM227 315h286l-142 339zM238 875h57.998c12.667 -26.667 39 -40 79 -40s66.333 13.333 79 40h56c-7.33301 -30 -24.333 -53 -51 -69c-23.333 -14.667 -51.666 -22 -84.999 -22s-61.666 7.33301 -84.999 22
c-26.667 16 -43.667 39 -51 69zM248.998 1049l178 -97l-29 -52l-177 95z" />
    <glyph glyph-name="abthhuyen" unicode="&#x1eb1;" horiz-adv-x="683" 
d="M620 547l0.000976562 -547h-71v103h-2c-19.333 -37.333 -48.666 -66.333 -87.999 -87c-36.667 -19.333 -77.334 -29 -122.001 -29c-92.667 0 -173 38.667 -241 116c-12.667 14 -24 35.333 -34 64c-13.333 36 -20 72.667 -20 110c0 73.333 26.333 137.333 79 192
c58 60 129.333 90 214 90c45.333 0 86.666 -9.66699 123.999 -29c40 -20.667 69.333 -49.667 88 -87h2v104h71zM335.001 488c-60 0 -111.5 -21.168 -154.5 -63.501s-64.5 -93.5 -64.5 -153.5c0 -59.333 22 -109.666 66 -150.999s95.667 -62 155 -62
c57.333 0 107 21.167 149 63.5s63 91.833 63 148.5c0 60.667 -20.5 112.167 -61.5 154.5s-91.833 63.5 -152.5 63.5zM240.001 692.999h57.998c12.667 -26.667 39 -40 79 -40s66.333 13.333 79 40h56c-7.33301 -30 -24.333 -53 -51 -69
c-23.333 -14.667 -51.666 -22 -84.999 -22s-61.666 7.33301 -84.999 22c-26.667 16 -43.667 39 -51 69zM250.999 866.999l178 -97l-29 -52l-177 95z" />
    <glyph glyph-name="ebthhuyen" unicode="&#x1eb2;" horiz-adv-x="740" 
d="M11 0l319 739h82l317 -739h-80l-107 248h-344l-107 -248h-80zM227 315h286l-142 339zM238 875h57.998c12.667 -26.667 39 -40 79 -40s66.333 13.333 79 40h56c-7.33301 -30 -24.333 -53 -51 -69c-23.333 -14.667 -51.666 -22 -84.999 -22s-61.666 7.33301 -84.999 22
c-26.667 16 -43.667 39 -51 69zM324.998 1007l-45 27.002c7.33301 26.667 21 47 41 61c24 13.333 48 18.666 72 15.999c30.667 -3.33301 54.167 -13.5 70.5 -30.5s24.5 -37.833 24.5 -62.5c-2 -20.667 -16 -41.334 -42 -62.001c-28 -22.667 -43.333 -38 -46 -46h-47
c0 19.333 14.667 39.333 44 60c22.667 16 34 31 34 45c1.33301 12.667 -3.66699 24 -15 34s-24 14.667 -38 14c-12.667 -0.666992 -24.667 -6.5 -36 -17.5s-17 -23.833 -17 -38.5z" />
    <glyph glyph-name="abthhoi" unicode="&#x1eb3;" horiz-adv-x="683" 
d="M620 547l0.000976562 -547h-71v103h-2c-19.333 -37.333 -48.666 -66.333 -87.999 -87c-36.667 -19.333 -77.334 -29 -122.001 -29c-92.667 0 -173 38.667 -241 116c-12.667 14 -24 35.333 -34 64c-13.333 36 -20 72.667 -20 110c0 73.333 26.333 137.333 79 192
c58 60 129.333 90 214 90c45.333 0 86.666 -9.66699 123.999 -29c40 -20.667 69.333 -49.667 88 -87h2v104h71zM335.001 488c-60 0 -111.5 -21.168 -154.5 -63.501s-64.5 -93.5 -64.5 -153.5c0 -59.333 22 -109.666 66 -150.999s95.667 -62 155 -62
c57.333 0 107 21.167 149 63.5s63 91.833 63 148.5c0 60.667 -20.5 112.167 -61.5 154.5s-91.833 63.5 -152.5 63.5zM240.001 692.999h57.998c12.667 -26.667 39 -40 79 -40s66.333 13.333 79 40h56c-7.33301 -30 -24.333 -53 -51 -69
c-23.333 -14.667 -51.666 -22 -84.999 -22s-61.666 7.33301 -84.999 22c-26.667 16 -43.667 39 -51 69zM326.999 824.999l-45 27.002c7.33301 26.667 21 47 41 61c24 13.333 48 18.666 72 15.999c30.667 -3.33301 54.167 -13.5 70.5 -30.5s24.5 -37.833 24.5 -62.5
c-2 -20.667 -16 -41.334 -42 -62.001c-28 -22.667 -43.333 -38 -46 -46h-47c0 19.333 14.667 39.333 44 60c22.667 16 34 31 34 45c1.33301 12.667 -3.66699 24 -15 34s-24 14.667 -38 14c-12.667 -0.666992 -24.667 -6.5 -36 -17.5s-17 -23.833 -17 -38.5z" />
    <glyph glyph-name="ebthhoi" unicode="&#x1eb4;" horiz-adv-x="740" 
d="M11 0l319 739h82l317 -739h-80l-107 248h-344l-107 -248h-80zM227 315h286l-142 339zM238 875h57.998c12.667 -26.667 39 -40 79 -40s66.333 13.333 79 40h56c-7.33301 -30 -24.333 -53 -51 -69c-23.333 -14.667 -51.666 -22 -84.999 -22s-61.666 7.33301 -84.999 22
c-26.667 16 -43.667 39 -51 69zM467.998 990l23 -40c-23.333 -23.333 -47.333 -35 -72 -35c-16.667 0 -37.667 6.33301 -63 19c-20 10 -35 15 -45 15c-18 0 -34 -8.33301 -48 -25l-26 44c22.667 24.667 48.667 37 78 37c16 0 35 -6 57 -18s38.333 -18 49 -18
c11.333 0 27 7 47 21z" />
    <glyph glyph-name="abthnga" unicode="&#x1eb5;" horiz-adv-x="683" 
d="M620 547l0.000976562 -547h-71v103h-2c-19.333 -37.333 -48.666 -66.333 -87.999 -87c-36.667 -19.333 -77.334 -29 -122.001 -29c-92.667 0 -173 38.667 -241 116c-12.667 14 -24 35.333 -34 64c-13.333 36 -20 72.667 -20 110c0 73.333 26.333 137.333 79 192
c58 60 129.333 90 214 90c45.333 0 86.666 -9.66699 123.999 -29c40 -20.667 69.333 -49.667 88 -87h2v104h71zM335.001 488c-60 0 -111.5 -21.168 -154.5 -63.501s-64.5 -93.5 -64.5 -153.5c0 -59.333 22 -109.666 66 -150.999s95.667 -62 155 -62
c57.333 0 107 21.167 149 63.5s63 91.833 63 148.5c0 60.667 -20.5 112.167 -61.5 154.5s-91.833 63.5 -152.5 63.5zM240.001 692.999h57.998c12.667 -26.667 39 -40 79 -40s66.333 13.333 79 40h56c-7.33301 -30 -24.333 -53 -51 -69
c-23.333 -14.667 -51.666 -22 -84.999 -22s-61.666 7.33301 -84.999 22c-26.667 16 -43.667 39 -51 69zM469.999 807.999l23 -40c-23.333 -23.333 -47.333 -35 -72 -35c-16.667 0 -37.667 6.33301 -63 19c-20 10 -35 15 -45 15c-18 0 -34 -8.33301 -48 -25l-26 44
c22.667 24.667 48.667 37 78 37c16 0 35 -6 57 -18s38.333 -18 49 -18c11.333 0 27 7 47 21z" />
    <glyph glyph-name="ebthnga" unicode="&#x1eb6;" horiz-adv-x="740" 
d="M11 0l319 739h82l317 -739h-80l-107 248h-344l-107 -248h-80zM227 315h286l-142 339zM238 875h57.998c12.667 -26.667 39 -40 79 -40s66.333 13.333 79 40h56c-7.33301 -30 -24.333 -53 -51 -69c-23.333 -14.667 -51.666 -22 -84.999 -22s-61.666 7.33301 -84.999 22
c-26.667 16 -43.667 39 -51 69zM340.998 -154v80h66v-80h-66z" />
    <glyph glyph-name="abthnang" unicode="&#x1eb7;" horiz-adv-x="683" 
d="M620 547l0.000976562 -547h-71v103h-2c-19.333 -37.333 -48.666 -66.333 -87.999 -87c-36.667 -19.333 -77.334 -29 -122.001 -29c-92.667 0 -173 38.667 -241 116c-12.667 14 -24 35.333 -34 64c-13.333 36 -20 72.667 -20 110c0 73.333 26.333 137.333 79 192
c58 60 129.333 90 214 90c45.333 0 86.666 -9.66699 123.999 -29c40 -20.667 69.333 -49.667 88 -87h2v104h71zM335.001 488c-60 0 -111.5 -21.168 -154.5 -63.501s-64.5 -93.5 -64.5 -153.5c0 -59.333 22 -109.666 66 -150.999s95.667 -62 155 -62
c57.333 0 107 21.167 149 63.5s63 91.833 63 148.5c0 60.667 -20.5 112.167 -61.5 154.5s-91.833 63.5 -152.5 63.5zM240.001 692.999h57.998c12.667 -26.667 39 -40 79 -40s66.333 13.333 79 40h56c-7.33301 -30 -24.333 -53 -51 -69
c-23.333 -14.667 -51.666 -22 -84.999 -22s-61.666 7.33301 -84.999 22c-26.667 16 -43.667 39 -51 69zM302.999 -146.001v80h66v-80h-66z" />
    <glyph glyph-name="abhoahuyen" unicode="&#x1eb8;" horiz-adv-x="536" 
d="M76 0v739h404v-67h-330v-266h319v-67h-319v-272h330v-67h-404zM245 -148v80h66v-80h-66z" />
    <glyph glyph-name="aahoahuyen" unicode="&#x1eb9;" horiz-adv-x="650" 
d="M611 247l-494.998 -0.00195312c2 -51.333 24 -95.666 66 -132.999s88.667 -56 140 -56c41.333 0 80.333 10.833 117 32.5s63 50.834 79 87.501h77c-19.333 -55.333 -54 -101 -104 -137s-104 -54 -162 -54c-80 0 -147.833 27.667 -203.5 83s-83.5 123 -83.5 203
c0 79.333 27.667 146.833 83 202.5s122.666 83.5 201.999 83.5c89.333 0 162.666 -35.333 219.999 -106c40.667 -49.333 62 -118 64 -206zM116.002 313.998l421 -0.000976562c-9.33301 48.667 -34 89.834 -74 123.501s-85 50.5 -135 50.5c-52 0 -98.167 -16.5 -138.5 -49.5
s-64.833 -74.5 -73.5 -124.5zM288.002 -156.003v80h66v-80h-66z" />
    <glyph glyph-name="aahoanang" unicode="&#x1eba;" horiz-adv-x="536" 
d="M76 0v739h404v-67h-330v-266h319v-67h-319v-272h330v-67h-404zM219 886l-45 27.002c7.33301 26.667 21 47 41 61c24 13.333 48 18.666 72 15.999c30.667 -3.33301 54.167 -13.5 70.5 -30.5s24.5 -37.833 24.5 -62.5c-2 -20.667 -16 -41.334 -42 -62.001
c-28 -22.667 -43.333 -38 -46 -46h-47c0 19.333 14.667 39.333 44 60c22.667 16 34 31 34 45c1.33301 12.667 -3.66699 24 -15 34s-24 14.667 -38 14c-12.667 -0.666992 -24.667 -6.5 -36 -17.5s-17 -23.833 -17 -38.5z" />
    <glyph glyph-name="aahoa" unicode="&#x1ebb;" horiz-adv-x="650" 
d="M611 247l-494.998 -0.00195312c2 -51.333 24 -95.666 66 -132.999s88.667 -56 140 -56c41.333 0 80.333 10.833 117 32.5s63 50.834 79 87.501h77c-19.333 -55.333 -54 -101 -104 -137s-104 -54 -162 -54c-80 0 -147.833 27.667 -203.5 83s-83.5 123 -83.5 203
c0 79.333 27.667 146.833 83 202.5s122.666 83.5 201.999 83.5c89.333 0 162.666 -35.333 219.999 -106c40.667 -49.333 62 -118 64 -206zM116.002 313.998l421 -0.000976562c-9.33301 48.667 -34 89.834 -74 123.501s-85 50.5 -135 50.5c-52 0 -98.167 -16.5 -138.5 -49.5
s-64.833 -74.5 -73.5 -124.5zM267.002 705.997l-45 27.002c7.33301 26.667 21 47 41 61c24 13.333 48 18.666 72 15.999c30.667 -3.33301 54.167 -13.5 70.5 -30.5s24.5 -37.833 24.5 -62.5c-2 -20.667 -16 -41.334 -42 -62.001c-28 -22.667 -43.333 -38 -46 -46h-47
c0 19.333 14.667 39.333 44 60c22.667 16 34 31 34 45c1.33301 12.667 -3.66699 24 -15 34s-24 14.667 -38 14c-12.667 -0.666992 -24.667 -6.5 -36 -17.5s-17 -23.833 -17 -38.5z" />
    <glyph glyph-name="abhoa" unicode="&#x1ebc;" horiz-adv-x="536" 
d="M76 0v739h404v-67h-330v-266h319v-67h-319v-272h330v-67h-404zM382 864l23 -40c-23.333 -23.333 -47.333 -35 -72 -35c-16.667 0 -37.667 6.33301 -63 19c-20 10 -35 15 -45 15c-18 0 -34 -8.33301 -48 -25l-26 44c22.667 24.667 48.667 37 78 37c16 0 35 -6 57 -18
s38.333 -18 49 -18c11.333 0 27 7 47 21z" />
    <glyph glyph-name="aahoasac" unicode="&#x1ebd;" horiz-adv-x="650" 
d="M611 247l-494.998 -0.00195312c2 -51.333 24 -95.666 66 -132.999s88.667 -56 140 -56c41.333 0 80.333 10.833 117 32.5s63 50.834 79 87.501h77c-19.333 -55.333 -54 -101 -104 -137s-104 -54 -162 -54c-80 0 -147.833 27.667 -203.5 83s-83.5 123 -83.5 203
c0 79.333 27.667 146.833 83 202.5s122.666 83.5 201.999 83.5c89.333 0 162.666 -35.333 219.999 -106c40.667 -49.333 62 -118 64 -206zM116.002 313.998l421 -0.000976562c-9.33301 48.667 -34 89.834 -74 123.501s-85 50.5 -135 50.5c-52 0 -98.167 -16.5 -138.5 -49.5
s-64.833 -74.5 -73.5 -124.5zM430.002 683.997l23 -40c-23.333 -23.333 -47.333 -35 -72 -35c-16.667 0 -37.667 6.33301 -63 19c-20 10 -35 15 -45 15c-18 0 -34 -8.33301 -48 -25l-26 44c22.667 24.667 48.667 37 78 37c16 0 35 -6 57 -18s38.333 -18 49 -18
c11.333 0 27 7 47 21z" />
    <glyph glyph-name="ucthhuyen" unicode="&#x1ebe;" horiz-adv-x="536" 
d="M76 0v739h404v-67h-330v-266h319v-67h-319v-272h330v-67h-404zM106 774l131 113h57l130 -113h-81l-78 65l-78 -65h-81zM361 902l172 104l31 -52l-173 -102z" />
    <glyph glyph-name="octhhoi" unicode="&#x1ebf;" horiz-adv-x="650" 
d="M611 247l-494.998 -0.00195312c2 -51.333 24 -95.666 66 -132.999s88.667 -56 140 -56c41.333 0 80.333 10.833 117 32.5s63 50.834 79 87.501h77c-19.333 -55.333 -54 -101 -104 -137s-104 -54 -162 -54c-80 0 -147.833 27.667 -203.5 83s-83.5 123 -83.5 203
c0 79.333 27.667 146.833 83 202.5s122.666 83.5 201.999 83.5c89.333 0 162.666 -35.333 219.999 -106c40.667 -49.333 62 -118 64 -206zM116.002 313.998l421 -0.000976562c-9.33301 48.667 -34 89.834 -74 123.501s-85 50.5 -135 50.5c-52 0 -98.167 -16.5 -138.5 -49.5
s-64.833 -74.5 -73.5 -124.5zM167.002 603.997l131 113h57l130 -113h-81l-78 65l-78 -65h-81zM422.002 731.997l172 104l31 -52l-173 -102z" />
    <glyph glyph-name="ucthhoi" unicode="&#x1ec0;" horiz-adv-x="536" 
d="M76 0v739h404v-67h-330v-266h319v-67h-319v-272h330v-67h-404zM106 774l131 113h57l130 -113h-81l-78 65l-78 -65h-81zM237 1051l178 -97l-29 -52l-177 95z" />
    <glyph glyph-name="octhnga" unicode="&#x1ec1;" horiz-adv-x="650" 
d="M611 247l-494.998 -0.00195312c2 -51.333 24 -95.666 66 -132.999s88.667 -56 140 -56c41.333 0 80.333 10.833 117 32.5s63 50.834 79 87.501h77c-19.333 -55.333 -54 -101 -104 -137s-104 -54 -162 -54c-80 0 -147.833 27.667 -203.5 83s-83.5 123 -83.5 203
c0 79.333 27.667 146.833 83 202.5s122.666 83.5 201.999 83.5c89.333 0 162.666 -35.333 219.999 -106c40.667 -49.333 62 -118 64 -206zM116.002 313.998l421 -0.000976562c-9.33301 48.667 -34 89.834 -74 123.501s-85 50.5 -135 50.5c-52 0 -98.167 -16.5 -138.5 -49.5
s-64.833 -74.5 -73.5 -124.5zM167.002 603.997l131 113h57l130 -113h-81l-78 65l-78 -65h-81zM298.002 880.997l178 -97l-29 -52l-177 95z" />
    <glyph glyph-name="ucthnga" unicode="&#x1ec2;" horiz-adv-x="536" 
d="M76 0v739h404v-67h-330v-266h319v-67h-319v-272h330v-67h-404zM106 774l131 113h57l130 -113h-81l-78 65l-78 -65h-81zM353 954l-45 27.002c7.33301 26.667 21 47 41 61c24 13.333 48 18.666 72 15.999c30.667 -3.33301 54.167 -13.5 70.5 -30.5s24.5 -37.833 24.5 -62.5
c-2 -20.667 -16 -41.334 -42 -62.001c-28 -22.667 -43.333 -38 -46 -46h-47c0 19.333 14.667 39.333 44 60c22.667 16 34 31 34 45c1.33301 12.667 -3.66699 24 -15 34s-24 14.667 -38 14c-12.667 -0.666992 -24.667 -6.5 -36 -17.5s-17 -23.833 -17 -38.5z" />
    <glyph glyph-name="octhnang" unicode="&#x1ec3;" horiz-adv-x="650" 
d="M611 247l-494.998 -0.00195312c2 -51.333 24 -95.666 66 -132.999s88.667 -56 140 -56c41.333 0 80.333 10.833 117 32.5s63 50.834 79 87.501h77c-19.333 -55.333 -54 -101 -104 -137s-104 -54 -162 -54c-80 0 -147.833 27.667 -203.5 83s-83.5 123 -83.5 203
c0 79.333 27.667 146.833 83 202.5s122.666 83.5 201.999 83.5c89.333 0 162.666 -35.333 219.999 -106c40.667 -49.333 62 -118 64 -206zM116.002 313.998l421 -0.000976562c-9.33301 48.667 -34 89.834 -74 123.501s-85 50.5 -135 50.5c-52 0 -98.167 -16.5 -138.5 -49.5
s-64.833 -74.5 -73.5 -124.5zM167.002 603.997l131 113h57l130 -113h-81l-78 65l-78 -65h-81zM414.002 783.997l-45 27.002c7.33301 26.667 21 47 41 61c24 13.333 48 18.666 72 15.999c30.667 -3.33301 54.167 -13.5 70.5 -30.5s24.5 -37.833 24.5 -62.5
c-2 -20.667 -16 -41.334 -42 -62.001c-28 -22.667 -43.333 -38 -46 -46h-47c0 19.333 14.667 39.333 44 60c22.667 16 34 31 34 45c1.33301 12.667 -3.66699 24 -15 34s-24 14.667 -38 14c-12.667 -0.666992 -24.667 -6.5 -36 -17.5s-17 -23.833 -17 -38.5z" />
    <glyph glyph-name="ucthnang" unicode="&#x1ec4;" horiz-adv-x="536" 
d="M76 0v739h404v-67h-330v-266h319v-67h-319v-272h330v-67h-404zM106 774l131 113h57l130 -113h-81l-78 65l-78 -65h-81zM366 1007l23 -40c-23.333 -23.333 -47.333 -35 -72 -35c-16.667 0 -37.667 6.33301 -63 19c-20 10 -35 15 -45 15c-18 0 -34 -8.33301 -48 -25l-26 44
c22.667 24.667 48.667 37 78 37c16 0 35 -6 57 -18s38.333 -18 49 -18c11.333 0 27 7 47 21z" />
    <glyph glyph-name="ucth" unicode="&#x1ec5;" horiz-adv-x="650" 
d="M611 247l-494.998 -0.00195312c2 -51.333 24 -95.666 66 -132.999s88.667 -56 140 -56c41.333 0 80.333 10.833 117 32.5s63 50.834 79 87.501h77c-19.333 -55.333 -54 -101 -104 -137s-104 -54 -162 -54c-80 0 -147.833 27.667 -203.5 83s-83.5 123 -83.5 203
c0 79.333 27.667 146.833 83 202.5s122.666 83.5 201.999 83.5c89.333 0 162.666 -35.333 219.999 -106c40.667 -49.333 62 -118 64 -206zM116.002 313.998l421 -0.000976562c-9.33301 48.667 -34 89.834 -74 123.501s-85 50.5 -135 50.5c-52 0 -98.167 -16.5 -138.5 -49.5
s-64.833 -74.5 -73.5 -124.5zM167.002 603.997l131 113h57l130 -113h-81l-78 65l-78 -65h-81zM427.002 836.997l23 -40c-23.333 -23.333 -47.333 -35 -72 -35c-16.667 0 -37.667 6.33301 -63 19c-20 10 -35 15 -45 15c-18 0 -34 -8.33301 -48 -25l-26 44
c22.667 24.667 48.667 37 78 37c16 0 35 -6 57 -18s38.333 -18 49 -18c11.333 0 27 7 47 21z" />
    <glyph glyph-name="ythsac" unicode="&#x1ec6;" horiz-adv-x="536" 
d="M76 0v739h404v-67h-330v-266h319v-67h-319v-272h330v-67h-404zM106 774l131 113h57l130 -113h-81l-78 65l-78 -65h-81zM234 -140v80h66v-80h-66z" />
    <glyph glyph-name="ucthsac" unicode="&#x1ec7;" horiz-adv-x="650" 
d="M611 247l-494.998 -0.00195312c2 -51.333 24 -95.666 66 -132.999s88.667 -56 140 -56c41.333 0 80.333 10.833 117 32.5s63 50.834 79 87.501h77c-19.333 -55.333 -54 -101 -104 -137s-104 -54 -162 -54c-80 0 -147.833 27.667 -203.5 83s-83.5 123 -83.5 203
c0 79.333 27.667 146.833 83 202.5s122.666 83.5 201.999 83.5c89.333 0 162.666 -35.333 219.999 -106c40.667 -49.333 62 -118 64 -206zM116.002 313.998l421 -0.000976562c-9.33301 48.667 -34 89.834 -74 123.501s-85 50.5 -135 50.5c-52 0 -98.167 -16.5 -138.5 -49.5
s-64.833 -74.5 -73.5 -124.5zM167.002 603.997l131 113h57l130 -113h-81l-78 65l-78 -65h-81zM285.002 -155.003v80h66v-80h-66z" />
    <glyph glyph-name="ochoahuyen" unicode="&#x1ec8;" horiz-adv-x="226" 
d="M76 0v739h74v-739h-74zM54 901l-45 27.002c7.33301 26.667 21 47 41 61c24 13.333 48 18.666 72 15.999c30.667 -3.33301 54.167 -13.5 70.5 -30.5s24.5 -37.833 24.5 -62.5c-2 -20.667 -16 -41.334 -42 -62.001c-28 -22.667 -43.333 -38 -46 -46h-47
c0 19.333 14.667 39.333 44 60c22.667 16 34 31 34 45c1.33301 12.667 -3.66699 24 -15 34s-24 14.667 -38 14c-12.667 -0.666992 -24.667 -6.5 -36 -17.5s-17 -23.833 -17 -38.5z" />
    <glyph glyph-name="obhoahoi" unicode="&#x1ec9;" horiz-adv-x="200" 
d="M63 0v547h74v-547h-74zM41 719l-45 27.002c7.33301 26.667 21 47 41 61c24 13.333 48 18.666 72 15.999c30.667 -3.33301 54.167 -13.5 70.5 -30.5s24.5 -37.833 24.5 -62.5c-2 -20.667 -16 -41.334 -42 -62.001c-28 -22.667 -43.333 -38 -46 -46h-47
c0 19.333 14.667 39.333 44 60c22.667 16 34 31 34 45c1.33301 12.667 -3.66699 24 -15 34s-24 14.667 -38 14c-12.667 -0.666992 -24.667 -6.5 -36 -17.5s-17 -23.833 -17 -38.5z" />
    <glyph glyph-name="ochoanga" unicode="&#x1eca;" horiz-adv-x="226" 
d="M76 0v739h74v-739h-74zM80 -163v80h66v-80h-66z" />
    <glyph glyph-name="obhoanang" unicode="&#x1ecb;" horiz-adv-x="200" 
d="M63 0v547h74v-547h-74zM68 613v80h66v-80h-66zM67 -156v80h66v-80h-66z" />
    <glyph glyph-name="obhoa" unicode="&#x1ecc;" horiz-adv-x="869" 
d="M434 751c105.333 0 196.835 -37 274.502 -111s116.5 -163.333 116.5 -268c0 -107.333 -38.333 -198.333 -115 -273s-168.667 -112 -276 -112c-104.667 0 -195.834 37 -273.501 111s-116.5 163.333 -116.5 268c0 107.333 38.167 198.333 114.5 273
s168.166 112 275.499 112zM435.002 58c87.333 0 161.833 30.5 223.5 91.5s92.5 135.167 92.5 222.5c0 84.667 -31.333 157.167 -94 217.5s-136.667 90.5 -222 90.5c-88 0 -162.833 -30.5 -224.5 -91.5s-92.5 -135.167 -92.5 -222.5c0 -84.667 31.667 -157.167 95 -217.5
s137.333 -90.5 222 -90.5zM401.002 -156v80h66v-80h-66z" />
    <glyph glyph-name="ebhoasac" unicode="&#x1ecd;" horiz-adv-x="655" 
d="M329 559c76 0 142.333 -28 199 -84s85 -122 85 -198c0 -78.667 -27.667 -146.667 -83 -204s-122.333 -86 -201 -86c-78 0 -145.333 27.667 -202 83s-85 122 -85 200c0 80 27.833 148.167 83.5 204.5s123.5 84.5 203.5 84.5zM329 488
c-60 0 -110.502 -21.334 -151.502 -64.001s-61.5 -94 -61.5 -154c0 -58.667 20.833 -108.667 62.5 -150s91.834 -62 150.501 -62c60 0 110 21.333 150 64s60 94.334 60 155.001c0 60 -21.167 110.167 -63.5 150.5s-91.166 60.5 -146.499 60.5zM293.998 -156.001v80h66v-80
h-66z" />
    <glyph glyph-name="ebhoanga" unicode="&#x1ece;" horiz-adv-x="869" 
d="M434 751c105.333 0 196.835 -37 274.502 -111s116.5 -163.333 116.5 -268c0 -107.333 -38.333 -198.333 -115 -273s-168.667 -112 -276 -112c-104.667 0 -195.834 37 -273.501 111s-116.5 163.333 -116.5 268c0 107.333 38.167 198.333 114.5 273
s168.166 112 275.499 112zM435.002 58c87.333 0 161.833 30.5 223.5 91.5s92.5 135.167 92.5 222.5c0 84.667 -31.333 157.167 -94 217.5s-136.667 90.5 -222 90.5c-88 0 -162.833 -30.5 -224.5 -91.5s-92.5 -135.167 -92.5 -222.5c0 -84.667 31.667 -157.167 95 -217.5
s137.333 -90.5 222 -90.5zM375.002 898l-45 27.002c7.33301 26.667 21 47 41 61c24 13.333 48 18.666 72 15.999c30.667 -3.33301 54.167 -13.5 70.5 -30.5s24.5 -37.833 24.5 -62.5c-2 -20.667 -16 -41.334 -42 -62.001c-28 -22.667 -43.333 -38 -46 -46h-47
c0 19.333 14.667 39.333 44 60c22.667 16 34 31 34 45c1.33301 12.667 -3.66699 24 -15 34s-24 14.667 -38 14c-12.667 -0.666992 -24.667 -6.5 -36 -17.5s-17 -23.833 -17 -38.5z" />
    <glyph glyph-name="abhoanang" unicode="&#x1ecf;" horiz-adv-x="655" 
d="M329 559c76 0 142.333 -28 199 -84s85 -122 85 -198c0 -78.667 -27.667 -146.667 -83 -204s-122.333 -86 -201 -86c-78 0 -145.333 27.667 -202 83s-85 122 -85 200c0 80 27.833 148.167 83.5 204.5s123.5 84.5 203.5 84.5zM329 488
c-60 0 -110.502 -21.334 -151.502 -64.001s-61.5 -94 -61.5 -154c0 -58.667 20.833 -108.667 62.5 -150s91.834 -62 150.501 -62c60 0 110 21.333 150 64s60 94.334 60 155.001c0 60 -21.167 110.167 -63.5 150.5s-91.166 60.5 -146.499 60.5zM267.998 705.999l-45 27.002
c7.33301 26.667 21 47 41 61c24 13.333 48 18.666 72 15.999c30.667 -3.33301 54.167 -13.5 70.5 -30.5s24.5 -37.833 24.5 -62.5c-2 -20.667 -16 -41.334 -42 -62.001c-28 -22.667 -43.333 -38 -46 -46h-47c0 19.333 14.667 39.333 44 60c22.667 16 34 31 34 45
c1.33301 12.667 -3.66699 24 -15 34s-24 14.667 -38 14c-12.667 -0.666992 -24.667 -6.5 -36 -17.5s-17 -23.833 -17 -38.5z" />
    <glyph glyph-name="ingahoa" unicode="&#x1ed0;" horiz-adv-x="869" 
d="M434 751c105.333 0 196.835 -37 274.502 -111s116.5 -163.333 116.5 -268c0 -107.333 -38.333 -198.333 -115 -273s-168.667 -112 -276 -112c-104.667 0 -195.834 37 -273.501 111s-116.5 163.333 -116.5 268c0 107.333 38.167 198.333 114.5 273
s168.166 112 275.499 112zM435.002 58c87.333 0 161.833 30.5 223.5 91.5s92.5 135.167 92.5 222.5c0 84.667 -31.333 157.167 -94 217.5s-136.667 90.5 -222 90.5c-88 0 -162.833 -30.5 -224.5 -91.5s-92.5 -135.167 -92.5 -222.5c0 -84.667 31.667 -157.167 95 -217.5
s137.333 -90.5 222 -90.5zM270.002 783l131 113h57l130 -113h-81l-78 65l-78 -65h-81zM525.002 911l172 104l31 -52l-173 -102z" />
    <glyph glyph-name="ythhuyen" unicode="&#x1ed1;" horiz-adv-x="655" 
d="M329 559c76 0 142.333 -28 199 -84s85 -122 85 -198c0 -78.667 -27.667 -146.667 -83 -204s-122.333 -86 -201 -86c-78 0 -145.333 27.667 -202 83s-85 122 -85 200c0 80 27.833 148.167 83.5 204.5s123.5 84.5 203.5 84.5zM329 488
c-60 0 -110.502 -21.334 -151.502 -64.001s-61.5 -94 -61.5 -154c0 -58.667 20.833 -108.667 62.5 -150s91.834 -62 150.501 -62c60 0 110 21.333 150 64s60 94.334 60 155.001c0 60 -21.167 110.167 -63.5 150.5s-91.166 60.5 -146.499 60.5zM168.998 602.999l131 113h57
l130 -113h-81l-78 65l-78 -65h-81zM423.998 730.999l172 104l31 -52l-173 -102z" />
    <glyph glyph-name="ihoihoa" unicode="&#x1ed2;" horiz-adv-x="869" 
d="M434 751c105.333 0 196.835 -37 274.502 -111s116.5 -163.333 116.5 -268c0 -107.333 -38.333 -198.333 -115 -273s-168.667 -112 -276 -112c-104.667 0 -195.834 37 -273.501 111s-116.5 163.333 -116.5 268c0 107.333 38.167 198.333 114.5 273
s168.166 112 275.499 112zM435.002 58c87.333 0 161.833 30.5 223.5 91.5s92.5 135.167 92.5 222.5c0 84.667 -31.333 157.167 -94 217.5s-136.667 90.5 -222 90.5c-88 0 -162.833 -30.5 -224.5 -91.5s-92.5 -135.167 -92.5 -222.5c0 -84.667 31.667 -157.167 95 -217.5
s137.333 -90.5 222 -90.5zM270.002 783l131 113h57l130 -113h-81l-78 65l-78 -65h-81zM401.002 1060l178 -97l-29 -52l-177 95z" />
    <glyph glyph-name="ythhoi" unicode="&#x1ed3;" horiz-adv-x="655" 
d="M329 559c76 0 142.333 -28 199 -84s85 -122 85 -198c0 -78.667 -27.667 -146.667 -83 -204s-122.333 -86 -201 -86c-78 0 -145.333 27.667 -202 83s-85 122 -85 200c0 80 27.833 148.167 83.5 204.5s123.5 84.5 203.5 84.5zM329 488
c-60 0 -110.502 -21.334 -151.502 -64.001s-61.5 -94 -61.5 -154c0 -58.667 20.833 -108.667 62.5 -150s91.834 -62 150.501 -62c60 0 110 21.333 150 64s60 94.334 60 155.001c0 60 -21.167 110.167 -63.5 150.5s-91.166 60.5 -146.499 60.5zM168.998 602.999l131 113h57
l130 -113h-81l-78 65l-78 -65h-81zM299.998 879.999l178 -97l-29 -52l-177 95z" />
    <glyph glyph-name="ihuyenhoa" unicode="&#x1ed4;" horiz-adv-x="869" 
d="M434 751c105.333 0 196.835 -37 274.502 -111s116.5 -163.333 116.5 -268c0 -107.333 -38.333 -198.333 -115 -273s-168.667 -112 -276 -112c-104.667 0 -195.834 37 -273.501 111s-116.5 163.333 -116.5 268c0 107.333 38.167 198.333 114.5 273
s168.166 112 275.499 112zM435.002 58c87.333 0 161.833 30.5 223.5 91.5s92.5 135.167 92.5 222.5c0 84.667 -31.333 157.167 -94 217.5s-136.667 90.5 -222 90.5c-88 0 -162.833 -30.5 -224.5 -91.5s-92.5 -135.167 -92.5 -222.5c0 -84.667 31.667 -157.167 95 -217.5
s137.333 -90.5 222 -90.5zM270.002 783l131 113h57l130 -113h-81l-78 65l-78 -65h-81zM517.002 963l-45 27.002c7.33301 26.667 21 47 41 61c24 13.333 48 18.666 72 15.999c30.667 -3.33301 54.167 -13.5 70.5 -30.5s24.5 -37.833 24.5 -62.5
c-2 -20.667 -16 -41.334 -42 -62.001c-28 -22.667 -43.333 -38 -46 -46h-47c0 19.333 14.667 39.333 44 60c22.667 16 34 31 34 45c1.33301 12.667 -3.66699 24 -15 34s-24 14.667 -38 14c-12.667 -0.666992 -24.667 -6.5 -36 -17.5s-17 -23.833 -17 -38.5z" />
    <glyph glyph-name="ythnga" unicode="&#x1ed5;" horiz-adv-x="655" 
d="M329 559c76 0 142.333 -28 199 -84s85 -122 85 -198c0 -78.667 -27.667 -146.667 -83 -204s-122.333 -86 -201 -86c-78 0 -145.333 27.667 -202 83s-85 122 -85 200c0 80 27.833 148.167 83.5 204.5s123.5 84.5 203.5 84.5zM329 488
c-60 0 -110.502 -21.334 -151.502 -64.001s-61.5 -94 -61.5 -154c0 -58.667 20.833 -108.667 62.5 -150s91.834 -62 150.501 -62c60 0 110 21.333 150 64s60 94.334 60 155.001c0 60 -21.167 110.167 -63.5 150.5s-91.166 60.5 -146.499 60.5zM168.998 602.999l131 113h57
l130 -113h-81l-78 65l-78 -65h-81zM415.998 782.999l-45 27.002c7.33301 26.667 21 47 41 61c24 13.333 48 18.666 72 15.999c30.667 -3.33301 54.167 -13.5 70.5 -30.5s24.5 -37.833 24.5 -62.5c-2 -20.667 -16 -41.334 -42 -62.001c-28 -22.667 -43.333 -38 -46 -46h-47
c0 19.333 14.667 39.333 44 60c22.667 16 34 31 34 45c1.33301 12.667 -3.66699 24 -15 34s-24 14.667 -38 14c-12.667 -0.666992 -24.667 -6.5 -36 -17.5s-17 -23.833 -17 -38.5z" />
    <glyph glyph-name="isachoa" unicode="&#x1ed6;" horiz-adv-x="869" 
d="M434 751c105.333 0 196.835 -37 274.502 -111s116.5 -163.333 116.5 -268c0 -107.333 -38.333 -198.333 -115 -273s-168.667 -112 -276 -112c-104.667 0 -195.834 37 -273.501 111s-116.5 163.333 -116.5 268c0 107.333 38.167 198.333 114.5 273
s168.166 112 275.499 112zM435.002 58c87.333 0 161.833 30.5 223.5 91.5s92.5 135.167 92.5 222.5c0 84.667 -31.333 157.167 -94 217.5s-136.667 90.5 -222 90.5c-88 0 -162.833 -30.5 -224.5 -91.5s-92.5 -135.167 -92.5 -222.5c0 -84.667 31.667 -157.167 95 -217.5
s137.333 -90.5 222 -90.5zM270.002 783l131 113h57l130 -113h-81l-78 65l-78 -65h-81zM530.002 1016l23 -40c-23.333 -23.333 -47.333 -35 -72 -35c-16.667 0 -37.667 6.33301 -63 19c-20 10 -35 15 -45 15c-18 0 -34 -8.33301 -48 -25l-26 44
c22.667 24.667 48.667 37 78 37c16 0 35 -6 57 -18s38.333 -18 49 -18c11.333 0 27 7 47 21z" />
    <glyph glyph-name="ythnang" unicode="&#x1ed7;" horiz-adv-x="655" 
d="M329 559c76 0 142.333 -28 199 -84s85 -122 85 -198c0 -78.667 -27.667 -146.667 -83 -204s-122.333 -86 -201 -86c-78 0 -145.333 27.667 -202 83s-85 122 -85 200c0 80 27.833 148.167 83.5 204.5s123.5 84.5 203.5 84.5zM329 488
c-60 0 -110.502 -21.334 -151.502 -64.001s-61.5 -94 -61.5 -154c0 -58.667 20.833 -108.667 62.5 -150s91.834 -62 150.501 -62c60 0 110 21.333 150 64s60 94.334 60 155.001c0 60 -21.167 110.167 -63.5 150.5s-91.166 60.5 -146.499 60.5zM168.998 602.999l131 113h57
l130 -113h-81l-78 65l-78 -65h-81zM428.998 835.999l23 -40c-23.333 -23.333 -47.333 -35 -72 -35c-16.667 0 -37.667 6.33301 -63 19c-20 10 -35 15 -45 15c-18 0 -34 -8.33301 -48 -25l-26 44c22.667 24.667 48.667 37 78 37c16 0 35 -6 57 -18s38.333 -18 49 -18
c11.333 0 27 7 47 21z" />
    <glyph glyph-name="bnanghoa" unicode="&#x1ed8;" horiz-adv-x="869" 
d="M434 751c105.333 0 196.835 -37 274.502 -111s116.5 -163.333 116.5 -268c0 -107.333 -38.333 -198.333 -115 -273s-168.667 -112 -276 -112c-104.667 0 -195.834 37 -273.501 111s-116.5 163.333 -116.5 268c0 107.333 38.167 198.333 114.5 273
s168.166 112 275.499 112zM435.002 58c87.333 0 161.833 30.5 223.5 91.5s92.5 135.167 92.5 222.5c0 84.667 -31.333 157.167 -94 217.5s-136.667 90.5 -222 90.5c-88 0 -162.833 -30.5 -224.5 -91.5s-92.5 -135.167 -92.5 -222.5c0 -84.667 31.667 -157.167 95 -217.5
s137.333 -90.5 222 -90.5zM270.002 783l131 113h57l130 -113h-81l-78 65l-78 -65h-81zM403.002 -146v80h66v-80h-66z" />
    <glyph glyph-name="inanghoa" unicode="&#x1ed9;" horiz-adv-x="655" 
d="M329 559c76 0 142.333 -28 199 -84s85 -122 85 -198c0 -78.667 -27.667 -146.667 -83 -204s-122.333 -86 -201 -86c-78 0 -145.333 27.667 -202 83s-85 122 -85 200c0 80 27.833 148.167 83.5 204.5s123.5 84.5 203.5 84.5zM329 488
c-60 0 -110.502 -21.334 -151.502 -64.001s-61.5 -94 -61.5 -154c0 -58.667 20.833 -108.667 62.5 -150s91.834 -62 150.501 -62c60 0 110 21.333 150 64s60 94.334 60 155.001c0 60 -21.167 110.167 -63.5 150.5s-91.166 60.5 -146.499 60.5zM168.998 602.999l131 113h57
l130 -113h-81l-78 65l-78 -65h-81zM286.998 -156.001v80h66v-80h-66z" />
    <glyph glyph-name="othhoi" unicode="&#x1eda;" horiz-adv-x="869" 
d="M434 751l0.00195312 -1c76 0 144 -17.333 204 -52c48 -28 84.667 -62.667 110 -104c44 8.66699 68.667 54.667 74 138h61c0 -120 -35.333 -180 -106 -180c31.333 -50.667 47.333 -110.667 48 -180c0.666992 -106.667 -37.333 -197.5 -114 -272.5s-169 -112.5 -277 -112.5
c-104.667 0 -195.834 37 -273.501 111s-116.5 163.333 -116.5 268c0 107.333 38.167 198.333 114.5 273s168.166 112 275.499 112zM435.002 57c87.333 0 161.833 30.5 223.5 91.5s92.5 135.167 92.5 222.5c0 84.667 -31.333 157.167 -94 217.5s-136.667 90.5 -222 90.5
c-88 0 -162.833 -30.5 -224.5 -91.5s-92.5 -135.167 -92.5 -222.5c0 -84.667 31.667 -157.167 95 -217.5s137.333 -90.5 222 -90.5zM358.002 850l172 104l31 -52l-173 -102z" />
    <glyph glyph-name="ithhoi" unicode="&#x1edb;" horiz-adv-x="655" 
d="M329 559l1.00098 0.000976562c53.333 0 101.333 -12.333 144 -37c36 -20.667 64 -47.334 84 -80.001c21.333 10 36.333 24.667 45 44c7.33301 16 11.666 40.667 12.999 74h61c0.666992 -102 -31 -154 -95 -156c20.667 -36.667 31 -79 31 -127
c0 -78.667 -27.667 -146.667 -83 -204s-122.333 -86 -201 -86c-78 0 -145.333 27.667 -202 83s-85 122 -85 200c0 80 27.833 148.167 83.5 204.5s123.5 84.5 203.5 84.5zM330.001 488.001c-60 0 -110.502 -21.334 -151.502 -64.001s-61.5 -94 -61.5 -154
c0 -58.667 20.833 -108.667 62.5 -150s91.834 -62 150.501 -62c60 0 110 21.333 150 64s60 94.334 60 155.001c0 60 -21.167 110.167 -63.5 150.5s-91.166 60.5 -146.499 60.5zM246.999 659l172 104l31 -52l-173 -102z" />
    <glyph glyph-name="othnga" unicode="&#x1edc;" horiz-adv-x="869" 
d="M434 751l0.00195312 -1c76 0 144 -17.333 204 -52c48 -28 84.667 -62.667 110 -104c44 8.66699 68.667 54.667 74 138h61c0 -120 -35.333 -180 -106 -180c31.333 -50.667 47.333 -110.667 48 -180c0.666992 -106.667 -37.333 -197.5 -114 -272.5s-169 -112.5 -277 -112.5
c-104.667 0 -195.834 37 -273.501 111s-116.5 163.333 -116.5 268c0 107.333 38.167 198.333 114.5 273s168.166 112 275.499 112zM435.002 57c87.333 0 161.833 30.5 223.5 91.5s92.5 135.167 92.5 222.5c0 84.667 -31.333 157.167 -94 217.5s-136.667 90.5 -222 90.5
c-88 0 -162.833 -30.5 -224.5 -91.5s-92.5 -135.167 -92.5 -222.5c0 -84.667 31.667 -157.167 95 -217.5s137.333 -90.5 222 -90.5zM359.002 949l178 -97l-29 -52l-177 95z" />
    <glyph glyph-name="ithnga" unicode="&#x1edd;" horiz-adv-x="655" 
d="M329 559l1.00098 0.000976562c53.333 0 101.333 -12.333 144 -37c36 -20.667 64 -47.334 84 -80.001c21.333 10 36.333 24.667 45 44c7.33301 16 11.666 40.667 12.999 74h61c0.666992 -102 -31 -154 -95 -156c20.667 -36.667 31 -79 31 -127
c0 -78.667 -27.667 -146.667 -83 -204s-122.333 -86 -201 -86c-78 0 -145.333 27.667 -202 83s-85 122 -85 200c0 80 27.833 148.167 83.5 204.5s123.5 84.5 203.5 84.5zM330.001 488.001c-60 0 -110.502 -21.334 -151.502 -64.001s-61.5 -94 -61.5 -154
c0 -58.667 20.833 -108.667 62.5 -150s91.834 -62 150.501 -62c60 0 110 21.333 150 64s60 94.334 60 155.001c0 60 -21.167 110.167 -63.5 150.5s-91.166 60.5 -146.499 60.5zM252.999 758l178 -97l-29 -52l-177 95z" />
    <glyph glyph-name="othnang" unicode="&#x1ede;" horiz-adv-x="869" 
d="M434 751l0.00195312 -1c76 0 144 -17.333 204 -52c48 -28 84.667 -62.667 110 -104c44 8.66699 68.667 54.667 74 138h61c0 -120 -35.333 -180 -106 -180c31.333 -50.667 47.333 -110.667 48 -180c0.666992 -106.667 -37.333 -197.5 -114 -272.5s-169 -112.5 -277 -112.5
c-104.667 0 -195.834 37 -273.501 111s-116.5 163.333 -116.5 268c0 107.333 38.167 198.333 114.5 273s168.166 112 275.499 112zM435.002 57c87.333 0 161.833 30.5 223.5 91.5s92.5 135.167 92.5 222.5c0 84.667 -31.333 157.167 -94 217.5s-136.667 90.5 -222 90.5
c-88 0 -162.833 -30.5 -224.5 -91.5s-92.5 -135.167 -92.5 -222.5c0 -84.667 31.667 -157.167 95 -217.5s137.333 -90.5 222 -90.5zM375.002 897l-45 27.002c7.33301 26.667 21 47 41 61c24 13.333 48 18.666 72 15.999c30.667 -3.33301 54.167 -13.5 70.5 -30.5
s24.5 -37.833 24.5 -62.5c-2 -20.667 -16 -41.334 -42 -62.001c-28 -22.667 -43.333 -38 -46 -46h-47c0 19.333 14.667 39.333 44 60c22.667 16 34 31 34 45c1.33301 12.667 -3.66699 24 -15 34s-24 14.667 -38 14c-12.667 -0.666992 -24.667 -6.5 -36 -17.5
s-17 -23.833 -17 -38.5z" />
    <glyph glyph-name="ithnang" unicode="&#x1edf;" horiz-adv-x="655" 
d="M329 559l1.00098 0.000976562c53.333 0 101.333 -12.333 144 -37c36 -20.667 64 -47.334 84 -80.001c21.333 10 36.333 24.667 45 44c7.33301 16 11.666 40.667 12.999 74h61c0.666992 -102 -31 -154 -95 -156c20.667 -36.667 31 -79 31 -127
c0 -78.667 -27.667 -146.667 -83 -204s-122.333 -86 -201 -86c-78 0 -145.333 27.667 -202 83s-85 122 -85 200c0 80 27.833 148.167 83.5 204.5s123.5 84.5 203.5 84.5zM330.001 488.001c-60 0 -110.502 -21.334 -151.502 -64.001s-61.5 -94 -61.5 -154
c0 -58.667 20.833 -108.667 62.5 -150s91.834 -62 150.501 -62c60 0 110 21.333 150 64s60 94.334 60 155.001c0 60 -21.167 110.167 -63.5 150.5s-91.166 60.5 -146.499 60.5zM268.999 706l-45 27.002c7.33301 26.667 21 47 41 61c24 13.333 48 18.666 72 15.999
c30.667 -3.33301 54.167 -13.5 70.5 -30.5s24.5 -37.833 24.5 -62.5c-2 -20.667 -16 -41.334 -42 -62.001c-28 -22.667 -43.333 -38 -46 -46h-47c0 19.333 14.667 39.333 44 60c22.667 16 34 31 34 45c1.33301 12.667 -3.66699 24 -15 34s-24 14.667 -38 14
c-12.667 -0.666992 -24.667 -6.5 -36 -17.5s-17 -23.833 -17 -38.5z" />
    <glyph glyph-name="uthsac" unicode="&#x1ee0;" horiz-adv-x="869" 
d="M434 751l0.00195312 -1c76 0 144 -17.333 204 -52c48 -28 84.667 -62.667 110 -104c44 8.66699 68.667 54.667 74 138h61c0 -120 -35.333 -180 -106 -180c31.333 -50.667 47.333 -110.667 48 -180c0.666992 -106.667 -37.333 -197.5 -114 -272.5s-169 -112.5 -277 -112.5
c-104.667 0 -195.834 37 -273.501 111s-116.5 163.333 -116.5 268c0 107.333 38.167 198.333 114.5 273s168.166 112 275.499 112zM435.002 57c87.333 0 161.833 30.5 223.5 91.5s92.5 135.167 92.5 222.5c0 84.667 -31.333 157.167 -94 217.5s-136.667 90.5 -222 90.5
c-88 0 -162.833 -30.5 -224.5 -91.5s-92.5 -135.167 -92.5 -222.5c0 -84.667 31.667 -157.167 95 -217.5s137.333 -90.5 222 -90.5zM538.002 875l23 -40c-23.333 -23.333 -47.333 -35 -72 -35c-16.667 0 -37.667 6.33301 -63 19c-20 10 -35 15 -45 15
c-18 0 -34 -8.33301 -48 -25l-26 44c22.667 24.667 48.667 37 78 37c16 0 35 -6 57 -18s38.333 -18 49 -18c11.333 0 27 7 47 21z" />
    <glyph glyph-name="othsac" unicode="&#x1ee1;" horiz-adv-x="655" 
d="M329 559l1.00098 0.000976562c53.333 0 101.333 -12.333 144 -37c36 -20.667 64 -47.334 84 -80.001c21.333 10 36.333 24.667 45 44c7.33301 16 11.666 40.667 12.999 74h61c0.666992 -102 -31 -154 -95 -156c20.667 -36.667 31 -79 31 -127
c0 -78.667 -27.667 -146.667 -83 -204s-122.333 -86 -201 -86c-78 0 -145.333 27.667 -202 83s-85 122 -85 200c0 80 27.833 148.167 83.5 204.5s123.5 84.5 203.5 84.5zM330.001 488.001c-60 0 -110.502 -21.334 -151.502 -64.001s-61.5 -94 -61.5 -154
c0 -58.667 20.833 -108.667 62.5 -150s91.834 -62 150.501 -62c60 0 110 21.333 150 64s60 94.334 60 155.001c0 60 -21.167 110.167 -63.5 150.5s-91.166 60.5 -146.499 60.5zM431.999 684l23 -40c-23.333 -23.333 -47.333 -35 -72 -35c-16.667 0 -37.667 6.33301 -63 19
c-20 10 -35 15 -45 15c-18 0 -34 -8.33301 -48 -25l-26 44c22.667 24.667 48.667 37 78 37c16 0 35 -6 57 -18s38.333 -18 49 -18c11.333 0 27 7 47 21z" />
    <glyph glyph-name="uthhuyen" unicode="&#x1ee2;" horiz-adv-x="869" 
d="M434 751l0.00195312 -1c76 0 144 -17.333 204 -52c48 -28 84.667 -62.667 110 -104c44 8.66699 68.667 54.667 74 138h61c0 -120 -35.333 -180 -106 -180c31.333 -50.667 47.333 -110.667 48 -180c0.666992 -106.667 -37.333 -197.5 -114 -272.5s-169 -112.5 -277 -112.5
c-104.667 0 -195.834 37 -273.501 111s-116.5 163.333 -116.5 268c0 107.333 38.167 198.333 114.5 273s168.166 112 275.499 112zM435.002 57c87.333 0 161.833 30.5 223.5 91.5s92.5 135.167 92.5 222.5c0 84.667 -31.333 157.167 -94 217.5s-136.667 90.5 -222 90.5
c-88 0 -162.833 -30.5 -224.5 -91.5s-92.5 -135.167 -92.5 -222.5c0 -84.667 31.667 -157.167 95 -217.5s137.333 -90.5 222 -90.5zM401.002 -157v80h66v-80h-66z" />
    <glyph glyph-name="othhuyen" unicode="&#x1ee3;" horiz-adv-x="655" 
d="M329 559l1.00098 0.000976562c53.333 0 101.333 -12.333 144 -37c36 -20.667 64 -47.334 84 -80.001c21.333 10 36.333 24.667 45 44c7.33301 16 11.666 40.667 12.999 74h61c0.666992 -102 -31 -154 -95 -156c20.667 -36.667 31 -79 31 -127
c0 -78.667 -27.667 -146.667 -83 -204s-122.333 -86 -201 -86c-78 0 -145.333 27.667 -202 83s-85 122 -85 200c0 80 27.833 148.167 83.5 204.5s123.5 84.5 203.5 84.5zM330.001 488.001c-60 0 -110.502 -21.334 -151.502 -64.001s-61.5 -94 -61.5 -154
c0 -58.667 20.833 -108.667 62.5 -150s91.834 -62 150.501 -62c60 0 110 21.333 150 64s60 94.334 60 155.001c0 60 -21.167 110.167 -63.5 150.5s-91.166 60.5 -146.499 60.5zM294.999 -156v80h66v-80h-66z" />
    <glyph glyph-name="athhuyen" unicode="&#x1ee4;" horiz-adv-x="655" 
d="M76 739h74v-449c0 -67.333 11.333 -119 34 -155c32.667 -51.333 80.667 -77 144 -77c58 0 103.333 22.333 136 67c27.333 37.333 41 92.333 41 165v449h74v-449c0 -91.333 -18.333 -161 -55 -209c-48 -62.667 -113.333 -94 -196 -94c-80.667 0 -145 29.333 -193 88
c-39.333 48 -59 119.667 -59 215v449zM294 -156v80h66v-80h-66z" />
    <glyph glyph-name="uchoahoi" unicode="&#x1ee5;" horiz-adv-x="608" 
d="M545 547l-0.00195312 -547.001h-70v85h-2c-32 -65.333 -91.667 -98 -179 -98c-70.667 0 -134.667 32.667 -192 98c-26 29.333 -39 87 -39 173v289h74v-289c0 -53.333 8 -93.666 24 -120.999c30.667 -52.667 78.334 -79 143.001 -79c56.667 0 101.334 22.333 134.001 67
c22 30 33 74.333 33 133v289h74zM265.998 -156.001v80h66v-80h-66z" />
    <glyph glyph-name="dth" unicode="&#x1ee6;" horiz-adv-x="655" 
d="M76 739h74v-449c0 -67.333 11.333 -119 34 -155c32.667 -51.333 80.667 -77 144 -77c58 0 103.333 22.333 136 67c27.333 37.333 41 92.333 41 165v449h74v-449c0 -91.333 -18.333 -161 -55 -209c-48 -62.667 -113.333 -94 -196 -94c-80.667 0 -145 29.333 -193 88
c-39.333 48 -59 119.667 -59 215v449zM278 896l-45 27.002c7.33301 26.667 21 47 41 61c24 13.333 48 18.666 72 15.999c30.667 -3.33301 54.167 -13.5 70.5 -30.5s24.5 -37.833 24.5 -62.5c-2 -20.667 -16 -41.334 -42 -62.001c-28 -22.667 -43.333 -38 -46 -46h-47
c0 19.333 14.667 39.333 44 60c22.667 16 34 31 34 45c1.33301 12.667 -3.66699 24 -15 34s-24 14.667 -38 14c-12.667 -0.666992 -24.667 -6.5 -36 -17.5s-17 -23.833 -17 -38.5z" />
    <glyph glyph-name="uchoasac" unicode="&#x1ee7;" horiz-adv-x="608" 
d="M545 547l-0.00195312 -547.001h-70v85h-2c-32 -65.333 -91.667 -98 -179 -98c-70.667 0 -134.667 32.667 -192 98c-26 29.333 -39 87 -39 173v289h74v-289c0 -53.333 8 -93.666 24 -120.999c30.667 -52.667 78.334 -79 143.001 -79c56.667 0 101.334 22.333 134.001 67
c22 30 33 74.333 33 133v289h74zM254.998 698.999l-45 27.002c7.33301 26.667 21 47 41 61c24 13.333 48 18.666 72 15.999c30.667 -3.33301 54.167 -13.5 70.5 -30.5s24.5 -37.833 24.5 -62.5c-2 -20.667 -16 -41.334 -42 -62.001c-28 -22.667 -43.333 -38 -46 -46h-47
c0 19.333 14.667 39.333 44 60c22.667 16 34 31 34 45c1.33301 12.667 -3.66699 24 -15 34s-24 14.667 -38 14c-12.667 -0.666992 -24.667 -6.5 -36 -17.5s-17 -23.833 -17 -38.5z" />
    <glyph glyph-name="aathhuyen" unicode="&#x1ee8;" horiz-adv-x="655" 
d="M76 739h73.999v-449c0 -67.333 11.333 -119 34 -155c32.667 -51.333 80.667 -77 144 -77c58 0 103.333 22.333 136 67c27.333 37.333 41 92.333 41 165v449h74v-126c30.667 23.333 47.334 65.333 50.001 126h61c-5.33301 -114.667 -42.333 -172 -111 -172v-277
c0 -91.333 -18.333 -161 -55 -209c-48 -62.667 -113.333 -94 -196 -94c-80.667 0 -145 29.333 -193 88c-39.333 48 -59 119.667 -59 215v449zM280.999 849l172 104l31 -52l-173 -102z" />
    <glyph glyph-name="uthhoi" unicode="&#x1ee9;" horiz-adv-x="608" 
d="M545 547v-112.001c29.333 11.333 45.666 48.333 48.999 111h61c-4.66699 -104 -41.334 -156 -110.001 -156v-390h-70v85h-2c-32 -65.333 -91.667 -98 -179 -98c-70.667 0 -134.667 32.667 -192 98c-26 29.333 -39 87 -39 173v289h74v-289
c0 -53.333 8 -93.666 24 -120.999c30.667 -52.667 78.334 -79 143.001 -79c56.667 0 101.334 22.333 134.001 67c22 30 33 74.333 33 133v289h74zM258 651.999l172 104l31 -52l-173 -102z" />
    <glyph glyph-name="aathhoi" unicode="&#x1eea;" horiz-adv-x="655" 
d="M76 739h73.999v-449c0 -67.333 11.333 -119 34 -155c32.667 -51.333 80.667 -77 144 -77c58 0 103.333 22.333 136 67c27.333 37.333 41 92.333 41 165v449h74v-126c30.667 23.333 47.334 65.333 50.001 126h61c-5.33301 -114.667 -42.333 -172 -111 -172v-277
c0 -91.333 -18.333 -161 -55 -209c-48 -62.667 -113.333 -94 -196 -94c-80.667 0 -145 29.333 -193 88c-39.333 48 -59 119.667 -59 215v449zM251.999 938l178 -97l-29 -52l-177 95z" />
    <glyph glyph-name="uthnga" unicode="&#x1eeb;" horiz-adv-x="608" 
d="M545 547v-112.001c29.333 11.333 45.666 48.333 48.999 111h61c-4.66699 -104 -41.334 -156 -110.001 -156v-390h-70v85h-2c-32 -65.333 -91.667 -98 -179 -98c-70.667 0 -134.667 32.667 -192 98c-26 29.333 -39 87 -39 173v289h74v-289
c0 -53.333 8 -93.666 24 -120.999c30.667 -52.667 78.334 -79 143.001 -79c56.667 0 101.334 22.333 134.001 67c22 30 33 74.333 33 133v289h74zM224 750.999l178 -97l-29 -52l-177 95z" />
    <glyph glyph-name="aathnga" unicode="&#x1eec;" horiz-adv-x="655" 
d="M76 739h73.999v-449c0 -67.333 11.333 -119 34 -155c32.667 -51.333 80.667 -77 144 -77c58 0 103.333 22.333 136 67c27.333 37.333 41 92.333 41 165v449h74v-126c30.667 23.333 47.334 65.333 50.001 126h61c-5.33301 -114.667 -42.333 -172 -111 -172v-277
c0 -91.333 -18.333 -161 -55 -209c-48 -62.667 -113.333 -94 -196 -94c-80.667 0 -145 29.333 -193 88c-39.333 48 -59 119.667 -59 215v449zM277.999 896l-45 27.002c7.33301 26.667 21 47 41 61c24 13.333 48 18.666 72 15.999c30.667 -3.33301 54.167 -13.5 70.5 -30.5
s24.5 -37.833 24.5 -62.5c-2 -20.667 -16 -41.334 -42 -62.001c-28 -22.667 -43.333 -38 -46 -46h-47c0 19.333 14.667 39.333 44 60c22.667 16 34 31 34 45c1.33301 12.667 -3.66699 24 -15 34s-24 14.667 -38 14c-12.667 -0.666992 -24.667 -6.5 -36 -17.5
s-17 -23.833 -17 -38.5z" />
    <glyph glyph-name="uthnang" unicode="&#x1eed;" horiz-adv-x="608" 
d="M545 547v-112.001c29.333 11.333 45.666 48.333 48.999 111h61c-4.66699 -104 -41.334 -156 -110.001 -156v-390h-70v85h-2c-32 -65.333 -91.667 -98 -179 -98c-70.667 0 -134.667 32.667 -192 98c-26 29.333 -39 87 -39 173v289h74v-289
c0 -53.333 8 -93.666 24 -120.999c30.667 -52.667 78.334 -79 143.001 -79c56.667 0 101.334 22.333 134.001 67c22 30 33 74.333 33 133v289h74zM260 703.999l-45 27.002c7.33301 26.667 21 47 41 61c24 13.333 48 18.666 72 15.999
c30.667 -3.33301 54.167 -13.5 70.5 -30.5s24.5 -37.833 24.5 -62.5c-2 -20.667 -16 -41.334 -42 -62.001c-28 -22.667 -43.333 -38 -46 -46h-47c0 19.333 14.667 39.333 44 60c22.667 16 34 31 34 45c1.33301 12.667 -3.66699 24 -15 34s-24 14.667 -38 14
c-12.667 -0.666992 -24.667 -6.5 -36 -17.5s-17 -23.833 -17 -38.5z" />
    <glyph glyph-name="aathnang" unicode="&#x1eee;" horiz-adv-x="655" 
d="M76 739h73.999v-449c0 -67.333 11.333 -119 34 -155c32.667 -51.333 80.667 -77 144 -77c58 0 103.333 22.333 136 67c27.333 37.333 41 92.333 41 165v449h74v-126c30.667 23.333 47.334 65.333 50.001 126h61c-5.33301 -114.667 -42.333 -172 -111 -172v-277
c0 -91.333 -18.333 -161 -55 -209c-48 -62.667 -113.333 -94 -196 -94c-80.667 0 -145 29.333 -193 88c-39.333 48 -59 119.667 -59 215v449zM430.999 864l23 -40c-23.333 -23.333 -47.333 -35 -72 -35c-16.667 0 -37.667 6.33301 -63 19c-20 10 -35 15 -45 15
c-18 0 -34 -8.33301 -48 -25l-26 44c22.667 24.667 48.667 37 78 37c16 0 35 -6 57 -18s38.333 -18 49 -18c11.333 0 27 7 47 21z" />
    <glyph glyph-name="aath" unicode="&#x1eef;" horiz-adv-x="608" 
d="M545 547v-112.001c29.333 11.333 45.666 48.333 48.999 111h61c-4.66699 -104 -41.334 -156 -110.001 -156v-390h-70v85h-2c-32 -65.333 -91.667 -98 -179 -98c-70.667 0 -134.667 32.667 -192 98c-26 29.333 -39 87 -39 173v289h74v-289
c0 -53.333 8 -93.666 24 -120.999c30.667 -52.667 78.334 -79 143.001 -79c56.667 0 101.334 22.333 134.001 67c22 30 33 74.333 33 133v289h74zM413 676.999l23 -40c-23.333 -23.333 -47.333 -35 -72 -35c-16.667 0 -37.667 6.33301 -63 19c-20 10 -35 15 -45 15
c-18 0 -34 -8.33301 -48 -25l-26 44c22.667 24.667 48.667 37 78 37c16 0 35 -6 57 -18s38.333 -18 49 -18c11.333 0 27 7 47 21z" />
    <glyph glyph-name="abth" unicode="&#x1ef0;" horiz-adv-x="655" 
d="M76 739h73.999v-449c0 -67.333 11.333 -119 34 -155c32.667 -51.333 80.667 -77 144 -77c58 0 103.333 22.333 136 67c27.333 37.333 41 92.333 41 165v449h74v-126c30.667 23.333 47.334 65.333 50.001 126h61c-5.33301 -114.667 -42.333 -172 -111 -172v-277
c0 -91.333 -18.333 -161 -55 -209c-48 -62.667 -113.333 -94 -196 -94c-80.667 0 -145 29.333 -193 88c-39.333 48 -59 119.667 -59 215v449zM293.999 -156v80h66v-80h-66z" />
    <glyph glyph-name="aathsac" unicode="&#x1ef1;" horiz-adv-x="608" 
d="M545 547v-112.001c29.333 11.333 45.666 48.333 48.999 111h61c-4.66699 -104 -41.334 -156 -110.001 -156v-390h-70v85h-2c-32 -65.333 -91.667 -98 -179 -98c-70.667 0 -134.667 32.667 -192 98c-26 29.333 -39 87 -39 173v289h74v-289
c0 -53.333 8 -93.666 24 -120.999c30.667 -52.667 78.334 -79 143.001 -79c56.667 0 101.334 22.333 134.001 67c22 30 33 74.333 33 133v289h74zM291 -156.001v80h66v-80h-66z" />
    <glyph glyph-name="ethnga" unicode="&#x1ef2;" horiz-adv-x="592" 
d="M259 0v247l-257 492h81l213 -415l213 415h81l-257 -492v-247h-74zM221 938l178 -97l-29 -52l-177 95z" />
    <glyph glyph-name="athnga" unicode="&#x1ef3;" horiz-adv-x="536" 
d="M448 547h79l-316 -739h-78l86 209l-210 530h79l175 -436zM193 746l178 -97l-29 -52l-177 95z" />
    <glyph glyph-name="ithhuyen" unicode="&#x1ef4;" horiz-adv-x="592" 
d="M259 0v247l-257 492h81l213 -415l213 415h81l-257 -492v-247h-74zM263 -153v80h66v-80h-66z" />
    <glyph glyph-name="ethhuyen" unicode="&#x1ef5;" horiz-adv-x="536" 
d="M448 547h79l-316 -739h-78l86 209l-210 530h79l175 -436zM330 -190v80h66v-80h-66z" />
    <glyph glyph-name="ethnang" unicode="&#x1ef6;" horiz-adv-x="592" 
d="M259 0v247l-257 492h81l213 -415l213 415h81l-257 -492v-247h-74zM257 896l-45 27.002c7.33301 26.667 21 47 41 61c24 13.333 48 18.666 72 15.999c30.667 -3.33301 54.167 -13.5 70.5 -30.5s24.5 -37.833 24.5 -62.5c-2 -20.667 -16 -41.334 -42 -62.001
c-28 -22.667 -43.333 -38 -46 -46h-47c0 19.333 14.667 39.333 44 60c22.667 16 34 31 34 45c1.33301 12.667 -3.66699 24 -15 34s-24 14.667 -38 14c-12.667 -0.666992 -24.667 -6.5 -36 -17.5s-17 -23.833 -17 -38.5z" />
    <glyph glyph-name="athnang" unicode="&#x1ef7;" horiz-adv-x="536" 
d="M448 547h79l-316 -739h-78l86 209l-210 530h79l175 -436zM224 704l-45 27.002c7.33301 26.667 21 47 41 61c24 13.333 48 18.666 72 15.999c30.667 -3.33301 54.167 -13.5 70.5 -30.5s24.5 -37.833 24.5 -62.5c-2 -20.667 -16 -41.334 -42 -62.001
c-28 -22.667 -43.333 -38 -46 -46h-47c0 19.333 14.667 39.333 44 60c22.667 16 34 31 34 45c1.33301 12.667 -3.66699 24 -15 34s-24 14.667 -38 14c-12.667 -0.666992 -24.667 -6.5 -36 -17.5s-17 -23.833 -17 -38.5z" />
    <glyph glyph-name="ithsac" unicode="&#x1ef8;" horiz-adv-x="592" 
d="M259 0v247l-257 492h81l213 -415l213 415h81l-257 -492v-247h-74zM400 864l23 -40c-23.333 -23.333 -47.333 -35 -72 -35c-16.667 0 -37.667 6.33301 -63 19c-20 10 -35 15 -45 15c-18 0 -34 -8.33301 -48 -25l-26 44c22.667 24.667 48.667 37 78 37c16 0 35 -6 57 -18
s38.333 -18 49 -18c11.333 0 27 7 47 21z" />
    <glyph glyph-name="ethsac" unicode="&#x1ef9;" horiz-adv-x="536" 
d="M448 547h79l-316 -739h-78l86 209l-210 530h79l175 -436zM372 672l23 -40c-23.333 -23.333 -47.333 -35 -72 -35c-16.667 0 -37.667 6.33301 -63 19c-20 10 -35 15 -45 15c-18 0 -34 -8.33301 -48 -25l-26 44c22.667 24.667 48.667 37 78 37c16 0 35 -6 57 -18
s38.333 -18 49 -18c11.333 0 27 7 47 21z" />
    <glyph glyph-name="onequarter" unicode="&#x2013;" horiz-adv-x="500" 
d="M0 334h500v-67h-500v67z" />
    <glyph glyph-name="onehalf" unicode="&#x2014;" horiz-adv-x="1000" 
d="M0 334h1000v-67h-1000v67z" />
    <glyph glyph-name="paragraph" unicode="&#x2018;" horiz-adv-x="351" 
d="M260 546h-74l-88 193h74z" />
    <glyph glyph-name="cedilla" unicode="&#x2019;" horiz-adv-x="351" 
d="M91 546l88 193h74l-88 -193h-74z" />
    <glyph glyph-name="currency" unicode="&#x201a;" horiz-adv-x="354" 
d="M89 -67l88 193h74l-88 -193h-74z" />
    <glyph glyph-name="onesuperior" unicode="&#x201c;" horiz-adv-x="502" 
d="M406 546h-74l-88 193h74zM258 546h-74l-88 193h74z" />
    <glyph glyph-name="ordmasculine" unicode="&#x201d;" horiz-adv-x="484" 
d="M87 546l84 193h74l-88 -193h-70zM231 546l88 193h74l-88 -193h-74z" />
    <glyph glyph-name="brokenbar" unicode="&#x201e;" horiz-adv-x="502" 
d="M89 -67l88 193h74l-88 -193h-74zM237 -67l88 193h73l-87 -193h-74z" />
    <glyph glyph-name="dieresis" unicode="&#x2020;" horiz-adv-x="553" 
d="M313 739v-200h181v-67h-181v-599h-74v599h-180v67h180v200h74z" />
    <glyph glyph-name="copyright" unicode="&#x2021;" horiz-adv-x="553" 
d="M313 739v-177h181v-69h-181v-94h181v-66h-181v-461h-73v461h-181v66h181v94h-181v69h181v177h73z" />
    <glyph glyph-name="guillemotright" unicode="&#x2022;" horiz-adv-x="606" 
d="M488 300c0 -50.667 -18.167 -94 -54.5 -130s-80.166 -54 -131.499 -54c-50.667 0 -94 18 -130 54s-54 79.333 -54 130c0 51.333 18 95.166 54 131.499s79.333 54.5 130 54.5c51.333 0 95.166 -18.167 131.499 -54.5s54.5 -80.166 54.5 -131.499z" />
    <glyph glyph-name="section" unicode="&#x2026;" horiz-adv-x="1000" 
d="M130 0v80h66v-80h-66zM463 -46v80h66v-80h-66zM796 -92v80h66v-80h-66z" />
    <glyph glyph-name="guillemotleft" unicode="&#x2030;" horiz-adv-x="1174" 
d="M181 0l332 739h72l-332 -739h-72zM189 751c48.667 0 89.5 -17.668 122.5 -53.001s49.5 -77.333 49.5 -126c0 -47.333 -17.167 -87.666 -51.5 -120.999s-74.833 -50 -121.5 -50c-48 0 -89.167 16.833 -123.5 50.5s-51.5 74.5 -51.5 122.5c0 50 16.833 92 50.5 126
s75.5 51 125.5 51zM189 679.999l0.000976562 1.00195c-30.667 -0.666992 -55.834 -11.334 -75.501 -32.001s-29.5 -46 -29.5 -76c0 -28 10.167 -51.833 30.5 -71.5s44.5 -29.5 72.5 -29.5c29.333 0 53.833 10.167 73.5 30.5s29.5 45.166 29.5 74.499
c0 28 -9.83301 52.167 -29.5 72.5s-43.5 30.5 -71.5 30.5zM579.001 338.001c48.667 0 89.666 -17.667 122.999 -53s50 -77.333 50 -126c0 -47.333 -17.167 -87.833 -51.5 -121.5s-75.166 -50.5 -122.499 -50.5s-88.333 17 -123 51s-52 74.667 -52 122
c0 49.333 17 91.333 51 126s75.667 52 125 52zM579 267.001c-30.667 0 -55.834 -10.834 -75.501 -32.501s-29.5 -48.167 -29.5 -79.5c0 -28 10.167 -51.167 30.5 -69.5s44.833 -27.5 73.5 -27.5c29.333 0 53.833 9.66699 73.5 29s29.5 43.333 29.5 72
s-10.167 53.834 -30.5 75.501s-44.166 32.5 -71.499 32.5zM978 338c48.667 0 89.666 -17.667 122.999 -53s50 -77.333 50 -126c0 -47.333 -17.167 -87.833 -51.5 -121.5s-75.166 -50.5 -122.499 -50.5s-88.333 17 -123 51s-52 74.667 -52 122c0 49.333 17 91.333 51 126
s75.667 52 125 52zM977.999 267c-30.667 0 -55.834 -10.833 -75.501 -32.5s-29.5 -47.834 -29.5 -78.501c0 -28.667 10.167 -52.167 30.5 -70.5s44.5 -27.5 72.5 -27.5c30 0 54.833 9.5 74.5 28.5s29.5 43.167 29.5 72.5c0 28.667 -10.167 53.834 -30.5 75.501
s-44.166 32.5 -71.499 32.5z" />
    <glyph glyph-name="registered" unicode="&#x2039;" horiz-adv-x="251" 
d="M153 101l-113 200l113 199l58 -31l-94 -168l94 -168z" />
    <glyph glyph-name="Aacute" unicode="&#x203a;" horiz-adv-x="251" 
d="M98 101l-58 32l94 168l-94 168l58 31l113 -199z" />
    <glyph glyph-name="questiondown" unicode="&#x2122;" horiz-adv-x="1000" 
d="M938 739v-421h-66v361l-146 -361h-39l-142 361v-361h-67v421h108l121 -297l125 297h106zM404 739v-60h-133v-361h-74v361h-134v60h341z" />
    <glyph glyph-name="cth" unicode="&#xf006;" 
d="M-333 906l172 104l31 -52l-173 -102z" />
    <glyph glyph-name="uniF008" unicode="&#xf008;" horiz-adv-x="250" 
 />
    <glyph glyph-name="bnangth" unicode="&#xf009;" 
d="M-352 770l172 104l31 -52l-173 -102z" />
    <glyph glyph-name="bngahoa" unicode="&#xf00a;" 
d="M-409 659l172 104l31 -52l-173 -102z" />
    <glyph glyph-name="abngahoa" unicode="&#xf00b;" 
d="M-457 1050l178 -97l-29 -52l-177 95z" />
    <glyph glyph-name="yhoahuyen" unicode="&#xf00d;" horiz-adv-x="1" 
d="M-173 749l178 -97l-29 -52l-177 95z" />
    <glyph glyph-name="bngath" unicode="&#xf00e;" 
d="M-441 874l178 -97l-29 -52l-177 95z" />
    <glyph glyph-name="bhoihoa" unicode="&#xf00f;" 
d="M-403 753l178 -97l-29 -52l-177 95z" />
    <glyph glyph-name="abhoihoa" unicode="&#xf010;" 
d="M-346 953l-45 27.002c7.33301 26.667 21 47 41 61c24 13.333 48 18.666 72 15.999c30.667 -3.33301 54.167 -13.5 70.5 -30.5s24.5 -37.833 24.5 -62.5c-2 -20.667 -16 -41.334 -42 -62.001c-28 -22.667 -43.333 -38 -46 -46h-47c0 19.333 14.667 39.333 44 60
c22.667 16 34 31 34 45c1.33301 12.667 -3.66699 24 -15 34s-24 14.667 -38 14c-12.667 -0.666992 -24.667 -6.5 -36 -17.5s-17 -23.833 -17 -38.5z" />
    <glyph glyph-name="csachoa" unicode="&#xf011;" 
d="M-477 901l-45 27.002c7.33301 26.667 21 47 41 61c24 13.333 48 18.666 72 15.999c30.667 -3.33301 54.167 -13.5 70.5 -30.5s24.5 -37.833 24.5 -62.5c-2 -20.667 -16 -41.334 -42 -62.001c-28 -22.667 -43.333 -38 -46 -46h-47c0 19.333 14.667 39.333 44 60
c22.667 16 34 31 34 45c1.33301 12.667 -3.66699 24 -15 34s-24 14.667 -38 14c-12.667 -0.666992 -24.667 -6.5 -36 -17.5s-17 -23.833 -17 -38.5z" />
    <glyph glyph-name="yhoahoi" unicode="&#xf012;" horiz-adv-x="1" 
d="M-148 704l-45 27.002c7.33301 26.667 21 47 41 61c24 13.333 48 18.666 72 15.999c30.667 -3.33301 54.167 -13.5 70.5 -30.5s24.5 -37.833 24.5 -62.5c-2 -20.667 -16 -41.334 -42 -62.001c-28 -22.667 -43.333 -38 -46 -46h-47c0 19.333 14.667 39.333 44 60
c22.667 16 34 31 34 45c1.33301 12.667 -3.66699 24 -15 34s-24 14.667 -38 14c-12.667 -0.666992 -24.667 -6.5 -36 -17.5s-17 -23.833 -17 -38.5z" />
    <glyph glyph-name="bhoith" unicode="&#xf013;" 
d="M-365 817l-45 27.002c7.33301 26.667 21 47 41 61c24 13.333 48 18.666 72 15.999c30.667 -3.33301 54.167 -13.5 70.5 -30.5s24.5 -37.833 24.5 -62.5c-2 -20.667 -16 -41.334 -42 -62.001c-28 -22.667 -43.333 -38 -46 -46h-47c0 19.333 14.667 39.333 44 60
c22.667 16 34 31 34 45c1.33301 12.667 -3.66699 24 -15 34s-24 14.667 -38 14c-12.667 -0.666992 -24.667 -6.5 -36 -17.5s-17 -23.833 -17 -38.5z" />
    <glyph glyph-name="bhuyenhoa" unicode="&#xf014;" 
d="M-387 706l-45 27.002c7.33301 26.667 21 47 41 61c24 13.333 48 18.666 72 15.999c30.667 -3.33301 54.167 -13.5 70.5 -30.5s24.5 -37.833 24.5 -62.5c-2 -20.667 -16 -41.334 -42 -62.001c-28 -22.667 -43.333 -38 -46 -46h-47c0 19.333 14.667 39.333 44 60
c22.667 16 34 31 34 45c1.33301 12.667 -3.66699 24 -15 34s-24 14.667 -38 14c-12.667 -0.666992 -24.667 -6.5 -36 -17.5s-17 -23.833 -17 -38.5z" />
    <glyph glyph-name="abhuyenhoa" unicode="&#xf015;" 
d="M-333 1011l23 -40c-23.333 -23.333 -47.333 -35 -72 -35c-16.667 0 -37.667 6.33301 -63 19c-20 10 -35 15 -45 15c-18 0 -34 -8.33301 -48 -25l-26 44c22.667 24.667 48.667 37 78 37c16 0 35 -6 57 -18s38.333 -18 49 -18c11.333 0 27 7 47 21z" />
    <glyph glyph-name="abhuyenhoa" unicode="&#xf02f;" 
d="M-333 1011l23 -40c-23.333 -23.333 -47.333 -35 -72 -35c-16.667 0 -37.667 6.33301 -63 19c-20 10 -35 15 -45 15c-18 0 -34 -8.33301 -48 -25l-26 44c22.667 24.667 48.667 37 78 37c16 0 35 -6 57 -18s38.333 -18 49 -18c11.333 0 27 7 47 21z" />
    <glyph glyph-name="abhuyenhoa" unicode="&#xf02d;" 
d="M-333 1011l23 -40c-23.333 -23.333 -47.333 -35 -72 -35c-16.667 0 -37.667 6.33301 -63 19c-20 10 -35 15 -45 15c-18 0 -34 -8.33301 -48 -25l-26 44c22.667 24.667 48.667 37 78 37c16 0 35 -6 57 -18s38.333 -18 49 -18c11.333 0 27 7 47 21z" />
    <glyph glyph-name="bhuyenth" unicode="&#xf018;" 
d="M-207 820l23 -40c-23.333 -23.333 -47.333 -35 -72 -35c-16.667 0 -37.667 6.33301 -63 19c-20 10 -35 15 -45 15c-18 0 -34 -8.33301 -48 -25l-26 44c22.667 24.667 48.667 37 78 37c16 0 35 -6 57 -18s38.333 -18 49 -18c11.333 0 27 7 47 21z" />
    <glyph glyph-name="bsachoa" unicode="&#xf019;" 
d="M-224 684l23 -40c-23.333 -23.333 -47.333 -35 -72 -35c-16.667 0 -37.667 6.33301 -63 19c-20 10 -35 15 -45 15c-18 0 -34 -8.33301 -48 -25l-26 44c22.667 24.667 48.667 37 78 37c16 0 35 -6 57 -18s38.333 -18 49 -18c11.333 0 27 7 47 21z" />
    <glyph glyph-name="bsachoa" unicode="&#xf01b;" 
d="M-224 684l23 -40c-23.333 -23.333 -47.333 -35 -72 -35c-16.667 0 -37.667 6.33301 -63 19c-20 10 -35 15 -45 15c-18 0 -34 -8.33301 -48 -25l-26 44c22.667 24.667 48.667 37 78 37c16 0 35 -6 57 -18s38.333 -18 49 -18c11.333 0 27 7 47 21z" />
    <glyph glyph-name="bsachoa" unicode="&#xf01a;" 
d="M-224 684l23 -40c-23.333 -23.333 -47.333 -35 -72 -35c-16.667 0 -37.667 6.33301 -63 19c-20 10 -35 15 -45 15c-18 0 -34 -8.33301 -48 -25l-26 44c22.667 24.667 48.667 37 78 37c16 0 35 -6 57 -18s38.333 -18 49 -18c11.333 0 27 7 47 21z" />
    <glyph glyph-name="yhoasac" unicode="&#xf01d;" horiz-adv-x="1" 
d="M5 670l23 -40c-23.333 -23.333 -47.333 -35 -72 -35c-16.667 0 -37.667 6.33301 -63 19c-20 10 -35 15 -45 15c-18 0 -34 -8.33301 -48 -25l-26 44c22.667 24.667 48.667 37 78 37c16 0 35 -6 57 -18s38.333 -18 49 -18c11.333 0 27 7 47 21z" />
    <glyph glyph-name="bhoa" unicode="&#xf023;" 
d="M-366 -151v80h66v-80h-66z" />
    <glyph glyph-name="bhoa" unicode="&#xf02c;" 
d="M-366 -151v80h66v-80h-66z" />
    <glyph glyph-name="bhoa" unicode="&#xf028;" 
d="M-366 -151v80h66v-80h-66z" />
    <glyph glyph-name="bhoa" unicode="&#xf027;" 
d="M-366 -151v80h66v-80h-66z" />
    <glyph glyph-name="bhoa" unicode="&#xf026;" 
d="M-366 -151v80h66v-80h-66z" />
    <glyph glyph-name="bhoa" unicode="&#xf025;" 
d="M-366 -151v80h66v-80h-66z" />
    <glyph glyph-name="bhoa" unicode="&#xf024;" 
d="M-366 -151v80h66v-80h-66z" />
    <glyph glyph-name="yhoanga" unicode="&#xf02a;" horiz-adv-x="1" 
d="M-140 -129v80h66v-80h-66z" />
    <glyph glyph-name=".null" 
 />
    <glyph glyph-name="nonmarkingreturn" horiz-adv-x="277" 
 />
    <glyph glyph-name="minus" horiz-adv-x="300" 
d="M116 0v366l-80 -54v73l80 52v302h74v-255l80 53v-74l-80 -53v-410h-74z" />
    <glyph glyph-name="periodcentered" horiz-adv-x="277" 
d="M101 238v126h74v-126h-74z" />
    <glyph glyph-name="fi" horiz-adv-x="552" 
d="M74 661l170 124l37 -49l-173 -123zM271 661l171 124l37 -49l-173 -123z" />
    <glyph glyph-name="fl" horiz-adv-x="487" 
d="M98 0v480h-85v67h85c-2.66699 60 14.333 107.333 51 142c34.667 33.333 82.667 50 144 50h14v-68l-14 1c-38 2.66699 -67.833 -6 -89.5 -26s-32.5 -49.333 -32.5 -88l1 -11h136v-67h-136v-480h-74zM350 0v547h74v-547h-74zM350 613v126h74v-126h-74z" />
    <glyph glyph-name="dhoa" horiz-adv-x="453" 
d="M74 716h57.998c12.667 -26.667 39 -40 79 -40s66.333 13.333 79 40h56c-7.33301 -30 -24.333 -53 -51 -69c-23.333 -14.667 -51.666 -22 -84.999 -22s-61.666 7.33301 -84.999 22c-26.667 16 -43.667 39 -51 69z" />
    <glyph glyph-name="abhoasac" horiz-adv-x="502" 
d="M74 613l131 113h57l130 -113h-81l-78 65l-78 -65h-81z" />
    <glyph glyph-name="ehoahoi" horiz-adv-x="683" 
d="M620 547l0.000976562 -547h-71v103h-2c-19.333 -37.333 -48.666 -66.333 -87.999 -87c-36.667 -19.333 -77.334 -29 -122.001 -29c-92.667 0 -173 38.667 -241 116c-12.667 14 -24 35.333 -34 64c-13.333 36 -20 72.667 -20 110c0 73.333 26.333 137.333 79 192
c58 60 129.333 90 214 90c45.333 0 86.666 -9.66699 123.999 -29c40 -20.667 69.333 -49.667 88 -87h2v104h71zM335.001 488c-60 0 -111.5 -21.168 -154.5 -63.501s-64.5 -93.5 -64.5 -153.5c0 -59.333 22 -109.666 66 -150.999s95.667 -62 155 -62
c57.333 0 107 21.167 149 63.5s63 91.833 63 148.5c0 60.667 -20.5 112.167 -61.5 154.5s-91.833 63.5 -152.5 63.5zM190.001 607.999l131 113h57l130 -113h-81l-78 65l-78 -65h-81z" />
    <glyph glyph-name="ehoanga" horiz-adv-x="740" 
d="M11 0l319 739h82l317 -739h-80l-107 248h-344l-107 -248h-80zM227 315h286l-142 339zM213 775l131 113h57l130 -113h-81l-78 65l-78 -65h-81z" />
    <glyph glyph-name="ehoanang" horiz-adv-x="650" 
d="M611 247l-494.998 -0.00195312c2 -51.333 24 -95.666 66 -132.999s88.667 -56 140 -56c41.333 0 80.333 10.833 117 32.5s63 50.834 79 87.501h77c-19.333 -55.333 -54 -101 -104 -137s-104 -54 -162 -54c-80 0 -147.833 27.667 -203.5 83s-83.5 123 -83.5 203
c0 79.333 27.667 146.833 83 202.5s122.666 83.5 201.999 83.5c89.333 0 162.666 -35.333 219.999 -106c40.667 -49.333 62 -118 64 -206zM116.002 313.998l421 -0.000976562c-9.33301 48.667 -34 89.834 -74 123.501s-85 50.5 -135 50.5c-52 0 -98.167 -16.5 -138.5 -49.5
s-64.833 -74.5 -73.5 -124.5zM167.002 603.997l131 113h57l130 -113h-81l-78 65l-78 -65h-81z" />
    <glyph glyph-name="ihoasac" horiz-adv-x="536" 
d="M76 0v739h404v-67h-330v-266h319v-67h-319v-272h330v-67h-404zM106 774l131 113h57l130 -113h-81l-78 65l-78 -65h-81z" />
    <glyph glyph-name="ihoahuyen" horiz-adv-x="655" 
d="M329 559c76 0 142.333 -28 199 -84s85 -122 85 -198c0 -78.667 -27.667 -146.667 -83 -204s-122.333 -86 -201 -86c-78 0 -145.333 27.667 -202 83s-85 122 -85 200c0 80 27.833 148.167 83.5 204.5s123.5 84.5 203.5 84.5zM329 488
c-60 0 -110.502 -21.334 -151.502 -64.001s-61.5 -94 -61.5 -154c0 -58.667 20.833 -108.667 62.5 -150s91.834 -62 150.501 -62c60 0 110 21.333 150 64s60 94.334 60 155.001c0 60 -21.167 110.167 -63.5 150.5s-91.166 60.5 -146.499 60.5zM168.998 602.999l131 113h57
l130 -113h-81l-78 65l-78 -65h-81z" />
    <glyph glyph-name="ihoahoi" horiz-adv-x="869" 
d="M434 751c105.333 0 196.835 -37 274.502 -111s116.5 -163.333 116.5 -268c0 -107.333 -38.333 -198.333 -115 -273s-168.667 -112 -276 -112c-104.667 0 -195.834 37 -273.501 111s-116.5 163.333 -116.5 268c0 107.333 38.167 198.333 114.5 273
s168.166 112 275.499 112zM435.002 58c87.333 0 161.833 30.5 223.5 91.5s92.5 135.167 92.5 222.5c0 84.667 -31.333 157.167 -94 217.5s-136.667 90.5 -222 90.5c-88 0 -162.833 -30.5 -224.5 -91.5s-92.5 -135.167 -92.5 -222.5c0 -84.667 31.667 -157.167 95 -217.5
s137.333 -90.5 222 -90.5zM270.002 783l131 113h57l130 -113h-81l-78 65l-78 -65h-81z" />
    <glyph glyph-name="ihoanga" horiz-adv-x="683" 
d="M620 547l0.000976562 -547h-71v103h-2c-19.333 -37.333 -48.666 -66.333 -87.999 -87c-36.667 -19.333 -77.334 -29 -122.001 -29c-92.667 0 -173 38.667 -241 116c-12.667 14 -24 35.333 -34 64c-13.333 36 -20 72.667 -20 110c0 73.333 26.333 137.333 79 192
c58 60 129.333 90 214 90c45.333 0 86.666 -9.66699 123.999 -29c40 -20.667 69.333 -49.667 88 -87h2v104h71zM335.001 488c-60 0 -111.5 -21.168 -154.5 -63.501s-64.5 -93.5 -64.5 -153.5c0 -59.333 22 -109.666 66 -150.999s95.667 -62 155 -62
c57.333 0 107 21.167 149 63.5s63 91.833 63 148.5c0 60.667 -20.5 112.167 -61.5 154.5s-91.833 63.5 -152.5 63.5zM305.001 663.999l172 104l31 -52l-173 -102z" />
    <glyph glyph-name="ihoanang" horiz-adv-x="683" 
d="M620 547l0.000976562 -547h-71v103h-2c-19.333 -37.333 -48.666 -66.333 -87.999 -87c-36.667 -19.333 -77.334 -29 -122.001 -29c-92.667 0 -173 38.667 -241 116c-12.667 14 -24 35.333 -34 64c-13.333 36 -20 72.667 -20 110c0 73.333 26.333 137.333 79 192
c58 60 129.333 90 214 90c45.333 0 86.666 -9.66699 123.999 -29c40 -20.667 69.333 -49.667 88 -87h2v104h71zM335.001 488c-60 0 -111.5 -21.168 -154.5 -63.501s-64.5 -93.5 -64.5 -153.5c0 -59.333 22 -109.666 66 -150.999s95.667 -62 155 -62
c57.333 0 107 21.167 149 63.5s63 91.833 63 148.5c0 60.667 -20.5 112.167 -61.5 154.5s-91.833 63.5 -152.5 63.5zM296.001 762.999l178 -97l-29 -52l-177 95z" />
    <glyph glyph-name="ohoahuyen" horiz-adv-x="683" 
d="M620 547l0.000976562 -547h-71v103h-2c-19.333 -37.333 -48.666 -66.333 -87.999 -87c-36.667 -19.333 -77.334 -29 -122.001 -29c-92.667 0 -173 38.667 -241 116c-12.667 14 -24 35.333 -34 64c-13.333 36 -20 72.667 -20 110c0 73.333 26.333 137.333 79 192
c58 60 129.333 90 214 90c45.333 0 86.666 -9.66699 123.999 -29c40 -20.667 69.333 -49.667 88 -87h2v104h71zM335.001 488c-60 0 -111.5 -21.168 -154.5 -63.501s-64.5 -93.5 -64.5 -153.5c0 -59.333 22 -109.666 66 -150.999s95.667 -62 155 -62
c57.333 0 107 21.167 149 63.5s63 91.833 63 148.5c0 60.667 -20.5 112.167 -61.5 154.5s-91.833 63.5 -152.5 63.5zM470.001 688.999l23 -40c-23.333 -23.333 -47.333 -35 -72 -35c-16.667 0 -37.667 6.33301 -63 19c-20 10 -35 15 -45 15c-18 0 -34 -8.33301 -48 -25
l-26 44c22.667 24.667 48.667 37 78 37c16 0 35 -6 57 -18s38.333 -18 49 -18c11.333 0 27 7 47 21z" />
    <glyph glyph-name="ohoanga" horiz-adv-x="740" 
d="M11 0l319 739h82l317 -739h-80l-107 248h-344l-107 -248h-80zM227 315h286l-142 339zM289 839l172 104l31 -52l-173 -102z" />
    <glyph glyph-name="ohoanang" horiz-adv-x="740" 
d="M11 0l319 739h82l317 -739h-80l-107 248h-344l-107 -248h-80zM227 315h286l-142 339zM295 938l178 -97l-29 -52l-177 95z" />
    <glyph glyph-name="uhoahuyen" horiz-adv-x="740" 
d="M11 0l319 739h82l317 -739h-80l-107 248h-344l-107 -248h-80zM227 315h286l-142 339zM474 864l23 -40c-23.333 -23.333 -47.333 -35 -72 -35c-16.667 0 -37.667 6.33301 -63 19c-20 10 -35 15 -45 15c-18 0 -34 -8.33301 -48 -25l-26 44c22.667 24.667 48.667 37 78 37
c16 0 35 -6 57 -18s38.333 -18 49 -18c11.333 0 27 7 47 21z" />
    <glyph glyph-name="uhoanga" horiz-adv-x="650" 
d="M611 247l-494.998 -0.00195312c2 -51.333 24 -95.666 66 -132.999s88.667 -56 140 -56c41.333 0 80.333 10.833 117 32.5s63 50.834 79 87.501h77c-19.333 -55.333 -54 -101 -104 -137s-104 -54 -162 -54c-80 0 -147.833 27.667 -203.5 83s-83.5 123 -83.5 203
c0 79.333 27.667 146.833 83 202.5s122.666 83.5 201.999 83.5c89.333 0 162.666 -35.333 219.999 -106c40.667 -49.333 62 -118 64 -206zM116.002 313.998l421 -0.000976562c-9.33301 48.667 -34 89.834 -74 123.501s-85 50.5 -135 50.5c-52 0 -98.167 -16.5 -138.5 -49.5
s-64.833 -74.5 -73.5 -124.5zM245.002 658.997l172 104l31 -52l-173 -102z" />
    <glyph glyph-name="uhoanang" horiz-adv-x="650" 
d="M611 247l-494.998 -0.00195312c2 -51.333 24 -95.666 66 -132.999s88.667 -56 140 -56c41.333 0 80.333 10.833 117 32.5s63 50.834 79 87.501h77c-19.333 -55.333 -54 -101 -104 -137s-104 -54 -162 -54c-80 0 -147.833 27.667 -203.5 83s-83.5 123 -83.5 203
c0 79.333 27.667 146.833 83 202.5s122.666 83.5 201.999 83.5c89.333 0 162.666 -35.333 219.999 -106c40.667 -49.333 62 -118 64 -206zM116.002 313.998l421 -0.000976562c-9.33301 48.667 -34 89.834 -74 123.501s-85 50.5 -135 50.5c-52 0 -98.167 -16.5 -138.5 -49.5
s-64.833 -74.5 -73.5 -124.5zM251.002 757.997l178 -97l-29 -52l-177 95z" />
    <glyph glyph-name="aahoahoi" horiz-adv-x="536" 
d="M76 0v739h404v-67h-330v-266h319v-67h-319v-272h330v-67h-404zM212 839l172 104l31 -52l-173 -102z" />
    <glyph glyph-name="aahoanga" horiz-adv-x="536" 
d="M76 0v739h404v-67h-330v-266h319v-67h-319v-272h330v-67h-404zM203 938l178 -97l-29 -52l-177 95z" />
    <glyph glyph-name="abhoahoi" horiz-adv-x="655" 
d="M329 559c76 0 142.333 -28 199 -84s85 -122 85 -198c0 -78.667 -27.667 -146.667 -83 -204s-122.333 -86 -201 -86c-78 0 -145.333 27.667 -202 83s-85 122 -85 200c0 80 27.833 148.167 83.5 204.5s123.5 84.5 203.5 84.5zM329 488
c-60 0 -110.502 -21.334 -151.502 -64.001s-61.5 -94 -61.5 -154c0 -58.667 20.833 -108.667 62.5 -150s91.834 -62 150.501 -62c60 0 110 21.333 150 64s60 94.334 60 155.001c0 60 -21.167 110.167 -63.5 150.5s-91.166 60.5 -146.499 60.5zM245.998 658.999l172 104
l31 -52l-173 -102z" />
    <glyph glyph-name="abhoanga" horiz-adv-x="655" 
d="M329 559c76 0 142.333 -28 199 -84s85 -122 85 -198c0 -78.667 -27.667 -146.667 -83 -204s-122.333 -86 -201 -86c-78 0 -145.333 27.667 -202 83s-85 122 -85 200c0 80 27.833 148.167 83.5 204.5s123.5 84.5 203.5 84.5zM329 488
c-60 0 -110.502 -21.334 -151.502 -64.001s-61.5 -94 -61.5 -154c0 -58.667 20.833 -108.667 62.5 -150s91.834 -62 150.501 -62c60 0 110 21.333 150 64s60 94.334 60 155.001c0 60 -21.167 110.167 -63.5 150.5s-91.166 60.5 -146.499 60.5zM251.998 757.999l178 -97
l-29 -52l-177 95z" />
    <glyph glyph-name="ebhoa" horiz-adv-x="655" 
d="M329 559c76 0 142.333 -28 199 -84s85 -122 85 -198c0 -78.667 -27.667 -146.667 -83 -204s-122.333 -86 -201 -86c-78 0 -145.333 27.667 -202 83s-85 122 -85 200c0 80 27.833 148.167 83.5 204.5s123.5 84.5 203.5 84.5zM329 488
c-60 0 -110.502 -21.334 -151.502 -64.001s-61.5 -94 -61.5 -154c0 -58.667 20.833 -108.667 62.5 -150s91.834 -62 150.501 -62c60 0 110 21.333 150 64s60 94.334 60 155.001c0 60 -21.167 110.167 -63.5 150.5s-91.166 60.5 -146.499 60.5zM430.998 683.999l23 -40
c-23.333 -23.333 -47.333 -35 -72 -35c-16.667 0 -37.667 6.33301 -63 19c-20 10 -35 15 -45 15c-18 0 -34 -8.33301 -48 -25l-26 44c22.667 24.667 48.667 37 78 37c16 0 35 -6 57 -18s38.333 -18 49 -18c11.333 0 27 7 47 21z" />
    <glyph glyph-name="ebhoahuyen" horiz-adv-x="869" 
d="M434 751c105.333 0 196.835 -37 274.502 -111s116.5 -163.333 116.5 -268c0 -107.333 -38.333 -198.333 -115 -273s-168.667 -112 -276 -112c-104.667 0 -195.834 37 -273.501 111s-116.5 163.333 -116.5 268c0 107.333 38.167 198.333 114.5 273
s168.166 112 275.499 112zM435.002 58c87.333 0 161.833 30.5 223.5 91.5s92.5 135.167 92.5 222.5c0 84.667 -31.333 157.167 -94 217.5s-136.667 90.5 -222 90.5c-88 0 -162.833 -30.5 -224.5 -91.5s-92.5 -135.167 -92.5 -222.5c0 -84.667 31.667 -157.167 95 -217.5
s137.333 -90.5 222 -90.5zM358.002 851l172 104l31 -52l-173 -102z" />
    <glyph glyph-name="ebhoahoi" horiz-adv-x="869" 
d="M434 751c105.333 0 196.835 -37 274.502 -111s116.5 -163.333 116.5 -268c0 -107.333 -38.333 -198.333 -115 -273s-168.667 -112 -276 -112c-104.667 0 -195.834 37 -273.501 111s-116.5 163.333 -116.5 268c0 107.333 38.167 198.333 114.5 273
s168.166 112 275.499 112zM435.002 58c87.333 0 161.833 30.5 223.5 91.5s92.5 135.167 92.5 222.5c0 84.667 -31.333 157.167 -94 217.5s-136.667 90.5 -222 90.5c-88 0 -162.833 -30.5 -224.5 -91.5s-92.5 -135.167 -92.5 -222.5c0 -84.667 31.667 -157.167 95 -217.5
s137.333 -90.5 222 -90.5zM359.002 950l178 -97l-29 -52l-177 95z" />
    <glyph glyph-name="ebhoanang" horiz-adv-x="869" 
d="M434 751c105.333 0 196.835 -37 274.502 -111s116.5 -163.333 116.5 -268c0 -107.333 -38.333 -198.333 -115 -273s-168.667 -112 -276 -112c-104.667 0 -195.834 37 -273.501 111s-116.5 163.333 -116.5 268c0 107.333 38.167 198.333 114.5 273
s168.166 112 275.499 112zM435.002 58c87.333 0 161.833 30.5 223.5 91.5s92.5 135.167 92.5 222.5c0 84.667 -31.333 157.167 -94 217.5s-136.667 90.5 -222 90.5c-88 0 -162.833 -30.5 -224.5 -91.5s-92.5 -135.167 -92.5 -222.5c0 -84.667 31.667 -157.167 95 -217.5
s137.333 -90.5 222 -90.5zM538.002 876l23 -40c-23.333 -23.333 -47.333 -35 -72 -35c-16.667 0 -37.667 6.33301 -63 19c-20 10 -35 15 -45 15c-18 0 -34 -8.33301 -48 -25l-26 44c22.667 24.667 48.667 37 78 37c16 0 35 -6 57 -18s38.333 -18 49 -18c11.333 0 27 7 47 21
z" />
    <glyph glyph-name="obhoasac" horiz-adv-x="200" 
d="M63 0v547h74v-547h-74zM4 672l172 104l31 -52l-173 -102z" />
    <glyph glyph-name="obhoahuyen" horiz-adv-x="200" 
d="M63 0v547h74v-547h-74zM15 751l178 -97l-29 -52l-177 95z" />
    <glyph glyph-name="ochoa" horiz-adv-x="226" 
d="M76 0v739h74v-739h-74zM32 839l172 104l31 -52l-173 -102z" />
    <glyph glyph-name="ochoasac" horiz-adv-x="226" 
d="M76 0v739h74v-739h-74zM23 943l178 -97l-29 -52l-177 95z" />
    <glyph glyph-name="ochoanang" horiz-adv-x="608" 
d="M545 547l-0.00195312 -547.001h-70v85h-2c-32 -65.333 -91.667 -98 -179 -98c-70.667 0 -134.667 32.667 -192 98c-26 29.333 -39 87 -39 173v289h74v-289c0 -53.333 8 -93.666 24 -120.999c30.667 -52.667 78.334 -79 143.001 -79c56.667 0 101.334 22.333 134.001 67
c22 30 33 74.333 33 133v289h74zM252.998 651.999l172 104l31 -52l-173 -102z" />
    <glyph glyph-name="uchoa" horiz-adv-x="608" 
d="M545 547l-0.00195312 -547.001h-70v85h-2c-32 -65.333 -91.667 -98 -179 -98c-70.667 0 -134.667 32.667 -192 98c-26 29.333 -39 87 -39 173v289h74v-289c0 -53.333 8 -93.666 24 -120.999c30.667 -52.667 78.334 -79 143.001 -79c56.667 0 101.334 22.333 134.001 67
c22 30 33 74.333 33 133v289h74zM228.998 745.999l178 -97l-29 -52l-177 95z" />
    <glyph glyph-name="uchoanga" horiz-adv-x="655" 
d="M76 739h74v-449c0 -67.333 11.333 -119 34 -155c32.667 -51.333 80.667 -77 144 -77c58 0 103.333 22.333 136 67c27.333 37.333 41 92.333 41 165v449h74v-449c0 -91.333 -18.333 -161 -55 -209c-48 -62.667 -113.333 -94 -196 -94c-80.667 0 -145 29.333 -193 88
c-39.333 48 -59 119.667 -59 215v449zM281 849l172 104l31 -52l-173 -102z" />
    <glyph glyph-name="uchoanang" horiz-adv-x="655" 
d="M76 739h74v-449c0 -67.333 11.333 -119 34 -155c32.667 -51.333 80.667 -77 144 -77c58 0 103.333 22.333 136 67c27.333 37.333 41 92.333 41 165v449h74v-449c0 -91.333 -18.333 -161 -55 -209c-48 -62.667 -113.333 -94 -196 -94c-80.667 0 -145 29.333 -193 88
c-39.333 48 -59 119.667 -59 215v449zM252 938l178 -97l-29 -52l-177 95z" />
    <glyph glyph-name="athhoi" horiz-adv-x="536" 
d="M448 547h79l-316 -739h-78l86 209l-210 530h79l175 -436zM222 652l172 104l31 -52l-173 -102z" />
    <glyph glyph-name="ethhoi" horiz-adv-x="592" 
d="M259 0v247l-257 492h81l213 -415l213 415h81l-257 -492v-247h-74zM225 844l172 104l31 -52l-173 -102z" />
    <glyph glyph-name="cngath" 
d="M-407 950l172 104l31 -52l-173 -102z" />
    <glyph glyph-name="choith" 
d="M-496 1054l178 -97l-29 -52l-177 95z" />
    <glyph glyph-name="chuyenth" 
d="M-415 1007l-45 27.002c7.33301 26.667 21 47 41 61c24 13.333 48 18.666 72 15.999c30.667 -3.33301 54.167 -13.5 70.5 -30.5s24.5 -37.833 24.5 -62.5c-2 -20.667 -16 -41.334 -42 -62.001c-28 -22.667 -43.333 -38 -46 -46h-47c0 19.333 14.667 39.333 44 60
c22.667 16 34 31 34 45c1.33301 12.667 -3.66699 24 -15 34s-24 14.667 -38 14c-12.667 -0.666992 -24.667 -6.5 -36 -17.5s-17 -23.833 -17 -38.5z" />
    <glyph glyph-name="csacth" 
d="M-272 1000l23 -40c-23.333 -23.333 -47.333 -35 -72 -35c-16.667 0 -37.667 6.33301 -63 19c-20 10 -35 15 -45 15c-18 0 -34 -8.33301 -48 -25l-26 44c22.667 24.667 48.667 37 78 37c16 0 35 -6 57 -18s38.333 -18 49 -18c11.333 0 27 7 47 21z" />
    <glyph glyph-name="absachoa" 
d="M-440 696h57.998c12.667 -26.667 39 -40 79 -40s66.333 13.333 79 40h56c-7.33301 -30 -24.333 -53 -51 -69c-23.333 -14.667 -51.666 -22 -84.999 -22s-61.666 7.33301 -84.999 22c-26.667 16 -43.667 39 -51 69z" />
    <glyph glyph-name="aangahoa" 
d="M-440 696h57.998c12.667 -26.667 39 -40 79 -40s66.333 13.333 79 40h56c-7.33301 -30 -24.333 -53 -51 -69c-23.333 -14.667 -51.666 -22 -84.999 -22s-61.666 7.33301 -84.999 22c-26.667 16 -43.667 39 -51 69zM-345.002 776l172 104l31 -52l-173 -102z" />
    <glyph glyph-name="aahoihoa" 
d="M-440 696h57.998c12.667 -26.667 39 -40 79 -40s66.333 13.333 79 40h56c-7.33301 -30 -24.333 -53 -51 -69c-23.333 -14.667 -51.666 -22 -84.999 -22s-61.666 7.33301 -84.999 22c-26.667 16 -43.667 39 -51 69zM-429.002 870l178 -97l-29 -52l-177 95z" />
    <glyph glyph-name="aahuyenhoa" 
d="M-440 696h57.998c12.667 -26.667 39 -40 79 -40s66.333 13.333 79 40h56c-7.33301 -30 -24.333 -53 -51 -69c-23.333 -14.667 -51.666 -22 -84.999 -22s-61.666 7.33301 -84.999 22c-26.667 16 -43.667 39 -51 69zM-353.002 828l-45 27.002c7.33301 26.667 21 47 41 61
c24 13.333 48 18.666 72 15.999c30.667 -3.33301 54.167 -13.5 70.5 -30.5s24.5 -37.833 24.5 -62.5c-2 -20.667 -16 -41.334 -42 -62.001c-28 -22.667 -43.333 -38 -46 -46h-47c0 19.333 14.667 39.333 44 60c22.667 16 34 31 34 45c1.33301 12.667 -3.66699 24 -15 34
s-24 14.667 -38 14c-12.667 -0.666992 -24.667 -6.5 -36 -17.5s-17 -23.833 -17 -38.5z" />
    <glyph glyph-name="aasachoa" 
d="M-440 696h57.998c12.667 -26.667 39 -40 79 -40s66.333 13.333 79 40h56c-7.33301 -30 -24.333 -53 -51 -69c-23.333 -14.667 -51.666 -22 -84.999 -22s-61.666 7.33301 -84.999 22c-26.667 16 -43.667 39 -51 69zM-210.002 811l23 -40
c-23.333 -23.333 -47.333 -35 -72 -35c-16.667 0 -37.667 6.33301 -63 19c-20 10 -35 15 -45 15c-18 0 -34 -8.33301 -48 -25l-26 44c22.667 24.667 48.667 37 78 37c16 0 35 -6 57 -18s38.333 -18 49 -18c11.333 0 27 7 47 21z" />
    <glyph glyph-name="ananghoa" 
d="M-440 696h57.998c12.667 -26.667 39 -40 79 -40s66.333 13.333 79 40h56c-7.33301 -30 -24.333 -53 -51 -69c-23.333 -14.667 -51.666 -22 -84.999 -22s-61.666 7.33301 -84.999 22c-26.667 16 -43.667 39 -51 69zM-377.002 -143v80h66v-80h-66z" />
    <glyph glyph-name="angahoa" 
d="M-505 871h57.998c12.667 -26.667 39 -40 79 -40s66.333 13.333 79 40h56c-7.33301 -30 -24.333 -53 -51 -69c-23.333 -14.667 -51.666 -22 -84.999 -22s-61.666 7.33301 -84.999 22c-26.667 16 -43.667 39 -51 69z" />
    <glyph glyph-name="ahoihoa" 
d="M-505 871h57.998c12.667 -26.667 39 -40 79 -40s66.333 13.333 79 40h56c-7.33301 -30 -24.333 -53 -51 -69c-23.333 -14.667 -51.666 -22 -84.999 -22s-61.666 7.33301 -84.999 22c-26.667 16 -43.667 39 -51 69zM-410.002 951l172 104l31 -52l-173 -102z" />
    <glyph glyph-name="ahuyenhoa" 
d="M-505 871h57.998c12.667 -26.667 39 -40 79 -40s66.333 13.333 79 40h56c-7.33301 -30 -24.333 -53 -51 -69c-23.333 -14.667 -51.666 -22 -84.999 -22s-61.666 7.33301 -84.999 22c-26.667 16 -43.667 39 -51 69zM-494.002 1045l178 -97l-29 -52l-177 95z" />
    <glyph glyph-name="asachoa" 
d="M-505 871h57.998c12.667 -26.667 39 -40 79 -40s66.333 13.333 79 40h56c-7.33301 -30 -24.333 -53 -51 -69c-23.333 -14.667 -51.666 -22 -84.999 -22s-61.666 7.33301 -84.999 22c-26.667 16 -43.667 39 -51 69zM-418.002 1003l-45 27.002c7.33301 26.667 21 47 41 61
c24 13.333 48 18.666 72 15.999c30.667 -3.33301 54.167 -13.5 70.5 -30.5s24.5 -37.833 24.5 -62.5c-2 -20.667 -16 -41.334 -42 -62.001c-28 -22.667 -43.333 -38 -46 -46h-47c0 19.333 14.667 39.333 44 60c22.667 16 34 31 34 45c1.33301 12.667 -3.66699 24 -15 34
s-24 14.667 -38 14c-12.667 -0.666992 -24.667 -6.5 -36 -17.5s-17 -23.833 -17 -38.5z" />
    <glyph glyph-name="abngath" 
d="M-505 871h57.998c12.667 -26.667 39 -40 79 -40s66.333 13.333 79 40h56c-7.33301 -30 -24.333 -53 -51 -69c-23.333 -14.667 -51.666 -22 -84.999 -22s-61.666 7.33301 -84.999 22c-26.667 16 -43.667 39 -51 69zM-275.002 986l23 -40
c-23.333 -23.333 -47.333 -35 -72 -35c-16.667 0 -37.667 6.33301 -63 19c-20 10 -35 15 -45 15c-18 0 -34 -8.33301 -48 -25l-26 44c22.667 24.667 48.667 37 78 37c16 0 35 -6 57 -18s38.333 -18 49 -18c11.333 0 27 7 47 21z" />
    <glyph glyph-name="abhoith" 
d="M-505 871h57.998c12.667 -26.667 39 -40 79 -40s66.333 13.333 79 40h56c-7.33301 -30 -24.333 -53 -51 -69c-23.333 -14.667 -51.666 -22 -84.999 -22s-61.666 7.33301 -84.999 22c-26.667 16 -43.667 39 -51 69zM-407.002 -153v80h66v-80h-66z" />
    <glyph glyph-name="abhuyenth" 
d="M-490 603l131 113h57l130 -113h-81l-78 65l-78 -65h-81z" />
    <glyph glyph-name="absacth" 
d="M-490 603l131 113h57l130 -113h-81l-78 65l-78 -65h-81zM-235 731l172 104l31 -52l-173 -102z" />
    <glyph glyph-name="aangath" 
d="M-490 603l131 113h57l130 -113h-81l-78 65l-78 -65h-81zM-359 880l178 -97l-29 -52l-177 95z" />
    <glyph glyph-name="aahoith" 
d="M-490 603l131 113h57l130 -113h-81l-78 65l-78 -65h-81zM-243 783l-45 27.002c7.33301 26.667 21 47 41 61c24 13.333 48 18.666 72 15.999c30.667 -3.33301 54.167 -13.5 70.5 -30.5s24.5 -37.833 24.5 -62.5c-2 -20.667 -16 -41.334 -42 -62.001
c-28 -22.667 -43.333 -38 -46 -46h-47c0 19.333 14.667 39.333 44 60c22.667 16 34 31 34 45c1.33301 12.667 -3.66699 24 -15 34s-24 14.667 -38 14c-12.667 -0.666992 -24.667 -6.5 -36 -17.5s-17 -23.833 -17 -38.5z" />
    <glyph glyph-name="aahuyenth" 
d="M-490 603l131 113h57l130 -113h-81l-78 65l-78 -65h-81zM-230 836l23 -40c-23.333 -23.333 -47.333 -35 -72 -35c-16.667 0 -37.667 6.33301 -63 19c-20 10 -35 15 -45 15c-18 0 -34 -8.33301 -48 -25l-26 44c22.667 24.667 48.667 37 78 37c16 0 35 -6 57 -18
s38.333 -18 49 -18c11.333 0 27 7 47 21z" />
    <glyph glyph-name="aasacth" 
d="M-490 603l131 113h57l130 -113h-81l-78 65l-78 -65h-81zM-372 -156v80h66v-80h-66z" />
    <glyph glyph-name="anangth" 
d="M-600 788l131 113h57l130 -113h-81l-78 65l-78 -65h-81z" />
    <glyph glyph-name="angath" 
d="M-600 788l131 113h57l130 -113h-81l-78 65l-78 -65h-81zM-345 916l172 104l31 -52l-173 -102z" />
    <glyph glyph-name="ahoith" 
d="M-600 788l131 113h57l130 -113h-81l-78 65l-78 -65h-81zM-469 1065l178 -97l-29 -52l-177 95z" />
    <glyph glyph-name="ahuyenth" 
d="M-600 788l131 113h57l130 -113h-81l-78 65l-78 -65h-81zM-353 968l-45 27.002c7.33301 26.667 21 47 41 61c24 13.333 48 18.666 72 15.999c30.667 -3.33301 54.167 -13.5 70.5 -30.5s24.5 -37.833 24.5 -62.5c-2 -20.667 -16 -41.334 -42 -62.001
c-28 -22.667 -43.333 -38 -46 -46h-47c0 19.333 14.667 39.333 44 60c22.667 16 34 31 34 45c1.33301 12.667 -3.66699 24 -15 34s-24 14.667 -38 14c-12.667 -0.666992 -24.667 -6.5 -36 -17.5s-17 -23.833 -17 -38.5z" />
    <glyph glyph-name="asacth" 
d="M-600 788l131 113h57l130 -113h-81l-78 65l-78 -65h-81zM-340 1021l23 -40c-23.333 -23.333 -47.333 -35 -72 -35c-16.667 0 -37.667 6.33301 -63 19c-20 10 -35 15 -45 15c-18 0 -34 -8.33301 -48 -25l-26 44c22.667 24.667 48.667 37 78 37c16 0 35 -6 57 -18
s38.333 -18 49 -18c11.333 0 27 7 47 21z" />
    <glyph glyph-name="ab" 
d="M-600 788l131 113h57l130 -113h-81l-78 65l-78 -65h-81zM-472 -141v80h66v-80h-66z" />
    <glyph glyph-name="aa" horiz-adv-x="1" 
d="M-190 854l172 104l31 -52l-173 -102z" />
    <glyph glyph-name="nang" horiz-adv-x="1" 
d="M-193 939l178 -97l-29 -52l-177 95z" />
    <glyph glyph-name="nga" horiz-adv-x="1" 
d="M-163 884l-45 27.002c7.33301 26.667 21 47 41 61c24 13.333 48 18.666 72 15.999c30.667 -3.33301 54.167 -13.5 70.5 -30.5s24.5 -37.833 24.5 -62.5c-2 -20.667 -16 -41.334 -42 -62.001c-28 -22.667 -43.333 -38 -46 -46h-47c0 19.333 14.667 39.333 44 60
c22.667 16 34 31 34 45c1.33301 12.667 -3.66699 24 -15 34s-24 14.667 -38 14c-12.667 -0.666992 -24.667 -6.5 -36 -17.5s-17 -23.833 -17 -38.5z" />
    <glyph glyph-name="hoi" horiz-adv-x="1" 
d="M-5 870l23 -40c-23.333 -23.333 -47.333 -35 -72 -35c-16.667 0 -37.667 6.33301 -63 19c-20 10 -35 15 -45 15c-18 0 -34 -8.33301 -48 -25l-26 44c22.667 24.667 48.667 37 78 37c16 0 35 -6 57 -18s38.333 -18 49 -18c11.333 0 27 7 47 21z" />
    <glyph glyph-name="huyen" horiz-adv-x="1" 
d="M-150 -139v80h66v-80h-66z" />
  </font>
</defs>
</svg>
