<?xml version="1.0" standalone="no"?>
<!DOCTYPE svg PUBLIC "-//W3C//DTD SVG 1.1//EN" "http://www.w3.org/Graphics/SVG/1.1/DTD/svg11.dtd" >
<svg>
<metadata>
Created by FontForge 20090914 at Wed Jan 31 02:49:05 2018
 By www-data
</metadata>
<defs>
<font id="AvantGarde-Demi" horiz-adv-x="0" >
  <font-face 
    font-family="AvantGarde-Demi"
    font-weight="400"
    font-stretch="normal"
    units-per-em="2048"
    panose-1="2 2 5 0 0 0 0 0 0 0"
    ascent="1638"
    descent="-410"
    x-height="1135"
    cap-height="1513"
    bbox="-1178 -514.001 2556 2339"
    underline-thickness="90"
    underline-position="-47"
    unicode-range="U+0020-U+F02A"
  />
<missing-glyph horiz-adv-x="1536" 
d="M256 0v1280h1024v-1280h-1024zM1247 33v1214h-958v-1214h958z" />
    <glyph glyph-name=".notdef" horiz-adv-x="1536" 
d="M256 0v1280h1024v-1280h-1024zM1247 33v1214h-958v-1214h958z" />
    <glyph glyph-name="space" unicode=" " horiz-adv-x="573" 
 />
    <glyph glyph-name="space" unicode="&#x2031;" horiz-adv-x="573" 
 />
    <glyph glyph-name="space" unicode="&#x2025;" horiz-adv-x="573" 
 />
    <glyph glyph-name="space" unicode="&#x2024;" horiz-adv-x="573" 
 />
    <glyph glyph-name="space" unicode="&#x2023;" horiz-adv-x="573" 
 />
    <glyph glyph-name="space" unicode="&#x201f;" horiz-adv-x="573" 
 />
    <glyph glyph-name="space" unicode="&#x201b;" horiz-adv-x="573" 
 />
    <glyph glyph-name="space" unicode="&#x2017;" horiz-adv-x="573" 
 />
    <glyph glyph-name="space" unicode="&#x2016;" horiz-adv-x="573" 
 />
    <glyph glyph-name="space" unicode="&#x2015;" horiz-adv-x="573" 
 />
    <glyph glyph-name="exclam" unicode="!" horiz-adv-x="573" 
d="M147 385l273 1325h217v-197h-217v-1128h-273zM420 197l272 456h217v-196h-217v-260h-272z" />
    <glyph glyph-name="quotedbl" unicode="&#x22;" horiz-adv-x="737" 
d="M152 1051v462h153v-462h-153zM426 1051v462h154v-462h-154z" />
    <glyph glyph-name="numbersign" unicode="#" horiz-adv-x="1147" 
d="M1024 678v-201h-209l-65 -477h-183l64 477h-174l-66 -477h-180l63 477h-204v201h233l27 188h-203v201h227l62 449h178l-59 -449h176l59 449h184l-61 -449h184v-201h-211l-24 -188h182zM684 866h-176l-25 -188h174z" />
    <glyph glyph-name="dollar" unicode="$" horiz-adv-x="1147" 
d="M123 510h267.999c0.666992 -48.667 18.5 -90.167 53.5 -124.5s76.5 -51.5 124.5 -51.5c50 0 91.833 17.5 125.5 52.5s50.5 76.833 50.5 125.5c0 40.667 -17 80.334 -51 119.001c-13.333 16 -30.166 28.333 -50.499 37s-46.5 17.334 -78.5 26.001
c-80.667 24 -148.5 52.333 -203.5 85s-99 76 -132 130s-49.5 121 -49.5 201c0 108.667 34.333 198.667 103 270c56.667 65.333 113.334 99.666 170.001 102.999v268h256v-268c47.333 -18.667 90 -45.167 128 -79.5s67.833 -74.666 89.5 -120.999s34.5 -95.5 38.5 -147.5
h-256c-7.33301 36.667 -23.5 66.167 -48.5 88.5s-55.5 33.5 -91.5 33.5c-22.667 0 -44.334 -6.5 -65.001 -19.5s-37.167 -29.833 -49.5 -50.5s-18.5 -42.334 -18.5 -65.001c0 -36.667 9.16699 -66.167 27.5 -88.5s40.5 -39.5 66.5 -51.5s59.667 -24.667 101 -38
c60 -19.333 107.5 -36 142.5 -50s67.833 -34 98.5 -60s56.5 -56.167 77.5 -90.5s36.667 -71.333 47 -111s15.5 -80.5 15.5 -122.5c0 -56.667 -8.33301 -108.334 -25 -155.001s-44 -92 -82 -136c-60.667 -65.333 -126 -105.666 -196 -120.999v-272h-256v272
c-58.667 10 -113.667 34.167 -165 72.5s-92 85.666 -122 141.999s-45 113.833 -45 172.5z" />
    <glyph glyph-name="percent" unicode="%" horiz-adv-x="1761" 
d="M412 1542c50.667 0 97.834 -9.1709 141.501 -27.5039s82.667 -44.666 117 -78.999s60.833 -73.666 79.5 -117.999s28 -92.166 28 -143.499c0 -50.667 -9.33301 -98 -28 -142s-45 -83.333 -79 -118s-73.667 -61.5 -119 -80.5s-92 -28.5 -140 -28.5
c-68 0 -130 16.5 -186 49.5s-100.5 77.667 -133.5 134s-49.5 118.166 -49.5 185.499c0 51.333 9.66699 99.333 29 144s45.833 83.834 79.5 117.501s72.667 59.834 117 78.501s92.166 28 143.499 28zM412 1315c-40 0 -73.667 -13.668 -101 -41.001s-41 -60.666 -41 -99.999
c0 -36.667 14.167 -69.5 42.5 -98.5s60.833 -43.5 97.5 -43.5c38 0 71 14 99 42s42 61.333 42 100c0 26 -6.33301 49.833 -19 71.5s-29.667 38.667 -51 51s-44.333 18.5 -69 18.5zM1341 699.995c67.333 0 129.33 -16.332 185.997 -48.999s101.334 -77 134.001 -133
s49 -118 49 -186s-16.333 -130.167 -49 -186.5s-77.167 -100.833 -133.5 -133.5s-118.5 -49 -186.5 -49c-67.333 0 -129 16.5 -185 49.5s-100.5 77.667 -133.5 134s-49.5 118.166 -49.5 185.499c0 68 16.333 130 49 186s77.334 100.333 134.001 133s118.334 49 185.001 49z
M1341 472.996c-26.667 0 -50.667 -5.66602 -72 -16.999s-38.166 -27.333 -50.499 -48s-18.5 -43.334 -18.5 -68.001c0 -26 6.16699 -50.5 18.5 -73.5s29.333 -41.5 51 -55.5s45.5 -21 71.5 -21c24.667 0 48 7 70 21s39.5 32.667 52.5 56s19.5 47.666 19.5 72.999
c0 24.667 -6.33301 47.334 -19 68.001s-29.834 36.667 -51.501 48s-45.5 17 -71.5 17zM456.997 -0.00292969l626 1513h209l-626 -1513h-209z" />
    <glyph glyph-name="percent" unicode="&#x202f;" horiz-adv-x="1761" 
d="M412 1542c50.667 0 97.834 -9.1709 141.501 -27.5039s82.667 -44.666 117 -78.999s60.833 -73.666 79.5 -117.999s28 -92.166 28 -143.499c0 -50.667 -9.33301 -98 -28 -142s-45 -83.333 -79 -118s-73.667 -61.5 -119 -80.5s-92 -28.5 -140 -28.5
c-68 0 -130 16.5 -186 49.5s-100.5 77.667 -133.5 134s-49.5 118.166 -49.5 185.499c0 51.333 9.66699 99.333 29 144s45.833 83.834 79.5 117.501s72.667 59.834 117 78.501s92.166 28 143.499 28zM412 1315c-40 0 -73.667 -13.668 -101 -41.001s-41 -60.666 -41 -99.999
c0 -36.667 14.167 -69.5 42.5 -98.5s60.833 -43.5 97.5 -43.5c38 0 71 14 99 42s42 61.333 42 100c0 26 -6.33301 49.833 -19 71.5s-29.667 38.667 -51 51s-44.333 18.5 -69 18.5zM1341 699.995c67.333 0 129.33 -16.332 185.997 -48.999s101.334 -77 134.001 -133
s49 -118 49 -186s-16.333 -130.167 -49 -186.5s-77.167 -100.833 -133.5 -133.5s-118.5 -49 -186.5 -49c-67.333 0 -129 16.5 -185 49.5s-100.5 77.667 -133.5 134s-49.5 118.166 -49.5 185.499c0 68 16.333 130 49 186s77.334 100.333 134.001 133s118.334 49 185.001 49z
M1341 472.996c-26.667 0 -50.667 -5.66602 -72 -16.999s-38.166 -27.333 -50.499 -48s-18.5 -43.334 -18.5 -68.001c0 -26 6.16699 -50.5 18.5 -73.5s29.333 -41.5 51 -55.5s45.5 -21 71.5 -21c24.667 0 48 7 70 21s39.5 32.667 52.5 56s19.5 47.666 19.5 72.999
c0 24.667 -6.33301 47.334 -19 68.001s-29.834 36.667 -51.501 48s-45.5 17 -71.5 17zM456.997 -0.00292969l626 1513h209l-626 -1513h-209z" />
    <glyph glyph-name="percent" unicode="&#x202e;" horiz-adv-x="1761" 
d="M412 1542c50.667 0 97.834 -9.1709 141.501 -27.5039s82.667 -44.666 117 -78.999s60.833 -73.666 79.5 -117.999s28 -92.166 28 -143.499c0 -50.667 -9.33301 -98 -28 -142s-45 -83.333 -79 -118s-73.667 -61.5 -119 -80.5s-92 -28.5 -140 -28.5
c-68 0 -130 16.5 -186 49.5s-100.5 77.667 -133.5 134s-49.5 118.166 -49.5 185.499c0 51.333 9.66699 99.333 29 144s45.833 83.834 79.5 117.501s72.667 59.834 117 78.501s92.166 28 143.499 28zM412 1315c-40 0 -73.667 -13.668 -101 -41.001s-41 -60.666 -41 -99.999
c0 -36.667 14.167 -69.5 42.5 -98.5s60.833 -43.5 97.5 -43.5c38 0 71 14 99 42s42 61.333 42 100c0 26 -6.33301 49.833 -19 71.5s-29.667 38.667 -51 51s-44.333 18.5 -69 18.5zM1341 699.995c67.333 0 129.33 -16.332 185.997 -48.999s101.334 -77 134.001 -133
s49 -118 49 -186s-16.333 -130.167 -49 -186.5s-77.167 -100.833 -133.5 -133.5s-118.5 -49 -186.5 -49c-67.333 0 -129 16.5 -185 49.5s-100.5 77.667 -133.5 134s-49.5 118.166 -49.5 185.499c0 68 16.333 130 49 186s77.334 100.333 134.001 133s118.334 49 185.001 49z
M1341 472.996c-26.667 0 -50.667 -5.66602 -72 -16.999s-38.166 -27.333 -50.499 -48s-18.5 -43.334 -18.5 -68.001c0 -26 6.16699 -50.5 18.5 -73.5s29.333 -41.5 51 -55.5s45.5 -21 71.5 -21c24.667 0 48 7 70 21s39.5 32.667 52.5 56s19.5 47.666 19.5 72.999
c0 24.667 -6.33301 47.334 -19 68.001s-29.834 36.667 -51.501 48s-45.5 17 -71.5 17zM456.997 -0.00292969l626 1513h209l-626 -1513h-209z" />
    <glyph glyph-name="percent" unicode="&#x202d;" horiz-adv-x="1761" 
d="M412 1542c50.667 0 97.834 -9.1709 141.501 -27.5039s82.667 -44.666 117 -78.999s60.833 -73.666 79.5 -117.999s28 -92.166 28 -143.499c0 -50.667 -9.33301 -98 -28 -142s-45 -83.333 -79 -118s-73.667 -61.5 -119 -80.5s-92 -28.5 -140 -28.5
c-68 0 -130 16.5 -186 49.5s-100.5 77.667 -133.5 134s-49.5 118.166 -49.5 185.499c0 51.333 9.66699 99.333 29 144s45.833 83.834 79.5 117.501s72.667 59.834 117 78.501s92.166 28 143.499 28zM412 1315c-40 0 -73.667 -13.668 -101 -41.001s-41 -60.666 -41 -99.999
c0 -36.667 14.167 -69.5 42.5 -98.5s60.833 -43.5 97.5 -43.5c38 0 71 14 99 42s42 61.333 42 100c0 26 -6.33301 49.833 -19 71.5s-29.667 38.667 -51 51s-44.333 18.5 -69 18.5zM1341 699.995c67.333 0 129.33 -16.332 185.997 -48.999s101.334 -77 134.001 -133
s49 -118 49 -186s-16.333 -130.167 -49 -186.5s-77.167 -100.833 -133.5 -133.5s-118.5 -49 -186.5 -49c-67.333 0 -129 16.5 -185 49.5s-100.5 77.667 -133.5 134s-49.5 118.166 -49.5 185.499c0 68 16.333 130 49 186s77.334 100.333 134.001 133s118.334 49 185.001 49z
M1341 472.996c-26.667 0 -50.667 -5.66602 -72 -16.999s-38.166 -27.333 -50.499 -48s-18.5 -43.334 -18.5 -68.001c0 -26 6.16699 -50.5 18.5 -73.5s29.333 -41.5 51 -55.5s45.5 -21 71.5 -21c24.667 0 48 7 70 21s39.5 32.667 52.5 56s19.5 47.666 19.5 72.999
c0 24.667 -6.33301 47.334 -19 68.001s-29.834 36.667 -51.501 48s-45.5 17 -71.5 17zM456.997 -0.00292969l626 1513h209l-626 -1513h-209z" />
    <glyph glyph-name="percent" unicode="&#x202c;" horiz-adv-x="1761" 
d="M412 1542c50.667 0 97.834 -9.1709 141.501 -27.5039s82.667 -44.666 117 -78.999s60.833 -73.666 79.5 -117.999s28 -92.166 28 -143.499c0 -50.667 -9.33301 -98 -28 -142s-45 -83.333 -79 -118s-73.667 -61.5 -119 -80.5s-92 -28.5 -140 -28.5
c-68 0 -130 16.5 -186 49.5s-100.5 77.667 -133.5 134s-49.5 118.166 -49.5 185.499c0 51.333 9.66699 99.333 29 144s45.833 83.834 79.5 117.501s72.667 59.834 117 78.501s92.166 28 143.499 28zM412 1315c-40 0 -73.667 -13.668 -101 -41.001s-41 -60.666 -41 -99.999
c0 -36.667 14.167 -69.5 42.5 -98.5s60.833 -43.5 97.5 -43.5c38 0 71 14 99 42s42 61.333 42 100c0 26 -6.33301 49.833 -19 71.5s-29.667 38.667 -51 51s-44.333 18.5 -69 18.5zM1341 699.995c67.333 0 129.33 -16.332 185.997 -48.999s101.334 -77 134.001 -133
s49 -118 49 -186s-16.333 -130.167 -49 -186.5s-77.167 -100.833 -133.5 -133.5s-118.5 -49 -186.5 -49c-67.333 0 -129 16.5 -185 49.5s-100.5 77.667 -133.5 134s-49.5 118.166 -49.5 185.499c0 68 16.333 130 49 186s77.334 100.333 134.001 133s118.334 49 185.001 49z
M1341 472.996c-26.667 0 -50.667 -5.66602 -72 -16.999s-38.166 -27.333 -50.499 -48s-18.5 -43.334 -18.5 -68.001c0 -26 6.16699 -50.5 18.5 -73.5s29.333 -41.5 51 -55.5s45.5 -21 71.5 -21c24.667 0 48 7 70 21s39.5 32.667 52.5 56s19.5 47.666 19.5 72.999
c0 24.667 -6.33301 47.334 -19 68.001s-29.834 36.667 -51.501 48s-45.5 17 -71.5 17zM456.997 -0.00292969l626 1513h209l-626 -1513h-209z" />
    <glyph glyph-name="percent" unicode="&#x202b;" horiz-adv-x="1761" 
d="M412 1542c50.667 0 97.834 -9.1709 141.501 -27.5039s82.667 -44.666 117 -78.999s60.833 -73.666 79.5 -117.999s28 -92.166 28 -143.499c0 -50.667 -9.33301 -98 -28 -142s-45 -83.333 -79 -118s-73.667 -61.5 -119 -80.5s-92 -28.5 -140 -28.5
c-68 0 -130 16.5 -186 49.5s-100.5 77.667 -133.5 134s-49.5 118.166 -49.5 185.499c0 51.333 9.66699 99.333 29 144s45.833 83.834 79.5 117.501s72.667 59.834 117 78.501s92.166 28 143.499 28zM412 1315c-40 0 -73.667 -13.668 -101 -41.001s-41 -60.666 -41 -99.999
c0 -36.667 14.167 -69.5 42.5 -98.5s60.833 -43.5 97.5 -43.5c38 0 71 14 99 42s42 61.333 42 100c0 26 -6.33301 49.833 -19 71.5s-29.667 38.667 -51 51s-44.333 18.5 -69 18.5zM1341 699.995c67.333 0 129.33 -16.332 185.997 -48.999s101.334 -77 134.001 -133
s49 -118 49 -186s-16.333 -130.167 -49 -186.5s-77.167 -100.833 -133.5 -133.5s-118.5 -49 -186.5 -49c-67.333 0 -129 16.5 -185 49.5s-100.5 77.667 -133.5 134s-49.5 118.166 -49.5 185.499c0 68 16.333 130 49 186s77.334 100.333 134.001 133s118.334 49 185.001 49z
M1341 472.996c-26.667 0 -50.667 -5.66602 -72 -16.999s-38.166 -27.333 -50.499 -48s-18.5 -43.334 -18.5 -68.001c0 -26 6.16699 -50.5 18.5 -73.5s29.333 -41.5 51 -55.5s45.5 -21 71.5 -21c24.667 0 48 7 70 21s39.5 32.667 52.5 56s19.5 47.666 19.5 72.999
c0 24.667 -6.33301 47.334 -19 68.001s-29.834 36.667 -51.501 48s-45.5 17 -71.5 17zM456.997 -0.00292969l626 1513h209l-626 -1513h-209z" />
    <glyph glyph-name="percent" unicode="&#x202a;" horiz-adv-x="1761" 
d="M412 1542c50.667 0 97.834 -9.1709 141.501 -27.5039s82.667 -44.666 117 -78.999s60.833 -73.666 79.5 -117.999s28 -92.166 28 -143.499c0 -50.667 -9.33301 -98 -28 -142s-45 -83.333 -79 -118s-73.667 -61.5 -119 -80.5s-92 -28.5 -140 -28.5
c-68 0 -130 16.5 -186 49.5s-100.5 77.667 -133.5 134s-49.5 118.166 -49.5 185.499c0 51.333 9.66699 99.333 29 144s45.833 83.834 79.5 117.501s72.667 59.834 117 78.501s92.166 28 143.499 28zM412 1315c-40 0 -73.667 -13.668 -101 -41.001s-41 -60.666 -41 -99.999
c0 -36.667 14.167 -69.5 42.5 -98.5s60.833 -43.5 97.5 -43.5c38 0 71 14 99 42s42 61.333 42 100c0 26 -6.33301 49.833 -19 71.5s-29.667 38.667 -51 51s-44.333 18.5 -69 18.5zM1341 699.995c67.333 0 129.33 -16.332 185.997 -48.999s101.334 -77 134.001 -133
s49 -118 49 -186s-16.333 -130.167 -49 -186.5s-77.167 -100.833 -133.5 -133.5s-118.5 -49 -186.5 -49c-67.333 0 -129 16.5 -185 49.5s-100.5 77.667 -133.5 134s-49.5 118.166 -49.5 185.499c0 68 16.333 130 49 186s77.334 100.333 134.001 133s118.334 49 185.001 49z
M1341 472.996c-26.667 0 -50.667 -5.66602 -72 -16.999s-38.166 -27.333 -50.499 -48s-18.5 -43.334 -18.5 -68.001c0 -26 6.16699 -50.5 18.5 -73.5s29.333 -41.5 51 -55.5s45.5 -21 71.5 -21c24.667 0 48 7 70 21s39.5 32.667 52.5 56s19.5 47.666 19.5 72.999
c0 24.667 -6.33301 47.334 -19 68.001s-29.834 36.667 -51.501 48s-45.5 17 -71.5 17zM456.997 -0.00292969l626 1513h209l-626 -1513h-209z" />
    <glyph glyph-name="percent" unicode="&#x2029;" horiz-adv-x="1761" 
d="M412 1542c50.667 0 97.834 -9.1709 141.501 -27.5039s82.667 -44.666 117 -78.999s60.833 -73.666 79.5 -117.999s28 -92.166 28 -143.499c0 -50.667 -9.33301 -98 -28 -142s-45 -83.333 -79 -118s-73.667 -61.5 -119 -80.5s-92 -28.5 -140 -28.5
c-68 0 -130 16.5 -186 49.5s-100.5 77.667 -133.5 134s-49.5 118.166 -49.5 185.499c0 51.333 9.66699 99.333 29 144s45.833 83.834 79.5 117.501s72.667 59.834 117 78.501s92.166 28 143.499 28zM412 1315c-40 0 -73.667 -13.668 -101 -41.001s-41 -60.666 -41 -99.999
c0 -36.667 14.167 -69.5 42.5 -98.5s60.833 -43.5 97.5 -43.5c38 0 71 14 99 42s42 61.333 42 100c0 26 -6.33301 49.833 -19 71.5s-29.667 38.667 -51 51s-44.333 18.5 -69 18.5zM1341 699.995c67.333 0 129.33 -16.332 185.997 -48.999s101.334 -77 134.001 -133
s49 -118 49 -186s-16.333 -130.167 -49 -186.5s-77.167 -100.833 -133.5 -133.5s-118.5 -49 -186.5 -49c-67.333 0 -129 16.5 -185 49.5s-100.5 77.667 -133.5 134s-49.5 118.166 -49.5 185.499c0 68 16.333 130 49 186s77.334 100.333 134.001 133s118.334 49 185.001 49z
M1341 472.996c-26.667 0 -50.667 -5.66602 -72 -16.999s-38.166 -27.333 -50.499 -48s-18.5 -43.334 -18.5 -68.001c0 -26 6.16699 -50.5 18.5 -73.5s29.333 -41.5 51 -55.5s45.5 -21 71.5 -21c24.667 0 48 7 70 21s39.5 32.667 52.5 56s19.5 47.666 19.5 72.999
c0 24.667 -6.33301 47.334 -19 68.001s-29.834 36.667 -51.501 48s-45.5 17 -71.5 17zM456.997 -0.00292969l626 1513h209l-626 -1513h-209z" />
    <glyph glyph-name="percent" unicode="&#x2028;" horiz-adv-x="1761" 
d="M412 1542c50.667 0 97.834 -9.1709 141.501 -27.5039s82.667 -44.666 117 -78.999s60.833 -73.666 79.5 -117.999s28 -92.166 28 -143.499c0 -50.667 -9.33301 -98 -28 -142s-45 -83.333 -79 -118s-73.667 -61.5 -119 -80.5s-92 -28.5 -140 -28.5
c-68 0 -130 16.5 -186 49.5s-100.5 77.667 -133.5 134s-49.5 118.166 -49.5 185.499c0 51.333 9.66699 99.333 29 144s45.833 83.834 79.5 117.501s72.667 59.834 117 78.501s92.166 28 143.499 28zM412 1315c-40 0 -73.667 -13.668 -101 -41.001s-41 -60.666 -41 -99.999
c0 -36.667 14.167 -69.5 42.5 -98.5s60.833 -43.5 97.5 -43.5c38 0 71 14 99 42s42 61.333 42 100c0 26 -6.33301 49.833 -19 71.5s-29.667 38.667 -51 51s-44.333 18.5 -69 18.5zM1341 699.995c67.333 0 129.33 -16.332 185.997 -48.999s101.334 -77 134.001 -133
s49 -118 49 -186s-16.333 -130.167 -49 -186.5s-77.167 -100.833 -133.5 -133.5s-118.5 -49 -186.5 -49c-67.333 0 -129 16.5 -185 49.5s-100.5 77.667 -133.5 134s-49.5 118.166 -49.5 185.499c0 68 16.333 130 49 186s77.334 100.333 134.001 133s118.334 49 185.001 49z
M1341 472.996c-26.667 0 -50.667 -5.66602 -72 -16.999s-38.166 -27.333 -50.499 -48s-18.5 -43.334 -18.5 -68.001c0 -26 6.16699 -50.5 18.5 -73.5s29.333 -41.5 51 -55.5s45.5 -21 71.5 -21c24.667 0 48 7 70 21s39.5 32.667 52.5 56s19.5 47.666 19.5 72.999
c0 24.667 -6.33301 47.334 -19 68.001s-29.834 36.667 -51.501 48s-45.5 17 -71.5 17zM456.997 -0.00292969l626 1513h209l-626 -1513h-209z" />
    <glyph glyph-name="percent" unicode="&#x2027;" horiz-adv-x="1761" 
d="M412 1542c50.667 0 97.834 -9.1709 141.501 -27.5039s82.667 -44.666 117 -78.999s60.833 -73.666 79.5 -117.999s28 -92.166 28 -143.499c0 -50.667 -9.33301 -98 -28 -142s-45 -83.333 -79 -118s-73.667 -61.5 -119 -80.5s-92 -28.5 -140 -28.5
c-68 0 -130 16.5 -186 49.5s-100.5 77.667 -133.5 134s-49.5 118.166 -49.5 185.499c0 51.333 9.66699 99.333 29 144s45.833 83.834 79.5 117.501s72.667 59.834 117 78.501s92.166 28 143.499 28zM412 1315c-40 0 -73.667 -13.668 -101 -41.001s-41 -60.666 -41 -99.999
c0 -36.667 14.167 -69.5 42.5 -98.5s60.833 -43.5 97.5 -43.5c38 0 71 14 99 42s42 61.333 42 100c0 26 -6.33301 49.833 -19 71.5s-29.667 38.667 -51 51s-44.333 18.5 -69 18.5zM1341 699.995c67.333 0 129.33 -16.332 185.997 -48.999s101.334 -77 134.001 -133
s49 -118 49 -186s-16.333 -130.167 -49 -186.5s-77.167 -100.833 -133.5 -133.5s-118.5 -49 -186.5 -49c-67.333 0 -129 16.5 -185 49.5s-100.5 77.667 -133.5 134s-49.5 118.166 -49.5 185.499c0 68 16.333 130 49 186s77.334 100.333 134.001 133s118.334 49 185.001 49z
M1341 472.996c-26.667 0 -50.667 -5.66602 -72 -16.999s-38.166 -27.333 -50.499 -48s-18.5 -43.334 -18.5 -68.001c0 -26 6.16699 -50.5 18.5 -73.5s29.333 -41.5 51 -55.5s45.5 -21 71.5 -21c24.667 0 48 7 70 21s39.5 32.667 52.5 56s19.5 47.666 19.5 72.999
c0 24.667 -6.33301 47.334 -19 68.001s-29.834 36.667 -51.501 48s-45.5 17 -71.5 17zM456.997 -0.00292969l626 1513h209l-626 -1513h-209z" />
    <glyph glyph-name="ampersand" unicode="&#x26;" horiz-adv-x="1393" 
d="M1051 893l300.996 -0.00195312l-260 -457l268 -291l-199 -174l-207 217c-108 -150 -234.333 -225 -379 -225c-65.333 0 -128.666 11.833 -189.999 35.5s-115.666 57.334 -162.999 101.001s-84.166 94.667 -110.499 153s-39.5 120.833 -39.5 187.5
c0 53.333 6.5 101 19.5 143s31.833 80.833 56.5 116.5s54.834 68.334 90.501 98.001s74.834 56.167 117.501 79.5c-24.667 26 -46.834 53.333 -66.501 82s-34.667 59 -45 91s-15.5 65.667 -15.5 101c0 72 16.5 138 49.5 198s79.167 107.167 138.5 141.5s125 51.5 197 51.5
c51.333 0 100.833 -9.33301 148.5 -28s89 -44.334 124 -77.001s62.833 -72.167 83.5 -118.5s31 -96.166 31 -149.499c0 -163.333 -79 -287.333 -237 -372l139 -156zM591.996 984.998c49.333 24 86.833 47.8311 112.5 71.498s38.5 56.5 38.5 98.5
c-0.666992 38.667 -12.667 68.834 -36 90.501s-55 32.5 -95 32.5c-36 0 -65.5 -11.167 -88.5 -33.5s-34.5 -51.5 -34.5 -87.5c0 -15.333 3 -31 9 -47s15.5 -32.667 28.5 -50s25.5 -32.166 37.5 -44.499s21.333 -22.5 28 -30.5zM763.996 394.996l-236 264
c-54 -22.667 -98.167 -53 -132.5 -91s-51.5 -84.667 -51.5 -140c0 -58 20 -105.667 60 -143s89 -56 147 -56c85.333 0 156.333 55.333 213 166z" />
    <glyph glyph-name="quotesingle" unicode="'" horiz-adv-x="451" 
d="M152 1051v462h155v-462h-155z" />
    <glyph glyph-name="parenleft" unicode="(" horiz-adv-x="778" 
d="M715 25l0.000976562 -287c-52 8.66699 -101.833 28.667 -149.5 60s-90.334 67.5 -128.001 108.5s-74.834 88.5 -111.501 142.5c-116 177.333 -174 370 -174 578c0 197.333 52.333 378.666 157 543.999c51.333 82.667 111.833 155 181.5 217s144.5 103 224.5 123v-284
c-92 -70.667 -162.167 -159.167 -210.5 -265.5s-72.5 -219.166 -72.5 -338.499c0 -74.667 10.833 -150 32.5 -226s53.834 -146 96.501 -210s94 -118 154 -162z" />
    <glyph glyph-name="parenright" unicode=")" horiz-adv-x="778" 
d="M76 1227v284.002c43.333 -10.667 84.166 -27 122.499 -49s75 -48.833 110 -80.5s66.333 -64.667 94 -99s53.834 -71.5 78.501 -111.5c34 -53.333 62.833 -110.166 86.5 -170.499s41.5 -121.666 53.5 -183.999s18 -125.5 18 -189.5c0 -206 -56 -395.333 -168 -568
c-32.667 -50.667 -69 -97.834 -109 -141.501s-84.667 -81.834 -134 -114.501s-100 -54.334 -152 -65.001v287c60.667 44 112 98 154 162s73.833 134 95.5 210s32.5 151.333 32.5 226c0 121.333 -24 234.666 -72 339.999s-118 193.333 -210 264z" />
    <glyph glyph-name="asterisk" unicode="*" horiz-adv-x="901" 
d="M365 934l-127 61l110 187l-205 -15v142l205 -13l-110 183l124 61l93 -184l94 186l117 -72l-111 -174l205 15v-144l-209 13l115 -172l-115 -74l-96 188z" />
    <glyph glyph-name="plus" unicode="+" horiz-adv-x="1229" 
d="M502 776v391h237v-391h398v-237h-398v-406h-237v406h-398v237h398z" />
    <glyph glyph-name="comma" unicode="," horiz-adv-x="573" 
d="M147 0l272.999 469h217v-197h-217v-262c0 -38.667 -1.5 -69 -4.5 -91s-9.83301 -44 -20.5 -66s-27 -44 -49 -66c-49.333 -49.333 -114.666 -74 -195.999 -74v137c78.667 12.667 118 51 118 115v35h-121z" />
    <glyph glyph-name="hyphen" unicode="-" horiz-adv-x="860" 
d="M152 530v242h567v-242h-567z" />
    <glyph glyph-name="period" unicode="." horiz-adv-x="573" 
d="M147 0l273 469h217v-197h-217v-272h-273z" />
    <glyph glyph-name="slash" unicode="/" horiz-adv-x="942" 
d="M53 -262l662 1775h192l-661 -1775h-193z" />
    <glyph glyph-name="zero" unicode="0" horiz-adv-x="1147" 
d="M1075 1010l0.000976562 -514.001c0 -76 -9 -144.167 -27 -204.5s-48.667 -114.5 -92 -162.5c-46 -51.333 -102.667 -91.833 -170 -121.5s-136 -44.5 -206 -44.5c-151.333 0 -277.666 49.333 -378.999 148c-36.667 34 -65.334 71.667 -86.001 113
s-34.834 85.833 -42.501 133.5s-11.5 97.834 -11.5 150.501v502c0 155.333 39 277.333 117 366c32 36 68.667 66.167 110 90.5s85.833 43 133.5 56s96.167 19.5 145.5 19.5c70.667 0 138 -12.333 202 -37s119.667 -60.667 167 -108c50.667 -49.333 86.5 -106.5 107.5 -171.5
s31.5 -136.833 31.5 -215.5zM334.001 1006l-0.000976562 -489.998c0 -96 17.667 -165 53 -207c22.667 -24.667 50 -44.167 82 -58.5s64 -21.5 96 -21.5c36 0 70.5 7.5 103.5 22.5s60.167 35.5 81.5 61.5c35.333 43.333 53 109.666 53 198.999v504c0 76 -21 138.333 -63 187
s-100.333 73 -175 73c-34 0 -67 -7.33301 -99 -22s-59 -35.334 -81 -62.001c-19.333 -26 -32.666 -54 -39.999 -84s-11 -64 -11 -102z" />
    <glyph glyph-name="one" unicode="1" horiz-adv-x="1147" 
d="M504 0v1255h-191v258h463v-1513h-272z" />
    <glyph glyph-name="two" unicode="2" horiz-adv-x="1147" 
d="M86 0v258l522 485c60 56 105.833 106.833 137.5 152.5s47.5 98.834 47.5 159.501c0 63.333 -20.333 116 -61 158s-93 63 -157 63c-74.667 0 -132.167 -26.333 -172.5 -79s-60.5 -121.334 -60.5 -206.001h-272v56c0 88 21.833 170.167 65.5 246.5
s103.167 136.833 178.5 181.5s157 67 245 67c72 0 138.833 -12.5 200.5 -37.5s115 -59.5 160 -103.5s80.5 -97.333 106.5 -160s39 -129 39 -199c0 -114 -39.667 -222.333 -119 -325l-190 -201l-289 -258h598v-258h-979z" />
    <glyph glyph-name="three" unicode="3" horiz-adv-x="1147" 
d="M444 725l-0.00195312 257.999h19c65.333 0 117.833 11.333 157.5 34s59.5 64 59.5 124c0 42 -13.667 75 -41 99s-61.333 36 -102 36c-37.333 0 -67.166 -12.333 -89.499 -37s-33.5 -55.334 -33.5 -92.001h-273c0 70 18 135.5 54 196.5s84.667 109.333 146 145
s126.666 53.5 195.999 53.5c55.333 0 108.166 -10.333 158.499 -31s94.5 -49.167 132.5 -85.5s68.167 -79.333 90.5 -129s33.5 -102.167 33.5 -157.5c0 -56.667 -10.667 -108.5 -32 -155.5s-54.333 -85.5 -99 -115.5c52 -18.667 96.167 -48.5 132.5 -89.5
s63.333 -88.5 81 -142.5s26.5 -111 26.5 -171c0 -96 -23.667 -182.333 -71 -259s-111.166 -136.334 -191.499 -179.001s-168.166 -64 -263.499 -64c-88 0 -170.333 21.833 -247 65.5s-137.834 102.334 -183.501 176.001s-70.167 155.167 -73.5 244.5h274
c2 -41.333 14.333 -78.666 37 -111.999s52.334 -59.666 89.001 -78.999s76.667 -29 120 -29c66.667 0 122.834 23.333 168.501 70s68.5 102.667 68.5 168c0 45.333 -9 86 -27 122s-44.333 65 -79 87c-29.333 20 -60.5 33.167 -93.5 39.5s-72.167 9.5 -117.5 9.5h-27z" />
    <glyph glyph-name="four" unicode="4" horiz-adv-x="1147" 
d="M0 449l696 1064h230v-1030h159v-258h-159v-225h-273v225h-653v224zM653 483v570l-362 -570h362z" />
    <glyph glyph-name="five" unicode="5" horiz-adv-x="1147" 
d="M920 1513l-0.000976562 -257.995h-482l-47 -278c61.333 28.667 124.333 43 189 43c70 0 134.833 -14.333 194.5 -43s111 -67.167 154 -115.5s76.5 -104.333 100.5 -168s36 -130.167 36 -199.5c0 -94.667 -23.333 -182.834 -70 -264.501s-110.334 -146.5 -191.001 -194.5
s-167.667 -72 -261 -72c-86 0 -168.5 22 -247.5 66s-143.167 103.667 -192.5 179s-75.333 155.666 -78 240.999h272c5.33301 -40.667 18.666 -77.667 39.999 -111s49 -59.833 83 -79.5s71.333 -29.5 112 -29.5c50 0 94.833 11.667 134.5 35s70.334 55.666 92.001 96.999
s32.5 87 32.5 137c0 45.333 -11.667 87.666 -35 126.999s-54.666 70.666 -93.999 93.999s-81.666 35 -126.999 35c-38 0 -74.167 -8.83301 -108.5 -26.5s-64.5 -42.5 -90.5 -74.5l-244 68l144 792h684z" />
    <glyph glyph-name="six" unicode="6" horiz-adv-x="1147" 
d="M586 1513l321 -0.000976562l-338 -514l76 7c59.333 0 116.166 -13 170.499 -39s101.833 -61 142.5 -105c89.333 -94 134 -214 134 -360c0 -96 -23 -185.333 -69 -268s-109.167 -148.5 -189.5 -197.5s-168.5 -73.5 -264.5 -73.5c-75.333 0 -144.666 13.667 -207.999 41
s-119 65.833 -167 115.5s-85.167 107.834 -111.5 174.501s-39.5 136.667 -39.5 210c0 122 37 238.667 111 350zM565 753.999c-46 0 -88 -11.165 -126 -33.498s-68.167 -52.833 -90.5 -91.5s-33.5 -82.334 -33.5 -131.001s10.667 -93.5 32 -134.5s51.5 -73.667 90.5 -98
s82.167 -36.5 129.5 -36.5c46 0 88.333 11.5 127 34.5s69.167 54.167 91.5 93.5s33.5 82 33.5 128c0 48 -11.333 92.667 -34 134s-53.5 74.166 -92.5 98.499s-81.5 36.5 -127.5 36.5z" />
    <glyph glyph-name="seven" unicode="7" horiz-adv-x="1147" 
d="M174 0l565 1255h-606v258h891v-258l-547 -1255h-303z" />
    <glyph glyph-name="eight" unicode="8" horiz-adv-x="1147" 
d="M287 842c-46 46 -78 88.667 -96 128s-27 89.333 -27 150c0 76.667 17 147.334 51 212.001s81.833 115.834 143.5 153.501s130.5 56.5 206.5 56.5c58 0 111.833 -10.5 161.5 -31.5s93.334 -50.833 131.001 -89.5s66.667 -83.334 87 -134.001s30.5 -104.334 30.5 -161.001
c0 -59.333 -9.5 -111.5 -28.5 -156.5s-50.5 -87.5 -94.5 -127.5c47.333 -24 87.666 -55.5 120.999 -94.5s58 -83.667 74 -134s24 -103.833 24 -160.5c0 -66.667 -13.167 -129.5 -39.5 -188.5s-63.166 -111.5 -110.499 -157.5s-101.333 -81.5 -162 -106.5
s-124 -37.5 -190 -37.5c-70 0 -135.833 12.667 -197.5 38s-116 61.5 -163 108.5s-83 101.167 -108 162.5s-37.5 127 -37.5 197c0 52 9.16699 103.333 27.5 154s44.166 95 77.499 133s73 66.667 119 86zM571 1276c-44.667 0 -82.3311 -15.166 -112.998 -45.499
s-46.667 -67.166 -48 -110.499c1.33301 -44.667 17.666 -82.334 48.999 -113.001s68.666 -46 111.999 -46s80.5 15.5 111.5 46.5s46.5 68.5 46.5 112.5c0 43.333 -15.167 80.166 -45.5 110.499s-67.833 45.5 -112.5 45.5zM567.003 694.001
c-42 0 -80.499 -10.1689 -115.499 -30.502s-63 -48.666 -84 -84.999s-31.5 -76.833 -31.5 -121.5c0 -62.667 22.667 -116.334 68 -161.001s99.666 -67 162.999 -67c64 0 118.667 22.333 164 67s68 98.334 68 161.001c0 43.333 -10.5 83.333 -31.5 120
s-49.167 65.334 -84.5 86.001s-74 31 -116 31z" />
    <glyph glyph-name="nine" unicode="9" horiz-adv-x="1147" 
d="M227 0l334 508h-51c-90.667 0 -171.334 21.833 -242.001 65.5s-125.5 103.167 -164.5 178.5s-58.5 157 -58.5 245c0 75.333 12.5 146 37.5 212s60.833 124 107.5 174s102 89 166 117s133.667 42 209 42c46 0 92.333 -6.33301 139 -19s90.834 -31.167 132.501 -55.5
s78.167 -52.833 109.5 -85.5c96 -100.667 144 -228.334 144 -383.001c0 -73.333 -11 -137.666 -33 -192.999s-58.333 -122 -109 -200l-401 -606h-320zM561 1276c-67.333 0 -124.832 -25.501 -172.499 -76.501s-71.5 -110.167 -71.5 -177.5c0 -50 10.667 -95 32 -135
s51.166 -71.5 89.499 -94.5s81.833 -34.5 130.5 -34.5c45.333 0 87.333 12 126 36s68.667 55.833 90 95.5s32 83.167 32 130.5c0 48 -11.333 91.333 -34 130s-53.5 69.334 -92.5 92.001s-82.167 34 -129.5 34z" />
    <glyph glyph-name="colon" unicode=":" horiz-adv-x="573" 
d="M147 0v197h218v-197h-218zM147 680v197h218v-197h-218z" />
    <glyph glyph-name="semicolon" unicode=";" horiz-adv-x="573" 
d="M147 0l272.999 469h217v-197h-217v-262c0 -38.667 -1.5 -69 -4.5 -91s-9.83301 -44 -20.5 -66s-27 -44 -49 -66c-49.333 -49.333 -114.666 -74 -195.999 -74v137c78.667 12.667 118 51 118 115v35h-121zM419.999 952v197h217v-197h-217z" />
    <glyph glyph-name="less" unicode="&#x3c;" horiz-adv-x="1229" 
d="M1143 313v-227l-1043 461v203l1043 464v-227l-742 -342z" />
    <glyph glyph-name="equal" unicode="=" horiz-adv-x="1229" 
d="M1137 969v-236h-1033v236h1033zM1137 569v-235h-1033v235h1033z" />
    <glyph glyph-name="greater" unicode="&#x3e;" horiz-adv-x="1229" 
d="M98 313l742 332l-742 342v227l1043 -464v-203l-1043 -461v227z" />
    <glyph glyph-name="question" unicode="?" horiz-adv-x="1147" 
d="M338 1069l-272.001 -0.00195312c7.33301 122.667 39.333 220.334 96 293.001c42.667 55.333 99 99.166 169 131.499s140 48.5 210 48.5c54.667 0 109.834 -11.667 165.501 -35s103.5 -54.666 143.5 -93.999c48 -46.667 83.833 -100.167 107.5 -160.5
s35.5 -124.166 35.5 -191.499c0 -70.667 -18.5 -133.834 -55.5 -189.501s-87.5 -111.167 -151.5 -166.5c-46 -39.333 -79 -77 -99 -113s-30 -81.667 -30 -137v-70h-272v59c0 88 17 168 51 240c19.333 42 40.5 75.667 63.5 101s55.833 56 98.5 92c42 34 73 64.833 93 92.5
s30 62.167 30 103.5c0 61.333 -17.167 109.5 -51.5 144.5s-81.5 52.5 -141.5 52.5c-41.333 0 -75.5 -8.5 -102.5 -25.5s-47.5 -40.667 -61.5 -71s-22.667 -65.166 -26 -104.499zM384.999 -0.00195312l272 457h217v-197h-217v-260h-272z" />
    <glyph glyph-name="at" unicode="@" horiz-adv-x="1516" 
d="M1243 291l195 0.000976562c-39.333 -53.333 -80.833 -99.5 -124.5 -138.5s-92 -72.833 -145 -101.5s-109.833 -50.5 -170.5 -65.5s-121.667 -22.5 -183 -22.5c-146.667 0 -282.167 34 -406.5 102s-222.5 162.333 -294.5 283s-108 255.334 -108 404.001
c0 145.333 35.167 278.666 105.5 399.999s166.833 216.666 289.5 285.999s256.667 104 402 104c92.667 0 180.834 -14.5 264.501 -43.5s159.167 -73.167 226.5 -132.5c154.667 -129.333 232 -284.333 232 -465c0 -175.333 -54 -318 -162 -428
c-43.333 -44 -100.333 -84.667 -171 -122s-133.667 -56 -189 -56c-35.333 0 -64.333 9.33301 -87 28s-34 45.334 -34 80.001c-60 -65.333 -131 -98 -213 -98c-70 0 -130.667 16.167 -182 48.5s-90.5 76.666 -117.5 132.999s-40.5 118.833 -40.5 187.5
c0 82 17.833 160 53.5 234s86 133.333 151 178s138.833 67 221.5 67c111.333 0 196.666 -41 255.999 -123l20 107h197l-103 -609c-4 -24 -6 -39 -6 -45c0 -8 3.5 -15 10.5 -21s14.5 -9 22.5 -9c22 0 46.667 9.66699 74 29s50.333 41 69 65
c16.667 24 31.334 52.167 44.001 84.5s22.5 65.833 29.5 100.5s10.5 68.667 10.5 102c0 85.333 -14.167 162.833 -42.5 232.5s-68 128 -119 175s-112.833 83.333 -185.5 109s-151.334 38.5 -236.001 38.5c-121.333 0 -230.5 -27.5 -327.5 -82.5s-172.5 -131 -226.5 -228
s-81 -205.833 -81 -326.5c0 -95.333 17 -182.5 51 -261.5s81.5 -146.333 142.5 -202s131.833 -98.167 212.5 -127.5s168.334 -44 263.001 -44c145.333 0 282.666 58 411.999 174zM580 707.001c0 -50.667 14.167 -93.833 42.5 -129.5s67.166 -53.5 116.499 -53.5
c62.667 0 113.834 23 153.501 69s59.5 100.333 59.5 163c0 50.667 -15.667 93 -47 127s-72.333 51 -123 51c-37.333 0 -71.5 -11.167 -102.5 -33.5s-55.333 -50.833 -73 -85.5s-26.5 -70.667 -26.5 -108z" />
    <glyph glyph-name="A" unicode="A" horiz-adv-x="1516" 
d="M14 0l631 1513h219l637 -1513h-309l-164 391h-536l-168 -391h-310zM594 664h324l-162 458z" />
    <glyph glyph-name="B" unicode="B" horiz-adv-x="1188" 
d="M139 0l0.00195312 1513h275h67c72 0 134 -3.33301 186 -10s102 -22.334 150 -47.001c40.667 -20.667 77.167 -48.667 109.5 -84s57.666 -75.5 75.999 -120.5s27.5 -90.167 27.5 -135.5c0 -61.333 -14.5 -118.5 -43.5 -171.5s-69.833 -92.167 -122.5 -117.5
c82 -26 145.5 -71.667 190.5 -137s67.5 -141.666 67.5 -228.999c0 -72.667 -15.667 -139.834 -47 -201.501s-77 -114.834 -137 -159.501c-54 -39.333 -113.833 -65.166 -179.5 -77.499s-145.834 -19.833 -240.501 -22.5h-379zM420.002 272.001h117c50 0 93 3.5 129 10.5
s70 21.5 102 43.5c49.333 32.667 74 81.667 74 147c0 36 -8.5 66.5 -25.5 91.5s-42.167 46.5 -75.5 64.5c-29.333 14 -58.5 22.5 -87.5 25.5s-65.833 4.5 -110.5 4.5h-123v-387zM420.002 932.001h53c91.333 0 155 7.33301 191 22c26.667 12.667 47.667 31.667 63 57
s23 53 23 83c0 29.333 -8.5 56 -25.5 80s-40.167 41.667 -69.5 53c-21.333 10.667 -54 16 -98 16c-19.333 0 -35 -0.166992 -47 -0.5s-25 -0.833008 -39 -1.5h-51v-309z" />
    <glyph glyph-name="C" unicode="C" horiz-adv-x="1597" 
d="M1223 412l325 0.00195312c-36.667 -88.667 -91.667 -167.334 -165 -236.001s-156.666 -121.334 -249.999 -158.001s-189 -55 -287 -55c-105.333 0 -206 20.833 -302 62.5s-180 99.167 -252 172.5s-128.5 158.333 -169.5 255s-61.5 198.334 -61.5 305.001
c0 139.333 35.333 269.5 106 390.5s165.667 216.833 285 287.5s248 106 386 106c102 0 200.5 -18.667 295.5 -56s179.5 -90.833 253.5 -160.5s130.333 -151.167 169 -244.5h-319c-47.333 58 -106.5 104 -177.5 138s-144.167 51 -219.5 51c-91.333 0 -175 -23.833 -251 -71.5
s-136.167 -111.334 -180.5 -191.001s-66.5 -166.167 -66.5 -259.5c0 -88.667 22.833 -172.5 68.5 -251.5s107.167 -142.167 184.5 -189.5s159.666 -71 246.999 -71c143.333 0 270.333 58.667 381 176z" />
    <glyph glyph-name="D" unicode="D" horiz-adv-x="1434" 
d="M139 0l0.000976562 1513h318c60.667 0 120.334 -2.66699 179.001 -8s113.5 -13.833 164.5 -25.5s101.833 -29.334 152.5 -53.001s97 -53.5 139 -89.5c81.333 -68 145 -155.5 191 -262.5s69 -215.167 69 -324.5c0 -52.667 -5.83301 -106 -17.5 -160
s-28.834 -106.333 -51.501 -157s-49.834 -97.667 -81.501 -141s-68.167 -82.666 -109.5 -117.999c-82 -70 -173.167 -116.5 -273.5 -139.5s-218.833 -34.5 -355.5 -34.5h-324zM420.001 272l34.999 0.000976562c60 0 113.833 2 161.5 6s95 13.833 142 29.5
s90.5 38.167 130.5 67.5c58 44 102.833 98.833 134.5 164.5s47.5 135.834 47.5 210.501c0 52 -7.66699 103.167 -23 153.5s-38.166 96.666 -68.499 138.999s-66.833 78.5 -109.5 108.5c-57.333 39.333 -119.333 64.166 -186 74.499s-148 15.5 -244 15.5h-20v-969z" />
    <glyph glyph-name="E" unicode="E" horiz-adv-x="1065" 
d="M139 0v1513h813v-272h-532v-348h510v-272h-510v-349h532v-272h-813z" />
    <glyph glyph-name="F" unicode="F" horiz-adv-x="983" 
d="M139 0v1513h770v-272h-489v-348h467v-272h-467v-621h-281z" />
    <glyph glyph-name="G" unicode="G" horiz-adv-x="1720" 
d="M1599 1069l-335.002 0.000976562c-30 42 -66.167 77.833 -108.5 107.5s-88.333 52.667 -138 69s-100.167 24.5 -151.5 24.5c-133.333 0 -250 -43.667 -350 -131c-34 -30 -64.167 -65.833 -90.5 -107.5s-46.833 -86.334 -61.5 -134.001s-22 -94.167 -22 -139.5
c0 -63.333 13.167 -126.666 39.5 -189.999s61.5 -117.333 105.5 -162c52.667 -54.667 112.834 -96.667 180.501 -126s138.167 -44 211.5 -44c88.667 0 174.334 25.167 257.001 75.5s144.334 115.833 185.001 196.5h-633v264h987v-33c0 -144 -36.667 -275.333 -110 -394
s-172 -212 -296 -280s-257 -102 -399 -102c-108 0 -210.833 19.833 -308.5 59.5s-184.167 95.167 -259.5 166.5s-134.333 154.833 -177 250.5s-64 198.5 -64 308.5s21.167 213.167 63.5 309.5s100.833 180.833 175.5 253.5s161.167 129.334 259.5 170.001s200.5 61 306.5 61
c103.333 0 204.166 -19.333 302.499 -58s185.333 -93.834 261 -165.501s132.167 -154.834 169.5 -249.501z" />
    <glyph glyph-name="H" unicode="H" horiz-adv-x="1393" 
d="M139 0v1513h281v-606h541v606h280v-1513h-280v635h-541v-635h-281z" />
    <glyph glyph-name="I" unicode="I" horiz-adv-x="573" 
d="M139 0v1513h281v-1513h-281z" />
    <glyph glyph-name="J" unicode="J" horiz-adv-x="983" 
d="M567 1513l281 0.00195312v-1067c0 -49.333 -1.5 -88.833 -4.5 -118.5s-9.83301 -60.667 -20.5 -93s-27 -64.833 -49 -97.5c-36 -54 -83.5 -96.5 -142.5 -127.5s-122.833 -46.5 -191.5 -46.5c-73.333 0 -142.166 16.167 -206.499 48.5s-115.833 77.666 -154.5 135.999
s-59 125.166 -61 200.499h281c7.33301 -32.667 22.166 -58.167 44.499 -76.5s50.5 -27.5 84.5 -27.5c53.333 0 89.833 16.167 109.5 48.5s29.5 77.5 29.5 135.5v1085z" />
    <glyph glyph-name="K" unicode="K" horiz-adv-x="1270" 
d="M139 0v1513h281v-655l471 655h336l-572 -743l572 -770h-336l-471 664v-664h-281z" />
    <glyph glyph-name="L" unicode="L" horiz-adv-x="901" 
d="M139 0v1513h281v-1241h463v-272h-744z" />
    <glyph glyph-name="M" unicode="M" horiz-adv-x="1843" 
d="M139 0v1513h383l406 -1157l411 1157h381v-1513h-280v1135l-391 -1135h-238l-391 1135v-1135h-281z" />
    <glyph glyph-name="N" unicode="N" horiz-adv-x="1516" 
d="M139 0v1513h316l630 -1105v1105h281v-1513h-311l-635 1102v-1102h-281z" />
    <glyph glyph-name="O" unicode="O" horiz-adv-x="1720" 
d="M850 1542c142 0 273.5 -35.166 394.5 -105.499s216.833 -166.666 287.5 -288.999s106 -254.833 106 -397.5c0 -143.333 -35.5 -275.333 -106.5 -396s-166.833 -216 -287.5 -286s-252 -105 -394 -105c-104 0 -204.5 20.167 -301.5 60.5s-182.167 97 -255.5 170
s-130.333 157.667 -171 254s-61 197.166 -61 302.499c0 142.667 35.333 275.167 106 397.5s166.667 218.666 288 288.999s253 105.5 395 105.5zM850 1270c-93.333 0 -178.671 -22.9971 -256.004 -68.9971s-138.666 -108.5 -183.999 -187.5s-68 -164.833 -68 -257.5
c0 -67.333 13.333 -132.833 40 -196.5s63.834 -119.834 111.501 -168.501s102.167 -86.667 163.5 -114s125.666 -41 192.999 -41c90.667 0 174.834 23.667 252.501 71s139.667 111.166 186 191.499s69.5 166.166 69.5 257.499c0 92.667 -22.667 178.5 -68 257.5
s-106.666 141.5 -183.999 187.5s-162.666 69 -255.999 69z" />
    <glyph glyph-name="P" unicode="P" horiz-adv-x="1147" 
d="M420 0l-280.999 -0.000976562v1513h357h53c55.333 0 100.666 -1.5 135.999 -4.5s72.166 -10.333 110.499 -22s74.833 -29.167 109.5 -52.5c62.667 -42 111.834 -97 147.501 -165s53.5 -140 53.5 -216c0 -49.333 -6.66699 -97.666 -20 -144.999s-34 -92 -62 -134
s-60.667 -78 -98 -108c-32.667 -26 -70.167 -46 -112.5 -60s-85.333 -23 -129 -27s-92.167 -6 -145.5 -6h-64h-55v-573zM420.001 845.999l51 0.000976562c100 0 172.333 5.33301 217 16c42 14.667 75.333 38.667 100 72s37 71.666 37 114.999c0 44.667 -13.5 83 -40.5 115
s-61.833 53.667 -104.5 65c-41.333 8 -111 12 -209 12h-51v-395z" />
    <glyph glyph-name="Q" unicode="Q" horiz-adv-x="1720" 
d="M1696 215l0.00195312 -251.998c-50.667 0 -100.334 4.5 -149.001 13.5s-92.334 21.667 -131.001 38s-76.334 37.5 -113.001 63.5c-58.667 -37.333 -127 -65.833 -205 -85.5s-154.667 -29.5 -230 -29.5c-108 0 -210.5 19.667 -307.5 59s-183.333 95 -259 167
s-134.667 155.667 -177 251s-63.5 198 -63.5 308c0 225.333 74.667 411.666 224 558.999c74.667 74.667 162 132.5 262 173.5s203.667 61.5 311 61.5c108.667 0 212.167 -19.833 310.5 -59.5s185 -95.334 260 -167.001s133.833 -156.334 176.5 -254.001
s64 -202.167 64 -313.5c0 -96 -14.167 -183.667 -42.5 -263s-74.166 -155.666 -137.499 -228.999c49.333 -27.333 103.333 -41 162 -41h45zM1067 285.002c-178.667 132 -342.667 198.001 -492 198.001c-52.667 0 -99 -8 -139 -24c38 -52 80.333 -94.333 127 -127
s97.334 -56.834 152.001 -72.501s114.667 -23.5 180 -23.5c27.333 0 51.166 3.16699 71.499 9.5s53.833 19.5 100.5 39.5zM342.002 766.003l4.00098 -81.999c60 18 131 27 213 27c79.333 0 154.333 -9.16699 225 -27.5s141.667 -46.833 213 -85.5
c116 -60 205.667 -120 269 -180c27.333 28.667 50.166 60 68.499 94s32 70.5 41 109.5s13.5 79.5 13.5 121.5c0 93.333 -23.167 180.666 -69.5 261.999s-109.5 145.833 -189.5 193.5s-167.333 71.5 -262 71.5c-70.667 0 -138 -13.833 -202 -41.5s-122 -67.834 -174 -120.501
c-44 -44 -80 -96.667 -108 -158s-42 -122.666 -42 -183.999z" />
    <glyph glyph-name="R" unicode="R" horiz-adv-x="1188" 
d="M139 0l0.000976562 1513h439c90.667 -1.33301 166 -8.5 226 -21.5s115.667 -41.167 167 -84.5c36 -30 67.167 -64.833 93.5 -104.5s46.666 -82.334 60.999 -128.001s21.5 -92.5 21.5 -140.5c0 -55.333 -11.5 -113.666 -34.5 -174.999s-53.167 -112.666 -90.5 -153.999
c-66.667 -72 -156 -120.667 -268 -146l409 -559h-346l-393 580h-4v-580h-281zM420.001 792.999h152.999c104.667 0 179.334 21 224.001 63c46 44 69 98.667 69 164c0 33.333 -7 65.333 -21 96s-34.333 55.334 -61 74.001c-27.333 21.333 -56.5 35.166 -87.5 41.499
s-71.5 9.5 -121.5 9.5h-155v-448z" />
    <glyph glyph-name="S" unicode="S" horiz-adv-x="1065" 
d="M29 426l292.997 0.00292969c0 -58 20.333 -104.167 61 -138.5s90.334 -51.5 149.001 -51.5c34.667 0 67.167 8.16699 97.5 24.5s54.5 39 72.5 68s27 61.5 27 97.5c0 73.333 -23.333 127.833 -70 163.5s-111.334 66.5 -194.001 92.5
c-67.333 22.667 -119.666 43.167 -156.999 61.5s-72.333 44.166 -105 77.499c-37.333 38.667 -66.5 83.5 -87.5 134.5s-31.5 103.167 -31.5 156.5c0 79.333 20.167 152.166 60.5 218.499s94.833 118.166 163.5 155.499s142.667 56 222 56
c58.667 0 114.5 -10.833 167.5 -32.5s100.333 -52.334 142 -92.001s74.334 -86 98.001 -139s35.5 -108.5 35.5 -166.5h-289c-2 46.667 -19.5 84.667 -52.5 114s-72.167 44 -117.5 44s-81.5 -15.167 -108.5 -45.5s-40.5 -68.5 -40.5 -114.5c0 -50 17.167 -88.333 51.5 -115
s80.5 -49.667 138.5 -69c72.667 -24 130.334 -45.167 173.001 -63.5s83.334 -43.833 122.001 -76.5c106.667 -84.667 160 -199.334 160 -344.001c0 -66 -12.833 -128.5 -38.5 -187.5s-61.167 -110.167 -106.5 -153.5s-98 -77.166 -158 -101.499s-123 -36.5 -189 -36.5
c-84.667 0 -164.834 20.333 -240.501 61s-136 96.334 -181 167.001s-67.5 149 -67.5 235z" />
    <glyph glyph-name="T" unicode="T" horiz-adv-x="860" 
d="M293 0v1241h-279v272h842v-272h-283v-1241h-280z" />
    <glyph glyph-name="U" unicode="U" horiz-adv-x="1311" 
d="M139 1513l281.002 -0.00390625v-944c0 -46.667 1.5 -84.5 4.5 -113.5s11.167 -59.167 24.5 -90.5c20 -39.333 47.667 -70.666 83 -93.999s74.333 -35 117 -35c38 0 74.667 10 110 30s62.333 45.333 81 76s30.167 63 34.5 97s6.5 77.333 6.5 130v944h280v-944
c0 -88.667 -7 -165.167 -21 -229.5s-43.667 -124.166 -89 -179.499c-34 -40.667 -72.333 -75.5 -115 -104.5s-88.667 -51.667 -138 -68s-99 -24.5 -149 -24.5c-68.667 0 -138.334 17.167 -209.001 51.5s-130 78.5 -178 132.5c-33.333 38 -59.333 79.833 -78 125.5
s-30.834 90.834 -36.501 135.501s-8.5 98.334 -8.5 161.001v944z" />
    <glyph glyph-name="V" unicode="V" horiz-adv-x="1434" 
d="M604 0l-588 1513h295l408 -1151l407 1151h295l-585 -1513h-232z" />
    <glyph glyph-name="W" unicode="W" horiz-adv-x="1843" 
d="M455 0l-441 1513h287l264 -1058l260 1058h205l256 -1058l266 1058h287l-440 -1513h-223l-246 1001l-252 -1001h-223z" />
    <glyph glyph-name="X" unicode="X" horiz-adv-x="1393" 
d="M10 0l522 754l-522 759h328l358 -520l361 520h327l-524 -759l524 -754h-327l-361 516l-358 -516h-328z" />
    <glyph glyph-name="Y" unicode="Y" horiz-adv-x="1270" 
d="M504 0v559l-498 954h309l330 -696l330 696h307l-498 -954v-559h-280z" />
    <glyph glyph-name="Z" unicode="Z" horiz-adv-x="1024" 
d="M37 240l575 1001h-542v272h874v-253l-571 -988h610v-272h-946v240z" />
    <glyph glyph-name="bracketleft" unicode="[" horiz-adv-x="655" 
d="M598 1513l0.000976562 -291.998c-48 -15.333 -84.333 -43.5 -109 -84.5s-40.334 -85.5 -47.001 -133.5s-10 -102.333 -10 -163v-465c0 -84 11.167 -156.667 33.5 -218s66.5 -103.333 132.5 -126v-291c-62.667 2.66699 -123 24 -181 64s-108.333 89.667 -151 149
c-45.333 64 -75.666 133.833 -90.999 209.5s-23 162.167 -23 259.5v473c0 87.333 8.16699 163.666 24.5 228.999s48.166 127.666 95.499 186.999c44 56 94.333 102.667 151 140s115 58 175 62z" />
    <glyph glyph-name="backslash" unicode="\" horiz-adv-x="1311" 
d="M817 0l-645 1513h213l645 -1513h-213z" />
    <glyph glyph-name="bracketright" unicode="]" horiz-adv-x="655" 
d="M522 895l0.00195312 -472.999c0 -60 -2.83301 -117.333 -8.5 -172s-16.834 -106.667 -33.501 -156s-40.667 -96.333 -72 -141c-42.667 -59.333 -92.667 -109 -150 -149s-118 -61.333 -182 -64v291c66 22 110.167 63.833 132.5 125.5s33.5 134.5 33.5 218.5v465
c0 60.667 -3.33301 115 -10 163s-22.334 92.5 -47.001 133.5s-61 69.167 -109 84.5v292c42 -2.66699 82.833 -13.667 122.5 -33s76.667 -43.833 111 -73.5s64.833 -61.5 91.5 -95.5c32.667 -41.333 58 -83.833 76 -127.5s30 -88.334 36 -134.001s9 -97.167 9 -154.5z" />
    <glyph glyph-name="asciicircum" unicode="^" horiz-adv-x="1229" 
d="M342 645l-213 96l369 772h245l369 -772l-213 -96l-278 572z" />
    <glyph glyph-name="underscore" unicode="_" horiz-adv-x="1024" 
d="M1024 -283h-1024v185h1024v-185z" />
    <glyph glyph-name="grave" unicode="`" horiz-adv-x="860" 
d="M152 1511l116 209l455 -276l-109 -189z" />
    <glyph glyph-name="a" unicode="a" horiz-adv-x="1352" 
d="M1260 1135v-1135h-250v154h-4c-41.333 -58 -97.833 -104.333 -169.5 -139s-143.5 -52 -215.5 -52c-84.667 0 -162.667 16.667 -234 50s-132.666 80.333 -183.999 141c-94.667 113.333 -142 251 -142 413c0 50.667 4.83301 100.167 14.5 148.5s25 93.333 46 135
s49.5 83.167 85.5 124.5c57.333 66.667 121.166 116 191.499 148s147.166 48 230.499 48c78 0 149.833 -16.667 215.5 -50s120.834 -82 165.501 -146v160h250zM1001 569c0 48 -8 92.5 -24 133.5s-38.333 76.5 -67 106.5s-63.334 53.5 -104.001 70.5s-84.667 25.5 -132 25.5
c-99.333 0 -180.833 -32.833 -244.5 -98.5s-95.5 -148.834 -95.5 -249.501c0 -92 33 -169.667 99 -233s145 -95 237 -95c64 0 121.333 14.833 172 44.5s89.834 70.334 117.501 122.001s41.5 109.5 41.5 173.5z" />
    <glyph glyph-name="b" unicode="b" horiz-adv-x="1352" 
d="M111 0v1513h272v-497h4c36 52 85.667 90.833 149 116.5s130.333 38.5 201 38.5c80 0 155.667 -16.167 227 -48.5s132.5 -76.5 183.5 -132.5s90.333 -120.667 118 -194s41.5 -149.666 41.5 -228.999c0 -69.333 -13.167 -142.333 -39.5 -219
s-61.833 -141.334 -106.5 -194.001c-27.333 -32.667 -56 -60.167 -86 -82.5s-62.5 -41.5 -97.5 -57.5s-72.5 -28.5 -112.5 -37.5s-80 -13.5 -120 -13.5c-171.333 0 -298 63.667 -380 191h-5v-154h-249zM709 905c-92.667 0 -172.831 -30.833 -240.498 -92.5
s-101.5 -138.5 -101.5 -230.5c0 -66 14.333 -126 43 -180s68.834 -96.333 120.501 -127s111.167 -46 178.5 -46c63.333 0 119.666 14.667 168.999 44s87.666 70 114.999 122s41 108.667 41 170c0 63.333 -13.667 120.833 -41 172.5s-65.833 92.5 -115.5 122.5
s-105.834 45 -168.501 45z" />
    <glyph glyph-name="c" unicode="c" horiz-adv-x="1311" 
d="M924 369l307 0.00195312c-25.333 -80.667 -66.166 -151.5 -122.499 -212.5s-123.166 -108.5 -200.499 -142.5s-157.333 -51 -240 -51c-76.667 0 -152.667 15.333 -228 46s-140 72 -194 124c-61.333 59.333 -107.5 127 -138.5 203s-46.5 155.667 -46.5 239
c0 82 15.667 159 47 231s75 135.667 131 191s120.833 98.166 194.5 128.499s151.167 45.5 232.5 45.5c83.333 0 164 -17.333 242 -52s145.667 -83.334 203 -146.001s97.333 -134.334 120 -215.001h-307c-58.667 98 -146 147 -262 147c-64 0 -120.833 -14.5 -170.5 -43.5
s-88.334 -69.167 -116.001 -120.5s-41.5 -108 -41.5 -170c0 -64.667 14.5 -123.167 43.5 -175.5s69.833 -93.166 122.5 -122.499s111.334 -44 176.001 -44c32.667 0 64.667 5.66699 96 17s60.166 27.5 86.499 48.5s48.166 45.833 65.499 74.5z" />
    <glyph glyph-name="d" unicode="d" horiz-adv-x="1352" 
d="M1255 1513l0.000976562 -1513h-249v154h-5c-25.333 -40.667 -57.833 -75.334 -97.5 -104.001s-83.334 -50.334 -131.001 -65.001s-96.834 -22 -147.501 -22c-80 0 -155.333 17 -226 51s-132 80.667 -184 140c-47.333 54 -84.833 117.333 -112.5 190
s-41.5 145.667 -41.5 219c0 161.333 51.333 300 154 416c34 38 73.667 71.667 119 101s93.333 51.833 144 67.5s102.334 23.5 155.001 23.5c42.667 0 85.5 -5.66699 128.5 -17s83.333 -28.5 121 -51.5s71.167 -51.167 100.5 -84.5v495h272zM1001 569.002
c0 47.333 -8.83789 91.332 -26.5049 131.999s-41.667 76 -72 106s-66.5 53.833 -108.5 71.5s-86 26.5 -132 26.5c-42 0 -82.667 -8.5 -122 -25.5s-74.666 -41 -105.999 -72s-55.833 -66.833 -73.5 -107.5s-26.5 -82.334 -26.5 -125.001
c0 -61.333 14.333 -118.666 43 -171.999s68.334 -95.666 119.001 -126.999s107.334 -47 170.001 -47c60.667 0 116.834 15.333 168.501 46s92.334 72 122.001 124s44.5 108.667 44.5 170z" />
    <glyph glyph-name="e" unicode="e" horiz-adv-x="1311" 
d="M1231 446l-880.997 -0.000976562c21.333 -66 59.5 -118.667 114.5 -158s116.5 -59 184.5 -59c50.667 0 99.167 8.83301 145.5 26.5s82.5 41.834 108.5 72.501h301c-22.667 -66.667 -61.834 -128 -117.501 -184s-121.334 -100.167 -197.001 -132.5
s-152.5 -48.5 -230.5 -48.5c-108.667 0 -208.667 26.667 -300 80s-163.833 126 -217.5 218s-80.5 191.333 -80.5 298c0 110.667 26.5 212.834 79.5 306.501s125.667 168 218 223s194.166 82.5 305.499 82.5c80 0 155.333 -15.833 226 -47.5s132.5 -75 185.5 -130
s94.5 -118.833 124.5 -191.5s45 -148.334 45 -227.001c0 -19.333 -4.66699 -62.333 -14 -129zM346.003 687.999h625c-14.667 44 -37.667 82.5 -69 115.5s-67.5 58.167 -108.5 75.5s-84.833 26 -131.5 26c-70 0 -135 -20.167 -195 -60.5s-100.333 -92.5 -121 -156.5z" />
    <glyph glyph-name="f" unicode="f" horiz-adv-x="573" 
d="M117 0l-0.000976562 893.001h-97v242h97c2 56 11.333 107.833 28 155.5s41 90.5 73 128.5s71.167 68 117.5 90s96.833 33 151.5 33l74 -4v-270c-42.667 0 -75.167 -2.66699 -97.5 -8s-39.666 -17.333 -51.999 -36s-19.833 -48.334 -22.5 -89.001h158v-242h-158v-893h-272
z" />
    <glyph glyph-name="g" unicode="g" horiz-adv-x="1352" 
d="M1001 1135h249.997v-963c0 -92.667 -11.667 -173 -35 -241s-64.666 -133.667 -123.999 -197c-58.667 -60.667 -127.667 -108.334 -207 -143.001s-160.666 -52 -243.999 -52c-80 0 -158 15.333 -234 46s-143 74.5 -201 131.5s-100.667 122.833 -128 197.5h309
c30 -32 68.833 -58.167 116.5 -78.5s93.5 -30.5 137.5 -30.5c46.667 0 92.5 8.16699 137.5 24.5s83.833 39.833 116.5 70.5c36.667 34 61.5 68.833 74.5 104.5s24.5 85.5 34.5 149.5l-5 4c-100 -130 -220.667 -195 -362 -195c-47.333 0 -95.5 7.5 -144.5 22.5
s-96.5 36.167 -142.5 63.5s-85.667 58 -119 92c-35.333 37.333 -66.166 80.5 -92.499 129.5s-45.833 99.5 -58.5 151.5s-19 106 -19 162c0 72.667 13.333 143.167 40 211.5s64 129.5 112 183.5c54 60 118.5 107 193.5 141s153.833 51 236.5 51
c78 0 148.5 -16.167 211.5 -48.5s110.5 -80.166 142.5 -143.499h4v156zM994.997 563c0 48.667 -8.83398 94.167 -26.501 136.5s-41.5 78.5 -71.5 108.5s-65.833 53.667 -107.5 71s-86.5 26 -134.5 26c-89.333 0 -166.333 -33.333 -231 -100
c-30.667 -32 -53.334 -67.333 -68.001 -106s-22 -80.667 -22 -126c0 -64.667 14.667 -123.167 44 -175.5s70.166 -93.5 122.499 -123.5s110.833 -45 175.5 -45c44.667 0 86.834 9.33301 126.501 28s73.834 43.667 102.501 75s50.834 67 66.501 107s23.5 81.333 23.5 124z
" />
    <glyph glyph-name="h" unicode="h" horiz-adv-x="1229" 
d="M111 0l-0.000976562 1513h272v-464c30 40 71.833 70.333 125.5 91s108.834 31 165.501 31c61.333 0 122.333 -13.667 183 -41s111 -64 151 -110c32 -36.667 56 -76.334 72 -119.001s26 -84.667 30 -126s6 -95 6 -161v-614h-272v555c0 70 -5.16699 129.667 -15.5 179
s-32.5 90.166 -66.5 122.499s-84 48.5 -150 48.5c-80.667 0 -142.667 -32.667 -186 -98c-18.667 -31.333 -30.5 -67.5 -35.5 -108.5s-7.5 -90.167 -7.5 -147.5v-551h-272z" />
    <glyph glyph-name="i" unicode="i" horiz-adv-x="492" 
d="M111 0v1135h272v-1135h-272zM139 1266v196h217v-196h-217z" />
    <glyph glyph-name="j" unicode="j" horiz-adv-x="532" 
d="M147 1135l273 0.000976562v-1065c0 -68 -7.66699 -129 -23 -183s-43.333 -103.667 -84 -149c-32 -36.667 -73 -65.334 -123 -86.001s-101.667 -31 -155 -31v264c48 2 78.667 17.333 92 46s20 77.667 20 147v1057zM172 1266v196h217v-196h-217z" />
    <glyph glyph-name="k" unicode="k" horiz-adv-x="1188" 
d="M111 0v1513h272v-913l365 535h321l-410 -555l478 -580h-365l-389 530v-530h-272z" />
    <glyph glyph-name="l" unicode="l" horiz-adv-x="492" 
d="M111 0v1513h272v-1513h-272z" />
    <glyph glyph-name="m" unicode="m" horiz-adv-x="1925" 
d="M111 0l-0.00292969 1135h249v-105h5c22.667 48 61.834 83.5 117.501 106.5s114.5 34.5 176.5 34.5c60.667 0 117.834 -12.333 171.501 -37s97.834 -59.334 132.501 -104.001c8 -8 16.667 -19.667 26 -35c7.33301 14 17 25.667 29 35c38.667 46 87.5 81 146.5 105
s120.833 36 185.5 36c148.667 0 264 -47 346 -141c32.667 -34 57.5 -71.833 74.5 -113.5s28.167 -84 33.5 -127s8 -93.833 8 -152.5v-637h-272v604c0 48.667 -2.5 90.834 -7.5 126.501s-16.167 65.834 -33.5 90.501c-12 18 -26.833 33.167 -44.5 45.5
s-37.167 21.833 -58.5 28.5s-43.666 10 -66.999 10c-40 0 -76.333 -8.33301 -109 -25s-59 -41 -79 -73c-18.667 -32.667 -30.5 -70.334 -35.5 -113.001s-7.5 -93.667 -7.5 -153v-541h-273v604c0 48.667 -2.5 89 -7.5 121s-16.833 61.333 -35.5 88
c-18.667 29.333 -43.834 52 -75.501 68s-65.834 24 -102.501 24c-67.333 0 -117.166 -18 -149.499 -54s-52.333 -78.167 -60 -126.5s-11.5 -109.5 -11.5 -183.5v-541h-272z" />
    <glyph glyph-name="n" unicode="n" horiz-adv-x="1229" 
d="M111 0l0.00292969 1135h251v-105h5c32.667 45.333 77 80.166 133 104.499s114.667 36.5 176 36.5c60.667 0 119.667 -12.5 177 -37.5s106 -59.5 146 -103.5c13.333 -12 23 -23 29 -33c40 -55.333 65 -113.333 75 -174s15 -139 15 -235v-588h-272v535
c0 62.667 -2.83301 116.334 -8.5 161.001s-18.5 83 -38.5 115c-18 28.667 -43.667 51.5 -77 68.5s-68 25.5 -104 25.5c-36.667 0 -72.834 -9 -108.501 -27s-62.834 -42.333 -81.501 -73c-20.667 -36 -33.334 -77.167 -38.001 -123.5s-7 -102.166 -7 -167.499v-514h-272z" />
    <glyph glyph-name="o" unicode="o" horiz-adv-x="1311" 
d="M674 1171c82.667 0 160.164 -15.833 232.497 -47.5s135.833 -75.5 190.5 -131.5s96.834 -120.5 126.501 -193.5s44.5 -150.833 44.5 -233.5c0 -82 -15.333 -159.333 -46 -232s-74.5 -137.334 -131.5 -194.001s-122.333 -100.167 -196 -130.5s-151.167 -45.5 -232.5 -45.5
c-107.333 0 -207.166 27.167 -299.499 81.5s-165.666 127.833 -219.999 220.5s-81.5 192.667 -81.5 300c0 84.667 15.833 163.834 47.5 237.501s75.5 138 131.5 193s121 98 195 129s153.667 46.5 239 46.5zM661.997 905c-40.667 0 -82.502 -9.33496 -125.502 -28.002
s-79.167 -44 -108.5 -76c-62.667 -63.333 -94 -142 -94 -236c0 -59.333 14.5 -115.166 43.5 -167.499s68.667 -93.5 119 -123.5s105.5 -45 165.5 -45c63.333 0 120.333 14.833 171 44.5s90.334 70.5 119.001 122.5s43 108.333 43 169s-14.667 117.334 -44 170.001
s-69.666 94.167 -120.999 124.5s-107.333 45.5 -168 45.5z" />
    <glyph glyph-name="p" unicode="p" horiz-adv-x="1352" 
d="M111 -379v1514h249v-148h5c82.667 122.667 204 184 364 184c85.333 0 161.166 -14.5 227.499 -43.5s127.833 -75.833 184.5 -140.5c32 -32.667 60.333 -72.167 85 -118.5s42.834 -95.166 54.501 -146.499s17.5 -103 17.5 -155c0 -79.333 -13.667 -155.333 -41 -228
s-67 -137.5 -119 -194.5s-113.167 -101.5 -183.5 -133.5s-145.5 -48 -225.5 -48c-144.667 0 -258.667 53.333 -342 160h-4v-502h-272zM700 904.999c-62.667 0 -119.336 -15 -170.003 -45s-90.5 -71 -119.5 -123s-43.5 -108.667 -43.5 -170
c0 -104.667 35.333 -188.667 106 -252c30.667 -26.667 65.334 -47.667 104.001 -63s76.334 -23 113.001 -23c62.667 0 119.834 15.167 171.501 45.5s92 71.5 121 123.5s43.5 109 43.5 171c0 58 -14.167 113 -42.5 165s-67.5 93.5 -117.5 124.5s-105.333 46.5 -166 46.5z" />
    <glyph glyph-name="q" unicode="q" horiz-adv-x="1352" 
d="M1001 1135h250.001v-1514h-272v502h-4c-82 -106.667 -196 -160 -342 -160c-108.667 0 -206.5 28.333 -293.5 85s-155.167 132.334 -204.5 227.001s-74 195.667 -74 303c0 157.333 55.333 293.666 166 408.999c31.333 35.333 69.333 67.5 114 96.5s91.667 50.833 141 65.5
s99 22 149 22c78 0 149.167 -15 213.5 -45s115.166 -76.333 152.499 -139h4v148zM670.001 905c-46 0 -90 -8.5 -132 -25.5s-78.167 -40.5 -108.5 -70.5s-53.833 -65.167 -70.5 -105.5s-25 -84.5 -25 -132.5c0 -65.333 14.333 -124 43 -176s68.5 -92.667 119.5 -122
s108.833 -44 173.5 -44c60 0 114.667 15.5 164 46.5s88.166 72.333 116.499 124s42.5 107.5 42.5 167.5c0 57.333 -14.333 112.333 -43 165s-68.167 94.667 -118.5 126s-104.166 47 -161.499 47z" />
    <glyph glyph-name="r" unicode="r" horiz-adv-x="655" 
d="M111 0v1135h247v-103h4c30.667 49.333 65.167 84.833 103.5 106.5s85.166 32.5 140.499 32.5h21v-264c-65.333 0 -120.666 -17.667 -165.999 -53c-24 -19.333 -41.667 -41.166 -53 -65.499s-18.333 -49.5 -21 -75.5s-4 -59.667 -4 -101v-612h-272z" />
    <glyph glyph-name="s" unicode="s" horiz-adv-x="901" 
d="M829 823l-266.001 -0.000976562c-4 26.667 -15.5 47 -34.5 61s-42.167 21 -69.5 21c-30.667 0 -56.167 -8.5 -76.5 -25.5s-30.5 -40.5 -30.5 -70.5c0 -17.333 5 -32.166 15 -44.499s22.5 -22.666 37.5 -30.999s35.333 -16.166 61 -23.499s39.167 -11.333 40.5 -12
c76.667 -22.667 139.167 -46 187.5 -70s88.166 -58 119.499 -102s47 -101.333 47 -172c0 -106.667 -38.333 -197.334 -115 -272.001c-37.333 -35.333 -82.666 -64 -135.999 -86s-106 -33 -158 -33c-75.333 0 -144.166 16.5 -206.499 49.5s-111.333 79.167 -147 138.5
s-55.167 127.666 -58.5 204.999h278c8.66699 -37.333 25.334 -67.833 50.001 -91.5s56 -35.5 94 -35.5c34.667 0 64.5 9.66699 89.5 29s37.5 46 37.5 80c0 22.667 -6 41.834 -18 57.501s-28.167 29.167 -48.5 40.5s-43.5 21.333 -69.5 30l-57 19
c-59.333 20 -100.5 35 -123.5 45s-50.167 28 -81.5 54c-73.333 61.333 -110 140.333 -110 237c0 67.333 17.667 127.833 53 181.5s82.166 95.167 140.499 124.5s121.5 44 189.5 44c62 0 121.333 -15.5 178 -46.5s102.167 -73.333 136.5 -127s51.5 -111.834 51.5 -174.501z
" />
    <glyph glyph-name="t" unicode="t" horiz-adv-x="614" 
d="M152 0v893h-134v242h134v378h272v-378h164v-242h-164v-893h-272z" />
    <glyph glyph-name="u" unicode="u" horiz-adv-x="1229" 
d="M848 1135l271.999 0.000976562v-1135h-250v121h-4c-54 -105.333 -150 -158 -288 -158c-68.667 0 -134 13.167 -196 39.5s-116.333 65.833 -163 118.5c-32 34 -55.833 70 -71.5 108s-25.667 77.833 -30 119.5s-6.5 90.167 -6.5 145.5v641h272v-557
c0 -108 11.667 -185.333 35 -232c18.667 -36.667 45.334 -65.334 80.001 -86.001s72.667 -31 114 -31c93.333 0 156 32.5 188 97.5s48 148.833 48 251.5v557z" />
    <glyph glyph-name="v" unicode="v" horiz-adv-x="1147" 
d="M461 0l-459 1135h303l264 -746l260 746h304l-459 -1135h-213z" />
    <glyph glyph-name="w" unicode="w" horiz-adv-x="1638" 
d="M430 0l-410 1135h289l211 -693l187 693h215l188 -693l209 693h289l-412 -1135h-168l-215 735l-215 -735h-168z" />
    <glyph glyph-name="x" unicode="x" horiz-adv-x="1147" 
d="M2 0l404 586l-353 549h316l198 -312l193 312h317l-350 -549l406 -586h-336l-230 367l-229 -367h-336z" />
    <glyph glyph-name="y" unicode="y" horiz-adv-x="1188" 
d="M219 -379l209 485l-416 1029h310l260 -727l272 727h309l-651 -1514h-293z" />
    <glyph glyph-name="z" unicode="z" horiz-adv-x="942" 
d="M41 0v242l504 651h-447v242h772v-242l-503 -651h538v-242h-864z" />
    <glyph glyph-name="braceleft" unicode="{" horiz-adv-x="696" 
d="M455 367l0.000976562 -391.999c0 -44 4.83301 -81 14.5 -111s26.334 -55 50.001 -75s56.5 -36.333 98.5 -49h-63c-48.667 0 -89.5 3.16699 -122.5 9.5s-67.167 20.833 -102.5 43.5c-34.667 23.333 -57.667 52.666 -69 87.999s-17 79.666 -17 132.999v389
c0 38.667 -2.5 69.167 -7.5 91.5s-16.833 44.5 -35.5 66.5c-32.667 36 -74.334 59.333 -125.001 70c42 6.66699 78 22.334 108 47.001c18 14 31.5 30.333 40.5 49s14.5 37.5 16.5 56.5s3 43.833 3 74.5v346c0 52.667 3.66699 98.5 11 137.5s24.666 72.5 51.999 100.5
c48 46 130 69 246 69h65c-60 -16.667 -102.167 -43.667 -126.5 -81s-36.5 -88 -36.5 -152v-365c0 -82.667 -12.167 -146.167 -36.5 -190.5s-73.833 -74.833 -148.5 -91.5c71.333 -16 120 -44.5 146 -85.5s39 -100.5 39 -178.5z" />
    <glyph glyph-name="bar" unicode="|" horiz-adv-x="1229" 
d="M498 0v1513h243v-1513h-243z" />
    <glyph glyph-name="braceright" unicode="}" horiz-adv-x="696" 
d="M242 913l0.000976562 365c0 64 -12.167 114.667 -36.5 152s-66.833 64.333 -127.5 81h65c54.667 0 102.334 -4.5 143.001 -13.5s75 -27.5 103 -55.5s45.667 -60.667 53 -98s11 -84 11 -140v-346c0 -46 3.16699 -81.667 9.5 -107s23.5 -49.666 51.5 -72.999
c31.333 -25.333 67 -41 107 -47c-50.667 -10.667 -91.667 -34 -123 -70c-20.667 -24.667 -33.334 -47.5 -38.001 -68.5s-7 -50.833 -7 -89.5v-389c0 -52.667 -5.5 -96.834 -16.5 -132.501s-34.167 -65.167 -69.5 -88.5c-35.333 -22.667 -69.333 -37.167 -102 -43.5
s-73.334 -9.5 -122.001 -9.5h-65c64 19.333 107.333 46.833 130 82.5s34 86.5 34 152.5v392c0 50 5 92.333 15 127s28.167 63.167 54.5 85.5s64.5 39.5 114.5 51.5c-74.667 16.667 -124 47.167 -148 91.5s-36 107.833 -36 190.5z" />
    <glyph glyph-name="asciitilde" unicode="~" horiz-adv-x="1229" 
d="M1006 862l131.004 -149.002c-32 -52 -60.167 -93.833 -84.5 -125.5s-53.833 -58.667 -88.5 -81s-75.334 -33.5 -122.001 -33.5c-30 0 -57.833 3.83301 -83.5 11.5s-60.834 20.167 -105.501 37.5l-82 35l-54.5 23.5c-19.667 8.33301 -38.167 15 -55.5 20s-33 7.5 -47 7.5
c-42.667 0 -74.334 -12.833 -95.001 -38.5s-48.334 -68.834 -83.001 -129.501l-132 152c24 44.667 50.167 85.834 78.5 123.501s61.666 68.834 99.999 93.501s80.833 37 127.5 37c42 0 78.833 -6 110.5 -18s86.334 -34.5 164.001 -67.5s129.5 -49.5 155.5 -49.5
c19.333 0 37.333 4.66699 54 14s31.667 21.833 45 37.5s25 31.834 35 48.501z" />
    <glyph glyph-name="Zcaron" horiz-adv-x="1024" 
d="M37 240l575 1001h-542v272h874v-253l-571 -988h610v-272h-946v240zM213 1845h223l84 -98l82 98h221l-223 -211h-160z" />
    <glyph glyph-name="ogonek" horiz-adv-x="696" 
d="M328 0h142.998l-8 -6l-62.5 -48.5c-16.333 -13 -30.5 -28.5 -42.5 -46.5s-18 -37.667 -18 -59c0 -28 9.83301 -50.333 29.5 -67s44.5 -25 74.5 -25c22.667 0 49.334 7.66699 80.001 23v-160c-42.667 -18 -89.667 -27 -141 -27c-40.667 0 -78.667 7.66699 -114 23
s-63.666 37.666 -84.999 66.999s-32 64.333 -32 105c0 88.667 58.667 162.334 176 221.001z" />
    <glyph glyph-name="caron" horiz-adv-x="1106" 
d="M152 1552h297l112 -131l111 131h297l-299 -282h-215z" />
    <glyph glyph-name="Lslash" horiz-adv-x="983" 
d="M225 0v537l-196 -154v276l196 154v700h281v-507l272 213v-277l-272 -211v-459h463v-272h-744z" />
    <glyph glyph-name="ordmasculine" horiz-adv-x="737" 
d="M377 1542c44.667 0 85.998 -7.99902 123.998 -23.999s70.833 -38 98.5 -66s49.667 -61 66 -99s24.5 -80 24.5 -126c0 -42.667 -7.66699 -82.667 -23 -120s-37.666 -70.833 -66.999 -100.5s-63.166 -52.667 -101.499 -69s-78.833 -24.5 -121.5 -24.5
c-41.333 0 -80.833 8 -118.5 24s-71.667 39.167 -102 69.5s-53.5 64.333 -69.5 102s-24 77.167 -24 118.5c0 56.667 14.167 109.167 42.5 157.5s66.5 86.666 114.5 114.999s100.333 42.5 157 42.5zM376.998 1405c-31.333 0 -60 -8.16797 -86 -24.501
s-46.5 -38.166 -61.5 -65.499s-22.5 -56.666 -22.5 -87.999c0 -46.667 16.5 -87.334 49.5 -122.001s73.167 -52 120.5 -52c50 0 91.5 16.5 124.5 49.5s49.5 74.5 49.5 124.5c0 32.667 -7.66699 62.5 -23 89.5s-36.333 48.5 -63 64.5s-56 24 -88 24zM62.998 647v129h629v-129
h-629z" />
    <glyph glyph-name="fraction" horiz-adv-x="328" 
d="M-248 0l627 1513h194l-626 -1513h-195z" />
    <glyph glyph-name="breve" horiz-adv-x="983" 
d="M152 1548l202.003 -0.000976562c12 -26 30.333 -46.167 55 -60.5s51.334 -21.5 80.001 -21.5c29.333 0 56.666 7.16699 81.999 21.5s43.333 34.5 54 60.5h202c-6.66699 -60 -25.334 -111.167 -56.001 -153.5s-70.167 -73.666 -118.5 -93.999s-102.833 -30.5 -163.5 -30.5
c-92.667 0 -169.334 23.833 -230.001 71.5s-96.334 116.5 -107.001 206.5z" />
    <glyph glyph-name="dotlessi" horiz-adv-x="492" 
d="M111 0v1135h272v-1135h-272z" />
    <glyph glyph-name="dotlessi" unicode="&#x131;" horiz-adv-x="492" 
d="M111 0v1135h272v-1135h-272z" />
    <glyph glyph-name="zcaron" horiz-adv-x="942" 
d="M41 0v242l504 651h-447v242h772v-242l-503 -651h538v-242h-864zM184 1450h224l84 -98l81 98h222l-224 -211h-159z" />
    <glyph glyph-name="Ydieresis" horiz-adv-x="1270" 
d="M504 0v559l-498 954h309l330 -696l330 696h307l-498 -954v-559h-280zM340 1655v196h217v-196h-217zM793 1655v196h217v-196h-217z" />
    <glyph glyph-name="Ydieresis" unicode="&#x178;" horiz-adv-x="1270" 
d="M504 0v559l-498 954h309l330 -696l330 696h307l-498 -954v-559h-280zM340 1655v196h217v-196h-217zM793 1655v196h217v-196h-217z" />
    <glyph glyph-name="fl" unicode="&#xa0;" horiz-adv-x="1065" 
d="M113 0l-0.00292969 893h-97v242h97c2 56 11.667 108 29 156s41.833 90.833 73.5 128.5s70.834 67.5 117.501 89.5s97.334 33 152.001 33l74 -4v-264c-63.333 0 -107.166 -8.33301 -131.499 -25s-38.5 -54.667 -42.5 -114h160v-242h-160v-893h-272zM943.997 1513v-1513
h-272v1513h272z" />
    <glyph glyph-name="exclamdown" unicode="&#xa1;" horiz-adv-x="573" 
d="M147 750h273v-1129h-273v1129zM147 1135h273v-261h-273v261z" />
    <glyph glyph-name="cent" unicode="&#xa2;" horiz-adv-x="1147" 
d="M702 80l-255.998 0.00195312v223c-69.333 12 -132 42.5 -188 91.5s-99.667 108.667 -131 179s-47 139.833 -47 208.5c0 51.333 9.16699 103.666 27.5 156.999s44 101.666 77 144.999s72 80 117 110s93.167 49.667 144.5 59v207h256v-207
c44 -10.667 84.5 -26.5 121.5 -47.5s70.5 -46.5 100.5 -76.5s56.167 -65 78.5 -105s37.166 -79.667 44.499 -119h-287c-16.667 30 -43.334 53.5 -80.001 70.5s-73.667 25.5 -111 25.5c-41.333 0 -78.666 -10.167 -111.999 -30.5s-59.5 -47.833 -78.5 -82.5
s-28.5 -72.667 -28.5 -114c0 -64 21.667 -116.833 65 -158.5s96.666 -62.5 159.999 -62.5c35.333 0 66 6.83301 92 20.5s53 33.5 81 59.5h299c-71.333 -181.333 -186.333 -291.333 -345 -330v-223z" />
    <glyph glyph-name="sterling" unicode="&#xa3;" horiz-adv-x="1147" 
d="M82 0l0.00195312 257.998h285c24 40.667 36 88.334 36 143.001c0 45.333 -9.83301 86.5 -29.5 123.5s-47.834 73.833 -84.501 110.5h-289v256h115c-22 48.667 -33 102 -33 160c0 86 22.167 167 66.5 243s104.166 136.333 179.499 181s156.333 67 243 67
c138 0 257 -54 357 -162c34 -36 63.333 -79.5 88 -130.5s37 -98.167 37 -141.5h-275c-8 47.333 -31.833 87.166 -71.5 119.499s-84.167 48.5 -133.5 48.5c-42 0 -79.833 -10.667 -113.5 -32s-59.667 -50.5 -78 -87.5s-27.5 -75.833 -27.5 -116.5
c0 -56 18.667 -105.667 56 -149h426v-256h-222c41.333 -75.333 62 -158.666 62 -249.999c0 -46.667 -7 -89 -21 -127l21 -2c39.333 0 74.5 8.66699 105.5 26s55.333 41.333 73 72s26.5 66.334 26.5 107.001c0 16 -6.33301 48.667 -19 98h271c13.333 -24 20 -58.667 20 -104
c0 -42 -6.66699 -85 -20 -129s-32 -84.667 -56 -122s-52.667 -69 -86 -95c-51.333 -42.667 -104.833 -71.5 -160.5 -86.5s-120.167 -22.5 -193.5 -22.5h-555z" />
    <glyph glyph-name="currency" unicode="&#xa4;" horiz-adv-x="1147" 
d="M55 465l90.001 90.002c-26 48 -45 91.833 -57 131.5s-18 83.167 -18 130.5c0 50 6.16699 96.5 18.5 139.5s31.166 85.833 56.499 128.5l-90 89l162 163l90 -90c37.333 23.333 80.166 42.166 128.499 56.499s93.5 21.5 135.5 21.5c32 0 64.333 -3.16699 97 -9.5
s64.334 -15.333 95.001 -27s58.334 -25.5 83.001 -41.5l90 90l158 -163l-90 -89c51.333 -81.333 77 -170 77 -266c0 -48 -6.33301 -94.833 -19 -140.5s-32 -86.834 -58 -123.501l90 -90l-158 -162l-90 90c-89.333 -53.333 -177.333 -80 -264 -80
c-100.667 0 -192.334 26.667 -275.001 80l-90 -90zM575.001 567.002c47.333 0 90.166 11.667 128.499 35s68.5 54.333 90.5 93s33 80 33 124s-11 85.333 -33 124s-52.167 69.667 -90.5 93s-81.166 35 -128.499 35c-46.667 0 -89.167 -11.667 -127.5 -35
s-68.5 -54.333 -90.5 -93s-33 -80 -33 -124s11 -85.333 33 -124s52.167 -69.667 90.5 -93s80.833 -35 127.5 -35z" />
    <glyph glyph-name="yen" unicode="&#xa5;" horiz-adv-x="1147" 
d="M426 0v381h-391v180h391l-115 217h-291v180h195l-287 555h308l329 -698l330 698h311l-288 -555h194v-180h-289l-116 -217h389v-180h-389v-381h-281z" />
    <glyph glyph-name="brokenbar" unicode="&#xa6;" horiz-adv-x="1229" 
d="M498 0v606h243v-606h-243zM498 907v606h243v-606h-243z" />
    <glyph glyph-name="section" unicode="&#xa7;" horiz-adv-x="1147" 
d="M1022 1188l-256 -0.00488281c-4 46.667 -22.833 80.834 -56.5 102.501s-75.5 32.5 -125.5 32.5c-39.333 0 -72.5 -7.66699 -99.5 -23s-40.5 -41 -40.5 -77c0 -23.333 8.33301 -44.833 25 -64.5s33.167 -34.834 49.5 -45.501s41.5 -25.334 75.5 -44.001l293 -147
c29.333 -15.333 56.666 -32.833 81.999 -52.5s45.666 -41.167 60.999 -64.5c35.333 -54.667 53 -114.667 53 -180c0 -56 -14.333 -109.333 -43 -160s-66.667 -93 -114 -127c36.667 -36.667 62.5 -74.5 77.5 -113.5s22.5 -85.167 22.5 -138.5
c0 -59.333 -12 -112.166 -36 -158.499s-56.5 -85.5 -97.5 -117.5s-87.667 -56.5 -140 -73.5s-107.166 -25.5 -164.499 -25.5c-84 0 -161.833 17.833 -233.5 53.5s-128.667 86.5 -171 152.5s-63.833 141.333 -64.5 226h270c0 -59.333 19.5 -104.5 58.5 -135.5
s87.167 -46.5 144.5 -46.5c44 0 84.667 11 122 33s56 52.667 56 92c0 40.667 -12.833 70.834 -38.5 90.501s-68.167 44.834 -127.5 75.501l-297 156c-49.333 26 -90.666 54.333 -123.999 85s-58.5 66.334 -75.5 107.001s-25.5 87.667 -25.5 141
c0 128 55.333 227.667 166 299c-40 60.667 -60 125 -60 193c0 72.667 19.5 134.834 58.5 186.501s90 90.167 153 115.5s130.5 38 202.5 38c59.333 0 114 -8.66699 164 -26s93.5 -42.666 130.5 -75.999s66.167 -73.5 87.5 -120.5s34 -101.167 38 -162.5zM463 617.995
l290.999 -148.999c26 16 46.5 35.667 61.5 59s22.5 48 22.5 74c0 32.667 -13 58.5 -39 77.5s-61 38.833 -105 59.5l-288 150c-22 -15.333 -42 -35.5 -60 -60.5s-27 -49.167 -27 -72.5c0 -30 11.333 -53.333 34 -70s59.334 -39.334 110.001 -68.001z" />
    <glyph glyph-name="dieresis" unicode="&#xa8;" horiz-adv-x="1024" 
d="M152 1270v196h217v-196h-217zM602 1276v197h217v-197h-217z" />
    <glyph glyph-name="copyright" unicode="&#xa9;" horiz-adv-x="1516" 
d="M766 -37c-142.667 0 -274.834 35.334 -396.501 106.001s-217.834 166.667 -288.501 288s-106 253.666 -106 396.999c0 142 35.333 273.5 106 394.5s166.834 216.833 288.501 287.5s253.834 106 396.501 106c141.333 0 272.666 -35.333 393.999 -106
s217.333 -166.5 288 -287.5s106 -252.5 106 -394.5c0 -143.333 -35.333 -275.833 -106 -397.5s-166.667 -217.667 -288 -288s-252.666 -105.5 -393.999 -105.5zM766 111.001c114 0 220.333 28.667 319 86s177 135.333 235 234s87 206.334 87 323.001
c0 116 -29 223.167 -87 321.5s-136.333 176.166 -235 233.499s-205 86 -319 86c-116 0 -223.5 -28.667 -322.5 -86s-177.167 -135.333 -234.5 -234s-86 -205.667 -86 -321c0 -116 28.667 -223.5 86 -322.5s135.5 -177.167 234.5 -234.5s206.5 -86 322.5 -86zM989 610.001
l178.006 0.00195312c-6.66699 -61.333 -27.334 -115 -62.001 -161s-78.834 -81.5 -132.501 -106.5s-110.834 -37.5 -171.501 -37.5c-86.667 0 -163.167 19.833 -229.5 59.5s-117.833 94 -154.5 163s-55 146.5 -55 232.5c0 86.667 17.5 164.5 52.5 233.5
s85.167 123 150.5 162s142 58.5 230 58.5c97.333 0 179.666 -26.5 246.999 -79.5s109 -126.167 125 -219.5h-178c-8.66699 49.333 -30.834 87.666 -66.501 114.999s-78.834 41 -129.501 41c-80 0 -142 -30.167 -186 -90.5s-66 -131.833 -66 -214.5
c0 -52.667 10.167 -103.5 30.5 -152.5s50.333 -88.667 90 -119s86.167 -45.5 139.5 -45.5c30.667 0 60.167 6.83301 88.5 20.5s51.5 32.667 69.5 57s28 52.166 30 83.499z" />
    <glyph glyph-name="ordfeminine" unicode="&#xaa;" horiz-adv-x="737" 
d="M700 1524l-0.000976562 -611h-135v84h-4c-21.333 -32.667 -51.166 -57.834 -89.499 -75.501s-78.833 -26.5 -121.5 -26.5c-86 0 -156.333 31.833 -211 95.5s-82 139.834 -82 228.501c0 90.667 28.5 167.167 85.5 229.5s130.167 93.5 219.5 93.5c42 0 80.167 -9 114.5 -27
s62.5 -43.667 84.5 -77h4v86h135zM386.999 1036c51.333 0 93.167 17.501 125.5 52.501s48.5 78.5 48.5 130.5s-16.5 95.333 -49.5 130s-75.167 52 -126.5 52c-54 0 -97.833 -17.833 -131.5 -53.5s-50.5 -80.834 -50.5 -135.501c0 -50.667 18 -92.667 54 -126
s79.333 -50 130 -50zM63 647.001v129h637v-129h-637z" />
    <glyph glyph-name="guillemotleft" unicode="&#xab;" horiz-adv-x="942" 
d="M795 279l-285 268v207l285 266v-252l-138 -117l138 -121v-251zM358 279l-284 268v207l284 266v-252l-137 -117l137 -121v-251z" />
    <glyph glyph-name="logicalnot" unicode="&#xac;" horiz-adv-x="1229" 
d="M895 373v354h-791v242h1033v-596h-242z" />
    <glyph glyph-name="minus" unicode="&#xad;" horiz-adv-x="1229" 
d="M104 532v238h1033v-238h-1033z" />
    <glyph glyph-name="registered" unicode="&#xae;" horiz-adv-x="1516" 
d="M766 -37c-142.667 0 -274.834 35.334 -396.501 106.001s-217.834 166.667 -288.501 288s-106 253.666 -106 396.999c0 142 35.333 273.5 106 394.5s166.834 216.833 288.501 287.5s253.834 106 396.501 106c141.333 0 272.666 -35.333 393.999 -106
s217.333 -166.5 288 -287.5s106 -252.5 106 -394.5c0 -143.333 -35.333 -275.833 -106 -397.5s-166.667 -217.667 -288 -288s-252.666 -105.5 -393.999 -105.5zM766 111.001c114.667 0 221.334 28.667 320.001 86s176.834 135.5 234.501 234.5s86.5 206.5 86.5 322.5
c0 115.333 -28.833 222.333 -86.5 321s-135.834 176.667 -234.501 234s-205.334 86 -320.001 86c-116 0 -223.5 -28.667 -322.5 -86s-177.167 -135.333 -234.5 -234s-86 -205.667 -86 -321c0 -116 28.667 -223.5 86 -322.5s135.5 -177.167 234.5 -234.5s206.5 -86 322.5 -86
zM950 684.001l206.999 -360h-192l-191 360h-168v-360h-166v852h412c52.667 0 97.334 -2.5 134.001 -7.5s69 -16.167 97 -33.5c67.333 -46 101 -120 101 -222c0 -75.333 -19.5 -131 -58.5 -167s-97.5 -56.667 -175.5 -62zM605.999 811.001h252c52 0 91.333 8.83301 118 26.5
s40 51.167 40 100.5c0 50 -18.5 81.667 -55.5 95s-86.167 20 -147.5 20h-207v-242z" />
    <glyph glyph-name="macron" unicode="&#xaf;" horiz-adv-x="860" 
d="M152 1270v225h567v-225h-567z" />
    <glyph glyph-name="ring" unicode="&#xb0;" horiz-adv-x="737" 
d="M362 1692c39.333 0 75 -9.5 107 -28.5s57.333 -44.5 76 -76.5s28 -67.333 28 -106c0 -59.333 -20.667 -109.333 -62 -150s-91 -61 -149 -61c-57.333 0 -106.666 20.667 -147.999 62s-62 91 -62 149s20.667 107.667 62 149s90.666 62 147.999 62zM362 1405
c22 0 40.168 7.49902 54.501 22.499s21.5 32.833 21.5 53.5c0 20 -7.16699 37.5 -21.5 52.5s-32.5 22.5 -54.5 22.5c-20.667 0 -38.334 -7.66699 -53.001 -23s-22 -32.666 -22 -51.999s7.5 -36.833 22.5 -52.5s32.5 -23.5 52.5 -23.5z" />
    <glyph glyph-name="plusminus" unicode="&#xb1;" horiz-adv-x="1229" 
d="M502 887v280h237v-280h398v-238h-398v-293h-237v293h-398v238h398zM104 0v238h1033v-238h-1033z" />
    <glyph glyph-name="twosuperior" unicode="&#xb2;" horiz-adv-x="688" 
d="M31 606l-0.000976562 156.001l340 291c38 32.667 67.167 62.667 87.5 90s30.5 59.333 30.5 96c0 38.667 -13.167 70.5 -39.5 95.5s-60.166 37.5 -101.499 37.5c-48 0 -85.167 -15.833 -111.5 -47.5s-39.5 -73.167 -39.5 -124.5h-177v35
c0 53.333 14.167 102.666 42.5 147.999s67 81.5 116 108.5s102.167 40.5 159.5 40.5c62 0 118 -13 168 -39s89.5 -62.333 118.5 -109s43.5 -97.667 43.5 -153c0 -66 -26 -131 -78 -195l-123 -121l-188 -153h389v-156h-637z" />
    <glyph glyph-name="threesuperior" unicode="&#xb3;" horiz-adv-x="688" 
d="M276 1042l0.00195312 156h13c42 0 76 6.66699 102 20s39 38 39 74c0 16.667 -3.83301 30.834 -11.5 42.501s-18.334 20.834 -32.001 27.501s-29.834 10 -48.501 10c-24 0 -43.333 -7 -58 -21s-22 -32.333 -22 -55h-178c0 41.333 11.667 80.5 35 117.5s55 66 95 87
s82.667 31.5 128 31.5c46 0 90 -10.833 132 -32.5s75.5 -50.834 100.5 -87.501s37.5 -77.334 37.5 -122.001c0 -34.667 -7 -65.667 -21 -93s-35.667 -50.333 -65 -69c51.333 -16 90.166 -46.333 116.499 -91s39.5 -94.667 39.5 -150c0 -57.333 -15.333 -109 -46 -155
s-72.5 -81.833 -125.5 -107.5s-109.833 -38.5 -170.5 -38.5c-58 0 -111.5 12.833 -160.5 38.5s-88.667 61 -119 106s-46.5 93.833 -48.5 146.5h178c2 -37.333 18.667 -68.666 50 -93.999s68 -38 110 -38c42.667 0 79.334 14 110.001 42s46 61.333 46 100
c0 53.333 -23.333 95.666 -70 126.999c-33.333 18.667 -79 28 -137 28h-19z" />
    <glyph glyph-name="acute" unicode="&#xb4;" horiz-adv-x="860" 
d="M254 1255l-102 189l460 272l109 -213z" />
    <glyph glyph-name="mu" unicode="&#xb5;" horiz-adv-x="1180" 
d="M1120 0l-250.001 0.000976562v121h-4c-54 -105.333 -150 -158 -288 -158c-71.333 0 -136.333 13 -195 39v-381h-272v1514h272v-557c0 -108 11.667 -185.333 35 -232c18.667 -36.667 45.334 -65.334 80.001 -86.001s72.667 -31 114 -31c93.333 0 156 32.5 188 97.5
s48 148.833 48 251.5v557h272v-1135z" />
    <glyph glyph-name="paragraph" unicode="&#xb6;" horiz-adv-x="1229" 
d="M700 1294v-1556h-204v938c-77.333 0 -148 18.833 -212 56.5s-114.667 88.667 -152 153s-56 133.833 -56 208.5c0 128 47.667 233.667 143 317c52 44 102.5 71.667 151.5 83s115.167 17 198.5 17h510v-1773h-211v1556h-168z" />
    <glyph glyph-name="periodcentered" unicode="&#xb7;" horiz-adv-x="573" 
d="M147 514l273 469h217v-197h-217v-272h-273z" />
    <glyph glyph-name="periodcentered" unicode="&#x2219;" horiz-adv-x="573" 
d="M147 514l273 469h217v-197h-217v-272h-273z" />
    <glyph glyph-name="cedilla" unicode="&#xb8;" horiz-adv-x="696" 
d="M223 0l109.001 -0.00195312l-41 -117c11.333 2.66699 23.666 5.16699 36.999 7.5s23.333 3.5 30 3.5c48 0 93.333 -20 136 -60c39.333 -37.333 59 -86.333 59 -147c0 -57.333 -19.833 -105.166 -59.5 -143.499s-88.167 -57.5 -145.5 -57.5
c-48 0 -92.167 16.333 -132.5 49s-61.5 72.334 -63.5 119.001h102c4 -19.333 15.833 -35.166 35.5 -47.499s40.5 -18.5 62.5 -18.5c26 0 47.833 10.167 65.5 30.5s26.5 43.833 26.5 70.5c0 29.333 -9.33301 53.666 -28 72.999s-42.667 29 -72 29
c-40.667 0 -70 -18.333 -88 -55l-104 26z" />
    <glyph glyph-name="onesuperior" unicode="&#xb9;" horiz-adv-x="688" 
d="M315 606v752h-122v155h301v-907h-179z" />
    <glyph glyph-name="degree" unicode="&#xba;" horiz-adv-x="819" 
d="M717 1206c0 -55.333 -13.8359 -106.497 -41.5029 -153.497s-65.167 -84.333 -112.5 -112s-98.333 -41.5 -153 -41.5c-85.333 0 -158 30 -218 90s-90 132.333 -90 217c0 54.667 13.667 105.5 41 152.5s64.833 84.5 112.5 112.5s99.167 42 154.5 42
c40.667 0 79.834 -7.83301 117.501 -23.5s70.834 -37.834 99.501 -66.501s50.834 -61.834 66.501 -99.501s23.5 -76.834 23.5 -117.501zM593.997 1206c0 51.333 -17.999 95 -53.999 131s-80 54 -132 54c-50.667 0 -93.834 -18.167 -129.501 -54.5
s-53.5 -79.833 -53.5 -130.5s18 -94 54 -130s79.667 -54 131 -54c49.333 0 92.333 18 129 54s55 79.333 55 130z" />
    <glyph glyph-name="guillemotright" unicode="&#xbb;" horiz-adv-x="942" 
d="M150 279v251l139 121l-139 117v252l284 -266v-207zM586 279v251l139 121l-139 117v252l284 -266v-207z" />
    <glyph glyph-name="onequarter" unicode="&#xbc;" horiz-adv-x="1720" 
d="M461 0l626 1513h195l-627 -1513h-194zM315 606v752h-122v155h301v-907h-179zM1432 0v135h-424v133l452 639h148v-616h104v-156h-104v-135h-176zM1432 291v340l-236 -340h236z" />
    <glyph glyph-name="onehalf" unicode="&#xbd;" horiz-adv-x="1720" 
d="M420 0l627 1513h194l-627 -1513h-194zM315 606v752h-122v155h301v-907h-179zM1063 0v155.999l340 290c38 32.667 67.333 62.834 88 90.501s31 59.834 31 96.501c0 38.667 -13.167 70.5 -39.5 95.5s-60.5 37.5 -102.5 37.5c-48 0 -85.167 -15.833 -111.5 -47.5
s-39.5 -73.167 -39.5 -124.5h-176v35c0 53.333 14 102.666 42 147.999s66.5 81.5 115.5 108.5s102.167 40.5 159.5 40.5c62 0 118 -13 168 -39s89.5 -62.333 118.5 -109s43.5 -97.667 43.5 -153c0 -66.667 -26 -131.667 -78 -195l-123 -121l-188 -153h389v-156h-637z" />
    <glyph glyph-name="threequarters" unicode="&#xbe;" horiz-adv-x="1720" 
d="M502 0l626 1513h195l-627 -1513h-194zM276 1042l0.00195312 156h13c42 0 76 6.66699 102 20s39 38 39 74c0 16.667 -3.83301 30.834 -11.5 42.501s-18.334 20.834 -32.001 27.501s-29.834 10 -48.501 10c-24 0 -43.333 -7 -58 -21s-22 -32.333 -22 -55h-178
c0 41.333 11.667 80.5 35 117.5s55 66 95 87s82.667 31.5 128 31.5c46 0 90 -10.833 132 -32.5s75.5 -50.834 100.5 -87.501s37.5 -77.334 37.5 -122.001c0 -34.667 -7 -65.667 -21 -93s-35.667 -50.333 -65 -69c51.333 -16 90.166 -46.333 116.499 -91
s39.5 -94.667 39.5 -150c0 -57.333 -15.333 -109 -46 -155s-72.5 -81.833 -125.5 -107.5s-109.833 -38.5 -170.5 -38.5c-58 0 -111.5 12.833 -160.5 38.5s-88.667 61 -119 106s-46.5 93.833 -48.5 146.5h178c2 -37.333 18.667 -68.666 50 -93.999s68 -38 110 -38
c42.667 0 79.334 14 110.001 42s46 61.333 46 100c0 53.333 -23.333 95.666 -70 126.999c-33.333 18.667 -79 28 -137 28h-19zM1432 0v135h-424v133l452 639h148v-616h104v-156h-104v-135h-176zM1432 291v340l-236 -340h236z" />
    <glyph glyph-name="questiondown" unicode="&#xbf;" horiz-adv-x="1147" 
d="M477 750l273.002 -0.00195312v-60c0 -87.333 -17.333 -167 -52 -239c-18 -40.667 -38.167 -73.5 -60.5 -98.5s-55.833 -56.5 -100.5 -94.5c-40 -31.333 -70.5 -61.666 -91.5 -90.999s-31.5 -65.333 -31.5 -108c0 -58.667 17 -105.667 51 -141s81 -53 141 -53
c59.333 0 105 18.333 137 55s50 85.334 54 146.001h272c-10 -125.333 -42.667 -223 -98 -293c-42.667 -55.333 -98.834 -99.333 -168.501 -132s-139.167 -49 -208.5 -49c-35.333 0 -72 5.16699 -110 15.5s-74.167 25.5 -108.5 45.5s-64.5 42.667 -90.5 68
c-96 92 -144 209.667 -144 353c0 46.667 9.16699 91 27.5 133s42 80 71 114s65.167 70.333 108.5 109c45.333 40 78.166 77.667 98.499 113s30.5 81 30.5 137v70zM750.002 1135v-261h-273v261h273z" />
    <glyph glyph-name="Agrave" unicode="&#xc0;" horiz-adv-x="1516" 
d="M14 0l631 1513h219l637 -1513h-309l-164 391h-536l-168 -391h-310zM594 664h324l-162 458zM502 1806l86 158l340 -207l-80 -141z" />
    <glyph glyph-name="Aacute" unicode="&#xc1;" horiz-adv-x="1516" 
d="M14 0l631 1513h219l637 -1513h-309l-164 391h-536l-168 -391h-310zM594 664h324l-162 458zM637 1628l-74 141l344 203l80 -160z" />
    <glyph glyph-name="Acircumflex" unicode="&#xc2;" horiz-adv-x="1516" 
d="M14 0l631 1513h219l637 -1513h-309l-164 391h-536l-168 -391h-310zM594 664h324l-162 458zM457 1616l225 211h160l223 -211h-221l-82 98l-84 -98h-221z" />
    <glyph glyph-name="Atilde" unicode="&#xc3;" horiz-adv-x="1516" 
d="M14 0l631 1513h219l637 -1513h-309l-164 391h-536l-168 -391h-310zM594 664h324l-162 458zM584 1622l-76.001 135c38.667 36.667 89 55 151 55c26.667 0 58.834 -7.16699 96.501 -21.5s62.167 -21.5 73.5 -21.5c36.667 0 71.667 13.667 105 41l76 -129
c-48 -43.333 -96.667 -65 -146 -65c-20 0 -40.167 3.33301 -60.5 10l-61 19.5c-20.333 6.33301 -39.833 9.5 -58.5 9.5c-36 0 -69.333 -11 -100 -33z" />
    <glyph glyph-name="Adieresis" unicode="&#xc4;" horiz-adv-x="1516" 
d="M14 0l631 1513h219l637 -1513h-309l-164 391h-536l-168 -391h-310zM594 664h324l-162 458zM416 1626v197h217v-197h-217zM868 1626v197h217v-197h-217z" />
    <glyph glyph-name="Aring" unicode="&#xc5;" horiz-adv-x="1516" 
d="M14 0l631 1513h219l637 -1513h-309l-164 391h-536l-168 -391h-310zM594 664h324l-162 458zM764 1954c24 0 45.834 -4.16797 65.501 -12.501s37.167 -20.166 52.5 -35.499s27.166 -32.833 35.499 -52.5s12.5 -41.5 12.5 -65.5c0 -46 -16.167 -85.167 -48.5 -117.5
s-71.5 -48.5 -117.5 -48.5c-45.333 0 -84.333 16.333 -117 49s-49 71.667 -49 117c0 46 16.167 85.167 48.5 117.5s71.5 48.5 117.5 48.5zM764.001 1724v1.99902c16.667 0 30.667 5.33301 42 16s17 24.667 17 42c0 16.667 -5.66699 30.667 -17 42s-25.333 17 -42 17
s-30.667 -6 -42 -18s-17 -25.667 -17 -41s5.83301 -29.166 17.5 -41.499s25.5 -18.5 41.5 -18.5z" />
    <glyph glyph-name="AE" unicode="&#xc6;" horiz-adv-x="1843" 
d="M35 0l999 1513h692v-272h-448v-348h426v-272h-426v-349h448v-272h-729v391h-401l-236 -391h-325zM762 664h235v389h-4z" />
    <glyph glyph-name="Ccedilla" unicode="&#xc7;" horiz-adv-x="1597" 
d="M1223 412l325 0.00195312c-36.667 -88.667 -91.667 -167.334 -165 -236.001s-156.666 -121.334 -249.999 -158.001s-189 -55 -287 -55c-105.333 0 -206 20.833 -302 62.5s-180 99.167 -252 172.5s-128.5 158.333 -169.5 255s-61.5 198.334 -61.5 305.001
c0 139.333 35.333 269.5 106 390.5s165.667 216.833 285 287.5s248 106 386 106c102 0 200.5 -18.667 295.5 -56s179.5 -90.833 253.5 -160.5s130.333 -151.167 169 -244.5h-319c-47.333 58 -106.5 104 -177.5 138s-144.167 51 -219.5 51c-91.333 0 -175 -23.833 -251 -71.5
s-136.167 -111.334 -180.5 -191.001s-66.5 -166.167 -66.5 -259.5c0 -88.667 22.833 -172.5 68.5 -251.5s107.167 -142.167 184.5 -189.5s159.666 -71 246.999 -71c143.333 0 270.333 58.667 381 176zM668 -17.998l88.001 -2.00098l-33 -93
c8 1.33301 16.167 2.83301 24.5 4.5s16.5 2.5 24.5 2.5c36.667 0 71.667 -15.333 105 -46c31.333 -29.333 47 -68 47 -116c0 -44.667 -15.833 -82.5 -47.5 -113.5s-69.834 -46.5 -114.501 -46.5c-38 0 -73.333 13.167 -106 39.5s-49.334 57.5 -50.001 93.5h82
c2.66699 -15.333 12.334 -27.666 29.001 -36.999s33 -14 49 -14c20.667 0 37.834 8.5 51.501 25.5s20.5 35.167 20.5 54.5c0 12 -1.66699 22.667 -5 32s-9 18 -17 26s-16.333 13.667 -25 17s-19 5 -31 5c-30.667 0 -53.334 -13.667 -68.001 -41l-82 20z" />
    <glyph glyph-name="Egrave" unicode="&#xc8;" horiz-adv-x="1065" 
d="M139 0v1513h813v-272h-532v-348h510v-272h-510v-349h532v-272h-813zM330 1827l86 158l340 -207l-80 -142z" />
    <glyph glyph-name="Eacute" unicode="&#xc9;" horiz-adv-x="1065" 
d="M139 0v1513h813v-272h-532v-348h510v-272h-510v-349h532v-272h-813zM475 1618l-74 141l344 203l80 -160z" />
    <glyph glyph-name="Ecircumflex" unicode="&#xca;" horiz-adv-x="1065" 
d="M139 0v1513h813v-272h-532v-348h510v-272h-510v-349h532v-272h-813zM231 1616l226 211h159l224 -211h-222l-81 98l-84 -98h-222z" />
    <glyph glyph-name="Edieresis" unicode="&#xcb;" horiz-adv-x="1065" 
d="M139 0v1513h813v-272h-532v-348h510v-272h-510v-349h532v-272h-813zM211 1636v197h217v-197h-217zM664 1636v197h217v-197h-217z" />
    <glyph glyph-name="Igrave" unicode="&#xcc;" horiz-adv-x="573" 
d="M139 0v1513h281v-1513h-281zM53 1847l86 158l340 -207l-80 -141z" />
    <glyph glyph-name="Iacute" unicode="&#xcd;" horiz-adv-x="573" 
d="M139 0v1513h281v-1513h-281zM168 1638l-74 142l344 202l80 -159z" />
    <glyph glyph-name="Icircumflex" unicode="&#xce;" horiz-adv-x="573" 
d="M139 0v1513h281v-1513h-281zM-25 1647l226 211h159l224 -211h-222l-81 98l-84 -98h-222z" />
    <glyph glyph-name="Idieresis" unicode="&#xcf;" horiz-adv-x="573" 
d="M139 0v1513h281v-1513h-281zM-55 1657v196h217v-196h-217zM397 1657v196h217v-196h-217z" />
    <glyph glyph-name="Eth" unicode="&#xd0;" horiz-adv-x="1520" 
d="M549 0h-323.999v655h-196v217h196v641h318c60.667 0 120.334 -2.66699 179.001 -8s113.5 -13.833 164.5 -25.5s101.833 -29.334 152.5 -53.001s97 -53.5 139 -89.5c81.333 -68 145 -155.5 191 -262.5s69 -215.167 69 -324.5c0 -52.667 -5.83301 -106 -17.5 -160
s-28.834 -106.333 -51.501 -157s-49.834 -97.667 -81.501 -141s-68.167 -82.666 -109.5 -117.999c-82 -70 -173.167 -116.5 -273.5 -139.5s-218.833 -34.5 -355.5 -34.5zM743.001 872l-0.000976562 -216.999h-237v-383h35c60 0 113.833 2 161.5 6s95 13.833 142 29.5
s90.5 38.167 130.5 67.5c58 44 102.833 98.833 134.5 164.5s47.5 135.834 47.5 210.501c0 52 -7.66699 103.167 -23 153.5s-38.166 96.666 -68.499 138.999s-66.833 78.5 -109.5 108.5c-57.333 39.333 -119.333 64.166 -186 74.499s-148 15.5 -244 15.5h-20v-369h237z" />
    <glyph glyph-name="Ntilde" unicode="&#xd1;" horiz-adv-x="1516" 
d="M139 0v1513h316l630 -1105v1105h281v-1513h-311l-635 1102v-1102h-281zM608 1634l-76.002 134.999c39.333 37.333 90 56 152 56c26.667 0 58.834 -7.16699 96.501 -21.5s62.167 -21.5 73.5 -21.5c38.667 0 73.334 13.667 104.001 41l76 -129
c-23.333 -21.333 -46.666 -37.666 -69.999 -48.999s-48.333 -17 -75 -17c-20 0 -40.333 3.33301 -61 10l-61.5 19.5c-20.333 6.33301 -39.5 9.5 -57.5 9.5c-36.667 0 -70.334 -11 -101.001 -33z" />
    <glyph glyph-name="Ograve" unicode="&#xd2;" horiz-adv-x="1720" 
d="M850 1542c142 0 273.5 -35.166 394.5 -105.499s216.833 -166.666 287.5 -288.999s106 -254.833 106 -397.5c0 -143.333 -35.5 -275.333 -106.5 -396s-166.833 -216 -287.5 -286s-252 -105 -394 -105c-104 0 -204.5 20.167 -301.5 60.5s-182.167 97 -255.5 170
s-130.333 157.667 -171 254s-61 197.166 -61 302.499c0 142.667 35.333 275.167 106 397.5s166.667 218.666 288 288.999s253 105.5 395 105.5zM850 1270c-93.333 0 -178.671 -22.9971 -256.004 -68.9971s-138.666 -108.5 -183.999 -187.5s-68 -164.833 -68 -257.5
c0 -67.333 13.333 -132.833 40 -196.5s63.834 -119.834 111.501 -168.501s102.167 -86.667 163.5 -114s125.666 -41 192.999 -41c90.667 0 174.834 23.667 252.501 71s139.667 111.166 186 191.499s69.5 166.166 69.5 257.499c0 92.667 -22.667 178.5 -68 257.5
s-106.666 141.5 -183.999 187.5s-162.666 69 -255.999 69zM665.995 1835l86 158l340 -207l-80 -141z" />
    <glyph glyph-name="Oacute" unicode="&#xd3;" horiz-adv-x="1720" 
d="M850 1542c142 0 273.5 -35.166 394.5 -105.499s216.833 -166.666 287.5 -288.999s106 -254.833 106 -397.5c0 -143.333 -35.5 -275.333 -106.5 -396s-166.833 -216 -287.5 -286s-252 -105 -394 -105c-104 0 -204.5 20.167 -301.5 60.5s-182.167 97 -255.5 170
s-130.333 157.667 -171 254s-61 197.166 -61 302.499c0 142.667 35.333 275.167 106 397.5s166.667 218.666 288 288.999s253 105.5 395 105.5zM850 1270c-93.333 0 -178.671 -22.9971 -256.004 -68.9971s-138.666 -108.5 -183.999 -187.5s-68 -164.833 -68 -257.5
c0 -67.333 13.333 -132.833 40 -196.5s63.834 -119.834 111.501 -168.501s102.167 -86.667 163.5 -114s125.666 -41 192.999 -41c90.667 0 174.834 23.667 252.501 71s139.667 111.166 186 191.499s69.5 166.166 69.5 257.499c0 92.667 -22.667 178.5 -68 257.5
s-106.666 141.5 -183.999 187.5s-162.666 69 -255.999 69zM769.995 1647l-74 141l344 203l80 -160z" />
    <glyph glyph-name="Ocircumflex" unicode="&#xd4;" horiz-adv-x="1720" 
d="M850 1542c142 0 273.5 -35.166 394.5 -105.499s216.833 -166.666 287.5 -288.999s106 -254.833 106 -397.5c0 -143.333 -35.5 -275.333 -106.5 -396s-166.833 -216 -287.5 -286s-252 -105 -394 -105c-104 0 -204.5 20.167 -301.5 60.5s-182.167 97 -255.5 170
s-130.333 157.667 -171 254s-61 197.166 -61 302.499c0 142.667 35.333 275.167 106 397.5s166.667 218.666 288 288.999s253 105.5 395 105.5zM850 1270c-93.333 0 -178.671 -22.9971 -256.004 -68.9971s-138.666 -108.5 -183.999 -187.5s-68 -164.833 -68 -257.5
c0 -67.333 13.333 -132.833 40 -196.5s63.834 -119.834 111.501 -168.501s102.167 -86.667 163.5 -114s125.666 -41 192.999 -41c90.667 0 174.834 23.667 252.501 71s139.667 111.166 186 191.499s69.5 166.166 69.5 257.499c0 92.667 -22.667 178.5 -68 257.5
s-106.666 141.5 -183.999 187.5s-162.666 69 -255.999 69zM542.995 1618l225 211h160l223 -211h-221l-82 98l-84 -98h-221z" />
    <glyph glyph-name="Otilde" unicode="&#xd5;" horiz-adv-x="1720" 
d="M850 1542c142 0 273.5 -35.166 394.5 -105.499s216.833 -166.666 287.5 -288.999s106 -254.833 106 -397.5c0 -143.333 -35.5 -275.333 -106.5 -396s-166.833 -216 -287.5 -286s-252 -105 -394 -105c-104 0 -204.5 20.167 -301.5 60.5s-182.167 97 -255.5 170
s-130.333 157.667 -171 254s-61 197.166 -61 302.499c0 142.667 35.333 275.167 106 397.5s166.667 218.666 288 288.999s253 105.5 395 105.5zM850 1270c-93.333 0 -178.671 -22.9971 -256.004 -68.9971s-138.666 -108.5 -183.999 -187.5s-68 -164.833 -68 -257.5
c0 -67.333 13.333 -132.833 40 -196.5s63.834 -119.834 111.501 -168.501s102.167 -86.667 163.5 -114s125.666 -41 192.999 -41c90.667 0 174.834 23.667 252.501 71s139.667 111.166 186 191.499s69.5 166.166 69.5 257.499c0 92.667 -22.667 178.5 -68 257.5
s-106.666 141.5 -183.999 187.5s-162.666 69 -255.999 69zM675.995 1651l-76.002 135c38.667 36.667 89.334 55 152.001 55c25.333 0 56.833 -7.16699 94.5 -21.5s62.834 -21.5 75.501 -21.5c36 0 70.667 13.667 104 41l76 -129c-48 -43.333 -96.667 -65 -146 -65
c-20 0 -40.167 3.16699 -60.5 9.5l-61 19c-20.333 6.33301 -39.833 9.5 -58.5 9.5c-36 0 -69.333 -10.667 -100 -32z" />
    <glyph glyph-name="Odieresis" unicode="&#xd6;" horiz-adv-x="1720" 
d="M850 1542c142 0 273.5 -35.166 394.5 -105.499s216.833 -166.666 287.5 -288.999s106 -254.833 106 -397.5c0 -143.333 -35.5 -275.333 -106.5 -396s-166.833 -216 -287.5 -286s-252 -105 -394 -105c-104 0 -204.5 20.167 -301.5 60.5s-182.167 97 -255.5 170
s-130.333 157.667 -171 254s-61 197.166 -61 302.499c0 142.667 35.333 275.167 106 397.5s166.667 218.666 288 288.999s253 105.5 395 105.5zM850 1270c-93.333 0 -178.671 -22.9971 -256.004 -68.9971s-138.666 -108.5 -183.999 -187.5s-68 -164.833 -68 -257.5
c0 -67.333 13.333 -132.833 40 -196.5s63.834 -119.834 111.501 -168.501s102.167 -86.667 163.5 -114s125.666 -41 192.999 -41c90.667 0 174.834 23.667 252.501 71s139.667 111.166 186 191.499s69.5 166.166 69.5 257.499c0 92.667 -22.667 178.5 -68 257.5
s-106.666 141.5 -183.999 187.5s-162.666 69 -255.999 69zM501.995 1628v197h217v-197h-217zM953.995 1628v197h217v-197h-217z" />
    <glyph glyph-name="multiply" unicode="&#xd7;" horiz-adv-x="1229" 
d="M453 651l-349 348l168 168l349 -348l348 348l168 -168l-349 -348l349 -348l-168 -168l-348 348l-349 -348l-168 168z" />
    <glyph glyph-name="Oslash" unicode="&#xd8;" horiz-adv-x="1720" 
d="M1313 1665l222.999 -153.997l-131 -190c50.667 -49.333 93.834 -105.166 129.501 -167.499s63 -128.333 82 -198s28.5 -140.5 28.5 -212.5c0 -100.667 -21.167 -199.167 -63.5 -295.5s-99.833 -180.5 -172.5 -252.5c-47.333 -48 -101.666 -89.833 -162.999 -125.5
s-125.166 -62.334 -191.499 -80.001s-134.5 -26.5 -204.5 -26.5c-54.667 0 -105.334 5.66699 -152.001 17s-102 29 -166 53l-122 -176l-226 153l123 176c-50.667 47.333 -94.5 101.166 -131.5 161.499s-65.333 123.666 -85 189.999s-29.5 134.833 -29.5 205.5
c0 110.667 20.167 214.5 60.5 311.5s97.333 182.333 171 256s159.834 130.667 258.501 171s203 60.5 313 60.5c36 0 71.667 -2.5 107 -7.5s69.166 -12.333 101.499 -22s70.166 -22.834 113.499 -39.501zM466.999 424.003l547 805c-60 26 -110 39.667 -150 41
c-151.333 0 -277 -54 -377 -162c-45.333 -47.333 -80.833 -101.833 -106.5 -163.5s-38.5 -124.5 -38.5 -188.5c0 -112 41.667 -222.667 125 -332zM1243 1079l-549 -806.999c51.333 -24 100 -36 146 -36c67.333 0 132.333 13.167 195 39.5s119 63.5 169 111.5
c49.333 46.667 88.333 101.667 117 165s43 127 43 191c0 62 -10.333 122.667 -31 182s-50.667 110.666 -90 153.999z" />
    <glyph glyph-name="Ugrave" unicode="&#xd9;" horiz-adv-x="1311" 
d="M139 1513l281.002 -0.00390625v-944c0 -46.667 1.5 -84.5 4.5 -113.5s11.167 -59.167 24.5 -90.5c20 -39.333 47.667 -70.666 83 -93.999s74.333 -35 117 -35c38 0 74.667 10 110 30s62.333 45.333 81 76s30.167 63 34.5 97s6.5 77.333 6.5 130v944h280v-944
c0 -88.667 -7 -165.167 -21 -229.5s-43.667 -124.166 -89 -179.499c-34 -40.667 -72.333 -75.5 -115 -104.5s-88.667 -51.667 -138 -68s-99 -24.5 -149 -24.5c-68.667 0 -138.334 17.167 -209.001 51.5s-130 78.5 -178 132.5c-33.333 38 -59.333 79.833 -78 125.5
s-30.834 90.834 -36.501 135.501s-8.5 98.334 -8.5 161.001v944zM455.002 1817l86 157l340 -207l-80 -141z" />
    <glyph glyph-name="Uacute" unicode="&#xda;" horiz-adv-x="1311" 
d="M139 1513l281.002 -0.00390625v-944c0 -46.667 1.5 -84.5 4.5 -113.5s11.167 -59.167 24.5 -90.5c20 -39.333 47.667 -70.666 83 -93.999s74.333 -35 117 -35c38 0 74.667 10 110 30s62.333 45.333 81 76s30.167 63 34.5 97s6.5 77.333 6.5 130v944h280v-944
c0 -88.667 -7 -165.167 -21 -229.5s-43.667 -124.166 -89 -179.499c-34 -40.667 -72.333 -75.5 -115 -104.5s-88.667 -51.667 -138 -68s-99 -24.5 -149 -24.5c-68.667 0 -138.334 17.167 -209.001 51.5s-130 78.5 -178 132.5c-33.333 38 -59.333 79.833 -78 125.5
s-30.834 90.834 -36.501 135.501s-8.5 98.334 -8.5 161.001v944zM610.002 1638l-73 142l344 202l80 -159z" />
    <glyph glyph-name="Ucircumflex" unicode="&#xdb;" horiz-adv-x="1311" 
d="M139 1513l281.002 -0.00390625v-944c0 -46.667 1.5 -84.5 4.5 -113.5s11.167 -59.167 24.5 -90.5c20 -39.333 47.667 -70.666 83 -93.999s74.333 -35 117 -35c38 0 74.667 10 110 30s62.333 45.333 81 76s30.167 63 34.5 97s6.5 77.333 6.5 130v944h280v-944
c0 -88.667 -7 -165.167 -21 -229.5s-43.667 -124.166 -89 -179.499c-34 -40.667 -72.333 -75.5 -115 -104.5s-88.667 -51.667 -138 -68s-99 -24.5 -149 -24.5c-68.667 0 -138.334 17.167 -209.001 51.5s-130 78.5 -178 132.5c-33.333 38 -59.333 79.833 -78 125.5
s-30.834 90.834 -36.501 135.501s-8.5 98.334 -8.5 161.001v944zM369.002 1647l225 211h160l223 -211h-221l-82 98l-84 -98h-221z" />
    <glyph glyph-name="Udieresis" unicode="&#xdc;" horiz-adv-x="1311" 
d="M139 1513l281.002 -0.00390625v-944c0 -46.667 1.5 -84.5 4.5 -113.5s11.167 -59.167 24.5 -90.5c20 -39.333 47.667 -70.666 83 -93.999s74.333 -35 117 -35c38 0 74.667 10 110 30s62.333 45.333 81 76s30.167 63 34.5 97s6.5 77.333 6.5 130v944h280v-944
c0 -88.667 -7 -165.167 -21 -229.5s-43.667 -124.166 -89 -179.499c-34 -40.667 -72.333 -75.5 -115 -104.5s-88.667 -51.667 -138 -68s-99 -24.5 -149 -24.5c-68.667 0 -138.334 17.167 -209.001 51.5s-130 78.5 -178 132.5c-33.333 38 -59.333 79.833 -78 125.5
s-30.834 90.834 -36.501 135.501s-8.5 98.334 -8.5 161.001v944zM348.002 1626v197h217v-197h-217zM801.002 1626v197h217v-197h-217z" />
    <glyph glyph-name="Yacute" unicode="&#xdd;" horiz-adv-x="1270" 
d="M504 0v559l-498 954h309l330 -696l330 696h307l-498 -954v-559h-280zM604 1618l-74 141l344 203l80 -160z" />
    <glyph glyph-name="Thorn" unicode="&#xde;" horiz-adv-x="1147" 
d="M420 0l-281 -0.000976562v1513h281v-286h76h53c55.333 0 101 -1.66699 137 -5s72.167 -10.333 108.5 -21s73.166 -28.667 110.499 -54c62.667 -42 111.834 -97 147.501 -165s53.5 -140 53.5 -216c0 -49.333 -6.66699 -97.666 -20 -144.999s-34 -92 -62 -134
s-60.667 -78 -98 -108c-32.667 -26 -70 -45.833 -112 -59.5s-85 -22.5 -129 -26.5s-92.667 -6 -146 -6h-64h-55v-287zM420 558.999l51 0.00195312c100 0 172.333 5.33301 217 16c42 14.667 75.333 38.667 100 72s37 71.666 37 114.999c0 46 -13.5 84.667 -40.5 116
s-61.833 52.666 -104.5 63.999c-41.333 8 -111 12 -209 12h-51v-395z" />
    <glyph glyph-name="germandbls" unicode="&#xdf;" horiz-adv-x="1229" 
d="M104 0l-0.000976562 973c0 81.333 6.33301 152.666 19 213.999s38 118.333 76 171c42 58 94.833 103.167 158.5 135.5s130.834 48.5 201.501 48.5c81.333 0 156.166 -18.5 224.499 -55.5s122.166 -88.667 161.499 -155s59 -140.166 59 -221.499
c0 -54.667 -11.5 -108 -34.5 -160s-56.833 -88.667 -101.5 -110v-4c64.667 -12.667 122 -37.334 172 -74.001s88.5 -82.5 115.5 -137.5s40.5 -115.833 40.5 -182.5c0 -93.333 -20.667 -176.166 -62 -248.499s-99.166 -128.833 -173.499 -169.5s-156.833 -61 -247.5 -61
c-175.333 0 -293.666 75.667 -354.999 227h-4v-190h-250zM376.999 389l174 -0.00195312c8 -45.333 30 -83.333 66 -114s76.667 -46 122 -46c54.667 0 99.167 18.667 133.5 56s51.5 84.333 51.5 141c0 46 -12.5 86.167 -37.5 120.5s-59.167 59.833 -102.5 76.5
c-32 10.667 -67.333 17.334 -106 20.001s-85.667 4 -141 4h-11v242h15c58 0 104.167 19.5 138.5 58.5s51.5 87.833 51.5 146.5c0 53.333 -15.167 97 -45.5 131s-72.5 51 -126.5 51c-74 0 -122.833 -24.167 -146.5 -72.5s-35.5 -114.166 -35.5 -197.499v-617z" />
    <glyph glyph-name="agrave" unicode="&#xe0;" horiz-adv-x="1352" 
d="M1260 1135v-1135h-250v154h-4c-41.333 -58 -97.833 -104.333 -169.5 -139s-143.5 -52 -215.5 -52c-84.667 0 -162.667 16.667 -234 50s-132.666 80.333 -183.999 141c-94.667 113.333 -142 251 -142 413c0 50.667 4.83301 100.167 14.5 148.5s25 93.333 46 135
s49.5 83.167 85.5 124.5c57.333 66.667 121.166 116 191.499 148s147.166 48 230.499 48c78 0 149.833 -16.667 215.5 -50s120.834 -82 165.501 -146v160h250zM1001 569c0 48 -8 92.5 -24 133.5s-38.333 76.5 -67 106.5s-63.334 53.5 -104.001 70.5s-84.667 25.5 -132 25.5
c-99.333 0 -180.833 -32.833 -244.5 -98.5s-95.5 -148.834 -95.5 -249.501c0 -92 33 -169.667 99 -233s145 -95 237 -95c64 0 121.333 14.833 172 44.5s89.834 70.334 117.501 122.001s41.5 109.5 41.5 173.5zM526 1464l86 158l340 -207l-80 -141z" />
    <glyph glyph-name="aacute" unicode="&#xe1;" horiz-adv-x="1352" 
d="M1260 1135v-1135h-250v154h-4c-41.333 -58 -97.833 -104.333 -169.5 -139s-143.5 -52 -215.5 -52c-84.667 0 -162.667 16.667 -234 50s-132.666 80.333 -183.999 141c-94.667 113.333 -142 251 -142 413c0 50.667 4.83301 100.167 14.5 148.5s25 93.333 46 135
s49.5 83.167 85.5 124.5c57.333 66.667 121.166 116 191.499 148s147.166 48 230.499 48c78 0 149.833 -16.667 215.5 -50s120.834 -82 165.501 -146v160h250zM1001 569c0 48 -8 92.5 -24 133.5s-38.333 76.5 -67 106.5s-63.334 53.5 -104.001 70.5s-84.667 25.5 -132 25.5
c-99.333 0 -180.833 -32.833 -244.5 -98.5s-95.5 -148.834 -95.5 -249.501c0 -92 33 -169.667 99 -233s145 -95 237 -95c64 0 121.333 14.833 172 44.5s89.834 70.334 117.501 122.001s41.5 109.5 41.5 173.5zM662 1296l-74 142l344 202l80 -159z" />
    <glyph glyph-name="acircumflex" unicode="&#xe2;" horiz-adv-x="1352" 
d="M1260 1135v-1135h-250v154h-4c-41.333 -58 -97.833 -104.333 -169.5 -139s-143.5 -52 -215.5 -52c-84.667 0 -162.667 16.667 -234 50s-132.666 80.333 -183.999 141c-94.667 113.333 -142 251 -142 413c0 50.667 4.83301 100.167 14.5 148.5s25 93.333 46 135
s49.5 83.167 85.5 124.5c57.333 66.667 121.166 116 191.499 148s147.166 48 230.499 48c78 0 149.833 -16.667 215.5 -50s120.834 -82 165.501 -146v160h250zM1001 569c0 48 -8 92.5 -24 133.5s-38.333 76.5 -67 106.5s-63.334 53.5 -104.001 70.5s-84.667 25.5 -132 25.5
c-99.333 0 -180.833 -32.833 -244.5 -98.5s-95.5 -148.834 -95.5 -249.501c0 -92 33 -169.667 99 -233s145 -95 237 -95c64 0 121.333 14.833 172 44.5s89.834 70.334 117.501 122.001s41.5 109.5 41.5 173.5zM397 1276l226 211h159l224 -211h-222l-82 98l-84 -98h-221z" />
    <glyph glyph-name="atilde" unicode="&#xe3;" horiz-adv-x="1352" 
d="M1260 1135v-1135h-250v154h-4c-41.333 -58 -97.833 -104.333 -169.5 -139s-143.5 -52 -215.5 -52c-84.667 0 -162.667 16.667 -234 50s-132.666 80.333 -183.999 141c-94.667 113.333 -142 251 -142 413c0 50.667 4.83301 100.167 14.5 148.5s25 93.333 46 135
s49.5 83.167 85.5 124.5c57.333 66.667 121.166 116 191.499 148s147.166 48 230.499 48c78 0 149.833 -16.667 215.5 -50s120.834 -82 165.501 -146v160h250zM1001 569c0 48 -8 92.5 -24 133.5s-38.333 76.5 -67 106.5s-63.334 53.5 -104.001 70.5s-84.667 25.5 -132 25.5
c-99.333 0 -180.833 -32.833 -244.5 -98.5s-95.5 -148.834 -95.5 -249.501c0 -92 33 -169.667 99 -233s145 -95 237 -95c64 0 121.333 14.833 172 44.5s89.834 70.334 117.501 122.001s41.5 109.5 41.5 173.5zM485 1280l-75.001 135c38.667 36.667 89 55 151 55
c26.667 0 58.834 -7.16699 96.501 -21.5s62.167 -21.5 73.5 -21.5c36.667 0 71.667 13.667 105 41l75 -129c-48 -43.333 -96.333 -65 -145 -65c-20 0 -40.333 3.33301 -61 10l-61.5 19.5c-20.333 6.33301 -39.5 9.5 -57.5 9.5c-35.333 0 -69 -11 -101 -33z" />
    <glyph glyph-name="adieresis" unicode="&#xe4;" horiz-adv-x="1352" 
d="M1260 1135v-1135h-250v154h-4c-41.333 -58 -97.833 -104.333 -169.5 -139s-143.5 -52 -215.5 -52c-84.667 0 -162.667 16.667 -234 50s-132.666 80.333 -183.999 141c-94.667 113.333 -142 251 -142 413c0 50.667 4.83301 100.167 14.5 148.5s25 93.333 46 135
s49.5 83.167 85.5 124.5c57.333 66.667 121.166 116 191.499 148s147.166 48 230.499 48c78 0 149.833 -16.667 215.5 -50s120.834 -82 165.501 -146v160h250zM1001 569c0 48 -8 92.5 -24 133.5s-38.333 76.5 -67 106.5s-63.334 53.5 -104.001 70.5s-84.667 25.5 -132 25.5
c-99.333 0 -180.833 -32.833 -244.5 -98.5s-95.5 -148.834 -95.5 -249.501c0 -92 33 -169.667 99 -233s145 -95 237 -95c64 0 121.333 14.833 172 44.5s89.834 70.334 117.501 122.001s41.5 109.5 41.5 173.5zM356 1307v196h217v-196h-217zM809 1307v196h217v-196h-217z" />
    <glyph glyph-name="aring" unicode="&#xe5;" horiz-adv-x="1352" 
d="M1260 1135v-1135h-250v154h-4c-41.333 -58 -97.833 -104.333 -169.5 -139s-143.5 -52 -215.5 -52c-84.667 0 -162.667 16.667 -234 50s-132.666 80.333 -183.999 141c-94.667 113.333 -142 251 -142 413c0 50.667 4.83301 100.167 14.5 148.5s25 93.333 46 135
s49.5 83.167 85.5 124.5c57.333 66.667 121.166 116 191.499 148s147.166 48 230.499 48c78 0 149.833 -16.667 215.5 -50s120.834 -82 165.501 -146v160h250zM1001 569c0 48 -8 92.5 -24 133.5s-38.333 76.5 -67 106.5s-63.334 53.5 -104.001 70.5s-84.667 25.5 -132 25.5
c-99.333 0 -180.833 -32.833 -244.5 -98.5s-95.5 -148.834 -95.5 -249.501c0 -92 33 -169.667 99 -233s145 -95 237 -95c64 0 121.333 14.833 172 44.5s89.834 70.334 117.501 122.001s41.5 109.5 41.5 173.5zM735 1614c24 0 45.834 -4.16797 65.501 -12.501
s37.167 -20.166 52.5 -35.499s27.166 -32.833 35.499 -52.5s12.5 -41.5 12.5 -65.5c0 -46 -16.167 -85.167 -48.5 -117.5s-71.5 -48.5 -117.5 -48.5c-45.333 0 -84.333 16.333 -117 49s-49 71.667 -49 117c0 46 16.167 85.167 48.5 117.5s71.5 48.5 117.5 48.5z
M735.001 1384v1.99902c18 0 32.5 5.5 43.5 16.5s16.5 24.833 16.5 41.5c0 16 -5.5 29.833 -16.5 41.5s-25.5 17.5 -43.5 17.5c-16.667 0 -30.667 -6 -42 -18s-17 -25.667 -17 -41s5.83301 -29.166 17.5 -41.499s25.5 -18.5 41.5 -18.5z" />
    <glyph glyph-name="ae" unicode="&#xe6;" horiz-adv-x="2212" 
d="M2136 446h-880.999c19.333 -64 57.833 -116.167 115.5 -156.5s119.5 -60.5 185.5 -60.5c48.667 0 96.334 9.16699 143.001 27.5s86 42.166 118 71.499h297c-28 -66 -69.833 -126.667 -125.5 -182s-120.834 -99.666 -195.501 -132.999s-150 -50 -226 -50
c-65.333 0 -127.5 12.5 -186.5 37.5s-104.833 62.5 -137.5 112.5v-150h-250v150c-37.333 -51.333 -86.333 -89.166 -147 -113.499s-126.334 -36.5 -197.001 -36.5c-78 0 -152.833 15.833 -224.5 47.5s-135 75.667 -190 132s-97.667 121.333 -128 195
s-45.5 148.834 -45.5 225.501c0 79.333 14.833 155.166 44.5 227.499s71.667 137.666 126 195.999s116.833 103.666 187.5 135.999s146 48.5 226 48.5c42 0 84.833 -5.16699 128.5 -15.5s84.667 -26.166 123 -47.499s70.5 -48 96.5 -80v143h250v-143
c39.333 47.333 89 83 149 107s121.667 36 185 36c80 0 154.833 -15.833 224.5 -47.5s131 -75 184 -130s94 -118.333 123 -190s43.5 -146.167 43.5 -223.5c0 -32 -5.33301 -76.667 -16 -134zM985.001 565c-1.33301 60 -16.166 115.833 -44.499 167.5
s-67.5 93.334 -117.5 125.001s-104.667 47.5 -164 47.5c-62 0 -117.667 -15.333 -167 -46s-88 -72.334 -116 -125.001s-42 -109.667 -42 -171c0 -58 14.333 -112.833 43 -164.5s67.667 -92.834 117 -123.501s103.666 -46 162.999 -46c60 0 115 15.333 165 46
s89.5 71.834 118.5 123.501s43.833 107.167 44.5 166.5zM1255 688h611c-16.667 44 -39.667 82.167 -69 114.5s-63.833 57.5 -103.5 75.5s-83.167 27 -130.5 27c-68 0 -130.833 -20.167 -188.5 -60.5s-97.5 -92.5 -119.5 -156.5z" />
    <glyph glyph-name="ccedilla" unicode="&#xe7;" horiz-adv-x="1311" 
d="M924 369l307 0.00195312c-25.333 -80.667 -66.166 -151.5 -122.499 -212.5s-123.166 -108.5 -200.499 -142.5s-157.333 -51 -240 -51c-76.667 0 -152.667 15.333 -228 46s-140 72 -194 124c-61.333 59.333 -107.5 127 -138.5 203s-46.5 155.667 -46.5 239
c0 82 15.667 159 47 231s75 135.667 131 191s120.833 98.166 194.5 128.499s151.167 45.5 232.5 45.5c83.333 0 164 -17.333 242 -52s145.667 -83.334 203 -146.001s97.333 -134.334 120 -215.001h-307c-58.667 98 -146 147 -262 147c-64 0 -120.833 -14.5 -170.5 -43.5
s-88.334 -69.167 -116.001 -120.5s-41.5 -108 -41.5 -170c0 -64.667 14.5 -123.167 43.5 -175.5s69.833 -93.166 122.5 -122.499s111.334 -44 176.001 -44c32.667 0 64.667 5.66699 96 17s60.166 27.5 86.499 48.5s48.166 45.833 65.499 74.5zM514 -30.998l88 -2.00098
l-33 -92c8 1.33301 14.667 2.33301 20 3s9.66602 1.33398 12.999 2.00098s8.66602 1 15.999 1c37.333 0 72.333 -15 105 -45c31.333 -29.333 47 -68.333 47 -117c0 -45.333 -15.5 -83.166 -46.5 -113.499s-69.5 -45.5 -115.5 -45.5c-38.667 0 -74 13.167 -106 39.5
s-48.333 57.5 -49 93.5h82c2.66699 -14.667 12.167 -26.834 28.5 -36.501s32.5 -14.5 48.5 -14.5c20.667 0 37.834 8.16699 51.501 24.5s20.5 34.5 20.5 54.5c0 12 -1.66699 22.667 -5 32s-9 18 -17 26s-16.333 13.667 -25 17s-19 5 -31 5
c-31.333 0 -53.666 -13.667 -66.999 -41l-82 21z" />
    <glyph glyph-name="egrave" unicode="&#xe8;" horiz-adv-x="1311" 
d="M1231 446l-880.997 -0.000976562c21.333 -66 59.5 -118.667 114.5 -158s116.5 -59 184.5 -59c50.667 0 99.167 8.83301 145.5 26.5s82.5 41.834 108.5 72.501h301c-22.667 -66.667 -61.834 -128 -117.501 -184s-121.334 -100.167 -197.001 -132.5
s-152.5 -48.5 -230.5 -48.5c-108.667 0 -208.667 26.667 -300 80s-163.833 126 -217.5 218s-80.5 191.333 -80.5 298c0 110.667 26.5 212.834 79.5 306.501s125.667 168 218 223s194.166 82.5 305.499 82.5c80 0 155.333 -15.833 226 -47.5s132.5 -75 185.5 -130
s94.5 -118.833 124.5 -191.5s45 -148.334 45 -227.001c0 -19.333 -4.66699 -62.333 -14 -129zM346.003 687.999h625c-14.667 44 -37.667 82.5 -69 115.5s-67.5 58.167 -108.5 75.5s-84.833 26 -131.5 26c-70 0 -135 -20.167 -195 -60.5s-100.333 -92.5 -121 -156.5z
M438.003 1464l86 158l340 -207l-80 -141z" />
    <glyph glyph-name="eacute" unicode="&#xe9;" horiz-adv-x="1311" 
d="M1231 446l-880.997 -0.000976562c21.333 -66 59.5 -118.667 114.5 -158s116.5 -59 184.5 -59c50.667 0 99.167 8.83301 145.5 26.5s82.5 41.834 108.5 72.501h301c-22.667 -66.667 -61.834 -128 -117.501 -184s-121.334 -100.167 -197.001 -132.5
s-152.5 -48.5 -230.5 -48.5c-108.667 0 -208.667 26.667 -300 80s-163.833 126 -217.5 218s-80.5 191.333 -80.5 298c0 110.667 26.5 212.834 79.5 306.501s125.667 168 218 223s194.166 82.5 305.499 82.5c80 0 155.333 -15.833 226 -47.5s132.5 -75 185.5 -130
s94.5 -118.833 124.5 -191.5s45 -148.334 45 -227.001c0 -19.333 -4.66699 -62.333 -14 -129zM346.003 687.999h625c-14.667 44 -37.667 82.5 -69 115.5s-67.5 58.167 -108.5 75.5s-84.833 26 -131.5 26c-70 0 -135 -20.167 -195 -60.5s-100.333 -92.5 -121 -156.5z
M573.003 1286l-73 141l344 203l80 -160z" />
    <glyph glyph-name="ecircumflex" unicode="&#xea;" horiz-adv-x="1311" 
d="M1231 446l-880.997 -0.000976562c21.333 -66 59.5 -118.667 114.5 -158s116.5 -59 184.5 -59c50.667 0 99.167 8.83301 145.5 26.5s82.5 41.834 108.5 72.501h301c-22.667 -66.667 -61.834 -128 -117.501 -184s-121.334 -100.167 -197.001 -132.5
s-152.5 -48.5 -230.5 -48.5c-108.667 0 -208.667 26.667 -300 80s-163.833 126 -217.5 218s-80.5 191.333 -80.5 298c0 110.667 26.5 212.834 79.5 306.501s125.667 168 218 223s194.166 82.5 305.499 82.5c80 0 155.333 -15.833 226 -47.5s132.5 -75 185.5 -130
s94.5 -118.833 124.5 -191.5s45 -148.334 45 -227.001c0 -19.333 -4.66699 -62.333 -14 -129zM346.003 687.999h625c-14.667 44 -37.667 82.5 -69 115.5s-67.5 58.167 -108.5 75.5s-84.833 26 -131.5 26c-70 0 -135 -20.167 -195 -60.5s-100.333 -92.5 -121 -156.5z
M346.003 1272l225 211h160l223 -211h-221l-82 98l-84 -98h-221z" />
    <glyph glyph-name="edieresis" unicode="&#xeb;" horiz-adv-x="1311" 
d="M1231 446l-880.997 -0.000976562c21.333 -66 59.5 -118.667 114.5 -158s116.5 -59 184.5 -59c50.667 0 99.167 8.83301 145.5 26.5s82.5 41.834 108.5 72.501h301c-22.667 -66.667 -61.834 -128 -117.501 -184s-121.334 -100.167 -197.001 -132.5
s-152.5 -48.5 -230.5 -48.5c-108.667 0 -208.667 26.667 -300 80s-163.833 126 -217.5 218s-80.5 191.333 -80.5 298c0 110.667 26.5 212.834 79.5 306.501s125.667 168 218 223s194.166 82.5 305.499 82.5c80 0 155.333 -15.833 226 -47.5s132.5 -75 185.5 -130
s94.5 -118.833 124.5 -191.5s45 -148.334 45 -227.001c0 -19.333 -4.66699 -62.333 -14 -129zM346.003 687.999h625c-14.667 44 -37.667 82.5 -69 115.5s-67.5 58.167 -108.5 75.5s-84.833 26 -131.5 26c-70 0 -135 -20.167 -195 -60.5s-100.333 -92.5 -121 -156.5z
M305.003 1262v196h217v-196h-217zM758.003 1262v196h217v-196h-217z" />
    <glyph glyph-name="igrave" unicode="&#xec;" horiz-adv-x="492" 
d="M111 0v1135h272v-1135h-272zM33 1479l86 157l340 -206l-80 -142z" />
    <glyph glyph-name="iacute" unicode="&#xed;" horiz-adv-x="492" 
d="M111 0v1135h272v-1135h-272zM127 1260l-74 141l344 203l80 -160z" />
    <glyph glyph-name="icircumflex" unicode="&#xee;" horiz-adv-x="492" 
d="M111 0v1135h272v-1135h-272zM-74 1268l226 211h159l224 -211h-222l-82 98l-84 -98h-221z" />
    <glyph glyph-name="idieresis" unicode="&#xef;" horiz-adv-x="492" 
d="M111 0v1135h272v-1135h-272zM-104 1278v197h217v-197h-217zM348 1278v197h217v-197h-217z" />
    <glyph glyph-name="eth" unicode="&#xf0;" horiz-adv-x="1311" 
d="M662 905c-58.667 0 -113.502 -15.834 -164.502 -47.501s-91 -73.834 -120 -126.501s-43.5 -108 -43.5 -166c0 -59.333 14.5 -115.166 43.5 -167.499s68.667 -93.5 119 -123.5s105.5 -45 165.5 -45c63.333 0 120.333 14.833 171 44.5s90.334 70.5 119.001 122.5
s43 108.333 43 169s-14.667 117.334 -44 170.001s-69.666 94.167 -120.999 124.5s-107.333 45.5 -168 45.5zM228.998 1513l286.998 0.00195312l98 -38l201 102l168 -70l-201 -102c114 -82.667 206.333 -165 277 -247s123.167 -170.833 157.5 -266.5s51.5 -204.5 51.5 -326.5
c0 -82 -15.333 -159.333 -46 -232s-74.5 -137.334 -131.5 -194.001s-122.333 -100.167 -196 -130.5s-151.167 -45.5 -232.5 -45.5c-107.333 0 -207.166 27.167 -299.499 81.5s-165.666 127.833 -219.999 220.5s-81.5 192.667 -81.5 300c0 84 15.833 162.667 47.5 236
s75.5 138 131.5 194s119.333 99.333 190 130s143 46 217 46c33.333 0 70.333 -6.83301 111 -20.5s72 -29.834 94 -48.501l4 4c-28.667 37.333 -67.167 74.5 -115.5 111.5s-95.833 68.167 -142.5 93.5l-195 -101l-159 74l219 113c-57.333 34 -135.333 71.333 -234 112v4z" />
    <glyph glyph-name="ntilde" unicode="&#xf1;" horiz-adv-x="1229" 
d="M111 0l0.00292969 1135h251v-105h5c32.667 45.333 77 80.166 133 104.499s114.667 36.5 176 36.5c60.667 0 119.667 -12.5 177 -37.5s106 -59.5 146 -103.5c13.333 -12 23 -23 29 -33c40 -55.333 65 -113.333 75 -174s15 -139 15 -235v-588h-272v535
c0 62.667 -2.83301 116.334 -8.5 161.001s-18.5 83 -38.5 115c-18 28.667 -43.667 51.5 -77 68.5s-68 25.5 -104 25.5c-36.667 0 -72.834 -9 -108.501 -27s-62.834 -42.333 -81.501 -73c-20.667 -36 -33.334 -77.167 -38.001 -123.5s-7 -102.166 -7 -167.499v-514h-272z
M446.003 1296l-75.001 135.999c40 36.667 90.333 55 151 55c26.667 0 58.834 -7.16699 96.501 -21.5s62.167 -21.5 73.5 -21.5c38 0 73 13.667 105 41l75 -129c-23.333 -21.333 -46.666 -37.666 -69.999 -48.999s-48.333 -17 -75 -17c-20 0 -40.333 3.33301 -61 10
l-61.5 19.5c-20.333 6.33301 -39.5 9.5 -57.5 9.5c-36.667 0 -70.334 -11 -101.001 -33z" />
    <glyph glyph-name="ograve" unicode="&#xf2;" horiz-adv-x="1311" 
d="M674 1171c82.667 0 160.164 -15.833 232.497 -47.5s135.833 -75.5 190.5 -131.5s96.834 -120.5 126.501 -193.5s44.5 -150.833 44.5 -233.5c0 -82 -15.333 -159.333 -46 -232s-74.5 -137.334 -131.5 -194.001s-122.333 -100.167 -196 -130.5s-151.167 -45.5 -232.5 -45.5
c-107.333 0 -207.166 27.167 -299.499 81.5s-165.666 127.833 -219.999 220.5s-81.5 192.667 -81.5 300c0 84.667 15.833 163.834 47.5 237.501s75.5 138 131.5 193s121 98 195 129s153.667 46.5 239 46.5zM661.997 905c-40.667 0 -82.502 -9.33496 -125.502 -28.002
s-79.167 -44 -108.5 -76c-62.667 -63.333 -94 -142 -94 -236c0 -59.333 14.5 -115.166 43.5 -167.499s68.667 -93.5 119 -123.5s105.5 -45 165.5 -45c63.333 0 120.333 14.833 171 44.5s90.334 70.5 119.001 122.5s43 108.333 43 169s-14.667 117.334 -44 170.001
s-69.666 94.167 -120.999 124.5s-107.333 45.5 -168 45.5zM478.995 1464l86 158l340 -207l-80 -141z" />
    <glyph glyph-name="oacute" unicode="&#xf3;" horiz-adv-x="1311" 
d="M674 1171c82.667 0 160.164 -15.833 232.497 -47.5s135.833 -75.5 190.5 -131.5s96.834 -120.5 126.501 -193.5s44.5 -150.833 44.5 -233.5c0 -82 -15.333 -159.333 -46 -232s-74.5 -137.334 -131.5 -194.001s-122.333 -100.167 -196 -130.5s-151.167 -45.5 -232.5 -45.5
c-107.333 0 -207.166 27.167 -299.499 81.5s-165.666 127.833 -219.999 220.5s-81.5 192.667 -81.5 300c0 84.667 15.833 163.834 47.5 237.501s75.5 138 131.5 193s121 98 195 129s153.667 46.5 239 46.5zM661.997 905c-40.667 0 -82.502 -9.33496 -125.502 -28.002
s-79.167 -44 -108.5 -76c-62.667 -63.333 -94 -142 -94 -236c0 -59.333 14.5 -115.166 43.5 -167.499s68.667 -93.5 119 -123.5s105.5 -45 165.5 -45c63.333 0 120.333 14.833 171 44.5s90.334 70.5 119.001 122.5s43 108.333 43 169s-14.667 117.334 -44 170.001
s-69.666 94.167 -120.999 124.5s-107.333 45.5 -168 45.5zM552.995 1266l-74 141l344 203l80 -160z" />
    <glyph glyph-name="ocircumflex" unicode="&#xf4;" horiz-adv-x="1311" 
d="M674 1171c82.667 0 160.164 -15.833 232.497 -47.5s135.833 -75.5 190.5 -131.5s96.834 -120.5 126.501 -193.5s44.5 -150.833 44.5 -233.5c0 -82 -15.333 -159.333 -46 -232s-74.5 -137.334 -131.5 -194.001s-122.333 -100.167 -196 -130.5s-151.167 -45.5 -232.5 -45.5
c-107.333 0 -207.166 27.167 -299.499 81.5s-165.666 127.833 -219.999 220.5s-81.5 192.667 -81.5 300c0 84.667 15.833 163.834 47.5 237.501s75.5 138 131.5 193s121 98 195 129s153.667 46.5 239 46.5zM661.997 905c-40.667 0 -82.502 -9.33496 -125.502 -28.002
s-79.167 -44 -108.5 -76c-62.667 -63.333 -94 -142 -94 -236c0 -59.333 14.5 -115.166 43.5 -167.499s68.667 -93.5 119 -123.5s105.5 -45 165.5 -45c63.333 0 120.333 14.833 171 44.5s90.334 70.5 119.001 122.5s43 108.333 43 169s-14.667 117.334 -44 170.001
s-69.666 94.167 -120.999 124.5s-107.333 45.5 -168 45.5zM353.995 1274l226 211h159l224 -211h-222l-82 98l-84 -98h-221z" />
    <glyph glyph-name="otilde" unicode="&#xf5;" horiz-adv-x="1311" 
d="M674 1171c82.667 0 160.164 -15.833 232.497 -47.5s135.833 -75.5 190.5 -131.5s96.834 -120.5 126.501 -193.5s44.5 -150.833 44.5 -233.5c0 -82 -15.333 -159.333 -46 -232s-74.5 -137.334 -131.5 -194.001s-122.333 -100.167 -196 -130.5s-151.167 -45.5 -232.5 -45.5
c-107.333 0 -207.166 27.167 -299.499 81.5s-165.666 127.833 -219.999 220.5s-81.5 192.667 -81.5 300c0 84.667 15.833 163.834 47.5 237.501s75.5 138 131.5 193s121 98 195 129s153.667 46.5 239 46.5zM661.997 905c-40.667 0 -82.502 -9.33496 -125.502 -28.002
s-79.167 -44 -108.5 -76c-62.667 -63.333 -94 -142 -94 -236c0 -59.333 14.5 -115.166 43.5 -167.499s68.667 -93.5 119 -123.5s105.5 -45 165.5 -45c63.333 0 120.333 14.833 171 44.5s90.334 70.5 119.001 122.5s43 108.333 43 169s-14.667 117.334 -44 170.001
s-69.666 94.167 -120.999 124.5s-107.333 45.5 -168 45.5zM488.995 1280l-75.001 135c38.667 36.667 89 55 151 55c26.667 0 58.834 -7.16699 96.501 -21.5s62.167 -21.5 73.5 -21.5c36.667 0 71.667 13.667 105 41l75 -129c-48 -43.333 -96.333 -65 -145 -65
c-20 0 -40.333 3.33301 -61 10l-61.5 19.5c-20.333 6.33301 -39.5 9.5 -57.5 9.5c-35.333 0 -69 -11 -101 -33z" />
    <glyph glyph-name="odieresis" unicode="&#xf6;" horiz-adv-x="1311" 
d="M674 1171c82.667 0 160.164 -15.833 232.497 -47.5s135.833 -75.5 190.5 -131.5s96.834 -120.5 126.501 -193.5s44.5 -150.833 44.5 -233.5c0 -82 -15.333 -159.333 -46 -232s-74.5 -137.334 -131.5 -194.001s-122.333 -100.167 -196 -130.5s-151.167 -45.5 -232.5 -45.5
c-107.333 0 -207.166 27.167 -299.499 81.5s-165.666 127.833 -219.999 220.5s-81.5 192.667 -81.5 300c0 84.667 15.833 163.834 47.5 237.501s75.5 138 131.5 193s121 98 195 129s153.667 46.5 239 46.5zM661.997 905c-40.667 0 -82.502 -9.33496 -125.502 -28.002
s-79.167 -44 -108.5 -76c-62.667 -63.333 -94 -142 -94 -236c0 -59.333 14.5 -115.166 43.5 -167.499s68.667 -93.5 119 -123.5s105.5 -45 165.5 -45c63.333 0 120.333 14.833 171 44.5s90.334 70.5 119.001 122.5s43 108.333 43 169s-14.667 117.334 -44 170.001
s-69.666 94.167 -120.999 124.5s-107.333 45.5 -168 45.5zM312.995 1274v196h217v-196h-217zM765.995 1274v196h217v-196h-217z" />
    <glyph glyph-name="divide" unicode="&#xf7;" horiz-adv-x="1229" 
d="M104 539v237h1033v-237h-1033zM502 930v237h237v-237h-237zM502 133v238h237v-238h-237z" />
    <glyph glyph-name="oslash" unicode="&#xf8;" horiz-adv-x="1352" 
d="M907 1124l78 116.999l203 -139l-80 -119c34 -36 63.167 -76.5 87.5 -121.5s42.833 -92.333 55.5 -142s19 -100.5 19 -152.5c0 -77.333 -15.333 -152.666 -46 -225.999s-73.5 -138.5 -128.5 -195.5s-118.667 -101.667 -191 -134s-147.833 -48.5 -226.5 -48.5
c-65.333 0 -144 15 -236 45l-77 -110l-201 139l74 110c-57.333 55.333 -101.166 119.333 -131.499 192s-45.5 148 -45.5 226c0 108 27.167 208.667 81.5 302s127.666 167.333 219.999 222s193.5 82 303.5 82c72 0 152.333 -15.667 241 -47zM393 372.999l361.002 524
c-32 6.66699 -61.333 10 -88 10c-48.667 0 -94.834 -10.333 -138.501 -31s-80.834 -50 -111.501 -88c-54.667 -63.333 -82 -140.333 -82 -231c0 -62 19.667 -123.333 59 -184zM950.002 749.999l-354 -517c22 -8 45.333 -12 70 -12c64.667 0 122.167 15 172.5 45
s89.333 71.167 117 123.5s41.5 110.833 41.5 175.5c0 36.667 -3.83301 69.5 -11.5 98.5s-19.5 57.833 -35.5 86.5z" />
    <glyph glyph-name="ugrave" unicode="&#xf9;" horiz-adv-x="1229" 
d="M848 1135l271.999 0.000976562v-1135h-250v121h-4c-54 -105.333 -150 -158 -288 -158c-68.667 0 -134 13.167 -196 39.5s-116.333 65.833 -163 118.5c-32 34 -55.833 70 -71.5 108s-25.667 77.833 -30 119.5s-6.5 90.167 -6.5 145.5v641h272v-557
c0 -108 11.667 -185.333 35 -232c18.667 -36.667 45.334 -65.334 80.001 -86.001s72.667 -31 114 -31c93.333 0 156 32.5 188 97.5s48 148.833 48 251.5v557zM388.999 1448l86 158l340 -207l-80 -142z" />
    <glyph glyph-name="uacute" unicode="&#xfa;" horiz-adv-x="1229" 
d="M848 1135l271.999 0.000976562v-1135h-250v121h-4c-54 -105.333 -150 -158 -288 -158c-68.667 0 -134 13.167 -196 39.5s-116.333 65.833 -163 118.5c-32 34 -55.833 70 -71.5 108s-25.667 77.833 -30 119.5s-6.5 90.167 -6.5 145.5v641h272v-557
c0 -108 11.667 -185.333 35 -232c18.667 -36.667 45.334 -65.334 80.001 -86.001s72.667 -31 114 -31c93.333 0 156 32.5 188 97.5s48 148.833 48 251.5v557zM554.999 1239l-74 141l344 203l80 -160z" />
    <glyph glyph-name="ucircumflex" unicode="&#xfb;" horiz-adv-x="1229" 
d="M848 1135l271.999 0.000976562v-1135h-250v121h-4c-54 -105.333 -150 -158 -288 -158c-68.667 0 -134 13.167 -196 39.5s-116.333 65.833 -163 118.5c-32 34 -55.833 70 -71.5 108s-25.667 77.833 -30 119.5s-6.5 90.167 -6.5 145.5v641h272v-557
c0 -108 11.667 -185.333 35 -232c18.667 -36.667 45.334 -65.334 80.001 -86.001s72.667 -31 114 -31c93.333 0 156 32.5 188 97.5s48 148.833 48 251.5v557zM351.999 1257l226 211h159l224 -211h-222l-82 99l-84 -99h-221z" />
    <glyph glyph-name="udieresis" unicode="&#xfc;" horiz-adv-x="1229" 
d="M848 1135l271.999 0.000976562v-1135h-250v121h-4c-54 -105.333 -150 -158 -288 -158c-68.667 0 -134 13.167 -196 39.5s-116.333 65.833 -163 118.5c-32 34 -55.833 70 -71.5 108s-25.667 77.833 -30 119.5s-6.5 90.167 -6.5 145.5v641h272v-557
c0 -108 11.667 -185.333 35 -232c18.667 -36.667 45.334 -65.334 80.001 -86.001s72.667 -31 114 -31c93.333 0 156 32.5 188 97.5s48 148.833 48 251.5v557zM290.999 1257v197h217v-197h-217zM742.999 1257v197h218v-197h-218z" />
    <glyph glyph-name="yacute" unicode="&#xfd;" horiz-adv-x="1188" 
d="M219 -379l209 485l-416 1029h310l260 -727l272 727h309l-651 -1514h-293zM559 1249l-74 142l344 202l80 -159z" />
    <glyph glyph-name="thorn" unicode="&#xfe;" horiz-adv-x="1352" 
d="M700 905c-62.667 0 -119.336 -15 -170.003 -45s-90.5 -71 -119.5 -123s-43.5 -108.667 -43.5 -170c0 -104.667 35.333 -188.667 106 -252c30.667 -26.667 65.334 -47.667 104.001 -63s76.334 -23 113.001 -23c62.667 0 119.834 15.167 171.501 45.5s92 71.5 121 123.5
s43.5 109 43.5 171c0 58 -14.167 113 -42.5 165s-67.5 93.5 -117.5 124.5s-105.333 46.5 -166 46.5zM110.998 -379l272.002 2089h217v-197h-217v-493c45.333 48.667 95.166 86 149.499 112s119.833 39 196.5 39c54 0 106.167 -7.5 156.5 -22.5s96.666 -36 138.999 -63
s81.166 -59.833 116.499 -98.5c32.667 -35.333 60.834 -74.666 84.501 -117.999s41.667 -90.333 54 -141s18.5 -104.334 18.5 -161.001c0 -79.333 -13.667 -155.333 -41 -228s-67 -137.5 -119 -194.5s-113.167 -101.5 -183.5 -133.5s-145.5 -48 -225.5 -48
c-144.667 0 -258.667 53.333 -342 160h-4v-502h-272z" />
    <glyph glyph-name="ydieresis" unicode="&#xff;" horiz-adv-x="1188" 
d="M219 -379l209 485l-416 1029h310l260 -727l272 727h309l-651 -1514h-293zM264 1253v197h217v-197h-217zM717 1253v197h217v-197h-217z" />
    <glyph glyph-name="aahoa" unicode="&#x102;" horiz-adv-x="1516" 
d="M14 0l631 1513h219l637 -1513h-309l-164 391h-536l-168 -391h-310zM594 664h324l-162 458zM508 1800l150.999 0.00195312c8.66699 -18.667 22.334 -33.167 41.001 -43.5s38.667 -15.5 60 -15.5c22 0 42.167 5.16699 60.5 15.5s31.5 24.833 39.5 43.5h152
c-8 -66.667 -34.667 -117.834 -80 -153.501s-102.666 -53.5 -171.999 -53.5c-68.667 0 -125.834 17.667 -171.501 53s-72.5 86.666 -80.5 153.999z" />
    <glyph glyph-name="aath" unicode="&#x103;" horiz-adv-x="1352" 
d="M1260 1135v-1135h-250v154h-4c-41.333 -58 -97.833 -104.333 -169.5 -139s-143.5 -52 -215.5 -52c-84.667 0 -162.667 16.667 -234 50s-132.666 80.333 -183.999 141c-94.667 113.333 -142 251 -142 413c0 50.667 4.83301 100.167 14.5 148.5s25 93.333 46 135
s49.5 83.167 85.5 124.5c57.333 66.667 121.166 116 191.499 148s147.166 48 230.499 48c78 0 149.833 -16.667 215.5 -50s120.834 -82 165.501 -146v160h250zM1001 569c0 48 -8 92.5 -24 133.5s-38.333 76.5 -67 106.5s-63.334 53.5 -104.001 70.5s-84.667 25.5 -132 25.5
c-99.333 0 -180.833 -32.833 -244.5 -98.5s-95.5 -148.834 -95.5 -249.501c0 -92 33 -169.667 99 -233s145 -95 237 -95c64 0 121.333 14.833 172 44.5s89.834 70.334 117.501 122.001s41.5 109.5 41.5 173.5zM489 1481l152 -0.000976562c7.33301 -18 20.5 -32.5 39.5 -43.5
s39.167 -16.5 60.5 -16.5c22 0 42.5 5.5 61.5 16.5s32.167 25.5 39.5 43.5h151c-8 -68 -34.5 -119.5 -79.5 -154.5s-102.5 -52.5 -172.5 -52.5c-69.333 0 -126.5 17.333 -171.5 52s-71.833 86.334 -80.5 155.001z" />
    <glyph glyph-name="dhoa" unicode="&#x110;" horiz-adv-x="1520" 
d="M549 0h-323.999v655h-196v217h196v641h318c60.667 0 120.334 -2.66699 179.001 -8s113.5 -13.833 164.5 -25.5s101.833 -29.334 152.5 -53.001s97 -53.5 139 -89.5c81.333 -68 145 -155.5 191 -262.5s69 -215.167 69 -324.5c0 -52.667 -5.83301 -106 -17.5 -160
s-28.834 -106.333 -51.501 -157s-49.834 -97.667 -81.501 -141s-68.167 -82.666 -109.5 -117.999c-82 -70 -173.167 -116.5 -273.5 -139.5s-218.833 -34.5 -355.5 -34.5zM743.001 872l-0.000976562 -216.999h-237v-383h35c60 0 113.833 2 161.5 6s95 13.833 142 29.5
s90.5 38.167 130.5 67.5c58 44 102.833 98.833 134.5 164.5s47.5 135.834 47.5 210.501c0 52 -7.66699 103.167 -23 153.5s-38.166 96.666 -68.499 138.999s-66.833 78.5 -109.5 108.5c-57.333 39.333 -119.333 64.166 -186 74.499s-148 15.5 -244 15.5h-20v-369h237z" />
    <glyph glyph-name="dth" unicode="&#x111;" horiz-adv-x="1352" 
d="M1255 1599l0.000976562 -1.99805v-172h97v-98h-97v-1329h-249v154h-5c-25.333 -40.667 -57.833 -75.334 -97.5 -104.001s-83.334 -50.334 -131.001 -65.001s-96.834 -22 -147.501 -22c-80 0 -155.333 17 -226 51s-132 80.667 -184 140
c-47.333 54 -84.833 117.333 -112.5 190s-41.5 145.667 -41.5 219c0 161.333 51.333 300 154 416c34 38 73.667 71.667 119 101s93.333 51.833 144 67.5s102.334 23.5 155.001 23.5c42.667 0 85.5 -5.66699 128.5 -17s83.333 -28.5 121 -51.5s71.167 -51.167 100.5 -84.5
v309h-289v102h289v172h272zM993.001 569.002c0 47.333 -8.83398 91.3311 -26.501 131.998s-41.834 76.167 -72.501 106.5s-66.667 54.166 -108 71.499s-85.666 26 -132.999 26c-56 0 -109.333 -15.167 -160 -45.5s-91.167 -71.166 -121.5 -122.499
s-45.5 -105.333 -45.5 -162c0 -61.333 14.333 -118.666 43 -171.999s68.167 -95.666 118.5 -126.999s106.833 -47 169.5 -47c61.333 0 117.833 15.333 169.5 46s92.334 72 122.001 124s44.5 108.667 44.5 170z" />
    <glyph glyph-name="dth" unicode="&#x20ab;" horiz-adv-x="1352" 
d="M1255 1599l0.000976562 -1.99805v-172h97v-98h-97v-1329h-249v154h-5c-25.333 -40.667 -57.833 -75.334 -97.5 -104.001s-83.334 -50.334 -131.001 -65.001s-96.834 -22 -147.501 -22c-80 0 -155.333 17 -226 51s-132 80.667 -184 140
c-47.333 54 -84.833 117.333 -112.5 190s-41.5 145.667 -41.5 219c0 161.333 51.333 300 154 416c34 38 73.667 71.667 119 101s93.333 51.833 144 67.5s102.334 23.5 155.001 23.5c42.667 0 85.5 -5.66699 128.5 -17s83.333 -28.5 121 -51.5s71.167 -51.167 100.5 -84.5
v309h-289v102h289v172h272zM993.001 569.002c0 47.333 -8.83398 91.3311 -26.501 131.998s-41.834 76.167 -72.501 106.5s-66.667 54.166 -108 71.499s-85.666 26 -132.999 26c-56 0 -109.333 -15.167 -160 -45.5s-91.167 -71.166 -121.5 -122.499
s-45.5 -105.333 -45.5 -162c0 -61.333 14.333 -118.666 43 -171.999s68.167 -95.666 118.5 -126.999s106.833 -47 169.5 -47c61.333 0 117.833 15.333 169.5 46s92.334 72 122.001 124s44.5 108.667 44.5 170z" />
    <glyph glyph-name="ihoanga" unicode="&#x128;" horiz-adv-x="573" 
d="M139 0v1513h281v-1513h-281zM104 1653l-75.001 135c38.667 36.667 89 55 151 55c26.667 0 58.834 -7.16699 96.501 -21.5s62.167 -21.5 73.5 -21.5c36.667 0 71.667 13.667 105 41l75 -129c-48 -43.333 -96.333 -65 -145 -65c-20 0 -40.333 3.33301 -61 10l-61.5 19.5
c-20.333 6.33301 -39.5 9.5 -57.5 9.5c-35.333 0 -69 -11 -101 -33z" />
    <glyph glyph-name="ithnga" unicode="&#x129;" horiz-adv-x="492" 
d="M111 0v1135h272v-1135h-272zM63 1264l-75.001 134.999c38.667 36.667 89 55 151 55c26.667 0 58.834 -7.16699 96.501 -21.5s62.167 -21.5 73.5 -21.5c38 0 73 13.667 105 41l75 -129c-23.333 -21.333 -46.666 -37.666 -69.999 -48.999s-48.333 -17 -75 -17
c-20 0 -40.333 3.33301 -61 10l-61.5 19.5c-20.333 6.33301 -39.5 9.5 -57.5 9.5c-36.667 0 -70.334 -10.667 -101.001 -32z" />
    <glyph glyph-name="OE" unicode="&#x152;" horiz-adv-x="2171" 
d="M2056 0h-727v168h-4c-48 -61.333 -119 -109.5 -213 -144.5s-184 -52.5 -270 -52.5c-104 0 -202.5 20.333 -295.5 61s-175.167 98.167 -246.5 172.5s-126.166 158.666 -164.499 252.999s-57.5 193.833 -57.5 298.5c0 106.667 19.333 207.667 58 303s93 179.333 163 252
s151.833 129.334 245.5 170.001s193.5 61 299.5 61c57.333 0 116.666 -7.66699 177.999 -23s119 -38 173 -68s97.333 -66.667 130 -110h4v172h727v-272h-448v-348h426v-272h-426v-349h448v-272zM850 1264c-73.333 0 -140 -13.335 -200 -40.002s-112 -63.667 -156 -111
s-77.667 -102.166 -101 -164.499s-35 -129.166 -35 -200.499c0 -90.667 22 -174 66 -250s104.167 -136.333 180.5 -181s158.833 -67 247.5 -67c89.333 0 171.333 22.667 246 68s133.5 106.333 176.5 183s64.5 159.667 64.5 249s-21.167 173.833 -63.5 253.5
s-100.833 143 -175.5 190s-158 70.5 -250 70.5z" />
    <glyph glyph-name="oe" unicode="&#x153;" horiz-adv-x="2212" 
d="M2132 446l-876.996 0.000976562c20 -64.667 58.5 -117 115.5 -157s119.833 -60 188.5 -60c41.333 0 86.166 10 134.499 30s88.833 43 121.5 69h290c-16.667 -48.667 -44 -95.834 -82 -141.501s-82.167 -85.167 -132.5 -118.5s-104 -59.166 -161 -77.499
s-115.5 -27.5 -175.5 -27.5c-88 0 -173 21.167 -255 63.5s-145 99.833 -189 172.5c-44.667 -76 -107.834 -134.333 -189.501 -175s-168.834 -61 -261.501 -61c-80.667 0 -157.834 15.667 -231.501 47s-137.667 74.166 -192 128.499s-97 118.5 -128 192.5
s-46.5 151.333 -46.5 232c0 109.333 26.5 210.666 79.5 303.999s125.167 167.333 216.5 222s192 82 302 82c90.667 0 176 -20.5 256 -61.5s145 -97.5 195 -169.5c57.333 74.667 121.666 131.834 192.999 171.501s152.333 59.5 243 59.5
c108.667 0 209.334 -26.333 302.001 -79s165.5 -124.5 218.5 -215.5s79.5 -191.5 79.5 -301.5c0 -24 -4 -63.333 -12 -118zM662.004 905.001c-58.667 0 -113.335 -14.501 -164.002 -43.501s-90.667 -68.5 -120 -118.5s-44 -105 -44 -165
c0 -101.333 29.333 -182.666 88 -243.999c30 -32 65.833 -57.5 107.5 -76.5s83.5 -28.5 125.5 -28.5c60.667 0 116.834 15.167 168.501 45.5s92.167 71 121.5 122s44 107.167 44 168.5c0 59.333 -14.5 115.5 -43.5 168.5s-68.167 94.833 -117.5 125.5
s-104.666 46 -165.999 46zM1247 688l606 0.000976562c-14.667 66 -49.5 118.667 -104.5 158s-118.167 59 -189.5 59c-50 0 -95.833 -8.16699 -137.5 -24.5s-77.167 -40.833 -106.5 -73.5s-52 -72.334 -68 -119.001z" />
    <glyph glyph-name="Scaron" unicode="&#x160;" horiz-adv-x="1065" 
d="M29 426l292.997 0.00292969c0 -58 20.333 -104.167 61 -138.5s90.334 -51.5 149.001 -51.5c34.667 0 67.167 8.16699 97.5 24.5s54.5 39 72.5 68s27 61.5 27 97.5c0 73.333 -23.333 127.833 -70 163.5s-111.334 66.5 -194.001 92.5
c-67.333 22.667 -119.666 43.167 -156.999 61.5s-72.333 44.166 -105 77.499c-37.333 38.667 -66.5 83.5 -87.5 134.5s-31.5 103.167 -31.5 156.5c0 79.333 20.167 152.166 60.5 218.499s94.833 118.166 163.5 155.499s142.667 56 222 56
c58.667 0 114.5 -10.833 167.5 -32.5s100.333 -52.334 142 -92.001s74.334 -86 98.001 -139s35.5 -108.5 35.5 -166.5h-289c-2 46.667 -19.5 84.667 -52.5 114s-72.167 44 -117.5 44s-81.5 -15.167 -108.5 -45.5s-40.5 -68.5 -40.5 -114.5c0 -50 17.167 -88.333 51.5 -115
s80.5 -49.667 138.5 -69c72.667 -24 130.334 -45.167 173.001 -63.5s83.334 -43.833 122.001 -76.5c106.667 -84.667 160 -199.334 160 -344.001c0 -66 -12.833 -128.5 -38.5 -187.5s-61.167 -110.167 -106.5 -153.5s-98 -77.166 -158 -101.499s-123 -36.5 -189 -36.5
c-84.667 0 -164.834 20.333 -240.501 61s-136 96.334 -181 167.001s-67.5 149 -67.5 235zM239.997 1849h223l84 -98l82 98h221l-223 -211h-160z" />
    <glyph glyph-name="scaron" unicode="&#x161;" horiz-adv-x="901" 
d="M829 823l-266.001 -0.000976562c-4 26.667 -15.5 47 -34.5 61s-42.167 21 -69.5 21c-30.667 0 -56.167 -8.5 -76.5 -25.5s-30.5 -40.5 -30.5 -70.5c0 -17.333 5 -32.166 15 -44.499s22.5 -22.666 37.5 -30.999s35.333 -16.166 61 -23.499s39.167 -11.333 40.5 -12
c76.667 -22.667 139.167 -46 187.5 -70s88.166 -58 119.499 -102s47 -101.333 47 -172c0 -106.667 -38.333 -197.334 -115 -272.001c-37.333 -35.333 -82.666 -64 -135.999 -86s-106 -33 -158 -33c-75.333 0 -144.166 16.5 -206.499 49.5s-111.333 79.167 -147 138.5
s-55.167 127.666 -58.5 204.999h278c8.66699 -37.333 25.334 -67.833 50.001 -91.5s56 -35.5 94 -35.5c34.667 0 64.5 9.66699 89.5 29s37.5 46 37.5 80c0 22.667 -6 41.834 -18 57.501s-28.167 29.167 -48.5 40.5s-43.5 21.333 -69.5 30l-57 19
c-59.333 20 -100.5 35 -123.5 45s-50.167 28 -81.5 54c-73.333 61.333 -110 140.333 -110 237c0 67.333 17.667 127.833 53 181.5s82.166 95.167 140.499 124.5s121.5 44 189.5 44c62 0 121.333 -15.5 178 -46.5s102.167 -73.333 136.5 -127s51.5 -111.834 51.5 -174.501z
M153.999 1489h223l84 -98l82 98h221l-223 -211h-160z" />
    <glyph glyph-name="uhoanga" unicode="&#x168;" horiz-adv-x="1311" 
d="M139 1513l281.002 -0.00390625v-944c0 -46.667 1.5 -84.5 4.5 -113.5s11.167 -59.167 24.5 -90.5c20 -39.333 47.667 -70.666 83 -93.999s74.333 -35 117 -35c38 0 74.667 10 110 30s62.333 45.333 81 76s30.167 63 34.5 97s6.5 77.333 6.5 130v944h280v-944
c0 -88.667 -7 -165.167 -21 -229.5s-43.667 -124.166 -89 -179.499c-34 -40.667 -72.333 -75.5 -115 -104.5s-88.667 -51.667 -138 -68s-99 -24.5 -149 -24.5c-68.667 0 -138.334 17.167 -209.001 51.5s-130 78.5 -178 132.5c-33.333 38 -59.333 79.833 -78 125.5
s-30.834 90.834 -36.501 135.501s-8.5 98.334 -8.5 161.001v944zM475.002 1642l-76.0039 135.999c38.667 36.667 89.334 55 152.001 55c26.667 0 58.834 -7.16699 96.501 -21.5s62.167 -21.5 73.5 -21.5c38.667 0 73.334 13.667 104.001 41l76 -129
c-23.333 -21.333 -46.666 -37.666 -69.999 -48.999s-48.333 -17 -75 -17c-20 0 -40.333 3.33301 -61 10l-61.5 19.5c-20.333 6.33301 -39.833 9.5 -58.5 9.5c-36 0 -69.333 -11 -100 -33z" />
    <glyph glyph-name="uthnga" unicode="&#x169;" horiz-adv-x="1229" 
d="M848 1135l271.999 0.000976562v-1135h-250v121h-4c-54 -105.333 -150 -158 -288 -158c-68.667 0 -134 13.167 -196 39.5s-116.333 65.833 -163 118.5c-32 34 -55.833 70 -71.5 108s-25.667 77.833 -30 119.5s-6.5 90.167 -6.5 145.5v641h272v-557
c0 -108 11.667 -185.333 35 -232c18.667 -36.667 45.334 -65.334 80.001 -86.001s72.667 -31 114 -31c93.333 0 156 32.5 188 97.5s48 148.833 48 251.5v557zM439.999 1243l-75.001 134.999c38.667 37.333 89 56 151 56c26.667 0 58.834 -7.16699 96.501 -21.5
s62.167 -21.5 73.5 -21.5c38 0 73 13.667 105 41l75 -129c-23.333 -21.333 -46.666 -37.666 -69.999 -48.999s-48.333 -17 -75 -17c-20 0 -40.333 3.33301 -61 10l-61.5 19.5c-20.333 6.33301 -39.5 9.5 -57.5 9.5c-36.667 0 -70.334 -11 -101.001 -33z" />
    <glyph glyph-name="florin" unicode="&#x192;" horiz-adv-x="1147" 
d="M748 1198l187.999 -0.000976562l-39 -235h-190l-125 -721c-14.667 -91.333 -30 -167 -46 -227s-41.667 -112 -77 -156c-45.333 -56 -102.166 -97.667 -170.499 -125s-140.5 -41 -216.5 -41c-38.667 0 -74.334 4.66699 -107.001 14l41 234l68 -7
c53.333 0 95.333 9.83301 126 29.5s53.834 45.334 69.501 77.001s26 60.334 31 86.001s14.167 79.167 27.5 160.5l118 676h-192l39 235h196l3 21c10 54 18.5 95.833 25.5 125.5s18.333 61 34 94s35.167 62.833 58.5 89.5c89.333 103.333 203.333 155 342 155
c27.333 0 47.333 -2 60 -6l-41 -239h-15c-43.333 0 -81.333 -13 -114 -39c-26.667 -21.333 -46.5 -45.833 -59.5 -73.5s-22.5 -59.834 -28.5 -96.501z" />
    <glyph glyph-name="ochoa" unicode="&#x1a0;" horiz-adv-x="1720" 
d="M850 1542l2.00195 -1.99902c103.333 0 195.666 -14.667 276.999 -44s150 -67.333 206 -114s102.667 -97.667 140 -153c40.667 0 71.5 26.667 92.5 80s31.5 129.666 31.5 228.999h158c0 -84 -10.833 -155.833 -32.5 -215.5s-49.667 -104.5 -84 -134.5
s-69.833 -45 -106.5 -45c34.667 -54 61 -111 79 -171s27 -134 27 -222c0 -142.667 -35.5 -274.334 -106.5 -395.001s-167.333 -216.167 -289 -286.5s-252.5 -105.5 -392.5 -105.5c-104.667 0 -205.834 20.333 -303.501 61s-183 97.334 -256 170.001
s-129.833 156.667 -170.5 252s-61 196 -61 302c0 144.667 35.333 277.667 106 399s166.667 217.5 288 288.5s253 106.5 395 106.5zM1362 748.001c0 94 -23.001 181.001 -69.001 261.001s-108.5 143.167 -187.5 189.5s-164.167 69.5 -255.5 69.5l2 -6
c-94 0 -180 -23.333 -258 -70s-139.167 -109.334 -183.5 -188.001s-66.5 -165 -66.5 -259c0 -92 23 -177.167 69 -255.5s108.167 -140.666 186.5 -186.999s162.5 -69.5 252.5 -69.5c90.667 0 175.334 23.333 254.001 70s141 109.667 187 189s69 164.666 69 255.999z" />
    <glyph glyph-name="octh" unicode="&#x1a1;" horiz-adv-x="1331" 
d="M674 1171l1.99902 -0.000976562c58 0 114 -9 168 -27s101.667 -40.833 143 -68.5s77.166 -56.834 107.499 -87.501s53.833 -61 70.5 -91c28.667 5.33301 49 16.333 61 33s20.167 42.834 24.5 78.501s6.5 89.834 6.5 162.501h158c0 -76 -10.333 -141.667 -31 -197
s-46.334 -97 -77.001 -125s-60.667 -42 -90 -42c14.667 -24.667 26.834 -59.167 36.501 -103.5s14.5 -90.5 14.5 -138.5c0 -82 -15.333 -159.333 -46 -232s-74.5 -137.334 -131.5 -194.001s-122.333 -100.167 -196 -130.5s-151.167 -45.5 -232.5 -45.5
c-107.333 0 -207.166 27.167 -299.499 81.5s-165.666 127.833 -219.999 220.5s-81.5 192.667 -81.5 300c0 84.667 15.833 163.834 47.5 237.501s75.5 138 131.5 193s121 98 195 129s153.667 46.5 239 46.5zM663.999 904.999c-40.667 0 -82.502 -9.33496 -125.502 -28.002
s-79.167 -44 -108.5 -76c-62.667 -63.333 -94 -142 -94 -236c0 -59.333 14.5 -115.166 43.5 -167.499s68.667 -93.5 119 -123.5s105.5 -45 165.5 -45c63.333 0 120.333 14.833 171 44.5s90.334 70.5 119.001 122.5s43 108.333 43 169s-14.667 117.334 -44 170.001
s-69.666 94.167 -120.999 124.5s-107.333 45.5 -168 45.5z" />
    <glyph glyph-name="uchoa" unicode="&#x1af;" horiz-adv-x="1331" 
d="M123 1513l280 -0.00195312v-944c0 -46.667 1.5 -84.5 4.5 -113.5s11.167 -59.167 24.5 -90.5c21.333 -40 49.5 -71.5 84.5 -94.5s73.833 -34.5 116.5 -34.5c37.333 0 73.5 9.66699 108.5 29s62.167 45 81.5 77c18.667 30.667 30.167 63 34.5 97s6.5 77.333 6.5 130v944
h281v-272c38 0 65.167 20.667 81.5 62s24.5 110.666 24.5 207.999h150c-2 -120 -26.833 -211.667 -74.5 -275s-108.167 -95 -181.5 -95v-572c0 -88.667 -7.5 -165.667 -22.5 -231s-44.5 -124.666 -88.5 -177.999c-51.333 -60.667 -112.166 -108.667 -182.499 -144
s-143.166 -53 -218.499 -53c-68.667 0 -138.334 17.167 -209.001 51.5s-130 78.5 -178 132.5c-35.333 40 -61.833 81.833 -79.5 125.5s-29.334 88.334 -35.001 134.001s-8.5 99.834 -8.5 162.501v944z" />
    <glyph glyph-name="ucth" unicode="&#x1b0;" horiz-adv-x="1270" 
d="M840 1135l272.002 -0.00292969v-271c38 0 65.333 21.167 82 63.5s25 111.5 25 207.5h149c-2 -120.667 -26.833 -212.667 -74.5 -276s-108.167 -95 -181.5 -95v-764h-250v121h-4c-54 -105.333 -150.333 -158 -289 -158c-68 0 -133 13.167 -195 39.5
s-116.333 65.833 -163 118.5c-24.667 26.667 -44 53.334 -58 80.001s-25 55.834 -33 87.501s-13 64.834 -15 99.501s-3 70 -3 106v641h273v-557c0 -108 11.667 -185.333 35 -232c17.333 -36 43.666 -64.5 78.999 -85.5s73.666 -31.5 114.999 -31.5
c93.333 0 156 32.5 188 97.5s48 148.833 48 251.5v557z" />
    <glyph glyph-name="circumflex" unicode="&#x2c6;" horiz-adv-x="1106" 
d="M152 1270l303 282h215l299 -282h-297l-111 131l-112 -131h-297z" />
    <glyph glyph-name="tilde" unicode="&#x2dc;" horiz-adv-x="983" 
d="M252 1278l-99.998 180c52.667 50.667 120.667 76 204 76c36.667 0 79.667 -9.5 129 -28.5s83 -28.5 101 -28.5c51.333 0 98.333 19 141 57l102 -174c-33.333 -30 -65 -52.5 -95 -67.5s-63.667 -22.5 -101 -22.5c-20.667 0 -43.334 3.33301 -68.001 10
s-46.334 13.167 -65.001 19.5s-37.167 11.833 -55.5 16.5s-37.5 7 -57.5 7c-49.333 0 -94.333 -15 -135 -45z" />
    <glyph glyph-name="abhuyenth" unicode="&#x300;" 
d="M-743 1708l86 158l340 -207l-80 -141z" />
    <glyph glyph-name="absacth" unicode="&#x301;" 
d="M-403 1427l-74 142l344 203l80 -160z" />
    <glyph glyph-name="absacth" unicode="&#x302;" 
d="M-403 1427l-74 142l344 203l80 -160z" />
    <glyph glyph-name="abngath" unicode="&#x303;" 
d="M-836 1595l-75.001 135.999c40 36.667 90.333 55 151 55c26.667 0 58.834 -7.16699 96.501 -21.5s62.167 -21.5 73.5 -21.5c38 0 73 13.667 105 41l75 -129c-23.333 -21.333 -46.666 -37.666 -69.999 -48.999s-48.333 -17 -75 -17c-20 0 -40.333 3.33301 -61 10
l-61.5 19.5c-20.333 6.33301 -39.5 9.5 -57.5 9.5c-36.667 0 -70.334 -11 -101.001 -33z" />
    <glyph glyph-name="abhoith" unicode="&#x309;" 
d="M-362 1657l-154 46.999c6 56.667 28.167 99.834 66.5 129.501s88.5 44.5 150.5 44.5c43.333 0 81.666 -9.33301 114.999 -28s59 -43.5 77 -74.5s27 -65.833 27 -104.5c0 -32 -9.5 -59 -28.5 -81s-48.5 -47.667 -88.5 -77c-21.333 -12.667 -36.5 -23.667 -45.5 -33
s-13.5 -22.666 -13.5 -39.999h-145v14c0 33.333 10.333 64.333 31 93s46.334 51.667 77.001 69c17.333 12.667 27.833 20.667 31.5 24s5.5 9.66602 5.5 18.999c0 35.333 -18.333 53 -55 53c-34 0 -51 -18.333 -51 -55z" />
    <glyph glyph-name="ananghoa" unicode="&#x323;" 
d="M-1012 -336v197h217v-197h-217z" />
    <glyph glyph-name="ananghoa" unicode="&#xf02b;" 
d="M-1012 -336v197h217v-197h-217z" />
    <glyph glyph-name="ananghoa" unicode="&#xf029;" 
d="M-1012 -336v197h217v-197h-217z" />
    <glyph glyph-name="ananghoa" unicode="&#xf022;" 
d="M-1012 -336v197h217v-197h-217z" />
    <glyph glyph-name="ananghoa" unicode="&#xf021;" 
d="M-1012 -336v197h217v-197h-217z" />
    <glyph glyph-name="ananghoa" unicode="&#xf020;" 
d="M-1012 -336v197h217v-197h-217z" />
    <glyph glyph-name="ananghoa" unicode="&#xf01f;" 
d="M-1012 -336v197h217v-197h-217z" />
    <glyph glyph-name="ananghoa" unicode="&#xf01e;" 
d="M-1012 -336v197h217v-197h-217z" />
    <glyph glyph-name="ahuyenhoa" unicode="&#x340;" 
d="M-1118 1812l86 158l340 -207l-80 -141z" />
    <glyph glyph-name="ahuyenhoa" unicode="&#xf00c;" 
d="M-1118 1812l86 158l340 -207l-80 -141z" />
    <glyph glyph-name="asachoa" unicode="&#x341;" 
d="M-993 1624l-74 141l344 203l80 -160z" />
    <glyph glyph-name="asachoa" unicode="&#xf007;" 
d="M-993 1624l-74 141l344 203l80 -160z" />
    <glyph glyph-name="angahoa" unicode="&#x342;" 
d="M-1047 1638l-75.001 135.999c40 36.667 90.333 55 151 55c26.667 0 58.834 -7.16699 96.501 -21.5s62.167 -21.5 73.5 -21.5c38 0 73 13.667 105 41l75 -129c-23.333 -21.333 -46.666 -37.666 -69.999 -48.999s-48.333 -17 -75 -17c-20 0 -40.333 3.33301 -61 10
l-61.5 19.5c-20.333 6.33301 -39.5 9.5 -57.5 9.5c-36.667 0 -70.334 -11 -101.001 -33z" />
    <glyph glyph-name="angahoa" unicode="&#xf030;" 
d="M-1047 1638l-75.001 135.999c40 36.667 90.333 55 151 55c26.667 0 58.834 -7.16699 96.501 -21.5s62.167 -21.5 73.5 -21.5c38 0 73 13.667 105 41l75 -129c-23.333 -21.333 -46.666 -37.666 -69.999 -48.999s-48.333 -17 -75 -17c-20 0 -40.333 3.33301 -61 10
l-61.5 19.5c-20.333 6.33301 -39.5 9.5 -57.5 9.5c-36.667 0 -70.334 -11 -101.001 -33z" />
    <glyph glyph-name="angahoa" unicode="&#xf02e;" 
d="M-1047 1638l-75.001 135.999c40 36.667 90.333 55 151 55c26.667 0 58.834 -7.16699 96.501 -21.5s62.167 -21.5 73.5 -21.5c38 0 73 13.667 105 41l75 -129c-23.333 -21.333 -46.666 -37.666 -69.999 -48.999s-48.333 -17 -75 -17c-20 0 -40.333 3.33301 -61 10
l-61.5 19.5c-20.333 6.33301 -39.5 9.5 -57.5 9.5c-36.667 0 -70.334 -11 -101.001 -33z" />
    <glyph glyph-name="angahoa" unicode="&#xf01c;" 
d="M-1047 1638l-75.001 135.999c40 36.667 90.333 55 151 55c26.667 0 58.834 -7.16699 96.501 -21.5s62.167 -21.5 73.5 -21.5c38 0 73 13.667 105 41l75 -129c-23.333 -21.333 -46.666 -37.666 -69.999 -48.999s-48.333 -17 -75 -17c-20 0 -40.333 3.33301 -61 10
l-61.5 19.5c-20.333 6.33301 -39.5 9.5 -57.5 9.5c-36.667 0 -70.334 -11 -101.001 -33z" />
    <glyph glyph-name="angahoa" unicode="&#xf017;" 
d="M-1047 1638l-75.001 135.999c40 36.667 90.333 55 151 55c26.667 0 58.834 -7.16699 96.501 -21.5s62.167 -21.5 73.5 -21.5c38 0 73 13.667 105 41l75 -129c-23.333 -21.333 -46.666 -37.666 -69.999 -48.999s-48.333 -17 -75 -17c-20 0 -40.333 3.33301 -61 10
l-61.5 19.5c-20.333 6.33301 -39.5 9.5 -57.5 9.5c-36.667 0 -70.334 -11 -101.001 -33z" />
    <glyph glyph-name="angahoa" unicode="&#xf016;" 
d="M-1047 1638l-75.001 135.999c40 36.667 90.333 55 151 55c26.667 0 58.834 -7.16699 96.501 -21.5s62.167 -21.5 73.5 -21.5c38 0 73 13.667 105 41l75 -129c-23.333 -21.333 -46.666 -37.666 -69.999 -48.999s-48.333 -17 -75 -17c-20 0 -40.333 3.33301 -61 10
l-61.5 19.5c-20.333 6.33301 -39.5 9.5 -57.5 9.5c-36.667 0 -70.334 -11 -101.001 -33z" />
    <glyph glyph-name="ahoanang" unicode="&#x1ea0;" horiz-adv-x="1516" 
d="M14 0l631 1513h219l637 -1513h-309l-164 391h-536l-168 -391h-310zM594 664h324l-162 458zM649 -319v196h217v-196h-217z" />
    <glyph glyph-name="athnang" unicode="&#x1ea1;" horiz-adv-x="1352" 
d="M1260 1135v-1135h-250v154h-4c-41.333 -58 -97.833 -104.333 -169.5 -139s-143.5 -52 -215.5 -52c-84.667 0 -162.667 16.667 -234 50s-132.666 80.333 -183.999 141c-94.667 113.333 -142 251 -142 413c0 50.667 4.83301 100.167 14.5 148.5s25 93.333 46 135
s49.5 83.167 85.5 124.5c57.333 66.667 121.166 116 191.499 148s147.166 48 230.499 48c78 0 149.833 -16.667 215.5 -50s120.834 -82 165.501 -146v160h250zM1001 569c0 48 -8 92.5 -24 133.5s-38.333 76.5 -67 106.5s-63.334 53.5 -104.001 70.5s-84.667 25.5 -132 25.5
c-99.333 0 -180.833 -32.833 -244.5 -98.5s-95.5 -148.834 -95.5 -249.501c0 -92 33 -169.667 99 -233s145 -95 237 -95c64 0 121.333 14.833 172 44.5s89.834 70.334 117.501 122.001s41.5 109.5 41.5 173.5zM551 -377v197h217v-197h-217z" />
    <glyph glyph-name="ahoahoi" unicode="&#x1ea2;" horiz-adv-x="1516" 
d="M14 0l631 1513h219l637 -1513h-309l-164 391h-536l-168 -391h-310zM594 664h324l-162 458zM709 1847l-154.001 46.999c6 56.667 28.167 99.834 66.5 129.501s88.5 44.5 150.5 44.5c65.333 0 118.166 -19.667 158.499 -59s60.5 -88.333 60.5 -147
c0 -32.667 -9.16699 -59.667 -27.5 -81s-48.166 -47 -89.499 -77c-20 -11.333 -34.833 -22.166 -44.5 -32.499s-14.5 -24.166 -14.5 -41.499h-145v15c0 34 10.333 65 31 93s46.334 50.667 77.001 68c10 7.33301 17.667 13.166 23 17.499s9 8.16602 11 11.499s3 8 3 14
c0 36 -18.333 54 -55 54c-34 0 -51 -18.667 -51 -56z" />
    <glyph glyph-name="athhoi" unicode="&#x1ea3;" horiz-adv-x="1352" 
d="M1260 1135v-1135h-250v154h-4c-41.333 -58 -97.833 -104.333 -169.5 -139s-143.5 -52 -215.5 -52c-84.667 0 -162.667 16.667 -234 50s-132.666 80.333 -183.999 141c-94.667 113.333 -142 251 -142 413c0 50.667 4.83301 100.167 14.5 148.5s25 93.333 46 135
s49.5 83.167 85.5 124.5c57.333 66.667 121.166 116 191.499 148s147.166 48 230.499 48c78 0 149.833 -16.667 215.5 -50s120.834 -82 165.501 -146v160h250zM1001 569c0 48 -8 92.5 -24 133.5s-38.333 76.5 -67 106.5s-63.334 53.5 -104.001 70.5s-84.667 25.5 -132 25.5
c-99.333 0 -180.833 -32.833 -244.5 -98.5s-95.5 -148.834 -95.5 -249.501c0 -92 33 -169.667 99 -233s145 -95 237 -95c64 0 121.333 14.833 172 44.5s89.834 70.334 117.501 122.001s41.5 109.5 41.5 173.5zM682 1516l-154.004 46.999
c6.66699 56.667 29.334 99.834 68.001 129.501s88.334 44.5 149.001 44.5c44.667 0 83.5 -9.33301 116.5 -28s58.5 -43.5 76.5 -74.5s27 -65.833 27 -104.5c0 -32.667 -9.16699 -59.667 -27.5 -81s-48.166 -47 -89.499 -77c-21.333 -12.667 -36.666 -23.834 -45.999 -33.501
s-14 -23.167 -14 -40.5h-145v15c0 34 10.5 65.5 31.5 94.5s46.833 51.5 77.5 67.5l20.5 15.5c5.66699 4.33301 9.66699 8.33301 12 12s3.5 8.83398 3.5 15.501c0 35.333 -18.333 53 -55 53c-34 0 -51 -18.333 -51 -55z" />
    <glyph glyph-name="abhoasac" unicode="&#x1ea4;" horiz-adv-x="1516" 
d="M14 0l631 1513h219l637 -1513h-309l-164 391h-536l-168 -391h-310zM594 664h324l-162 458zM457 1616l225 211h160l223 -211h-221l-82 98l-84 -98h-221zM1028 1788l-74 141l344 203l80 -160z" />
    <glyph glyph-name="abthsac" unicode="&#x1ea5;" horiz-adv-x="1352" 
d="M1260 1135v-1135h-250v154h-4c-41.333 -58 -97.833 -104.333 -169.5 -139s-143.5 -52 -215.5 -52c-84.667 0 -162.667 16.667 -234 50s-132.666 80.333 -183.999 141c-94.667 113.333 -142 251 -142 413c0 50.667 4.83301 100.167 14.5 148.5s25 93.333 46 135
s49.5 83.167 85.5 124.5c57.333 66.667 121.166 116 191.499 148s147.166 48 230.499 48c78 0 149.833 -16.667 215.5 -50s120.834 -82 165.501 -146v160h250zM1001 569c0 48 -8 92.5 -24 133.5s-38.333 76.5 -67 106.5s-63.334 53.5 -104.001 70.5s-84.667 25.5 -132 25.5
c-99.333 0 -180.833 -32.833 -244.5 -98.5s-95.5 -148.834 -95.5 -249.501c0 -92 33 -169.667 99 -233s145 -95 237 -95c64 0 121.333 14.833 172 44.5s89.834 70.334 117.501 122.001s41.5 109.5 41.5 173.5zM397 1276l226 211h159l224 -211h-222l-82 98l-84 -98h-221z
M969 1448l-74 141l344 203l80 -160z" />
    <glyph glyph-name="abhoahuyen" unicode="&#x1ea6;" horiz-adv-x="1516" 
d="M14 0l631 1513h219l637 -1513h-309l-164 391h-536l-168 -391h-310zM594 664h324l-162 458zM457 1616l225 211h160l223 -211h-221l-82 98l-84 -98h-221zM698 2017l86 158l340 -207l-80 -141z" />
    <glyph glyph-name="abthhuyen" unicode="&#x1ea7;" horiz-adv-x="1352" 
d="M1260 1135v-1135h-250v154h-4c-41.333 -58 -97.833 -104.333 -169.5 -139s-143.5 -52 -215.5 -52c-84.667 0 -162.667 16.667 -234 50s-132.666 80.333 -183.999 141c-94.667 113.333 -142 251 -142 413c0 50.667 4.83301 100.167 14.5 148.5s25 93.333 46 135
s49.5 83.167 85.5 124.5c57.333 66.667 121.166 116 191.499 148s147.166 48 230.499 48c78 0 149.833 -16.667 215.5 -50s120.834 -82 165.501 -146v160h250zM1001 569c0 48 -8 92.5 -24 133.5s-38.333 76.5 -67 106.5s-63.334 53.5 -104.001 70.5s-84.667 25.5 -132 25.5
c-99.333 0 -180.833 -32.833 -244.5 -98.5s-95.5 -148.834 -95.5 -249.501c0 -92 33 -169.667 99 -233s145 -95 237 -95c64 0 121.333 14.833 172 44.5s89.834 70.334 117.501 122.001s41.5 109.5 41.5 173.5zM397 1276l226 211h159l224 -211h-222l-82 98l-84 -98h-221z
M639 1677l86 158l340 -207l-80 -141z" />
    <glyph glyph-name="abhoahoi" unicode="&#x1ea8;" horiz-adv-x="1516" 
d="M14 0l631 1513h219l637 -1513h-309l-164 391h-536l-168 -391h-310zM594 664h324l-162 458zM457 1616l225 211h160l223 -211h-221l-82 98l-84 -98h-221zM1038 1997l-152.999 47.002c6 56.667 28.167 99.834 66.5 129.501s88.5 44.5 150.5 44.5
c43.333 0 81.666 -9.33301 114.999 -28s59 -43.5 77 -74.5s27 -65.833 27 -104.5c0 -32 -9.5 -59 -28.5 -81s-48.5 -47.667 -88.5 -77c-21.333 -12.667 -36.5 -23.834 -45.5 -33.501s-13.5 -22.834 -13.5 -39.501h-146v14c0 32 10.167 62.5 30.5 91.5s46.5 52.5 78.5 70.5
c17.333 12.667 27.833 20.667 31.5 24s5.5 9.66602 5.5 18.999c0 35.333 -18.333 53 -55 53c-34.667 0 -52 -18.333 -52 -55z" />
    <glyph glyph-name="abthhoi" unicode="&#x1ea9;" horiz-adv-x="1352" 
d="M1260 1135v-1135h-250v154h-4c-41.333 -58 -97.833 -104.333 -169.5 -139s-143.5 -52 -215.5 -52c-84.667 0 -162.667 16.667 -234 50s-132.666 80.333 -183.999 141c-94.667 113.333 -142 251 -142 413c0 50.667 4.83301 100.167 14.5 148.5s25 93.333 46 135
s49.5 83.167 85.5 124.5c57.333 66.667 121.166 116 191.499 148s147.166 48 230.499 48c78 0 149.833 -16.667 215.5 -50s120.834 -82 165.501 -146v160h250zM1001 569c0 48 -8 92.5 -24 133.5s-38.333 76.5 -67 106.5s-63.334 53.5 -104.001 70.5s-84.667 25.5 -132 25.5
c-99.333 0 -180.833 -32.833 -244.5 -98.5s-95.5 -148.834 -95.5 -249.501c0 -92 33 -169.667 99 -233s145 -95 237 -95c64 0 121.333 14.833 172 44.5s89.834 70.334 117.501 122.001s41.5 109.5 41.5 173.5zM397 1276l226 211h159l224 -211h-222l-82 98l-84 -98h-221z
M979 1657l-154.003 46.9971c6.66699 56.667 29.334 99.834 68.001 129.501s88.334 44.5 149.001 44.5c44 0 82.667 -9.33301 116 -28s59 -43.5 77 -74.5s27 -65.833 27 -104.5c0 -32 -9.5 -59 -28.5 -81s-48.5 -47.667 -88.5 -77
c-21.333 -12.667 -36.666 -23.667 -45.999 -33s-14 -22.666 -14 -39.999h-145v14c0 33.333 10.333 64.5 31 93.5s46.667 51.833 78 68.5l20.5 15.5c5.66699 4.33301 9.66699 8.33301 12 12s3.5 8.83398 3.5 15.501c0 35.333 -18.333 53 -55 53c-34 0 -51 -18.333 -51 -55z
" />
    <glyph glyph-name="abhoanga" unicode="&#x1eaa;" horiz-adv-x="1516" 
d="M14 0l631 1513h219l637 -1513h-309l-164 391h-536l-168 -391h-310zM594 664h324l-162 458zM457 1616l225 211h160l223 -211h-221l-82 98l-84 -98h-221zM575 1935l-75.001 135.999c40 36.667 90.333 55 151 55c26.667 0 58.834 -7.16699 96.501 -21.5
s62.167 -21.5 73.5 -21.5c38 0 73 13.667 105 41l75 -129c-23.333 -21.333 -46.666 -37.666 -69.999 -48.999s-48.333 -17 -75 -17c-20 0 -40.333 3.33301 -61 10l-61.5 19.5c-20.333 6.33301 -39.5 9.5 -57.5 9.5c-36.667 0 -70.334 -11 -101.001 -33z" />
    <glyph glyph-name="abthnga" unicode="&#x1eab;" horiz-adv-x="1352" 
d="M1260 1135v-1135h-250v154h-4c-41.333 -58 -97.833 -104.333 -169.5 -139s-143.5 -52 -215.5 -52c-84.667 0 -162.667 16.667 -234 50s-132.666 80.333 -183.999 141c-94.667 113.333 -142 251 -142 413c0 50.667 4.83301 100.167 14.5 148.5s25 93.333 46 135
s49.5 83.167 85.5 124.5c57.333 66.667 121.166 116 191.499 148s147.166 48 230.499 48c78 0 149.833 -16.667 215.5 -50s120.834 -82 165.501 -146v160h250zM1001 569c0 48 -8 92.5 -24 133.5s-38.333 76.5 -67 106.5s-63.334 53.5 -104.001 70.5s-84.667 25.5 -132 25.5
c-99.333 0 -180.833 -32.833 -244.5 -98.5s-95.5 -148.834 -95.5 -249.501c0 -92 33 -169.667 99 -233s145 -95 237 -95c64 0 121.333 14.833 172 44.5s89.834 70.334 117.501 122.001s41.5 109.5 41.5 173.5zM397 1276l226 211h159l224 -211h-222l-82 98l-84 -98h-221z
M516 1595l-76.0029 135.999c40 36.667 90.667 55 152 55c26.667 0 58.834 -7.16699 96.501 -21.5s62.167 -21.5 73.5 -21.5c38.667 0 73.334 13.667 104.001 41l76 -129c-23.333 -21.333 -46.666 -37.666 -69.999 -48.999s-48.333 -17 -75 -17c-20 0 -40.333 3.33301 -61 10
l-61.5 19.5c-20.333 6.33301 -39.833 9.5 -58.5 9.5c-36 0 -69.333 -11 -100 -33z" />
    <glyph glyph-name="abhoanang" unicode="&#x1eac;" horiz-adv-x="1516" 
d="M14 0l631 1513h219l637 -1513h-309l-164 391h-536l-168 -391h-310zM594 664h324l-162 458zM457 1616l225 211h160l223 -211h-221l-82 98l-84 -98h-221zM662 -324v197h217v-197h-217z" />
    <glyph glyph-name="abthnang" unicode="&#x1ead;" horiz-adv-x="1352" 
d="M1260 1135v-1135h-250v154h-4c-41.333 -58 -97.833 -104.333 -169.5 -139s-143.5 -52 -215.5 -52c-84.667 0 -162.667 16.667 -234 50s-132.666 80.333 -183.999 141c-94.667 113.333 -142 251 -142 413c0 50.667 4.83301 100.167 14.5 148.5s25 93.333 46 135
s49.5 83.167 85.5 124.5c57.333 66.667 121.166 116 191.499 148s147.166 48 230.499 48c78 0 149.833 -16.667 215.5 -50s120.834 -82 165.501 -146v160h250zM1001 569c0 48 -8 92.5 -24 133.5s-38.333 76.5 -67 106.5s-63.334 53.5 -104.001 70.5s-84.667 25.5 -132 25.5
c-99.333 0 -180.833 -32.833 -244.5 -98.5s-95.5 -148.834 -95.5 -249.501c0 -92 33 -169.667 99 -233s145 -95 237 -95c64 0 121.333 14.833 172 44.5s89.834 70.334 117.501 122.001s41.5 109.5 41.5 173.5zM397 1276l226 211h159l224 -211h-222l-82 98l-84 -98h-221z
M551 -356v196h217v-196h-217z" />
    <glyph glyph-name="aahoasac" unicode="&#x1eae;" horiz-adv-x="1516" 
d="M14 0l631 1513h219l637 -1513h-309l-164 391h-536l-168 -391h-310zM594 664h324l-162 458zM508 1800l150.999 0.00195312c8.66699 -18.667 22.334 -33.167 41.001 -43.5s38.667 -15.5 60 -15.5c22 0 42.167 5.16699 60.5 15.5s31.5 24.833 39.5 43.5h152
c-8 -66.667 -34.667 -117.834 -80 -153.501s-102.666 -53.5 -171.999 -53.5c-68.667 0 -125.834 17.667 -171.501 53s-72.5 86.666 -80.5 153.999zM720.999 1874l-74 141l344 203l80 -160z" />
    <glyph glyph-name="aathsac" unicode="&#x1eaf;" horiz-adv-x="1352" 
d="M1260 1135v-1135h-250v154h-4c-41.333 -58 -97.833 -104.333 -169.5 -139s-143.5 -52 -215.5 -52c-84.667 0 -162.667 16.667 -234 50s-132.666 80.333 -183.999 141c-94.667 113.333 -142 251 -142 413c0 50.667 4.83301 100.167 14.5 148.5s25 93.333 46 135
s49.5 83.167 85.5 124.5c57.333 66.667 121.166 116 191.499 148s147.166 48 230.499 48c78 0 149.833 -16.667 215.5 -50s120.834 -82 165.501 -146v160h250zM1001 569c0 48 -8 92.5 -24 133.5s-38.333 76.5 -67 106.5s-63.334 53.5 -104.001 70.5s-84.667 25.5 -132 25.5
c-99.333 0 -180.833 -32.833 -244.5 -98.5s-95.5 -148.834 -95.5 -249.501c0 -92 33 -169.667 99 -233s145 -95 237 -95c64 0 121.333 14.833 172 44.5s89.834 70.334 117.501 122.001s41.5 109.5 41.5 173.5zM489 1481l152 -0.000976562c7.33301 -18 20.5 -32.5 39.5 -43.5
s39.167 -16.5 60.5 -16.5c22 0 42.5 5.5 61.5 16.5s32.167 25.5 39.5 43.5h151c-8 -68 -34.5 -119.5 -79.5 -154.5s-102.5 -52.5 -172.5 -52.5c-69.333 0 -126.5 17.333 -171.5 52s-71.833 86.334 -80.5 155.001zM702 1554l-73 142l344 202l80 -159z" />
    <glyph glyph-name="aahoahuyen" unicode="&#x1eb0;" horiz-adv-x="1516" 
d="M14 0l631 1513h219l637 -1513h-309l-164 391h-536l-168 -391h-310zM594 664h324l-162 458zM508 1800l150.999 0.00195312c8.66699 -18.667 22.334 -33.167 41.001 -43.5s38.667 -15.5 60 -15.5c22 0 42.167 5.16699 60.5 15.5s31.5 24.833 39.5 43.5h152
c-8 -66.667 -34.667 -117.834 -80 -153.501s-102.666 -53.5 -171.999 -53.5c-68.667 0 -125.834 17.667 -171.501 53s-72.5 86.666 -80.5 153.999zM431.999 2073l86 157l340 -207l-80 -141z" />
    <glyph glyph-name="aathhuyen" unicode="&#x1eb1;" horiz-adv-x="1352" 
d="M1260 1135v-1135h-250v154h-4c-41.333 -58 -97.833 -104.333 -169.5 -139s-143.5 -52 -215.5 -52c-84.667 0 -162.667 16.667 -234 50s-132.666 80.333 -183.999 141c-94.667 113.333 -142 251 -142 413c0 50.667 4.83301 100.167 14.5 148.5s25 93.333 46 135
s49.5 83.167 85.5 124.5c57.333 66.667 121.166 116 191.499 148s147.166 48 230.499 48c78 0 149.833 -16.667 215.5 -50s120.834 -82 165.501 -146v160h250zM1001 569c0 48 -8 92.5 -24 133.5s-38.333 76.5 -67 106.5s-63.334 53.5 -104.001 70.5s-84.667 25.5 -132 25.5
c-99.333 0 -180.833 -32.833 -244.5 -98.5s-95.5 -148.834 -95.5 -249.501c0 -92 33 -169.667 99 -233s145 -95 237 -95c64 0 121.333 14.833 172 44.5s89.834 70.334 117.501 122.001s41.5 109.5 41.5 173.5zM489 1481l152 -0.000976562c7.33301 -18 20.5 -32.5 39.5 -43.5
s39.167 -16.5 60.5 -16.5c22 0 42.5 5.5 61.5 16.5s32.167 25.5 39.5 43.5h151c-8 -68 -34.5 -119.5 -79.5 -154.5s-102.5 -52.5 -172.5 -52.5c-69.333 0 -126.5 17.333 -171.5 52s-71.833 86.334 -80.5 155.001zM424 1763l86 158l340 -207l-80 -141z" />
    <glyph glyph-name="aahoahoi" unicode="&#x1eb2;" horiz-adv-x="1516" 
d="M14 0l631 1513h219l637 -1513h-309l-164 391h-536l-168 -391h-310zM594 664h324l-162 458zM508 1800l150.999 0.00195312c8.66699 -18.667 22.334 -33.167 41.001 -43.5s38.667 -15.5 60 -15.5c22 0 42.167 5.16699 60.5 15.5s31.5 24.833 39.5 43.5h152
c-8 -66.667 -34.667 -117.834 -80 -153.501s-102.666 -53.5 -171.999 -53.5c-68.667 0 -125.834 17.667 -171.501 53s-72.5 86.666 -80.5 153.999zM720.999 2093l-154.005 46.998c6.66699 56.667 29.334 99.834 68.001 129.5c38.667 29.667 88.334 44.5 149.001 44.5
c44 0 82.667 -9.33301 116 -28s59 -43.5 77 -74.5s27 -65.833 27 -104.5c0 -32 -9.16699 -58.667 -27.5 -80s-48.166 -47 -89.499 -77c-19.333 -11.333 -34.166 -22.166 -44.499 -32.499s-15.5 -24.166 -15.5 -41.499h-145v14c0 33.333 10.333 64.5 31 93.5
s46.667 51.833 78 68.5c6.66699 6 13.334 11.5 20.001 16.5s11 9.16699 13 12.5s3 8 3 14c0 35.333 -18.333 53 -55 53c-34 0 -51 -18.333 -51 -55z" />
    <glyph glyph-name="aathhoi" unicode="&#x1eb3;" horiz-adv-x="1352" 
d="M1260 1135v-1135h-250v154h-4c-41.333 -58 -97.833 -104.333 -169.5 -139s-143.5 -52 -215.5 -52c-84.667 0 -162.667 16.667 -234 50s-132.666 80.333 -183.999 141c-94.667 113.333 -142 251 -142 413c0 50.667 4.83301 100.167 14.5 148.5s25 93.333 46 135
s49.5 83.167 85.5 124.5c57.333 66.667 121.166 116 191.499 148s147.166 48 230.499 48c78 0 149.833 -16.667 215.5 -50s120.834 -82 165.501 -146v160h250zM1001 569c0 48 -8 92.5 -24 133.5s-38.333 76.5 -67 106.5s-63.334 53.5 -104.001 70.5s-84.667 25.5 -132 25.5
c-99.333 0 -180.833 -32.833 -244.5 -98.5s-95.5 -148.834 -95.5 -249.501c0 -92 33 -169.667 99 -233s145 -95 237 -95c64 0 121.333 14.833 172 44.5s89.834 70.334 117.501 122.001s41.5 109.5 41.5 173.5zM489 1481l152 -0.000976562c7.33301 -18 20.5 -32.5 39.5 -43.5
s39.167 -16.5 60.5 -16.5c22 0 42.5 5.5 61.5 16.5s32.167 25.5 39.5 43.5h151c-8 -68 -34.5 -119.5 -79.5 -154.5s-102.5 -52.5 -172.5 -52.5c-69.333 0 -126.5 17.333 -171.5 52s-71.833 86.334 -80.5 155.001zM692 1794l-153 47.002c6 56.667 28.167 99.834 66.5 129.501
s88.5 44.5 150.5 44.5c43.333 0 81.666 -9.33301 114.999 -28s59 -43.5 77 -74.5s27 -65.833 27 -104.5c0 -32 -9.16699 -58.667 -27.5 -80s-48.166 -47 -89.499 -77c-19.333 -11.333 -34 -22.333 -44 -33s-15 -24.334 -15 -41.001h-146v14c0 33.333 10.333 64.5 31 93.5
s46.667 51.833 78 68.5c10 7.33301 17.667 13.166 23 17.499s9 8.16602 11 11.499s3 8 3 14c0 35.333 -18.667 53 -56 53c-34 0 -51 -18.333 -51 -55z" />
    <glyph glyph-name="aahoanga" unicode="&#x1eb4;" horiz-adv-x="1516" 
d="M14 0l631 1513h219l637 -1513h-309l-164 391h-536l-168 -391h-310zM594 664h324l-162 458zM508 1800l150.999 0.00195312c8.66699 -18.667 22.334 -33.167 41.001 -43.5s38.667 -15.5 60 -15.5c22 0 42.167 5.16699 60.5 15.5s31.5 24.833 39.5 43.5h152
c-8 -66.667 -34.667 -117.834 -80 -153.501s-102.666 -53.5 -171.999 -53.5c-68.667 0 -125.834 17.667 -171.501 53s-72.5 86.666 -80.5 153.999zM564.999 1909l-76.002 135c38.667 36.667 89.334 55 152.001 55c26.667 0 58.834 -7.16699 96.501 -21.5
s62.167 -21.5 73.5 -21.5c37.333 0 72 13.667 104 41l76 -129c-48 -43.333 -96.333 -65 -145 -65c-20 0 -40.333 3.33301 -61 10l-61.5 19.5c-20.333 6.33301 -39.5 9.5 -57.5 9.5c-35.333 0 -69 -11 -101 -33z" />
    <glyph glyph-name="aathnga" unicode="&#x1eb5;" horiz-adv-x="1352" 
d="M1260 1135v-1135h-250v154h-4c-41.333 -58 -97.833 -104.333 -169.5 -139s-143.5 -52 -215.5 -52c-84.667 0 -162.667 16.667 -234 50s-132.666 80.333 -183.999 141c-94.667 113.333 -142 251 -142 413c0 50.667 4.83301 100.167 14.5 148.5s25 93.333 46 135
s49.5 83.167 85.5 124.5c57.333 66.667 121.166 116 191.499 148s147.166 48 230.499 48c78 0 149.833 -16.667 215.5 -50s120.834 -82 165.501 -146v160h250zM1001 569c0 48 -8 92.5 -24 133.5s-38.333 76.5 -67 106.5s-63.334 53.5 -104.001 70.5s-84.667 25.5 -132 25.5
c-99.333 0 -180.833 -32.833 -244.5 -98.5s-95.5 -148.834 -95.5 -249.501c0 -92 33 -169.667 99 -233s145 -95 237 -95c64 0 121.333 14.833 172 44.5s89.834 70.334 117.501 122.001s41.5 109.5 41.5 173.5zM489 1481l152 -0.000976562c7.33301 -18 20.5 -32.5 39.5 -43.5
s39.167 -16.5 60.5 -16.5c22 0 42.5 5.5 61.5 16.5s32.167 25.5 39.5 43.5h151c-8 -68 -34.5 -119.5 -79.5 -154.5s-102.5 -52.5 -172.5 -52.5c-69.333 0 -126.5 17.333 -171.5 52s-71.833 86.334 -80.5 155.001zM547 1589l-76.001 135c39.333 37.333 90 56 152 56
c25.333 0 56.833 -7.16699 94.5 -21.5s62.834 -21.5 75.501 -21.5c37.333 0 72 13.667 104 41l76 -129c-14.667 -14 -29.667 -25.833 -45 -35.5s-31.333 -17.167 -48 -22.5s-34.334 -8 -53.001 -8c-20 0 -40.167 3.33301 -60.5 10l-61 19.5
c-20.333 6.33301 -39.833 9.5 -58.5 9.5c-37.333 0 -70.666 -11 -99.999 -33z" />
    <glyph glyph-name="aahoanang" unicode="&#x1eb6;" horiz-adv-x="1516" 
d="M14 0l631 1513h219l637 -1513h-309l-164 391h-536l-168 -391h-310zM594 664h324l-162 458zM508 1800l150.999 0.00195312c8.66699 -18.667 22.334 -33.167 41.001 -43.5s38.667 -15.5 60 -15.5c22 0 42.167 5.16699 60.5 15.5s31.5 24.833 39.5 43.5h152
c-8 -66.667 -34.667 -117.834 -80 -153.501s-102.666 -53.5 -171.999 -53.5c-68.667 0 -125.834 17.667 -171.501 53s-72.5 86.666 -80.5 153.999zM661.999 -323.998v197h217v-197h-217z" />
    <glyph glyph-name="aathnang" unicode="&#x1eb7;" horiz-adv-x="1352" 
d="M1260 1135v-1135h-250v154h-4c-41.333 -58 -97.833 -104.333 -169.5 -139s-143.5 -52 -215.5 -52c-84.667 0 -162.667 16.667 -234 50s-132.666 80.333 -183.999 141c-94.667 113.333 -142 251 -142 413c0 50.667 4.83301 100.167 14.5 148.5s25 93.333 46 135
s49.5 83.167 85.5 124.5c57.333 66.667 121.166 116 191.499 148s147.166 48 230.499 48c78 0 149.833 -16.667 215.5 -50s120.834 -82 165.501 -146v160h250zM1001 569c0 48 -8 92.5 -24 133.5s-38.333 76.5 -67 106.5s-63.334 53.5 -104.001 70.5s-84.667 25.5 -132 25.5
c-99.333 0 -180.833 -32.833 -244.5 -98.5s-95.5 -148.834 -95.5 -249.501c0 -92 33 -169.667 99 -233s145 -95 237 -95c64 0 121.333 14.833 172 44.5s89.834 70.334 117.501 122.001s41.5 109.5 41.5 173.5zM489 1481l152 -0.000976562c7.33301 -18 20.5 -32.5 39.5 -43.5
s39.167 -16.5 60.5 -16.5c22 0 42.5 5.5 61.5 16.5s32.167 25.5 39.5 43.5h151c-8 -68 -34.5 -119.5 -79.5 -154.5s-102.5 -52.5 -172.5 -52.5c-69.333 0 -126.5 17.333 -171.5 52s-71.833 86.334 -80.5 155.001zM551 -356.001v196h217v-196h-217z" />
    <glyph glyph-name="ehoanang" unicode="&#x1eb8;" horiz-adv-x="1065" 
d="M139 0v1513h813v-272h-532v-348h510v-272h-510v-349h532v-272h-813zM436 -340v197h217v-197h-217z" />
    <glyph glyph-name="ethnang" unicode="&#x1eb9;" horiz-adv-x="1311" 
d="M1231 446l-880.997 -0.000976562c21.333 -66 59.5 -118.667 114.5 -158s116.5 -59 184.5 -59c50.667 0 99.167 8.83301 145.5 26.5s82.5 41.834 108.5 72.501h301c-22.667 -66.667 -61.834 -128 -117.501 -184s-121.334 -100.167 -197.001 -132.5
s-152.5 -48.5 -230.5 -48.5c-108.667 0 -208.667 26.667 -300 80s-163.833 126 -217.5 218s-80.5 191.333 -80.5 298c0 110.667 26.5 212.834 79.5 306.501s125.667 168 218 223s194.166 82.5 305.499 82.5c80 0 155.333 -15.833 226 -47.5s132.5 -75 185.5 -130
s94.5 -118.833 124.5 -191.5s45 -148.334 45 -227.001c0 -19.333 -4.66699 -62.333 -14 -129zM346.003 687.999h625c-14.667 44 -37.667 82.5 -69 115.5s-67.5 58.167 -108.5 75.5s-84.833 26 -131.5 26c-70 0 -135 -20.167 -195 -60.5s-100.333 -92.5 -121 -156.5z
M545.003 -356.001v196h217v-196h-217z" />
    <glyph glyph-name="ehoahoi" unicode="&#x1eba;" horiz-adv-x="1065" 
d="M139 0v1513h813v-272h-532v-348h510v-272h-510v-349h532v-272h-813zM526 1858l-153 47c6 56.667 28.167 99.834 66.5 129.501s88.5 44.5 150.5 44.5c43.333 0 81.666 -9.33301 114.999 -28s59 -43.5 77 -74.5s27 -65.833 27 -104.5c0 -32.667 -9.16699 -59.667 -27.5 -81
s-48.166 -47 -89.499 -77c-21.333 -12.667 -36.5 -24 -45.5 -34s-13.5 -23.333 -13.5 -40h-146v15c0 32.667 10.333 63.5 31 92.5s46.667 52.167 78 69.5c17.333 12.667 27.833 20.667 31.5 24s5.5 9.66602 5.5 18.999c0 35.333 -18.333 53 -55 53
c-34.667 0 -52 -18.333 -52 -55z" />
    <glyph glyph-name="ethhoi" unicode="&#x1ebb;" horiz-adv-x="1311" 
d="M1231 446l-880.997 -0.000976562c21.333 -66 59.5 -118.667 114.5 -158s116.5 -59 184.5 -59c50.667 0 99.167 8.83301 145.5 26.5s82.5 41.834 108.5 72.501h301c-22.667 -66.667 -61.834 -128 -117.501 -184s-121.334 -100.167 -197.001 -132.5
s-152.5 -48.5 -230.5 -48.5c-108.667 0 -208.667 26.667 -300 80s-163.833 126 -217.5 218s-80.5 191.333 -80.5 298c0 110.667 26.5 212.834 79.5 306.501s125.667 168 218 223s194.166 82.5 305.499 82.5c80 0 155.333 -15.833 226 -47.5s132.5 -75 185.5 -130
s94.5 -118.833 124.5 -191.5s45 -148.334 45 -227.001c0 -19.333 -4.66699 -62.333 -14 -129zM346.003 687.999h625c-14.667 44 -37.667 82.5 -69 115.5s-67.5 58.167 -108.5 75.5s-84.833 26 -131.5 26c-70 0 -135 -20.167 -195 -60.5s-100.333 -92.5 -121 -156.5z
M635.003 1505l-154.003 46.9961c6.66699 56.667 29.334 99.834 68.001 129.501s88.334 44.5 149.001 44.5c43.333 0 81.666 -9.16699 114.999 -27.5s59.166 -43.666 77.499 -75.999s27.5 -66.5 27.5 -102.5c0 -32.667 -9.16699 -59.667 -27.5 -81s-48.166 -47 -89.499 -77
c-19.333 -11.333 -34.166 -22.166 -44.499 -32.499s-15.5 -24.166 -15.5 -41.499h-145v15c0 34 10.333 65.167 31 93.5s46.667 50.833 78 67.5c6.66699 6 13.334 11.5 20.001 16.5s11 9.16699 13 12.5s3 8 3 14c0 36 -18.333 54 -55 54c-34 0 -51 -18.667 -51 -56z" />
    <glyph glyph-name="ehoanga" unicode="&#x1ebc;" horiz-adv-x="1065" 
d="M139 0v1513h813v-272h-532v-348h510v-272h-510v-349h532v-272h-813zM371 1622l-76.001 135c38.667 36.667 89 55 151 55c26.667 0 58.834 -7.16699 96.501 -21.5s62.167 -21.5 73.5 -21.5c36.667 0 71.667 13.667 105 41l76 -129c-48 -43.333 -96.667 -65 -146 -65
c-20 0 -40.167 3.33301 -60.5 10l-61 19.5c-20.333 6.33301 -39.833 9.5 -58.5 9.5c-36 0 -69.333 -11 -100 -33z" />
    <glyph glyph-name="ethnga" unicode="&#x1ebd;" horiz-adv-x="1311" 
d="M1231 446l-880.997 -0.000976562c21.333 -66 59.5 -118.667 114.5 -158s116.5 -59 184.5 -59c50.667 0 99.167 8.83301 145.5 26.5s82.5 41.834 108.5 72.501h301c-22.667 -66.667 -61.834 -128 -117.501 -184s-121.334 -100.167 -197.001 -132.5
s-152.5 -48.5 -230.5 -48.5c-108.667 0 -208.667 26.667 -300 80s-163.833 126 -217.5 218s-80.5 191.333 -80.5 298c0 110.667 26.5 212.834 79.5 306.501s125.667 168 218 223s194.166 82.5 305.499 82.5c80 0 155.333 -15.833 226 -47.5s132.5 -75 185.5 -130
s94.5 -118.833 124.5 -191.5s45 -148.334 45 -227.001c0 -19.333 -4.66699 -62.333 -14 -129zM346.003 687.999h625c-14.667 44 -37.667 82.5 -69 115.5s-67.5 58.167 -108.5 75.5s-84.833 26 -131.5 26c-70 0 -135 -20.167 -195 -60.5s-100.333 -92.5 -121 -156.5z
M479.003 1280l-76.002 135c38.667 36.667 89.334 55 152.001 55c26.667 0 58.834 -7.16699 96.501 -21.5s62.167 -21.5 73.5 -21.5c37.333 0 72 13.667 104 41l76 -129c-48 -43.333 -96.333 -65 -145 -65c-20 0 -40.333 3.33301 -61 10l-61.5 19.5
c-20.333 6.33301 -39.5 9.5 -57.5 9.5c-35.333 0 -69 -11 -101 -33z" />
    <glyph glyph-name="ebhoasac" unicode="&#x1ebe;" horiz-adv-x="1065" 
d="M139 0v1513h813v-272h-532v-348h510v-272h-510v-349h532v-272h-813zM231 1616l226 211h159l224 -211h-222l-81 98l-84 -98h-222zM803 1788l-74 141l344 203l80 -160z" />
    <glyph glyph-name="ebthsac" unicode="&#x1ebf;" horiz-adv-x="1311" 
d="M1231 446l-880.997 -0.000976562c21.333 -66 59.5 -118.667 114.5 -158s116.5 -59 184.5 -59c50.667 0 99.167 8.83301 145.5 26.5s82.5 41.834 108.5 72.501h301c-22.667 -66.667 -61.834 -128 -117.501 -184s-121.334 -100.167 -197.001 -132.5
s-152.5 -48.5 -230.5 -48.5c-108.667 0 -208.667 26.667 -300 80s-163.833 126 -217.5 218s-80.5 191.333 -80.5 298c0 110.667 26.5 212.834 79.5 306.501s125.667 168 218 223s194.166 82.5 305.499 82.5c80 0 155.333 -15.833 226 -47.5s132.5 -75 185.5 -130
s94.5 -118.833 124.5 -191.5s45 -148.334 45 -227.001c0 -19.333 -4.66699 -62.333 -14 -129zM346.003 687.999h625c-14.667 44 -37.667 82.5 -69 115.5s-67.5 58.167 -108.5 75.5s-84.833 26 -131.5 26c-70 0 -135 -20.167 -195 -60.5s-100.333 -92.5 -121 -156.5z
M346.003 1272l225 211h160l223 -211h-221l-82 98l-84 -98h-221zM918.003 1444l-74 141l344 203l80 -160z" />
    <glyph glyph-name="ebhoahuyen" unicode="&#x1ec0;" horiz-adv-x="1065" 
d="M139 0v1513h813v-272h-532v-348h510v-272h-510v-349h532v-272h-813zM231 1616l226 211h159l224 -211h-222l-81 98l-84 -98h-222zM473 2017l86 158l340 -207l-80 -141z" />
    <glyph glyph-name="ebthhuyen" unicode="&#x1ec1;" horiz-adv-x="1311" 
d="M1231 446l-880.997 -0.000976562c21.333 -66 59.5 -118.667 114.5 -158s116.5 -59 184.5 -59c50.667 0 99.167 8.83301 145.5 26.5s82.5 41.834 108.5 72.501h301c-22.667 -66.667 -61.834 -128 -117.501 -184s-121.334 -100.167 -197.001 -132.5
s-152.5 -48.5 -230.5 -48.5c-108.667 0 -208.667 26.667 -300 80s-163.833 126 -217.5 218s-80.5 191.333 -80.5 298c0 110.667 26.5 212.834 79.5 306.501s125.667 168 218 223s194.166 82.5 305.499 82.5c80 0 155.333 -15.833 226 -47.5s132.5 -75 185.5 -130
s94.5 -118.833 124.5 -191.5s45 -148.334 45 -227.001c0 -19.333 -4.66699 -62.333 -14 -129zM346.003 687.999h625c-14.667 44 -37.667 82.5 -69 115.5s-67.5 58.167 -108.5 75.5s-84.833 26 -131.5 26c-70 0 -135 -20.167 -195 -60.5s-100.333 -92.5 -121 -156.5z
M346.003 1272l225 211h160l223 -211h-221l-82 98l-84 -98h-221zM588.003 1673l86 158l340 -207l-80 -141z" />
    <glyph glyph-name="ebhoahoi" unicode="&#x1ec2;" horiz-adv-x="1065" 
d="M139 0v1513h813v-272h-532v-348h510v-272h-510v-349h532v-272h-813zM231 1616l226 211h159l224 -211h-222l-81 98l-84 -98h-222zM813 1997l-154 47c6.66699 56.667 29.334 99.834 68.001 129.501s88.667 44.5 150 44.5c43.333 0 81.666 -9.33301 114.999 -28
s59 -43.5 77 -74.5s27 -65.833 27 -104.5c0 -32 -9.5 -59 -28.5 -81s-48.5 -47.667 -88.5 -77c-21.333 -12.667 -36.5 -23.834 -45.5 -33.501s-13.5 -22.834 -13.5 -39.501h-146v14c0 33.333 10.333 64.5 31 93.5s46.667 51.833 78 68.5c8 6 15.167 11.167 21.5 15.5
s10.5 8.33301 12.5 12s3 8.83398 3 15.501c0 35.333 -18.667 53 -56 53c-34 0 -51 -18.333 -51 -55z" />
    <glyph glyph-name="ebthhoi" unicode="&#x1ec3;" horiz-adv-x="1311" 
d="M1231 446l-880.997 -0.000976562c21.333 -66 59.5 -118.667 114.5 -158s116.5 -59 184.5 -59c50.667 0 99.167 8.83301 145.5 26.5s82.5 41.834 108.5 72.501h301c-22.667 -66.667 -61.834 -128 -117.501 -184s-121.334 -100.167 -197.001 -132.5
s-152.5 -48.5 -230.5 -48.5c-108.667 0 -208.667 26.667 -300 80s-163.833 126 -217.5 218s-80.5 191.333 -80.5 298c0 110.667 26.5 212.834 79.5 306.501s125.667 168 218 223s194.166 82.5 305.499 82.5c80 0 155.333 -15.833 226 -47.5s132.5 -75 185.5 -130
s94.5 -118.833 124.5 -191.5s45 -148.334 45 -227.001c0 -19.333 -4.66699 -62.333 -14 -129zM346.003 687.999h625c-14.667 44 -37.667 82.5 -69 115.5s-67.5 58.167 -108.5 75.5s-84.833 26 -131.5 26c-70 0 -135 -20.167 -195 -60.5s-100.333 -92.5 -121 -156.5z
M346.003 1272l225 211h160l223 -211h-221l-82 98l-84 -98h-221zM928.003 1653l-154.001 46.999c6 56.667 28.167 99.834 66.5 129.501s88.5 44.5 150.5 44.5c43.333 0 81.666 -9.33301 114.999 -28s59 -43.5 77 -74.5s27 -65.833 27 -104.5c0 -32.667 -9 -59.667 -27 -81
s-47.667 -47 -89 -77c-21.333 -12.667 -36.666 -23.667 -45.999 -33s-14 -22.666 -14 -39.999h-145v14c0 33.333 10.333 64.333 31 93s46.334 51.667 77.001 69c17.333 12.667 27.833 20.667 31.5 24s5.5 9.66602 5.5 18.999c0 35.333 -18.333 53 -55 53
c-34 0 -51 -18.333 -51 -55z" />
    <glyph glyph-name="ebhoanga" unicode="&#x1ec4;" horiz-adv-x="1065" 
d="M139 0v1513h813v-272h-532v-348h510v-272h-510v-349h532v-272h-813zM231 1616l226 211h159l224 -211h-222l-81 98l-84 -98h-222zM350 1935l-76.002 135.999c40 36.667 90.667 55 152 55c26.667 0 58.834 -7.16699 96.501 -21.5s62.167 -21.5 73.5 -21.5
c38.667 0 73.334 13.667 104.001 41l76 -129c-23.333 -21.333 -46.666 -37.666 -69.999 -48.999s-48.333 -17 -75 -17c-20 0 -40.333 3.33301 -61 10l-61.5 19.5c-20.333 6.33301 -39.5 9.5 -57.5 9.5c-36.667 0 -70.334 -11 -101.001 -33z" />
    <glyph glyph-name="ebthnga" unicode="&#x1ec5;" horiz-adv-x="1311" 
d="M1231 446l-880.997 -0.000976562c21.333 -66 59.5 -118.667 114.5 -158s116.5 -59 184.5 -59c50.667 0 99.167 8.83301 145.5 26.5s82.5 41.834 108.5 72.501h301c-22.667 -66.667 -61.834 -128 -117.501 -184s-121.334 -100.167 -197.001 -132.5
s-152.5 -48.5 -230.5 -48.5c-108.667 0 -208.667 26.667 -300 80s-163.833 126 -217.5 218s-80.5 191.333 -80.5 298c0 110.667 26.5 212.834 79.5 306.501s125.667 168 218 223s194.166 82.5 305.499 82.5c80 0 155.333 -15.833 226 -47.5s132.5 -75 185.5 -130
s94.5 -118.833 124.5 -191.5s45 -148.334 45 -227.001c0 -19.333 -4.66699 -62.333 -14 -129zM346.003 687.999h625c-14.667 44 -37.667 82.5 -69 115.5s-67.5 58.167 -108.5 75.5s-84.833 26 -131.5 26c-70 0 -135 -20.167 -195 -60.5s-100.333 -92.5 -121 -156.5z
M346.003 1272l225 211h160l223 -211h-221l-82 98l-84 -98h-221zM465.003 1591l-75.9971 135c39.333 37.333 90 56 152 56c25.333 0 57.166 -7.16699 95.499 -21.5s63.166 -21.5 74.499 -21.5c37.333 0 72 13.667 104 41l76 -129c-14.667 -14 -29.667 -25.833 -45 -35.5
s-31.333 -17.167 -48 -22.5s-34.334 -8 -53.001 -8c-20 0 -40.167 3.33301 -60.5 10l-61 19.5c-20.333 6.33301 -39.833 9.5 -58.5 9.5c-36 0 -69.333 -11 -100 -33z" />
    <glyph glyph-name="ebhoanang" unicode="&#x1ec6;" horiz-adv-x="1065" 
d="M139 0v1513h813v-272h-532v-348h510v-272h-510v-349h532v-272h-813zM231 1616l226 211h159l224 -211h-222l-81 98l-84 -98h-222zM395 -324v197h217v-197h-217z" />
    <glyph glyph-name="ebthnang" unicode="&#x1ec7;" horiz-adv-x="1311" 
d="M1231 446l-880.997 -0.000976562c21.333 -66 59.5 -118.667 114.5 -158s116.5 -59 184.5 -59c50.667 0 99.167 8.83301 145.5 26.5s82.5 41.834 108.5 72.501h301c-22.667 -66.667 -61.834 -128 -117.501 -184s-121.334 -100.167 -197.001 -132.5
s-152.5 -48.5 -230.5 -48.5c-108.667 0 -208.667 26.667 -300 80s-163.833 126 -217.5 218s-80.5 191.333 -80.5 298c0 110.667 26.5 212.834 79.5 306.501s125.667 168 218 223s194.166 82.5 305.499 82.5c80 0 155.333 -15.833 226 -47.5s132.5 -75 185.5 -130
s94.5 -118.833 124.5 -191.5s45 -148.334 45 -227.001c0 -19.333 -4.66699 -62.333 -14 -129zM346.003 687.999h625c-14.667 44 -37.667 82.5 -69 115.5s-67.5 58.167 -108.5 75.5s-84.833 26 -131.5 26c-70 0 -135 -20.167 -195 -60.5s-100.333 -92.5 -121 -156.5z
M346.003 1272l225 211h160l223 -211h-221l-82 98l-84 -98h-221zM500.003 -360.001v196h217v-196h-217z" />
    <glyph glyph-name="ihoahoi" unicode="&#x1ec8;" horiz-adv-x="573" 
d="M139 0v1513h281v-1513h-281zM260 1858l-154.001 46.998c6.66699 56.667 29.334 99.834 68.001 129.501s88.667 44.5 150 44.5c43.333 0 81.666 -9.33301 114.999 -28s59 -43.5 77 -74.5s27 -65.833 27 -104.5c0 -32.667 -9.16699 -59.667 -27.5 -81
s-48.166 -47 -89.499 -77c-21.333 -12.667 -36.5 -24 -45.5 -34s-13.5 -23.333 -13.5 -40h-146v15c0 34 10.5 65.5 31.5 94.5s46.833 51.5 77.5 67.5c8 6 15.167 11.167 21.5 15.5s10.5 8.33301 12.5 12s3 8.83398 3 15.501c0 35.333 -18.667 53 -56 53
c-34 0 -51 -18.333 -51 -55z" />
    <glyph glyph-name="ithhoi" unicode="&#x1ec9;" horiz-adv-x="492" 
d="M111 0v1135h272v-1135h-272zM229 1489l-153 47.001c6 56.667 28.167 99.834 66.5 129.501s88.5 44.5 150.5 44.5c43.333 0 81.666 -9.33301 114.999 -28s59 -43.5 77 -74.5s27 -65.833 27 -104.5c0 -32 -9.16699 -58.667 -27.5 -80s-48.166 -47 -89.499 -77
c-19.333 -11.333 -34 -22.333 -44 -33s-15 -24.334 -15 -41.001h-146v14c0 32 10.167 62.5 30.5 91.5s46.5 52.5 78.5 70.5c17.333 12.667 27.833 20.667 31.5 24s5.5 9.66602 5.5 18.999c0 35.333 -18.333 53 -55 53c-34.667 0 -52 -18.333 -52 -55z" />
    <glyph glyph-name="ihoanang" unicode="&#x1eca;" horiz-adv-x="573" 
d="M139 0v1513h281v-1513h-281zM170 -340v197h217v-197h-217z" />
    <glyph glyph-name="ithnang" unicode="&#x1ecb;" horiz-adv-x="492" 
d="M111 0v1135h272v-1135h-272zM139 1266v196h217v-196h-217zM137 -330v197h217v-197h-217z" />
    <glyph glyph-name="ohoanang" unicode="&#x1ecc;" horiz-adv-x="1720" 
d="M850 1542c142 0 273.5 -35.166 394.5 -105.499s216.833 -166.666 287.5 -288.999s106 -254.833 106 -397.5c0 -143.333 -35.5 -275.333 -106.5 -396s-166.833 -216 -287.5 -286s-252 -105 -394 -105c-104 0 -204.5 20.167 -301.5 60.5s-182.167 97 -255.5 170
s-130.333 157.667 -171 254s-61 197.166 -61 302.499c0 142.667 35.333 275.167 106 397.5s166.667 218.666 288 288.999s253 105.5 395 105.5zM850 1270c-93.333 0 -178.671 -22.9971 -256.004 -68.9971s-138.666 -108.5 -183.999 -187.5s-68 -164.833 -68 -257.5
c0 -67.333 13.333 -132.833 40 -196.5s63.834 -119.834 111.501 -168.501s102.167 -86.667 163.5 -114s125.666 -41 192.999 -41c90.667 0 174.834 23.667 252.501 71s139.667 111.166 186 191.499s69.5 166.166 69.5 257.499c0 92.667 -22.667 178.5 -68 257.5
s-106.666 141.5 -183.999 187.5s-162.666 69 -255.999 69zM740.995 -355.996v196h217v-196h-217z" />
    <glyph glyph-name="othnang" unicode="&#x1ecd;" horiz-adv-x="1311" 
d="M674 1171c82.667 0 160.164 -15.833 232.497 -47.5s135.833 -75.5 190.5 -131.5s96.834 -120.5 126.501 -193.5s44.5 -150.833 44.5 -233.5c0 -82 -15.333 -159.333 -46 -232s-74.5 -137.334 -131.5 -194.001s-122.333 -100.167 -196 -130.5s-151.167 -45.5 -232.5 -45.5
c-107.333 0 -207.166 27.167 -299.499 81.5s-165.666 127.833 -219.999 220.5s-81.5 192.667 -81.5 300c0 84.667 15.833 163.834 47.5 237.501s75.5 138 131.5 193s121 98 195 129s153.667 46.5 239 46.5zM661.997 905c-40.667 0 -82.502 -9.33496 -125.502 -28.002
s-79.167 -44 -108.5 -76c-62.667 -63.333 -94 -142 -94 -236c0 -59.333 14.5 -115.166 43.5 -167.499s68.667 -93.5 119 -123.5s105.5 -45 165.5 -45c63.333 0 120.333 14.833 171 44.5s90.334 70.5 119.001 122.5s43 108.333 43 169s-14.667 117.334 -44 170.001
s-69.666 94.167 -120.999 124.5s-107.333 45.5 -168 45.5zM554.995 -356.002v196h217v-196h-217z" />
    <glyph glyph-name="ohoahoi" unicode="&#x1ece;" horiz-adv-x="1720" 
d="M850 1542c142 0 273.5 -35.166 394.5 -105.499s216.833 -166.666 287.5 -288.999s106 -254.833 106 -397.5c0 -143.333 -35.5 -275.333 -106.5 -396s-166.833 -216 -287.5 -286s-252 -105 -394 -105c-104 0 -204.5 20.167 -301.5 60.5s-182.167 97 -255.5 170
s-130.333 157.667 -171 254s-61 197.166 -61 302.499c0 142.667 35.333 275.167 106 397.5s166.667 218.666 288 288.999s253 105.5 395 105.5zM850 1270c-93.333 0 -178.671 -22.9971 -256.004 -68.9971s-138.666 -108.5 -183.999 -187.5s-68 -164.833 -68 -257.5
c0 -67.333 13.333 -132.833 40 -196.5s63.834 -119.834 111.501 -168.501s102.167 -86.667 163.5 -114s125.666 -41 192.999 -41c90.667 0 174.834 23.667 252.501 71s139.667 111.166 186 191.499s69.5 166.166 69.5 257.499c0 92.667 -22.667 178.5 -68 257.5
s-106.666 141.5 -183.999 187.5s-162.666 69 -255.999 69zM830.995 1866l-153.001 46.999c6 56.667 28.167 99.834 66.5 129.501s88.5 44.5 150.5 44.5c43.333 0 81.666 -9.33301 114.999 -28s59 -43.5 77 -74.5s27 -65.833 27 -104.5c0 -32.667 -9.16699 -59.667 -27.5 -81
s-48.166 -47 -89.499 -77c-21.333 -12.667 -36.5 -23.667 -45.5 -33s-13.5 -22.666 -13.5 -39.999h-145v14c0 33.333 10.333 64.333 31 93s46.334 51.667 77.001 69c17.333 12.667 27.833 20.667 31.5 24s5.5 9.66602 5.5 18.999c0 35.333 -18.333 53 -55 53
c-34.667 0 -52 -18.333 -52 -55z" />
    <glyph glyph-name="othhoi" unicode="&#x1ecf;" horiz-adv-x="1311" 
d="M674 1171c82.667 0 160.164 -15.833 232.497 -47.5s135.833 -75.5 190.5 -131.5s96.834 -120.5 126.501 -193.5s44.5 -150.833 44.5 -233.5c0 -82 -15.333 -159.333 -46 -232s-74.5 -137.334 -131.5 -194.001s-122.333 -100.167 -196 -130.5s-151.167 -45.5 -232.5 -45.5
c-107.333 0 -207.166 27.167 -299.499 81.5s-165.666 127.833 -219.999 220.5s-81.5 192.667 -81.5 300c0 84.667 15.833 163.834 47.5 237.501s75.5 138 131.5 193s121 98 195 129s153.667 46.5 239 46.5zM661.997 905c-40.667 0 -82.502 -9.33496 -125.502 -28.002
s-79.167 -44 -108.5 -76c-62.667 -63.333 -94 -142 -94 -236c0 -59.333 14.5 -115.166 43.5 -167.499s68.667 -93.5 119 -123.5s105.5 -45 165.5 -45c63.333 0 120.333 14.833 171 44.5s90.334 70.5 119.001 122.5s43 108.333 43 169s-14.667 117.334 -44 170.001
s-69.666 94.167 -120.999 124.5s-107.333 45.5 -168 45.5zM624.995 1505l-154.001 46.999c6 56.667 28.167 99.834 66.5 129.501s88.5 44.5 150.5 44.5c65.333 0 118.166 -19.667 158.499 -59s60.5 -88.333 60.5 -147c0 -32.667 -9 -59.667 -27 -81s-47.667 -47 -89 -77
c-19.333 -11.333 -34.166 -22.166 -44.499 -32.499s-15.5 -24.166 -15.5 -41.499h-145v15c0 34 10.333 65 31 93s46.334 50.667 77.001 68c10 7.33301 17.667 13.166 23 17.499s9 8.16602 11 11.499s3 8 3 14c0 36 -18.333 54 -55 54c-34 0 -51 -18.667 -51 -56z" />
    <glyph glyph-name="obhoasac" unicode="&#x1ed0;" horiz-adv-x="1720" 
d="M850 1542c142 0 273.5 -35.166 394.5 -105.499s216.833 -166.666 287.5 -288.999s106 -254.833 106 -397.5c0 -143.333 -35.5 -275.333 -106.5 -396s-166.833 -216 -287.5 -286s-252 -105 -394 -105c-104 0 -204.5 20.167 -301.5 60.5s-182.167 97 -255.5 170
s-130.333 157.667 -171 254s-61 197.166 -61 302.499c0 142.667 35.333 275.167 106 397.5s166.667 218.666 288 288.999s253 105.5 395 105.5zM850 1270c-93.333 0 -178.671 -22.9971 -256.004 -68.9971s-138.666 -108.5 -183.999 -187.5s-68 -164.833 -68 -257.5
c0 -67.333 13.333 -132.833 40 -196.5s63.834 -119.834 111.501 -168.501s102.167 -86.667 163.5 -114s125.666 -41 192.999 -41c90.667 0 174.834 23.667 252.501 71s139.667 111.166 186 191.499s69.5 166.166 69.5 257.499c0 92.667 -22.667 178.5 -68 257.5
s-106.666 141.5 -183.999 187.5s-162.666 69 -255.999 69zM542.995 1618l225 211h160l223 -211h-221l-82 98l-84 -98h-221zM1114 1790l-74 141l344 203l80 -160z" />
    <glyph glyph-name="obthsac" unicode="&#x1ed1;" horiz-adv-x="1311" 
d="M674 1171c82.667 0 160.164 -15.833 232.497 -47.5s135.833 -75.5 190.5 -131.5s96.834 -120.5 126.501 -193.5s44.5 -150.833 44.5 -233.5c0 -82 -15.333 -159.333 -46 -232s-74.5 -137.334 -131.5 -194.001s-122.333 -100.167 -196 -130.5s-151.167 -45.5 -232.5 -45.5
c-107.333 0 -207.166 27.167 -299.499 81.5s-165.666 127.833 -219.999 220.5s-81.5 192.667 -81.5 300c0 84.667 15.833 163.834 47.5 237.501s75.5 138 131.5 193s121 98 195 129s153.667 46.5 239 46.5zM661.997 905c-40.667 0 -82.502 -9.33496 -125.502 -28.002
s-79.167 -44 -108.5 -76c-62.667 -63.333 -94 -142 -94 -236c0 -59.333 14.5 -115.166 43.5 -167.499s68.667 -93.5 119 -123.5s105.5 -45 165.5 -45c63.333 0 120.333 14.833 171 44.5s90.334 70.5 119.001 122.5s43 108.333 43 169s-14.667 117.334 -44 170.001
s-69.666 94.167 -120.999 124.5s-107.333 45.5 -168 45.5zM353.995 1274l226 211h159l224 -211h-222l-82 98l-84 -98h-221zM925.995 1446l-74 141l344 203l80 -160z" />
    <glyph glyph-name="obhoahuyen" unicode="&#x1ed2;" horiz-adv-x="1720" 
d="M850 1542c142 0 273.5 -35.166 394.5 -105.499s216.833 -166.666 287.5 -288.999s106 -254.833 106 -397.5c0 -143.333 -35.5 -275.333 -106.5 -396s-166.833 -216 -287.5 -286s-252 -105 -394 -105c-104 0 -204.5 20.167 -301.5 60.5s-182.167 97 -255.5 170
s-130.333 157.667 -171 254s-61 197.166 -61 302.499c0 142.667 35.333 275.167 106 397.5s166.667 218.666 288 288.999s253 105.5 395 105.5zM850 1270c-93.333 0 -178.671 -22.9971 -256.004 -68.9971s-138.666 -108.5 -183.999 -187.5s-68 -164.833 -68 -257.5
c0 -67.333 13.333 -132.833 40 -196.5s63.834 -119.834 111.501 -168.501s102.167 -86.667 163.5 -114s125.666 -41 192.999 -41c90.667 0 174.834 23.667 252.501 71s139.667 111.166 186 191.499s69.5 166.166 69.5 257.499c0 92.667 -22.667 178.5 -68 257.5
s-106.666 141.5 -183.999 187.5s-162.666 69 -255.999 69zM542.995 1618l225 211h160l223 -211h-221l-82 98l-84 -98h-221zM783.995 2019l86 158l340 -207l-80 -141z" />
    <glyph glyph-name="obthhuyen" unicode="&#x1ed3;" horiz-adv-x="1311" 
d="M674 1171c82.667 0 160.164 -15.833 232.497 -47.5s135.833 -75.5 190.5 -131.5s96.834 -120.5 126.501 -193.5s44.5 -150.833 44.5 -233.5c0 -82 -15.333 -159.333 -46 -232s-74.5 -137.334 -131.5 -194.001s-122.333 -100.167 -196 -130.5s-151.167 -45.5 -232.5 -45.5
c-107.333 0 -207.166 27.167 -299.499 81.5s-165.666 127.833 -219.999 220.5s-81.5 192.667 -81.5 300c0 84.667 15.833 163.834 47.5 237.501s75.5 138 131.5 193s121 98 195 129s153.667 46.5 239 46.5zM661.997 905c-40.667 0 -82.502 -9.33496 -125.502 -28.002
s-79.167 -44 -108.5 -76c-62.667 -63.333 -94 -142 -94 -236c0 -59.333 14.5 -115.166 43.5 -167.499s68.667 -93.5 119 -123.5s105.5 -45 165.5 -45c63.333 0 120.333 14.833 171 44.5s90.334 70.5 119.001 122.5s43 108.333 43 169s-14.667 117.334 -44 170.001
s-69.666 94.167 -120.999 124.5s-107.333 45.5 -168 45.5zM353.995 1274l226 211h159l224 -211h-222l-82 98l-84 -98h-221zM595.995 1675l86 158l340 -207l-80 -141z" />
    <glyph glyph-name="obhoahoi" unicode="&#x1ed4;" horiz-adv-x="1720" 
d="M850 1542c142 0 273.5 -35.166 394.5 -105.499s216.833 -166.666 287.5 -288.999s106 -254.833 106 -397.5c0 -143.333 -35.5 -275.333 -106.5 -396s-166.833 -216 -287.5 -286s-252 -105 -394 -105c-104 0 -204.5 20.167 -301.5 60.5s-182.167 97 -255.5 170
s-130.333 157.667 -171 254s-61 197.166 -61 302.499c0 142.667 35.333 275.167 106 397.5s166.667 218.666 288 288.999s253 105.5 395 105.5zM850 1270c-93.333 0 -178.671 -22.9971 -256.004 -68.9971s-138.666 -108.5 -183.999 -187.5s-68 -164.833 -68 -257.5
c0 -67.333 13.333 -132.833 40 -196.5s63.834 -119.834 111.501 -168.501s102.167 -86.667 163.5 -114s125.666 -41 192.999 -41c90.667 0 174.834 23.667 252.501 71s139.667 111.166 186 191.499s69.5 166.166 69.5 257.499c0 92.667 -22.667 178.5 -68 257.5
s-106.666 141.5 -183.999 187.5s-162.666 69 -255.999 69zM542.995 1618l225 211h160l223 -211h-221l-82 98l-84 -98h-221zM1124 1999l-152.999 47.002c6 56.667 28.167 99.834 66.5 129.501s88.5 44.5 150.5 44.5c43.333 0 81.666 -9.33301 114.999 -28s59 -43.5 77 -74.5
s27 -65.833 27 -104.5c0 -32 -9.5 -59 -28.5 -81s-48.5 -47.667 -88.5 -77c-21.333 -12.667 -36.5 -23.834 -45.5 -33.501s-13.5 -22.834 -13.5 -39.501h-146v14c0 32 10.167 62.5 30.5 91.5s46.5 52.5 78.5 70.5c17.333 12.667 27.833 20.667 31.5 24
s5.5 9.66602 5.5 18.999c0 35.333 -18.333 53 -55 53c-34.667 0 -52 -18.333 -52 -55z" />
    <glyph glyph-name="obthhoi" unicode="&#x1ed5;" horiz-adv-x="1311" 
d="M674 1171c82.667 0 160.164 -15.833 232.497 -47.5s135.833 -75.5 190.5 -131.5s96.834 -120.5 126.501 -193.5s44.5 -150.833 44.5 -233.5c0 -82 -15.333 -159.333 -46 -232s-74.5 -137.334 -131.5 -194.001s-122.333 -100.167 -196 -130.5s-151.167 -45.5 -232.5 -45.5
c-107.333 0 -207.166 27.167 -299.499 81.5s-165.666 127.833 -219.999 220.5s-81.5 192.667 -81.5 300c0 84.667 15.833 163.834 47.5 237.501s75.5 138 131.5 193s121 98 195 129s153.667 46.5 239 46.5zM661.997 905c-40.667 0 -82.502 -9.33496 -125.502 -28.002
s-79.167 -44 -108.5 -76c-62.667 -63.333 -94 -142 -94 -236c0 -59.333 14.5 -115.166 43.5 -167.499s68.667 -93.5 119 -123.5s105.5 -45 165.5 -45c63.333 0 120.333 14.833 171 44.5s90.334 70.5 119.001 122.5s43 108.333 43 169s-14.667 117.334 -44 170.001
s-69.666 94.167 -120.999 124.5s-107.333 45.5 -168 45.5zM353.995 1274l226 211h159l224 -211h-222l-82 98l-84 -98h-221zM935.995 1655l-154.003 46.9971c6.66699 56.667 29.334 99.834 68.001 129.501s88.334 44.5 149.001 44.5c44 0 82.667 -9.33301 116 -28
s59 -43.5 77 -74.5s27 -65.833 27 -104.5c0 -32 -9.5 -59 -28.5 -81s-48.5 -47.667 -88.5 -77c-21.333 -12.667 -36.666 -23.667 -45.999 -33s-14 -22.666 -14 -39.999h-145v14c0 33.333 10.333 64.5 31 93.5s46.667 51.833 78 68.5l20.5 15.5
c5.66699 4.33301 9.66699 8.33301 12 12s3.5 8.83398 3.5 15.501c0 35.333 -18.333 53 -55 53c-34 0 -51 -18.333 -51 -55z" />
    <glyph glyph-name="obhoanga" unicode="&#x1ed6;" horiz-adv-x="1720" 
d="M850 1542c142 0 273.5 -35.166 394.5 -105.499s216.833 -166.666 287.5 -288.999s106 -254.833 106 -397.5c0 -143.333 -35.5 -275.333 -106.5 -396s-166.833 -216 -287.5 -286s-252 -105 -394 -105c-104 0 -204.5 20.167 -301.5 60.5s-182.167 97 -255.5 170
s-130.333 157.667 -171 254s-61 197.166 -61 302.499c0 142.667 35.333 275.167 106 397.5s166.667 218.666 288 288.999s253 105.5 395 105.5zM850 1270c-93.333 0 -178.671 -22.9971 -256.004 -68.9971s-138.666 -108.5 -183.999 -187.5s-68 -164.833 -68 -257.5
c0 -67.333 13.333 -132.833 40 -196.5s63.834 -119.834 111.501 -168.501s102.167 -86.667 163.5 -114s125.666 -41 192.999 -41c90.667 0 174.834 23.667 252.501 71s139.667 111.166 186 191.499s69.5 166.166 69.5 257.499c0 92.667 -22.667 178.5 -68 257.5
s-106.666 141.5 -183.999 187.5s-162.666 69 -255.999 69zM542.995 1618l225 211h160l223 -211h-221l-82 98l-84 -98h-221zM661.995 1937l-76.0029 135.999c40 36.667 90.333 55 151 55c26.667 0 58.834 -7.16699 96.501 -21.5s62.167 -21.5 73.5 -21.5
c38 0 73 13.667 105 41l75 -129c-23.333 -21.333 -46.666 -37.666 -69.999 -48.999s-48.333 -17 -75 -17c-20 0 -40.333 3.33301 -61 10l-61.5 19.5c-20.333 6.33301 -39.5 9.5 -57.5 9.5c-37.333 0 -70.666 -11 -99.999 -33z" />
    <glyph glyph-name="obthnga" unicode="&#x1ed7;" horiz-adv-x="1311" 
d="M674 1171c82.667 0 160.164 -15.833 232.497 -47.5s135.833 -75.5 190.5 -131.5s96.834 -120.5 126.501 -193.5s44.5 -150.833 44.5 -233.5c0 -82 -15.333 -159.333 -46 -232s-74.5 -137.334 -131.5 -194.001s-122.333 -100.167 -196 -130.5s-151.167 -45.5 -232.5 -45.5
c-107.333 0 -207.166 27.167 -299.499 81.5s-165.666 127.833 -219.999 220.5s-81.5 192.667 -81.5 300c0 84.667 15.833 163.834 47.5 237.501s75.5 138 131.5 193s121 98 195 129s153.667 46.5 239 46.5zM661.997 905c-40.667 0 -82.502 -9.33496 -125.502 -28.002
s-79.167 -44 -108.5 -76c-62.667 -63.333 -94 -142 -94 -236c0 -59.333 14.5 -115.166 43.5 -167.499s68.667 -93.5 119 -123.5s105.5 -45 165.5 -45c63.333 0 120.333 14.833 171 44.5s90.334 70.5 119.001 122.5s43 108.333 43 169s-14.667 117.334 -44 170.001
s-69.666 94.167 -120.999 124.5s-107.333 45.5 -168 45.5zM353.995 1274l226 211h159l224 -211h-222l-82 98l-84 -98h-221zM472.995 1593l-76.0029 135.999c40 36.667 90.667 55 152 55c26.667 0 58.834 -7.16699 96.501 -21.5s62.167 -21.5 73.5 -21.5
c38.667 0 73.334 13.667 104.001 41l76 -129c-23.333 -21.333 -46.666 -37.666 -69.999 -48.999s-48.333 -17 -75 -17c-20 0 -40.333 3.33301 -61 10l-61.5 19.5c-20.333 6.33301 -39.833 9.5 -58.5 9.5c-36 0 -69.333 -11 -100 -33z" />
    <glyph glyph-name="obhoanang" unicode="&#x1ed8;" horiz-adv-x="1720" 
d="M850 1542c142 0 273.5 -35.166 394.5 -105.499s216.833 -166.666 287.5 -288.999s106 -254.833 106 -397.5c0 -143.333 -35.5 -275.333 -106.5 -396s-166.833 -216 -287.5 -286s-252 -105 -394 -105c-104 0 -204.5 20.167 -301.5 60.5s-182.167 97 -255.5 170
s-130.333 157.667 -171 254s-61 197.166 -61 302.499c0 142.667 35.333 275.167 106 397.5s166.667 218.666 288 288.999s253 105.5 395 105.5zM850 1270c-93.333 0 -178.671 -22.9971 -256.004 -68.9971s-138.666 -108.5 -183.999 -187.5s-68 -164.833 -68 -257.5
c0 -67.333 13.333 -132.833 40 -196.5s63.834 -119.834 111.501 -168.501s102.167 -86.667 163.5 -114s125.666 -41 192.999 -41c90.667 0 174.834 23.667 252.501 71s139.667 111.166 186 191.499s69.5 166.166 69.5 257.499c0 92.667 -22.667 178.5 -68 257.5
s-106.666 141.5 -183.999 187.5s-162.666 69 -255.999 69zM542.995 1618l225 211h160l223 -211h-221l-82 98l-84 -98h-221zM706.995 -341.996v197h217v-197h-217z" />
    <glyph glyph-name="obthnang" unicode="&#x1ed9;" horiz-adv-x="1311" 
d="M674 1171c82.667 0 160.164 -15.833 232.497 -47.5s135.833 -75.5 190.5 -131.5s96.834 -120.5 126.501 -193.5s44.5 -150.833 44.5 -233.5c0 -82 -15.333 -159.333 -46 -232s-74.5 -137.334 -131.5 -194.001s-122.333 -100.167 -196 -130.5s-151.167 -45.5 -232.5 -45.5
c-107.333 0 -207.166 27.167 -299.499 81.5s-165.666 127.833 -219.999 220.5s-81.5 192.667 -81.5 300c0 84.667 15.833 163.834 47.5 237.501s75.5 138 131.5 193s121 98 195 129s153.667 46.5 239 46.5zM661.997 905c-40.667 0 -82.502 -9.33496 -125.502 -28.002
s-79.167 -44 -108.5 -76c-62.667 -63.333 -94 -142 -94 -236c0 -59.333 14.5 -115.166 43.5 -167.499s68.667 -93.5 119 -123.5s105.5 -45 165.5 -45c63.333 0 120.333 14.833 171 44.5s90.334 70.5 119.001 122.5s43 108.333 43 169s-14.667 117.334 -44 170.001
s-69.666 94.167 -120.999 124.5s-107.333 45.5 -168 45.5zM353.995 1274l226 211h159l224 -211h-222l-82 98l-84 -98h-221zM507.995 -358.002v196h217v-196h-217z" />
    <glyph glyph-name="ochoasac" unicode="&#x1eda;" horiz-adv-x="1720" 
d="M850 1542l2.00195 -1.99902c103.333 0 195.666 -14.667 276.999 -44s150 -67.333 206 -114s102.667 -97.667 140 -153c40.667 0 71.5 26.667 92.5 80s31.5 129.666 31.5 228.999h158c0 -84 -10.833 -155.833 -32.5 -215.5s-49.667 -104.5 -84 -134.5
s-69.833 -45 -106.5 -45c34.667 -54 61 -111 79 -171s27 -134 27 -222c0 -142.667 -35.5 -274.334 -106.5 -395.001s-167.333 -216.167 -289 -286.5s-252.5 -105.5 -392.5 -105.5c-104.667 0 -205.834 20.333 -303.501 61s-183 97.334 -256 170.001
s-129.833 156.667 -170.5 252s-61 196 -61 302c0 144.667 35.333 277.667 106 399s166.667 217.5 288 288.5s253 106.5 395 106.5zM1362 748.001c0 94 -23.001 181.001 -69.001 261.001s-108.5 143.167 -187.5 189.5s-164.167 69.5 -255.5 69.5l2 -6
c-94 0 -180 -23.333 -258 -70s-139.167 -109.334 -183.5 -188.001s-66.5 -165 -66.5 -259c0 -92 23 -177.167 69 -255.5s108.167 -140.666 186.5 -186.999s162.5 -69.5 252.5 -69.5c90.667 0 175.334 23.333 254.001 70s141 109.667 187 189s69 164.666 69 255.999z
M791.001 1647l-74 141l344 203l80 -160z" />
    <glyph glyph-name="octhsac" unicode="&#x1edb;" horiz-adv-x="1331" 
d="M674 1171l1.99902 -0.000976562c58 0 114 -9 168 -27s101.667 -40.833 143 -68.5s77.166 -56.834 107.499 -87.501s53.833 -61 70.5 -91c28.667 5.33301 49 16.333 61 33s20.167 42.834 24.5 78.501s6.5 89.834 6.5 162.501h158c0 -76 -10.333 -141.667 -31 -197
s-46.334 -97 -77.001 -125s-60.667 -42 -90 -42c14.667 -24.667 26.834 -59.167 36.501 -103.5s14.5 -90.5 14.5 -138.5c0 -82 -15.333 -159.333 -46 -232s-74.5 -137.334 -131.5 -194.001s-122.333 -100.167 -196 -130.5s-151.167 -45.5 -232.5 -45.5
c-107.333 0 -207.166 27.167 -299.499 81.5s-165.666 127.833 -219.999 220.5s-81.5 192.667 -81.5 300c0 84.667 15.833 163.834 47.5 237.501s75.5 138 131.5 193s121 98 195 129s153.667 46.5 239 46.5zM663.999 904.999c-40.667 0 -82.502 -9.33496 -125.502 -28.002
s-79.167 -44 -108.5 -76c-62.667 -63.333 -94 -142 -94 -236c0 -59.333 14.5 -115.166 43.5 -167.499s68.667 -93.5 119 -123.5s105.5 -45 165.5 -45c63.333 0 120.333 14.833 171 44.5s90.334 70.5 119.001 122.5s43 108.333 43 169s-14.667 117.334 -44 170.001
s-69.666 94.167 -120.999 124.5s-107.333 45.5 -168 45.5zM554.997 1266l-74 141l344 203l80 -160z" />
    <glyph glyph-name="ochoahuyen" unicode="&#x1edc;" horiz-adv-x="1720" 
d="M850 1542l2.00195 -1.99902c103.333 0 195.666 -14.667 276.999 -44s150 -67.333 206 -114s102.667 -97.667 140 -153c40.667 0 71.5 26.667 92.5 80s31.5 129.666 31.5 228.999h158c0 -84 -10.833 -155.833 -32.5 -215.5s-49.667 -104.5 -84 -134.5
s-69.833 -45 -106.5 -45c34.667 -54 61 -111 79 -171s27 -134 27 -222c0 -142.667 -35.5 -274.334 -106.5 -395.001s-167.333 -216.167 -289 -286.5s-252.5 -105.5 -392.5 -105.5c-104.667 0 -205.834 20.333 -303.501 61s-183 97.334 -256 170.001
s-129.833 156.667 -170.5 252s-61 196 -61 302c0 144.667 35.333 277.667 106 399s166.667 217.5 288 288.5s253 106.5 395 106.5zM1362 748.001c0 94 -23.001 181.001 -69.001 261.001s-108.5 143.167 -187.5 189.5s-164.167 69.5 -255.5 69.5l2 -6
c-94 0 -180 -23.333 -258 -70s-139.167 -109.334 -183.5 -188.001s-66.5 -165 -66.5 -259c0 -92 23 -177.167 69 -255.5s108.167 -140.666 186.5 -186.999s162.5 -69.5 252.5 -69.5c90.667 0 175.334 23.333 254.001 70s141 109.667 187 189s69 164.666 69 255.999z
M686.001 1845l86 158l340 -207l-80 -141z" />
    <glyph glyph-name="octhhuyen" unicode="&#x1edd;" horiz-adv-x="1331" 
d="M674 1171l1.99902 -0.000976562c58 0 114 -9 168 -27s101.667 -40.833 143 -68.5s77.166 -56.834 107.499 -87.501s53.833 -61 70.5 -91c28.667 5.33301 49 16.333 61 33s20.167 42.834 24.5 78.501s6.5 89.834 6.5 162.501h158c0 -76 -10.333 -141.667 -31 -197
s-46.334 -97 -77.001 -125s-60.667 -42 -90 -42c14.667 -24.667 26.834 -59.167 36.501 -103.5s14.5 -90.5 14.5 -138.5c0 -82 -15.333 -159.333 -46 -232s-74.5 -137.334 -131.5 -194.001s-122.333 -100.167 -196 -130.5s-151.167 -45.5 -232.5 -45.5
c-107.333 0 -207.166 27.167 -299.499 81.5s-165.666 127.833 -219.999 220.5s-81.5 192.667 -81.5 300c0 84.667 15.833 163.834 47.5 237.501s75.5 138 131.5 193s121 98 195 129s153.667 46.5 239 46.5zM663.999 904.999c-40.667 0 -82.502 -9.33496 -125.502 -28.002
s-79.167 -44 -108.5 -76c-62.667 -63.333 -94 -142 -94 -236c0 -59.333 14.5 -115.166 43.5 -167.499s68.667 -93.5 119 -123.5s105.5 -45 165.5 -45c63.333 0 120.333 14.833 171 44.5s90.334 70.5 119.001 122.5s43 108.333 43 169s-14.667 117.334 -44 170.001
s-69.666 94.167 -120.999 124.5s-107.333 45.5 -168 45.5zM480.997 1464l86 158l340 -207l-80 -141z" />
    <glyph glyph-name="ochoahoi" unicode="&#x1ede;" horiz-adv-x="1720" 
d="M850 1542l2.00195 -1.99902c103.333 0 195.666 -14.667 276.999 -44s150 -67.333 206 -114s102.667 -97.667 140 -153c40.667 0 71.5 26.667 92.5 80s31.5 129.666 31.5 228.999h158c0 -84 -10.833 -155.833 -32.5 -215.5s-49.667 -104.5 -84 -134.5
s-69.833 -45 -106.5 -45c34.667 -54 61 -111 79 -171s27 -134 27 -222c0 -142.667 -35.5 -274.334 -106.5 -395.001s-167.333 -216.167 -289 -286.5s-252.5 -105.5 -392.5 -105.5c-104.667 0 -205.834 20.333 -303.501 61s-183 97.334 -256 170.001
s-129.833 156.667 -170.5 252s-61 196 -61 302c0 144.667 35.333 277.667 106 399s166.667 217.5 288 288.5s253 106.5 395 106.5zM1362 748.001c0 94 -23.001 181.001 -69.001 261.001s-108.5 143.167 -187.5 189.5s-164.167 69.5 -255.5 69.5l2 -6
c-94 0 -180 -23.333 -258 -70s-139.167 -109.334 -183.5 -188.001s-66.5 -165 -66.5 -259c0 -92 23 -177.167 69 -255.5s108.167 -140.666 186.5 -186.999s162.5 -69.5 252.5 -69.5c90.667 0 175.334 23.333 254.001 70s141 109.667 187 189s69 164.666 69 255.999z
M811.001 1855l-154.003 47.998c6.66699 56.667 29.334 99.834 68.001 129.501s88.334 44.5 149.001 44.5c44.667 0 83.5 -9.33301 116.5 -28s58.5 -43.5 76.5 -74.5s27 -65.833 27 -104.5c0 -32.667 -9.16699 -59.667 -27.5 -81s-48.166 -47 -89.499 -77
c-21.333 -12.667 -36.5 -24 -45.5 -34s-13.5 -23.333 -13.5 -40h-146v15c0 34 10.5 65.5 31.5 94.5s46.833 51.5 77.5 67.5c8 6 15.167 11.167 21.5 15.5s10.5 8.33301 12.5 12s3 8.83398 3 15.501c0 35.333 -18.667 53 -56 53c-34 0 -51 -18.667 -51 -56z" />
    <glyph glyph-name="octhhoi" unicode="&#x1edf;" horiz-adv-x="1331" 
d="M674 1171l1.99902 -0.000976562c58 0 114 -9 168 -27s101.667 -40.833 143 -68.5s77.166 -56.834 107.499 -87.501s53.833 -61 70.5 -91c28.667 5.33301 49 16.333 61 33s20.167 42.834 24.5 78.501s6.5 89.834 6.5 162.501h158c0 -76 -10.333 -141.667 -31 -197
s-46.334 -97 -77.001 -125s-60.667 -42 -90 -42c14.667 -24.667 26.834 -59.167 36.501 -103.5s14.5 -90.5 14.5 -138.5c0 -82 -15.333 -159.333 -46 -232s-74.5 -137.334 -131.5 -194.001s-122.333 -100.167 -196 -130.5s-151.167 -45.5 -232.5 -45.5
c-107.333 0 -207.166 27.167 -299.499 81.5s-165.666 127.833 -219.999 220.5s-81.5 192.667 -81.5 300c0 84.667 15.833 163.834 47.5 237.501s75.5 138 131.5 193s121 98 195 129s153.667 46.5 239 46.5zM663.999 904.999c-40.667 0 -82.502 -9.33496 -125.502 -28.002
s-79.167 -44 -108.5 -76c-62.667 -63.333 -94 -142 -94 -236c0 -59.333 14.5 -115.166 43.5 -167.499s68.667 -93.5 119 -123.5s105.5 -45 165.5 -45c63.333 0 120.333 14.833 171 44.5s90.334 70.5 119.001 122.5s43 108.333 43 169s-14.667 117.334 -44 170.001
s-69.666 94.167 -120.999 124.5s-107.333 45.5 -168 45.5zM626.997 1505l-154.001 46.999c6 56.667 28.167 99.834 66.5 129.501s88.5 44.5 150.5 44.5c65.333 0 118.166 -19.667 158.499 -59s60.5 -88.333 60.5 -147c0 -32.667 -9 -59.667 -27 -81s-47.667 -47 -89 -77
c-19.333 -11.333 -34.166 -22.166 -44.499 -32.499s-15.5 -24.166 -15.5 -41.499h-145v15c0 34 10.333 65 31 93s46.334 50.667 77.001 68c10 7.33301 17.667 13.166 23 17.499s9 8.16602 11 11.499s3 8 3 14c0 36 -18.333 54 -55 54c-34 0 -51 -18.667 -51 -56z" />
    <glyph glyph-name="ochoanga" unicode="&#x1ee0;" horiz-adv-x="1720" 
d="M850 1542l2.00195 -1.99902c103.333 0 195.666 -14.667 276.999 -44s150 -67.333 206 -114s102.667 -97.667 140 -153c40.667 0 71.5 26.667 92.5 80s31.5 129.666 31.5 228.999h158c0 -84 -10.833 -155.833 -32.5 -215.5s-49.667 -104.5 -84 -134.5
s-69.833 -45 -106.5 -45c34.667 -54 61 -111 79 -171s27 -134 27 -222c0 -142.667 -35.5 -274.334 -106.5 -395.001s-167.333 -216.167 -289 -286.5s-252.5 -105.5 -392.5 -105.5c-104.667 0 -205.834 20.333 -303.501 61s-183 97.334 -256 170.001
s-129.833 156.667 -170.5 252s-61 196 -61 302c0 144.667 35.333 277.667 106 399s166.667 217.5 288 288.5s253 106.5 395 106.5zM1362 748.001c0 94 -23.001 181.001 -69.001 261.001s-108.5 143.167 -187.5 189.5s-164.167 69.5 -255.5 69.5l2 -6
c-94 0 -180 -23.333 -258 -70s-139.167 -109.334 -183.5 -188.001s-66.5 -165 -66.5 -259c0 -92 23 -177.167 69 -255.5s108.167 -140.666 186.5 -186.999s162.5 -69.5 252.5 -69.5c90.667 0 175.334 23.333 254.001 70s141 109.667 187 189s69 164.666 69 255.999z
M686.001 1651l-76.002 135c38.667 36.667 89.334 55 152.001 55c26.667 0 58.834 -7.16699 96.501 -21.5s62.167 -21.5 73.5 -21.5c37.333 0 72 13.667 104 41l76 -129c-48 -43.333 -96.333 -65 -145 -65c-20 0 -40.333 3.16699 -61 9.5l-61.5 19
c-20.333 6.33301 -39.833 9.5 -58.5 9.5c-36 0 -69.333 -10.667 -100 -32z" />
    <glyph glyph-name="octhnga" unicode="&#x1ee1;" horiz-adv-x="1331" 
d="M674 1171l1.99902 -0.000976562c58 0 114 -9 168 -27s101.667 -40.833 143 -68.5s77.166 -56.834 107.499 -87.501s53.833 -61 70.5 -91c28.667 5.33301 49 16.333 61 33s20.167 42.834 24.5 78.501s6.5 89.834 6.5 162.501h158c0 -76 -10.333 -141.667 -31 -197
s-46.334 -97 -77.001 -125s-60.667 -42 -90 -42c14.667 -24.667 26.834 -59.167 36.501 -103.5s14.5 -90.5 14.5 -138.5c0 -82 -15.333 -159.333 -46 -232s-74.5 -137.334 -131.5 -194.001s-122.333 -100.167 -196 -130.5s-151.167 -45.5 -232.5 -45.5
c-107.333 0 -207.166 27.167 -299.499 81.5s-165.666 127.833 -219.999 220.5s-81.5 192.667 -81.5 300c0 84.667 15.833 163.834 47.5 237.501s75.5 138 131.5 193s121 98 195 129s153.667 46.5 239 46.5zM663.999 904.999c-40.667 0 -82.502 -9.33496 -125.502 -28.002
s-79.167 -44 -108.5 -76c-62.667 -63.333 -94 -142 -94 -236c0 -59.333 14.5 -115.166 43.5 -167.499s68.667 -93.5 119 -123.5s105.5 -45 165.5 -45c63.333 0 120.333 14.833 171 44.5s90.334 70.5 119.001 122.5s43 108.333 43 169s-14.667 117.334 -44 170.001
s-69.666 94.167 -120.999 124.5s-107.333 45.5 -168 45.5zM491.997 1280l-76 135.002c38.667 36.667 89 55 151 55c26.667 0 58.834 -7.16699 96.501 -21.5s62.167 -21.5 73.5 -21.5c36.667 0 71.667 13.667 105 41l76 -129c-48.667 -43.333 -97.334 -65 -146.001 -65
c-10.667 0 -25 2.16699 -43 6.5s-35.333 9.16602 -52 14.499s-31 9.66602 -43 12.999s-26 5 -42 5c-36 0 -69.333 -11 -100 -33z" />
    <glyph glyph-name="ochoanang" unicode="&#x1ee2;" horiz-adv-x="1720" 
d="M850 1542l2.00195 -1.99902c103.333 0 195.666 -14.667 276.999 -44s150 -67.333 206 -114s102.667 -97.667 140 -153c40.667 0 71.5 26.667 92.5 80s31.5 129.666 31.5 228.999h158c0 -84 -10.833 -155.833 -32.5 -215.5s-49.667 -104.5 -84 -134.5
s-69.833 -45 -106.5 -45c34.667 -54 61 -111 79 -171s27 -134 27 -222c0 -142.667 -35.5 -274.334 -106.5 -395.001s-167.333 -216.167 -289 -286.5s-252.5 -105.5 -392.5 -105.5c-104.667 0 -205.834 20.333 -303.501 61s-183 97.334 -256 170.001
s-129.833 156.667 -170.5 252s-61 196 -61 302c0 144.667 35.333 277.667 106 399s166.667 217.5 288 288.5s253 106.5 395 106.5zM1362 748.001c0 94 -23.001 181.001 -69.001 261.001s-108.5 143.167 -187.5 189.5s-164.167 69.5 -255.5 69.5l2 -6
c-94 0 -180 -23.333 -258 -70s-139.167 -109.334 -183.5 -188.001s-66.5 -165 -66.5 -259c0 -92 23 -177.167 69 -255.5s108.167 -140.666 186.5 -186.999s162.5 -69.5 252.5 -69.5c90.667 0 175.334 23.333 254.001 70s141 109.667 187 189s69 164.666 69 255.999z
M731.001 -355.998v196h217v-196h-217z" />
    <glyph glyph-name="octhnang" unicode="&#x1ee3;" horiz-adv-x="1331" 
d="M674 1171l1.99902 -0.000976562c58 0 114 -9 168 -27s101.667 -40.833 143 -68.5s77.166 -56.834 107.499 -87.501s53.833 -61 70.5 -91c28.667 5.33301 49 16.333 61 33s20.167 42.834 24.5 78.501s6.5 89.834 6.5 162.501h158c0 -76 -10.333 -141.667 -31 -197
s-46.334 -97 -77.001 -125s-60.667 -42 -90 -42c14.667 -24.667 26.834 -59.167 36.501 -103.5s14.5 -90.5 14.5 -138.5c0 -82 -15.333 -159.333 -46 -232s-74.5 -137.334 -131.5 -194.001s-122.333 -100.167 -196 -130.5s-151.167 -45.5 -232.5 -45.5
c-107.333 0 -207.166 27.167 -299.499 81.5s-165.666 127.833 -219.999 220.5s-81.5 192.667 -81.5 300c0 84.667 15.833 163.834 47.5 237.501s75.5 138 131.5 193s121 98 195 129s153.667 46.5 239 46.5zM663.999 904.999c-40.667 0 -82.502 -9.33496 -125.502 -28.002
s-79.167 -44 -108.5 -76c-62.667 -63.333 -94 -142 -94 -236c0 -59.333 14.5 -115.166 43.5 -167.499s68.667 -93.5 119 -123.5s105.5 -45 165.5 -45c63.333 0 120.333 14.833 171 44.5s90.334 70.5 119.001 122.5s43 108.333 43 169s-14.667 117.334 -44 170.001
s-69.666 94.167 -120.999 124.5s-107.333 45.5 -168 45.5zM556.997 -356.003v196h217v-196h-217z" />
    <glyph glyph-name="uhoanang" unicode="&#x1ee4;" horiz-adv-x="1311" 
d="M139 1513l281.002 -0.00390625v-944c0 -46.667 1.5 -84.5 4.5 -113.5s11.167 -59.167 24.5 -90.5c20 -39.333 47.667 -70.666 83 -93.999s74.333 -35 117 -35c38 0 74.667 10 110 30s62.333 45.333 81 76s30.167 63 34.5 97s6.5 77.333 6.5 130v944h280v-944
c0 -88.667 -7 -165.167 -21 -229.5s-43.667 -124.166 -89 -179.499c-34 -40.667 -72.333 -75.5 -115 -104.5s-88.667 -51.667 -138 -68s-99 -24.5 -149 -24.5c-68.667 0 -138.334 17.167 -209.001 51.5s-130 78.5 -178 132.5c-33.333 38 -59.333 79.833 -78 125.5
s-30.834 90.834 -36.501 135.501s-8.5 98.334 -8.5 161.001v944zM541.002 -367.004v197h217v-197h-217z" />
    <glyph glyph-name="uthnang" unicode="&#x1ee5;" horiz-adv-x="1229" 
d="M848 1135l271.999 0.000976562v-1135h-250v121h-4c-54 -105.333 -150 -158 -288 -158c-68.667 0 -134 13.167 -196 39.5s-116.333 65.833 -163 118.5c-32 34 -55.833 70 -71.5 108s-25.667 77.833 -30 119.5s-6.5 90.167 -6.5 145.5v641h272v-557
c0 -108 11.667 -185.333 35 -232c18.667 -36.667 45.334 -65.334 80.001 -86.001s72.667 -31 114 -31c93.333 0 156 32.5 188 97.5s48 148.833 48 251.5v557zM505.999 -366.999v197h217v-197h-217z" />
    </font>
</defs>
</svg>
